<svg width="1363" height="115" viewBox="0 0 1363 115" fill="none" xmlns="http://www.w3.org/2000/svg">
<path d="M36.718 67.18H16.02V113H0.220001V2.39999H48.568C55.9413 2.39999 62.2613 3.82199 67.528 6.66599C72.9 9.40466 76.9553 13.2493 79.694 18.2C82.538 23.0453 83.96 28.5753 83.96 34.79C83.96 43.1113 81.4847 50.2213 76.534 56.12C71.5833 61.9133 64.6313 65.442 55.678 66.706L92.492 113H72.584L36.718 67.18ZM16.02 52.802H47.62C53.94 52.802 58.7853 51.2747 62.156 48.22C65.632 45.06 67.37 40.5833 67.37 34.79C67.37 28.9967 65.632 24.5727 62.156 21.518C58.7853 18.358 53.94 16.778 47.62 16.778H16.02V52.802ZM126.398 17.252V50.274H180.118V65.126H126.398V98.148H184.858V113H110.598V2.39999H184.858V17.252H126.398ZM305.82 2.39999L270.902 113H233.298L198.38 2.39999H214.812L244.674 98.464H259.684L289.862 2.39999H305.82ZM342.987 17.252V50.274H396.707V65.126H342.987V98.148H401.447V113H327.187V2.39999H401.447V17.252H342.987ZM522.336 113H506.536V17.568H443.336V113H427.536V2.39999H522.336V113ZM647.989 2.39999V113H553.189V2.39999H568.989V97.832H632.189V2.39999H647.989ZM694.642 17.252V50.274H748.362V65.126H694.642V98.148H753.102V113H678.842V2.39999H753.102V17.252H694.642ZM908.794 17.568H869.294V113H853.494V17.568H813.994V2.39999H908.794V17.568ZM970.426 114.58C959.788 114.58 950.044 112.105 941.196 107.154C932.348 102.098 925.396 95.2513 920.34 86.614C915.284 77.8713 912.756 68.2333 912.756 57.7C912.756 47.1667 915.284 37.5813 920.34 28.944C925.396 20.2013 932.348 13.3547 941.196 8.40399C950.044 3.34799 959.788 0.819994 970.426 0.819994C981.065 0.819994 990.808 3.34799 999.656 8.40399C1008.5 13.3547 1015.46 20.2013 1020.51 28.944C1025.57 37.5813 1028.1 47.1667 1028.1 57.7C1028.1 68.2333 1025.57 77.8713 1020.51 86.614C1015.46 95.2513 1008.5 102.098 999.656 107.154C990.808 112.105 981.065 114.58 970.426 114.58ZM970.426 99.412C978.01 99.412 984.91 97.5687 991.124 93.882C997.444 90.1953 1002.4 85.192 1005.98 78.872C1009.66 72.4467 1011.51 65.3893 1011.51 57.7C1011.51 50.0107 1009.66 43.006 1005.98 36.686C1002.4 30.2607 997.444 25.2047 991.124 21.518C984.91 17.8313 978.01 15.988 970.426 15.988C962.842 15.988 955.89 17.8313 949.57 21.518C943.356 25.2047 938.405 30.2607 934.718 36.686C931.137 43.006 929.346 50.0107 929.346 57.7C929.346 65.3893 931.137 72.4467 934.718 78.872C938.405 85.192 943.356 90.1953 949.57 93.882C955.89 97.5687 962.842 99.412 970.426 99.412ZM1086.61 65.284H1067.65V113H1051.85V2.39999H1067.65V50.116H1086.29L1126.74 2.39999H1145.07L1099.25 56.278L1146.01 113H1126.11L1086.61 65.284ZM1183.12 17.252V50.274H1236.84V65.126H1183.12V98.148H1241.58V113H1167.32V2.39999H1241.58V17.252H1183.12ZM1362.46 113H1346.66V17.568H1283.46V113H1267.66V2.39999H1362.46V113Z" fill="#EAEAEA"/>
</svg>
