<svg width="969" height="121" viewBox="0 0 969 121" fill="none" xmlns="http://www.w3.org/2000/svg">
<path d="M42.05 7.72H24.55V50H17.55V7.72H0.05V0.999997H42.05V7.72ZM92.4418 0.999997V50H85.4418V28.86H57.4418V50H50.4418V0.999997H57.4418V22.14H85.4418V0.999997H92.4418ZM113.111 7.58V22.21H136.911V28.79H113.111V43.42H139.011V50H106.111V0.999997H139.011V7.58H113.111ZM213.238 0.999997V50H171.238V0.999997H178.238V43.28H206.238V0.999997H213.238ZM259.807 43.28V50H226.907V0.999997H233.907V43.28H259.807ZM296.563 7.72H279.063V50H272.063V7.72H254.563V0.999997H296.563V7.72ZM311.955 0.999997V50H304.955V0.999997H311.955ZM391.424 50H384.424V7.72H362.024V50H355.024V7.72H332.624V50H325.624V0.999997H391.424V50ZM437.002 38.8H410.752L407.252 50H400.182L415.652 0.999997H432.312L447.782 50H440.502L437.002 38.8ZM435.042 32.36L427.272 7.44H420.622L412.782 32.36H435.042ZM486.29 7.72H468.79V50H461.79V7.72H444.29V0.999997H486.29V7.72ZM501.682 7.58V22.21H525.482V28.79H501.682V43.42H527.582V50H494.682V0.999997H527.582V7.58H501.682ZM581.229 0.999997C584.496 0.999997 587.296 1.63 589.629 2.89C592.009 4.10333 593.806 5.80667 595.019 8C596.279 10.1467 596.909 12.5967 596.909 15.35C596.909 18.1033 596.279 20.5767 595.019 22.77C593.806 24.9167 592.009 26.62 589.629 27.88C587.296 29.0933 584.496 29.7 581.229 29.7H566.809V50H559.809V0.999997H581.229ZM581.019 23.19C583.819 23.19 585.943 22.5367 587.389 21.23C588.836 19.8767 589.559 17.9167 589.559 15.35C589.559 12.7833 588.836 10.8467 587.389 9.54C585.943 8.23333 583.819 7.58 581.019 7.58H566.809V23.19H581.019ZM628.787 50.7C624.073 50.7 619.757 49.6033 615.837 47.41C611.917 45.17 608.837 42.1367 606.597 38.31C604.357 34.4367 603.237 30.1667 603.237 25.5C603.237 20.8333 604.357 16.5867 606.597 12.76C608.837 8.88667 611.917 5.85333 615.837 3.66C619.757 1.42 624.073 0.299997 628.787 0.299997C633.5 0.299997 637.817 1.42 641.737 3.66C645.657 5.85333 648.737 8.88667 650.977 12.76C653.217 16.5867 654.337 20.8333 654.337 25.5C654.337 30.1667 653.217 34.4367 650.977 38.31C648.737 42.1367 645.657 45.17 641.737 47.41C637.817 49.6033 633.5 50.7 628.787 50.7ZM628.787 43.98C632.147 43.98 635.203 43.1633 637.957 41.53C640.757 39.8967 642.95 37.68 644.537 34.88C646.17 32.0333 646.987 28.9067 646.987 25.5C646.987 22.0933 646.17 18.99 644.537 16.19C642.95 13.3433 640.757 11.1033 637.957 9.47C635.203 7.83666 632.147 7.02 628.787 7.02C625.427 7.02 622.347 7.83666 619.547 9.47C616.793 11.1033 614.6 13.3433 612.967 16.19C611.38 18.99 610.587 22.0933 610.587 25.5C610.587 28.9067 611.38 32.0333 612.967 34.88C614.6 37.68 616.793 39.8967 619.547 41.53C622.347 43.1633 625.427 43.98 628.787 43.98ZM681.029 29.7H671.859V50H664.859V0.999997H686.279C689.545 0.999997 692.345 1.63 694.679 2.89C697.059 4.10333 698.855 5.80667 700.069 8C701.329 10.1467 701.959 12.5967 701.959 15.35C701.959 19.0367 700.862 22.1867 698.669 24.8C696.475 27.3667 693.395 28.93 689.429 29.49L705.739 50H696.919L681.029 29.7ZM671.859 23.33H685.859C688.659 23.33 690.805 22.6533 692.299 21.3C693.839 19.9 694.609 17.9167 694.609 15.35C694.609 12.7833 693.839 10.8233 692.299 9.47C690.805 8.07 688.659 7.37 685.859 7.37H671.859V23.33ZM749.827 7.72H732.327V50H725.327V7.72H707.827V0.999997H749.827V7.72ZM765.218 7.72V22.21H789.018V28.79H765.218V50H758.218V0.999997H791.118V7.72H765.218ZM822.274 50.7C817.561 50.7 813.244 49.6033 809.324 47.41C805.404 45.17 802.324 42.1367 800.084 38.31C797.844 34.4367 796.724 30.1667 796.724 25.5C796.724 20.8333 797.844 16.5867 800.084 12.76C802.324 8.88667 805.404 5.85333 809.324 3.66C813.244 1.42 817.561 0.299997 822.274 0.299997C826.987 0.299997 831.304 1.42 835.224 3.66C839.144 5.85333 842.224 8.88667 844.464 12.76C846.704 16.5867 847.824 20.8333 847.824 25.5C847.824 30.1667 846.704 34.4367 844.464 38.31C842.224 42.1367 839.144 45.17 835.224 47.41C831.304 49.6033 826.987 50.7 822.274 50.7ZM822.274 43.98C825.634 43.98 828.691 43.1633 831.444 41.53C834.244 39.8967 836.437 37.68 838.024 34.88C839.657 32.0333 840.474 28.9067 840.474 25.5C840.474 22.0933 839.657 18.99 838.024 16.19C836.437 13.3433 834.244 11.1033 831.444 9.47C828.691 7.83666 825.634 7.02 822.274 7.02C818.914 7.02 815.834 7.83666 813.034 9.47C810.281 11.1033 808.087 13.3433 806.454 16.19C804.867 18.99 804.074 22.0933 804.074 25.5C804.074 28.9067 804.867 32.0333 806.454 34.88C808.087 37.68 810.281 39.8967 813.034 41.53C815.834 43.1633 818.914 43.98 822.274 43.98ZM891.246 43.28V50H858.346V0.999997H865.346V43.28H891.246ZM906.659 0.999997V50H899.659V0.999997H906.659ZM942.729 50.7C938.015 50.7 933.699 49.6033 929.779 47.41C925.859 45.17 922.779 42.1367 920.539 38.31C918.299 34.4367 917.179 30.1667 917.179 25.5C917.179 20.8333 918.299 16.5867 920.539 12.76C922.779 8.88667 925.859 5.85333 929.779 3.66C933.699 1.42 938.015 0.299997 942.729 0.299997C947.442 0.299997 951.759 1.42 955.679 3.66C959.599 5.85333 962.679 8.88667 964.919 12.76C967.159 16.5867 968.279 20.8333 968.279 25.5C968.279 30.1667 967.159 34.4367 964.919 38.31C962.679 42.1367 959.599 45.17 955.679 47.41C951.759 49.6033 947.442 50.7 942.729 50.7ZM942.729 43.98C946.089 43.98 949.145 43.1633 951.899 41.53C954.699 39.8967 956.892 37.68 958.479 34.88C960.112 32.0333 960.929 28.9067 960.929 25.5C960.929 22.0933 960.112 18.99 958.479 16.19C956.892 13.3433 954.699 11.1033 951.899 9.47C949.145 7.83666 946.089 7.02 942.729 7.02C939.369 7.02 936.289 7.83666 933.489 9.47C930.735 11.1033 928.542 13.3433 926.909 16.19C925.322 18.99 924.529 22.0933 924.529 25.5C924.529 28.9067 925.322 32.0333 926.909 34.88C928.542 37.68 930.735 39.8967 933.489 41.53C936.289 43.1633 939.369 43.98 942.729 43.98ZM71.1 120H64.1V77.72H41.7V120H34.7V77.72H12.3V120H5.3V71H71.1V120ZM116.678 108.8H90.4282L86.9282 120H79.8582L95.3282 71H111.988L127.458 120H120.178L116.678 108.8ZM114.718 102.36L106.948 77.44H100.298L92.4582 102.36H114.718ZM178.189 120H171.189V77.72H143.189V120H136.189V71H178.189V120ZM223.778 108.8H197.528L194.028 120H186.958L202.428 71H219.088L234.558 120H227.278L223.778 108.8ZM221.818 102.36L214.048 77.44H207.398L199.558 102.36H221.818ZM286.67 94.8V120H280.37V111.74C278.457 114.493 275.983 116.687 272.95 118.32C269.963 119.907 266.557 120.7 262.73 120.7C258.157 120.7 253.98 119.603 250.2 117.41C246.42 115.17 243.433 112.137 241.24 108.31C239.093 104.437 238.02 100.167 238.02 95.5C238.02 90.8333 239.117 86.5867 241.31 82.76C243.55 78.8867 246.583 75.8533 250.41 73.66C254.237 71.42 258.483 70.3 263.15 70.3C268.05 70.3 272.46 71.63 276.38 74.29C280.347 76.95 283.193 80.52 284.92 85H276.94C275.493 82.5267 273.58 80.59 271.2 79.19C268.82 77.7433 266.137 77.02 263.15 77.02C259.837 77.02 256.827 77.8367 254.12 79.47C251.413 81.1033 249.267 83.3433 247.68 86.19C246.14 88.99 245.37 92.0933 245.37 95.5C245.37 98.9067 246.14 102.033 247.68 104.88C249.22 107.68 251.32 109.897 253.98 111.53C256.64 113.163 259.58 113.98 262.8 113.98C267.14 113.98 270.757 112.767 273.65 110.34C276.59 107.867 278.527 104.81 279.46 101.17H262.03V94.8H286.67ZM305.89 77.58V92.21H329.69V98.79H305.89V113.42H331.79V120H298.89V71H331.79V77.58H305.89ZM359.518 99.7H350.348V120H343.348V71H364.768C368.035 71 370.835 71.63 373.168 72.89C375.548 74.1033 377.345 75.8067 378.558 78C379.818 80.1467 380.448 82.5967 380.448 85.35C380.448 89.0367 379.351 92.1867 377.158 94.8C374.965 97.3667 371.885 98.93 367.918 99.49L384.228 120H375.408L359.518 99.7ZM350.348 93.33H364.348C367.148 93.33 369.295 92.6533 370.788 91.3C372.328 89.9 373.098 87.9167 373.098 85.35C373.098 82.7833 372.328 80.8233 370.788 79.47C369.295 78.07 367.148 77.37 364.348 77.37H350.348V93.33ZM419.919 77.72V92.21H443.719V98.79H419.919V120H412.919V71H445.819V77.72H419.919ZM476.974 120.7C472.261 120.7 467.944 119.603 464.024 117.41C460.104 115.17 457.024 112.137 454.784 108.31C452.544 104.437 451.424 100.167 451.424 95.5C451.424 90.8333 452.544 86.5867 454.784 82.76C457.024 78.8867 460.104 75.8533 464.024 73.66C467.944 71.42 472.261 70.3 476.974 70.3C481.688 70.3 486.004 71.42 489.924 73.66C493.844 75.8533 496.924 78.8867 499.164 82.76C501.404 86.5867 502.524 90.8333 502.524 95.5C502.524 100.167 501.404 104.437 499.164 108.31C496.924 112.137 493.844 115.17 489.924 117.41C486.004 119.603 481.688 120.7 476.974 120.7ZM476.974 113.98C480.334 113.98 483.391 113.163 486.144 111.53C488.944 109.897 491.138 107.68 492.724 104.88C494.358 102.033 495.174 98.9067 495.174 95.5C495.174 92.0933 494.358 88.99 492.724 86.19C491.138 83.3433 488.944 81.1033 486.144 79.47C483.391 77.8367 480.334 77.02 476.974 77.02C473.614 77.02 470.534 77.8367 467.734 79.47C464.981 81.1033 462.788 83.3433 461.154 86.19C459.568 88.99 458.774 92.0933 458.774 95.5C458.774 98.9067 459.568 102.033 461.154 104.88C462.788 107.68 464.981 109.897 467.734 111.53C470.534 113.163 473.614 113.98 476.974 113.98ZM529.216 99.7H520.046V120H513.046V71H534.466C537.733 71 540.533 71.63 542.866 72.89C545.246 74.1033 547.043 75.8067 548.256 78C549.516 80.1467 550.146 82.5967 550.146 85.35C550.146 89.0367 549.049 92.1867 546.856 94.8C544.663 97.3667 541.583 98.93 537.616 99.49L553.926 120H545.106L529.216 99.7ZM520.046 93.33H534.046C536.846 93.33 538.993 92.6533 540.486 91.3C542.026 89.9 542.796 87.9167 542.796 85.35C542.796 82.7833 542.026 80.8233 540.486 79.47C538.993 78.07 536.846 77.37 534.046 77.37H520.046V93.33ZM614.537 108.8H588.287L584.787 120H577.717L593.187 71H609.847L625.317 120H618.037L614.537 108.8ZM612.577 102.36L604.807 77.44H598.157L590.317 102.36H612.577ZM666.948 113.28V120H634.048V71H641.048V113.28H666.948ZM708.261 113.28V120H675.361V71H682.361V113.28H708.261Z" fill="#EAEAEA"/>
</svg>
