<svg width="937" height="130" viewBox="0 0 937 130" fill="none" xmlns="http://www.w3.org/2000/svg">
<path d="M37.22 37.8H10.97L7.47 49H0.4L15.87 -3.33786e-06H32.53L48 49H40.72L37.22 37.8ZM35.26 31.36L27.49 6.44H20.84L13 31.36H35.26ZM119.4 49H112.4V6.72H84.4V49H77.4V-3.33786e-06H119.4V49ZM140.069 6.58V21.21H163.869V27.79H140.069V42.42H165.969V49H133.069V-3.33786e-06H165.969V6.58H140.069ZM243.327 -3.33786e-06V49H177.527V-3.33786e-06H184.527V42.28H206.927V-3.33786e-06H213.927V42.28H236.327V-3.33786e-06H243.327ZM284.655 6.58V21.21H308.455V27.79H284.655V42.42H310.555V49H277.655V-3.33786e-06H310.555V6.58H284.655ZM338.283 28.7H329.113V49H322.113V-3.33786e-06H343.533C346.8 -3.33786e-06 349.6 0.629997 351.933 1.89C354.313 3.10333 356.11 4.80667 357.323 7C358.583 9.14667 359.213 11.5967 359.213 14.35C359.213 18.0367 358.116 21.1867 355.923 23.8C353.73 26.3667 350.65 27.93 346.683 28.49L362.993 49H354.173L338.283 28.7ZM329.113 22.33H343.113C345.913 22.33 348.06 21.6533 349.553 20.3C351.093 18.9 351.863 16.9167 351.863 14.35C351.863 11.7833 351.093 9.82333 349.553 8.47C348.06 7.07 345.913 6.37 343.113 6.37H329.113V22.33ZM402.934 37.8H376.684L373.184 49H366.114L381.584 -3.33786e-06H398.244L413.714 49H406.434L402.934 37.8ZM400.974 31.36L393.204 6.44H386.554L378.714 31.36H400.974ZM12.3 76.72V91.21H36.1V97.79H12.3V119H5.3V70H38.2V76.72H12.3ZM69.3555 119.7C64.6421 119.7 60.3255 118.603 56.4055 116.41C52.4855 114.17 49.4055 111.137 47.1655 107.31C44.9255 103.437 43.8055 99.1667 43.8055 94.5C43.8055 89.8333 44.9255 85.5867 47.1655 81.76C49.4055 77.8867 52.4855 74.8533 56.4055 72.66C60.3255 70.42 64.6421 69.3 69.3555 69.3C74.0688 69.3 78.3855 70.42 82.3055 72.66C86.2255 74.8533 89.3055 77.8867 91.5455 81.76C93.7855 85.5867 94.9055 89.8333 94.9055 94.5C94.9055 99.1667 93.7855 103.437 91.5455 107.31C89.3055 111.137 86.2255 114.17 82.3055 116.41C78.3855 118.603 74.0688 119.7 69.3555 119.7ZM69.3555 112.98C72.7155 112.98 75.7721 112.163 78.5255 110.53C81.3255 108.897 83.5188 106.68 85.1055 103.88C86.7388 101.033 87.5555 97.9067 87.5555 94.5C87.5555 91.0933 86.7388 87.99 85.1055 85.19C83.5188 82.3433 81.3255 80.1033 78.5255 78.47C75.7721 76.8367 72.7155 76.02 69.3555 76.02C65.9955 76.02 62.9155 76.8367 60.1155 78.47C57.3621 80.1033 55.1688 82.3433 53.5355 85.19C51.9488 87.99 51.1555 91.0933 51.1555 94.5C51.1555 97.9067 51.9488 101.033 53.5355 103.88C55.1688 106.68 57.3621 108.897 60.1155 110.53C62.9155 112.163 65.9955 112.98 69.3555 112.98ZM121.597 98.7H112.427V119H105.427V70H126.847C130.114 70 132.914 70.63 135.247 71.89C137.627 73.1033 139.424 74.8067 140.637 77C141.897 79.1467 142.527 81.5967 142.527 84.35C142.527 88.0367 141.431 91.1867 139.237 93.8C137.044 96.3667 133.964 97.93 129.997 98.49L146.307 119H137.487L121.597 98.7ZM112.427 92.33H126.427C129.227 92.33 131.374 91.6533 132.867 90.3C134.407 88.9 135.177 86.9167 135.177 84.35C135.177 81.7833 134.407 79.8233 132.867 78.47C131.374 77.07 129.227 76.37 126.427 76.37H112.427V92.33ZM197.398 119.7C192.685 119.7 188.368 118.603 184.448 116.41C180.528 114.17 177.448 111.137 175.208 107.31C172.968 103.437 171.848 99.1667 171.848 94.5C171.848 89.8333 172.968 85.5867 175.208 81.76C177.448 77.8867 180.528 74.8533 184.448 72.66C188.368 70.42 192.685 69.3 197.398 69.3C202.111 69.3 206.428 70.42 210.348 72.66C214.268 74.8533 217.348 77.8867 219.588 81.76C221.828 85.5867 222.948 89.8333 222.948 94.5C222.948 99.1667 221.828 103.437 219.588 107.31C217.348 111.137 214.268 114.17 210.348 116.41C206.428 118.603 202.111 119.7 197.398 119.7ZM197.398 112.98C200.758 112.98 203.815 112.163 206.568 110.53C209.368 108.897 211.561 106.68 213.148 103.88C214.781 101.033 215.598 97.9067 215.598 94.5C215.598 91.0933 214.781 87.99 213.148 85.19C211.561 82.3433 209.368 80.1033 206.568 78.47C203.815 76.8367 200.758 76.02 197.398 76.02C194.038 76.02 190.958 76.8367 188.158 78.47C185.405 80.1033 183.211 82.3433 181.578 85.19C179.991 87.99 179.198 91.0933 179.198 94.5C179.198 97.9067 179.991 101.033 181.578 103.88C183.211 106.68 185.405 108.897 188.158 110.53C190.958 112.163 194.038 112.98 197.398 112.98ZM275.47 119H268.47V76.72H240.47V119H233.47V70H275.47V119ZM308.039 94.85V101.15H287.739V94.85H308.039ZM317.117 94.5C317.117 89.8333 318.214 85.5867 320.407 81.76C322.647 77.8867 325.681 74.8533 329.507 72.66C333.334 70.42 337.581 69.3 342.247 69.3C345.841 69.3 349.201 70 352.327 71.4C355.454 72.7533 358.137 74.7133 360.377 77.28C362.664 79.8 364.344 82.74 365.417 86.1H357.647C356.201 82.9733 354.147 80.5233 351.487 78.75C348.874 76.93 345.794 76.02 342.247 76.02C338.934 76.02 335.924 76.8367 333.217 78.47C330.511 80.1033 328.364 82.3433 326.777 85.19C325.237 87.99 324.467 91.0933 324.467 94.5C324.467 97.9067 325.237 101.033 326.777 103.88C328.364 106.68 330.511 108.897 333.217 110.53C335.924 112.163 338.934 112.98 342.247 112.98C345.794 112.98 348.874 112.093 351.487 110.32C354.147 108.5 356.201 106.027 357.647 102.9H365.417C364.344 106.26 362.664 109.223 360.377 111.79C358.137 114.31 355.454 116.27 352.327 117.67C349.201 119.023 345.841 119.7 342.247 119.7C337.581 119.7 333.334 118.603 329.507 116.41C325.681 114.17 322.647 111.137 320.407 107.31C318.214 103.437 317.117 99.1667 317.117 94.5ZM417.184 70V119H410.184V97.86H382.184V119H375.184V70H382.184V91.14H410.184V70H417.184ZM462.774 107.8H436.524L433.024 119H425.954L441.424 70H458.084L473.554 119H466.274L462.774 107.8ZM460.814 101.36L453.044 76.44H446.394L438.554 101.36H460.814ZM489.284 70V119H482.284V70H489.284ZM544.954 119H537.954V76.72H509.954V119H502.954V70H544.954V119ZM612.192 112.28V119H579.292V70H586.292V112.28H612.192ZM627.605 70V119H620.605V70H627.605ZM689.225 94.5C689.225 98.7933 688.268 102.76 686.355 106.4C684.441 109.993 681.781 112.957 678.375 115.29C675.015 117.577 671.235 118.977 667.035 119.49V129.5H660.315V119.49C656.115 118.977 652.311 117.577 648.905 115.29C645.545 112.957 642.908 109.993 640.995 106.4C639.081 102.76 638.125 98.7933 638.125 94.5C638.125 89.8333 639.245 85.5867 641.485 81.76C643.725 77.8867 646.805 74.8533 650.725 72.66C654.645 70.42 658.961 69.3 663.675 69.3C668.388 69.3 672.705 70.42 676.625 72.66C680.545 74.8533 683.625 77.8867 685.865 81.76C688.105 85.5867 689.225 89.8333 689.225 94.5ZM663.675 112.98C667.035 112.98 670.091 112.163 672.845 110.53C675.645 108.897 677.838 106.68 679.425 103.88C681.058 101.033 681.875 97.9067 681.875 94.5C681.875 91.0933 681.058 87.99 679.425 85.19C677.838 82.3433 675.645 80.1033 672.845 78.47C670.091 76.8367 667.035 76.02 663.675 76.02C660.315 76.02 657.235 76.8367 654.435 78.47C651.681 80.1033 649.488 82.3433 647.855 85.19C646.268 87.99 645.475 91.0933 645.475 94.5C645.475 97.9067 646.268 101.033 647.855 103.88C649.488 106.68 651.681 108.897 654.435 110.53C657.235 112.163 660.315 112.98 663.675 112.98ZM741.746 70V119H699.746V70H706.746V112.28H734.746V70H741.746ZM762.416 70V119H755.416V70H762.416ZM792.885 70C798.111 70 802.638 71.0733 806.465 73.22C810.338 75.3667 813.301 78.3067 815.355 82.04C817.408 85.7267 818.435 89.88 818.435 94.5C818.435 99.12 817.408 103.297 815.355 107.03C813.301 110.717 810.338 113.633 806.465 115.78C802.638 117.927 798.111 119 792.885 119H776.085V70H792.885ZM792.885 112.28C796.571 112.28 799.791 111.557 802.545 110.11C805.298 108.663 807.398 106.61 808.845 103.95C810.338 101.243 811.085 98.0933 811.085 94.5C811.085 90.9067 810.338 87.78 808.845 85.12C807.398 82.4133 805.298 80.3367 802.545 78.89C799.791 77.4433 796.571 76.72 792.885 76.72H783.085V112.28H792.885ZM835.951 70V119H828.951V70H835.951ZM886.37 76.72H868.87V119H861.87V76.72H844.37V70H886.37V76.72ZM916.462 99.19V119H909.462V99.26L889.162 70H897.562L913.102 92.68L928.712 70H936.762L916.462 99.19Z" fill="#EAEAEA"/>
</svg>
