<svg width="806" height="50" viewBox="0 0 806 50" fill="none" xmlns="http://www.w3.org/2000/svg">
<path d="M21.258 0.816662C24.4702 0.816662 27.2236 1.43616 29.518 2.67516C31.8583 3.86827 33.6251 5.54322 34.8182 7.7C36.0572 9.81089 36.6767 12.2201 36.6767 14.9275C36.6767 17.6349 36.0572 20.0671 34.8182 22.2238C33.6251 24.3347 31.8583 26.0097 29.518 27.2487C27.2236 28.4418 24.4702 29.0383 21.258 29.0383H7.07833V49H0.195V0.816662H21.258ZM21.0515 22.6368C23.8048 22.6368 25.8928 21.9944 27.3153 20.7095C28.7379 19.3787 29.4492 17.4514 29.4492 14.9275C29.4492 12.4036 28.7379 10.4992 27.3153 9.21433C25.8928 7.92944 23.8048 7.287 21.0515 7.287H7.07833V22.6368H21.0515ZM68.0227 49.6883C63.3879 49.6883 59.1432 48.6099 55.2886 46.4532C51.4339 44.2505 48.4052 41.2677 46.2026 37.5048C43.9999 33.6961 42.8986 29.4972 42.8986 24.9083C42.8986 20.3194 43.9999 16.1436 46.2026 12.3807C48.4052 8.57189 51.4339 5.58911 55.2886 3.43233C59.1432 1.22966 63.3879 0.128329 68.0227 0.128329C72.6575 0.128329 76.9022 1.22966 80.7569 3.43233C84.6116 5.58911 87.6402 8.57189 89.8429 12.3807C92.0456 16.1436 93.1469 20.3194 93.1469 24.9083C93.1469 29.4972 92.0456 33.6961 89.8429 37.5048C87.6402 41.2677 84.6116 44.2505 80.7569 46.4532C76.9022 48.6099 72.6575 49.6883 68.0227 49.6883ZM68.0227 43.0803C71.3267 43.0803 74.3324 42.2773 77.0399 40.6712C79.7932 39.0651 81.95 36.8853 83.5102 34.132C85.1163 31.3328 85.9194 28.2582 85.9194 24.9083C85.9194 21.5584 85.1163 18.5068 83.5102 15.7535C81.95 12.9543 79.7932 10.7516 77.0399 9.14549C74.3324 7.53939 71.3267 6.73633 68.0227 6.73633C64.7187 6.73633 61.6901 7.53939 58.9367 9.14549C56.2293 10.7516 54.0725 12.9543 52.4664 15.7535C50.9062 18.5068 50.1261 21.5584 50.1261 24.9083C50.1261 28.2582 50.9062 31.3328 52.4664 34.132C54.0725 36.8853 56.2293 39.0651 58.9367 40.6712C61.6901 42.2773 64.7187 43.0803 68.0227 43.0803ZM119.394 29.0383H110.377V49H103.493V0.816662H124.556C127.769 0.816662 130.522 1.43616 132.816 2.67516C135.157 3.86827 136.923 5.54322 138.117 7.7C139.356 9.81089 139.975 12.2201 139.975 14.9275C139.975 18.5527 138.897 21.6502 136.74 24.22C134.583 26.7439 131.554 28.2812 127.654 28.8318L143.692 49H135.019L119.394 29.0383ZM110.377 22.7745H124.143C126.897 22.7745 129.008 22.1091 130.476 20.7783C131.99 19.4017 132.748 17.4514 132.748 14.9275C132.748 12.4036 131.99 10.4763 130.476 9.14549C129.008 7.76883 126.897 7.0805 124.143 7.0805H110.377V22.7745ZM187.045 7.42466H169.837V49H162.954V7.42466H145.745V0.816662H187.045V7.42466ZM202.181 7.42466V21.6732H225.584V28.1435H202.181V49H195.297V0.816662H227.649V7.42466H202.181ZM258.285 49.6883C253.65 49.6883 249.406 48.6099 245.551 46.4532C241.696 44.2505 238.668 41.2677 236.465 37.5048C234.262 33.6961 233.161 29.4972 233.161 24.9083C233.161 20.3194 234.262 16.1436 236.465 12.3807C238.668 8.57189 241.696 5.58911 245.551 3.43233C249.406 1.22966 253.65 0.128329 258.285 0.128329C262.92 0.128329 267.165 1.22966 271.019 3.43233C274.874 5.58911 277.903 8.57189 280.105 12.3807C282.308 16.1436 283.409 20.3194 283.409 24.9083C283.409 29.4972 282.308 33.6961 280.105 37.5048C277.903 41.2677 274.874 44.2505 271.019 46.4532C267.165 48.6099 262.92 49.6883 258.285 49.6883ZM258.285 43.0803C261.589 43.0803 264.595 42.2773 267.302 40.6712C270.056 39.0651 272.212 36.8853 273.773 34.132C275.379 31.3328 276.182 28.2582 276.182 24.9083C276.182 21.5584 275.379 18.5068 273.773 15.7535C272.212 12.9543 270.056 10.7516 267.302 9.14549C264.595 7.53939 261.589 6.73633 258.285 6.73633C254.981 6.73633 251.952 7.53939 249.199 9.14549C246.492 10.7516 244.335 12.9543 242.729 15.7535C241.168 18.5068 240.388 21.5584 240.388 24.9083C240.388 28.2582 241.168 31.3328 242.729 34.132C244.335 36.8853 246.492 39.0651 249.199 40.6712C251.952 42.2773 254.981 43.0803 258.285 43.0803ZM326.107 42.392V49H293.756V0.816662H300.639V42.392H326.107ZM341.264 0.816662V49H334.381V0.816662H341.264ZM376.732 49.6883C372.097 49.6883 367.853 48.6099 363.998 46.4532C360.143 44.2505 357.115 41.2677 354.912 37.5048C352.709 33.6961 351.608 29.4972 351.608 24.9083C351.608 20.3194 352.709 16.1436 354.912 12.3807C357.115 8.57189 360.143 5.58911 363.998 3.43233C367.853 1.22966 372.097 0.128329 376.732 0.128329C381.367 0.128329 385.612 1.22966 389.466 3.43233C393.321 5.58911 396.35 8.57189 398.552 12.3807C400.755 16.1436 401.856 20.3194 401.856 24.9083C401.856 29.4972 400.755 33.6961 398.552 37.5048C396.35 41.2677 393.321 44.2505 389.466 46.4532C385.612 48.6099 381.367 49.6883 376.732 49.6883ZM376.732 43.0803C380.036 43.0803 383.042 42.2773 385.749 40.6712C388.503 39.0651 390.659 36.8853 392.22 34.132C393.826 31.3328 394.629 28.2582 394.629 24.9083C394.629 21.5584 393.826 18.5068 392.22 15.7535C390.659 12.9543 388.503 10.7516 385.749 9.14549C383.042 7.53939 380.036 6.73633 376.732 6.73633C373.428 6.73633 370.4 7.53939 367.646 9.14549C364.939 10.7516 362.782 12.9543 361.176 15.7535C359.616 18.5068 358.835 21.5584 358.835 24.9083C358.835 28.2582 359.616 31.3328 361.176 34.132C362.782 36.8853 364.939 39.0651 367.646 40.6712C370.4 42.2773 373.428 43.0803 376.732 43.0803ZM497.231 49H490.347V7.42466H468.321V49H461.437V7.42466H439.411V49H432.527V0.816662H497.231V49ZM542.049 37.9867H516.237L512.795 49H505.843L521.055 0.816662H537.438L552.65 49H545.491L542.049 37.9867ZM540.122 31.654L532.482 7.14933H525.942L518.233 31.654H540.122ZM602.535 49H595.652V7.42466H568.118V49H561.235V0.816662H602.535V49ZM647.364 37.9867H621.552L618.11 49H611.158L626.37 0.816662H642.753L657.965 49H650.806L647.364 37.9867ZM645.437 31.654L637.797 7.14933H631.257L623.548 31.654H645.437ZM709.208 24.22V49H703.013V40.8777C701.131 43.5851 698.699 45.7419 695.717 47.348C692.78 48.9082 689.43 49.6883 685.667 49.6883C681.17 49.6883 677.063 48.6099 673.346 46.4532C669.629 44.2505 666.692 41.2677 664.535 37.5048C662.424 33.6961 661.369 29.4972 661.369 24.9083C661.369 20.3194 662.447 16.1436 664.604 12.3807C666.807 8.57189 669.789 5.58911 673.552 3.43233C677.315 1.22966 681.491 0.128329 686.08 0.128329C690.898 0.128329 695.235 1.43616 699.089 4.05183C702.99 6.6675 705.789 10.178 707.487 14.5833H699.64C698.218 12.1512 696.336 10.2468 693.996 8.87016C691.655 7.44761 689.017 6.73633 686.08 6.73633C682.822 6.73633 679.862 7.53939 677.2 9.14549C674.539 10.7516 672.428 12.9543 670.868 15.7535C669.353 18.5068 668.596 21.5584 668.596 24.9083C668.596 28.2582 669.353 31.3328 670.868 34.132C672.382 36.8853 674.447 39.0651 677.063 40.6712C679.678 42.2773 682.569 43.0803 685.736 43.0803C690.003 43.0803 693.56 41.8872 696.405 39.501C699.296 37.0689 701.2 34.0632 702.118 30.4838H684.979V24.22H709.208ZM728.108 7.287V21.6732H751.511V28.1435H728.108V42.5297H753.576V49H721.224V0.816662H753.576V7.287H728.108ZM780.842 29.0383H771.825V49H764.941V0.816662H786.004C789.217 0.816662 791.97 1.43616 794.264 2.67516C796.605 3.86827 798.372 5.54322 799.565 7.7C800.804 9.81089 801.423 12.2201 801.423 14.9275C801.423 18.5527 800.345 21.6502 798.188 24.22C796.031 26.7439 793.003 28.2812 789.102 28.8318L805.14 49H796.467L780.842 29.0383ZM771.825 22.7745H785.591C788.345 22.7745 790.456 22.1091 791.924 20.7783C793.438 19.4017 794.196 17.4514 794.196 14.9275C794.196 12.4036 793.438 10.4763 791.924 9.14549C790.456 7.76883 788.345 7.0805 785.591 7.0805H771.825V22.7745Z" fill="#EAEAEA"/>
</svg>
