<svg width="1177" height="127" viewBox="0 0 1177 127" fill="none" xmlns="http://www.w3.org/2000/svg">
<path d="M105.75 2.49999V125H88.25V72.15H18.25V125H0.750001V2.49999H18.25V55.35H88.25V2.49999H105.75ZM195.923 126.75C184.14 126.75 173.348 124.008 163.548 118.525C153.748 112.925 146.048 105.342 140.448 95.775C134.848 86.0917 132.048 75.4167 132.048 63.75C132.048 52.0833 134.848 41.4667 140.448 31.9C146.048 22.2167 153.748 14.6333 163.548 9.14999C173.348 3.54999 184.14 0.749993 195.923 0.749993C207.706 0.749993 218.498 3.54999 228.298 9.14999C238.098 14.6333 245.798 22.2167 251.398 31.9C256.998 41.4667 259.798 52.0833 259.798 63.75C259.798 75.4167 256.998 86.0917 251.398 95.775C245.798 105.342 238.098 112.925 228.298 118.525C218.498 124.008 207.706 126.75 195.923 126.75ZM195.923 109.95C204.323 109.95 211.965 107.908 218.848 103.825C225.848 99.7417 231.331 94.2 235.298 87.2C239.381 80.0833 241.423 72.2667 241.423 63.75C241.423 55.2333 239.381 47.475 235.298 40.475C231.331 33.3583 225.848 27.7583 218.848 23.675C211.965 19.5917 204.323 17.55 195.923 17.55C187.523 17.55 179.823 19.5917 172.823 23.675C165.94 27.7583 160.456 33.3583 156.373 40.475C152.406 47.475 150.423 55.2333 150.423 63.75C150.423 72.2667 152.406 80.0833 156.373 87.2C160.456 94.2 165.94 99.7417 172.823 103.825C179.823 107.908 187.523 109.95 195.923 109.95ZM450.603 2.49999V125H286.103V2.49999H303.603V108.2H359.603V2.49999H377.103V108.2H433.103V2.49999H450.603ZM628.296 19.3H584.546V125H567.046V19.3H523.296V2.49999H628.296V19.3ZM696.56 126.75C684.776 126.75 673.985 124.008 664.185 118.525C654.385 112.925 646.685 105.342 641.085 95.775C635.485 86.0917 632.685 75.4167 632.685 63.75C632.685 52.0833 635.485 41.4667 641.085 31.9C646.685 22.2167 654.385 14.6333 664.185 9.14999C673.985 3.54999 684.776 0.749993 696.56 0.749993C708.343 0.749993 719.135 3.54999 728.935 9.14999C738.735 14.6333 746.435 22.2167 752.035 31.9C757.635 41.4667 760.435 52.0833 760.435 63.75C760.435 75.4167 757.635 86.0917 752.035 95.775C746.435 105.342 738.735 112.925 728.935 118.525C719.135 124.008 708.343 126.75 696.56 126.75ZM696.56 109.95C704.96 109.95 712.601 107.908 719.485 103.825C726.485 99.7417 731.968 94.2 735.935 87.2C740.018 80.0833 742.06 72.2667 742.06 63.75C742.06 55.2333 740.018 47.475 735.935 40.475C731.968 33.3583 726.485 27.7583 719.485 23.675C712.601 19.5917 704.96 17.55 696.56 17.55C688.16 17.55 680.46 19.5917 673.46 23.675C666.576 27.7583 661.093 33.3583 657.01 40.475C653.043 47.475 651.06 55.2333 651.06 63.75C651.06 72.2667 653.043 80.0833 657.01 87.2C661.093 94.2 666.576 99.7417 673.46 103.825C680.46 107.908 688.16 109.95 696.56 109.95ZM943.412 2.49999V125H838.412V2.49999H855.912V108.2H925.912V2.49999H943.412ZM1020.46 126.75C1006.23 126.75 994.21 123.25 984.41 116.25C974.727 109.133 968.835 99.275 966.735 86.675H984.235C987.152 94.725 991.527 100.617 997.36 104.35C1003.31 108.083 1011.18 109.95 1020.98 109.95C1030.43 109.95 1038.08 108.258 1043.91 104.875C1049.74 101.375 1052.66 96.8833 1052.66 91.4C1052.66 86.6167 1050.5 82.7667 1046.18 79.85C1041.87 76.8167 1034.75 74.3083 1024.83 72.325L1011.53 69.875C997.652 67.425 987.268 63.225 980.385 57.275C973.502 51.2083 970.06 43.7417 970.06 34.875C970.06 28.1083 972.102 22.1583 976.185 17.025C980.268 11.8917 985.985 7.92499 993.335 5.12499C1000.68 2.20833 1009.14 0.749993 1018.71 0.749993C1031.19 0.749993 1042.04 3.84166 1051.26 10.025C1060.48 16.0917 1066.54 24.6667 1069.46 35.75H1051.08C1048.75 29.8 1044.55 25.3083 1038.48 22.275C1032.53 19.125 1025.65 17.55 1017.83 17.55C1008.62 17.55 1001.33 19.1833 995.96 22.45C990.71 25.6 988.085 29.975 988.085 35.575C988.085 40.125 990.185 43.8 994.385 46.6C998.702 49.4 1005.47 51.6167 1014.68 53.25L1027.98 55.525C1042.68 57.975 1053.48 62.175 1060.36 68.125C1067.24 74.075 1070.68 81.7167 1070.68 91.05C1070.68 98.05 1068.53 104.233 1064.21 109.6C1060.01 114.967 1054.12 119.167 1046.53 122.2C1038.95 125.233 1030.26 126.75 1020.46 126.75ZM1111.87 18.95V55.525H1171.37V71.975H1111.87V108.55H1176.62V125H1094.37V2.49999H1176.62V18.95H1111.87Z" fill="#EAEAEA"/>
</svg>
