<?xml version="1.0" encoding="UTF-8"?>
<!DOCTYPE svg PUBLIC "-//W3C//DTD SVG 1.1//EN" "http://www.w3.org/Graphics/SVG/1.1/DTD/svg11.dtd">
<svg xmlns="http://www.w3.org/2000/svg" version="1.1" width="400px" height="400px" style="shape-rendering:geometricPrecision; text-rendering:geometricPrecision; image-rendering:optimizeQuality; fill-rule:evenodd; clip-rule:evenodd" xmlns:xlink="http://www.w3.org/1999/xlink">
<g><path style="opacity:0.989" fill="#cecece" d="M 399.5,180.5 C 399.5,193.5 399.5,206.5 399.5,219.5C 387.196,304.644 340.529,361.811 259.5,391C 246.233,394.818 232.9,397.652 219.5,399.5C 206.5,399.5 193.5,399.5 180.5,399.5C 99.4123,387.915 43.2457,344.248 12,268.5C -11.7511,194.936 0.582203,128.269 49,68.5C 97.4536,16.2121 157.287,-5.95457 228.5,2C 301.255,14.7715 353.089,54.6048 384,121.5C 391.855,140.591 397.021,160.258 399.5,180.5 Z"/></g>
<g><path style="opacity:1" fill="#000000" d="M 88.5,86.5 C 110.329,85.3371 132.329,85.1705 154.5,86C 173.79,113.413 192.957,140.913 212,168.5C 235.715,140.907 259.549,113.407 283.5,86C 289.859,85.1694 296.193,85.3361 302.5,86.5C 274.98,118.186 247.646,150.019 220.5,182C 250.5,225.333 280.5,268.667 310.5,312C 288.5,312.667 266.5,312.667 244.5,312C 223.963,283.095 203.797,253.928 184,224.5C 158.833,253.667 133.667,282.833 108.5,312C 101.833,312.667 95.1667,312.667 88.5,312C 117.533,278.737 146.199,245.237 174.5,211.5C 146.565,169.285 117.898,127.618 88.5,86.5 Z"/></g>
<g><path style="opacity:1" fill="#cecece" d="M 115.5,101.5 C 125.325,100.342 135.325,100.175 145.5,101C 191.5,166.667 237.5,232.333 283.5,298C 273.5,298.667 263.5,298.667 253.5,298C 207.601,232.346 161.601,166.846 115.5,101.5 Z"/></g>
</svg>
