<svg width="1440" height="1148" viewBox="0 0 1440 1148" fill="none" xmlns="http://www.w3.org/2000/svg">
<path d="M1753.5 298.009C1753.5 766.811 1290.88 1147.01 720 1147.01C149.117 1147.01 -313.5 766.811 -313.5 298.009C-313.5 180.792 -284.585 107.068 -232.418 62.3342C-180.232 17.5848 -104.669 1.74846 -11.1421 0.571692C75.0028 -0.512198 176.29 10.8393 288.429 23.4069C298.029 24.4828 307.709 25.5676 317.465 26.6543C441.172 40.4329 577.204 54.5088 720 54.5088C862.796 54.5088 998.828 40.4329 1122.53 26.6543C1132.29 25.5676 1141.97 24.4828 1151.57 23.4069C1263.71 10.8393 1365 -0.512198 1451.14 0.571692C1544.67 1.74846 1620.23 17.5848 1672.42 62.3342C1724.59 107.068 1753.5 180.792 1753.5 298.009Z" fill="black" stroke="#494949"/>
</svg>
