<svg xmlns="http://www.w3.org/2000/svg" width="1440" height="586" viewBox="0 0 1440 586" fill="none">
  <g filter="url(#filter0_f_163_2178)">
    <path d="M323.563 210.993C142.09 385.079 -53.8868 351.563 -129.191 313.044L-146.82 -300.202L279.134 -551.545L1414.85 -664.725C1594.83 -552.184 1813.23 -306.483 1496.17 41.2292C874.5 723 1227.43 -633.125 933.213 -123.163C696 288 550.404 -6.61511 323.563 210.993Z" fill="#FF4000"/>
    <path d="M323.563 210.993C142.09 385.079 -53.8868 351.563 -129.191 313.044L-146.82 -300.202L279.134 -551.545L1414.85 -664.725C1594.83 -552.184 1813.23 -306.483 1496.17 41.2292C874.5 723 1227.43 -633.125 933.213 -123.163C696 288 550.404 -6.61511 323.563 210.993Z" stroke="black"/>
  </g>
  <defs>
    <filter id="filter0_f_163_2178" x="-388.328" y="-906.24" width="2287.09" height="1491.68" filterUnits="userSpaceOnUse" color-interpolation-filters="sRGB">
      <feFlood flood-opacity="0" result="BackgroundImageFix"/>
      <feBlend mode="normal" in="SourceGraphic" in2="BackgroundImageFix" result="shape"/>
      <feGaussianBlur stdDeviation="120.5" result="effect1_foregroundBlur_163_2178"/>
    </filter>
  </defs>
</svg>