<svg width="1440" height="1089" viewBox="0 0 1440 1089" fill="none" xmlns="http://www.w3.org/2000/svg">
<mask id="path-1-inside-1_163_2169" fill="white">
<path d="M0 200C0 89.5431 89.5431 0 200 0H1240C1350.46 0 1440 89.5431 1440 200V689C1440 909.914 1260.91 1089 1040 1089H400C179.086 1089 0 909.914 0 689V200Z"/>
</mask>
<path d="M0 200C0 89.5431 89.5431 0 200 0H1240C1350.46 0 1440 89.5431 1440 200V689C1440 909.914 1260.91 1089 1040 1089H400C179.086 1089 0 909.914 0 689V200Z" fill="black"/>
<path d="M0 200C0 88.9908 89.9908 -1 201 -1H1239C1350.01 -1 1440 88.9908 1440 200C1440 90.0953 1350.46 1 1240 1H200C89.5431 1 0 90.0953 0 200ZM1440 1089H0H1440ZM0 1089V0V1089ZM1440 0V1089V0Z" fill="#494949" mask="url(#path-1-inside-1_163_2169)"/>
</svg>
