<svg width="121" height="38" viewBox="0 0 121 38" fill="none" xmlns="http://www.w3.org/2000/svg">
<path d="M11.565 12.2222H3.32L2.22066 15.7778H0L4.85907 0.222222H10.0919L14.951 15.7778H12.6644L11.565 12.2222ZM10.9494 10.1778L8.50886 2.26667H6.42012L3.95761 10.1778H10.9494Z" fill="white"/>
<path d="M22.7722 9.33333H19.892V15.7778H17.6933V0.222222H24.4212C25.4473 0.222222 26.3268 0.422222 27.0597 0.822222C27.8072 1.20741 28.3715 1.74815 28.7526 2.44444C29.1484 3.12593 29.3463 3.9037 29.3463 4.77778C29.3463 5.94815 29.0018 6.94815 28.3129 7.77778C27.624 8.59259 26.6566 9.08889 25.4106 9.26667L30.5336 15.7778H27.7632L22.7722 9.33333ZM19.892 7.31111H24.2893C25.1688 7.31111 25.8431 7.0963 26.3121 6.66667C26.7958 6.22222 27.0377 5.59259 27.0377 4.77778C27.0377 3.96296 26.7958 3.34074 26.3121 2.91111C25.8431 2.46667 25.1688 2.24444 24.2893 2.24444H19.892V7.31111Z" fill="white"/>
<path d="M31.6343 8C31.6343 6.51852 31.9787 5.17037 32.6676 3.95556C33.3712 2.72593 34.324 1.76296 35.5259 1.06667C36.7279 0.355555 38.0617 0 39.5275 0C40.6561 0 41.7115 0.222222 42.6936 0.666667C43.6757 1.0963 44.5185 1.71852 45.2221 2.53333C45.9403 3.33333 46.468 4.26667 46.8051 5.33333H44.3646C43.9102 4.34074 43.2652 3.56296 42.4297 3C41.6089 2.42222 40.6415 2.13333 39.5275 2.13333C38.4868 2.13333 37.5414 2.39259 36.6912 2.91111C35.8411 3.42963 35.1668 4.14074 34.6684 5.04445C34.1847 5.93333 33.9429 6.91852 33.9429 8C33.9429 9.08148 34.1847 10.0741 34.6684 10.9778C35.1668 11.8667 35.8411 12.5704 36.6912 13.0889C37.5414 13.6074 38.4868 13.8667 39.5275 13.8667C40.6415 13.8667 41.6089 13.5852 42.4297 13.0222C43.2652 12.4444 43.9102 11.6593 44.3646 10.6667H46.8051C46.468 11.7333 45.9403 12.6741 45.2221 13.4889C44.5185 14.2889 43.6757 14.9111 42.6936 15.3556C41.7115 15.7852 40.6561 16 39.5275 16C38.0617 16 36.7279 15.6519 35.5259 14.9556C34.324 14.2444 33.3712 13.2815 32.6676 12.0667C31.9787 10.837 31.6343 9.48148 31.6343 8Z" fill="white"/>
<path d="M59.2333 12.2222H50.9882L49.8889 15.7778H47.6683L52.5273 0.222222H57.7602L62.6192 15.7778H60.3326L59.2333 12.2222ZM58.6176 10.1778L56.1771 2.26667H54.0884L51.6259 10.1778H58.6176Z" fill="white"/>
<path d="M78.5536 15.7778H76.3549V2.35556H67.5602V15.7778H65.3615V0.222222H78.5536V15.7778Z" fill="white"/>
<path d="M96.0391 0.222222V15.7778H82.847V0.222222H85.0457V13.6444H93.8404V0.222222H96.0391Z" fill="white"/>
<path d="M121 15.7778H118.801V2.35556H111.766V15.7778H109.567V2.35556H102.531V15.7778H100.332V0.222222H121V15.7778Z" fill="white"/>
<path d="M24.4127 33.0703H24.3196C24.3816 33.7422 24.4127 34.1641 24.4127 34.3359V38H23V25.5781H24.141L24.3506 26.7344H24.4127C24.9819 25.8594 25.815 25.4219 26.9121 25.4219C27.9522 25.4219 28.7672 25.8125 29.3571 26.5938C29.9522 27.3698 30.2498 28.4557 30.2498 29.8516C30.2498 31.2578 29.9522 32.3542 29.3571 33.1406C28.762 33.9219 27.947 34.3125 26.9121 34.3125C25.8409 34.3125 25.0078 33.8984 24.4127 33.0703ZM24.4127 29.5312V29.8516C24.4127 31.0339 24.5912 31.8776 24.9483 32.3828C25.3105 32.8828 25.8849 33.1328 26.6715 33.1328C28.079 33.1328 28.7827 32.0339 28.7827 29.8359C28.7827 27.6797 28.0738 26.6016 26.6559 26.6016C25.8694 26.6016 25.3028 26.8307 24.956 27.2891C24.6145 27.7474 24.4334 28.4948 24.4127 29.5312Z" fill="white"/>
<path d="M39.7 25.7734L39.3196 27.0703C38.6831 26.8359 38.1036 26.7188 37.5809 26.7188C36.7374 26.7188 36.0854 26.9609 35.6249 27.4453C35.1695 27.9245 34.9418 28.6198 34.9418 29.5312V34.1562H33.5291V25.5781H34.6779L34.8487 27.1484H34.9108C35.304 26.5286 35.7258 26.0859 36.176 25.8203C36.6262 25.5547 37.1799 25.4219 37.8371 25.4219C38.4477 25.4219 39.0686 25.5391 39.7 25.7734Z" fill="white"/>
<path d="M45.9211 34.3125C44.8034 34.3125 43.8823 33.9089 43.1578 33.1016C42.4385 32.2891 42.0789 31.2057 42.0789 29.8516C42.0789 28.4818 42.4282 27.401 43.1268 26.6094C43.8305 25.8177 44.7775 25.4219 45.9677 25.4219C47.0958 25.4219 48.0195 25.8255 48.7387 26.6328C49.458 27.4401 49.8177 28.513 49.8177 29.8516C49.8177 31.2318 49.4632 32.3203 48.7543 33.1172C48.0453 33.9141 47.1009 34.3125 45.9211 34.3125ZM45.9522 33.1328C47.5563 33.1328 48.3584 32.0391 48.3584 29.8516C48.3584 27.6849 47.5511 26.6016 45.9366 26.6016C44.3376 26.6016 43.5381 27.6849 43.5381 29.8516C43.5381 32.0391 44.3428 33.1328 45.9522 33.1328Z" fill="white"/>
<path d="M58.8099 32.9844V34.0625C58.1372 34.2292 57.4852 34.3125 56.8538 34.3125C54.9806 34.3125 54.044 33.4167 54.044 31.625V26.6484H51.9715V25.9141L54.044 25.5312L54.6416 23.2891H55.4567V25.5781H58.8565V26.6484H55.4567V31.625C55.4567 32.6406 55.9534 33.1484 56.947 33.1484C57.4282 33.1484 58.0492 33.0938 58.8099 32.9844Z" fill="white"/>
<path d="M65.3338 34.3125C64.216 34.3125 63.2949 33.9089 62.5705 33.1016C61.8512 32.2891 61.4915 31.2057 61.4915 29.8516C61.4915 28.4818 61.8408 27.401 62.5394 26.6094C63.2432 25.8177 64.1901 25.4219 65.3803 25.4219C66.5084 25.4219 67.4321 25.8255 68.1514 26.6328C68.8707 27.4401 69.2303 28.513 69.2303 29.8516C69.2303 31.2318 68.8759 32.3203 68.1669 33.1172C67.458 33.9141 66.5136 34.3125 65.3338 34.3125ZM65.3648 33.1328C66.969 33.1328 67.771 32.0391 67.771 29.8516C67.771 27.6849 66.9638 26.6016 65.3493 26.6016C63.7503 26.6016 62.9508 27.6849 62.9508 29.8516C62.9508 32.0391 63.7555 33.1328 65.3648 33.1328Z" fill="white"/>
<path d="M78.5408 25.8828L78.0595 27.1172C77.2833 26.8203 76.5899 26.6719 75.9793 26.6719C74.0595 26.6719 73.0996 27.7474 73.0996 29.8984C73.0996 32.013 74.0336 33.0703 75.9017 33.0703C76.7141 33.0703 77.5446 32.9089 78.3933 32.5859V33.8359C77.6999 34.1536 76.8486 34.3125 75.8396 34.3125C74.5097 34.3125 73.4773 33.9349 72.7425 33.1797C72.0077 32.4193 71.6403 31.3307 71.6403 29.9141C71.6403 28.4505 72.0155 27.3359 72.7658 26.5703C73.5161 25.8047 74.5718 25.4219 75.9327 25.4219C76.8538 25.4219 77.7232 25.5755 78.5408 25.8828Z" fill="white"/>
<path d="M84.7464 34.3125C83.6287 34.3125 82.7076 33.9089 81.9831 33.1016C81.2638 32.2891 80.9042 31.2057 80.9042 29.8516C80.9042 28.4818 81.2535 27.401 81.9521 26.6094C82.6558 25.8177 83.6028 25.4219 84.793 25.4219C85.9211 25.4219 86.8448 25.8255 87.564 26.6328C88.2833 27.4401 88.643 28.513 88.643 29.8516C88.643 31.2318 88.2885 32.3203 87.5796 33.1172C86.8706 33.9141 85.9262 34.3125 84.7464 34.3125ZM84.7775 33.1328C86.3816 33.1328 87.1837 32.0391 87.1837 29.8516C87.1837 27.6849 86.3764 26.6016 84.7619 26.6016C83.1629 26.6016 82.3634 27.6849 82.3634 29.8516C82.3634 32.0391 83.1681 33.1328 84.7775 33.1328Z" fill="white"/>
<path d="M93.8473 23.1172L91.7671 22.9531V22H95.2677V33.0391L98 33.1953V34.1562H91.1771V33.1953L93.8473 33.0391V23.1172Z" fill="white"/>
</svg>
