<svg width="293" height="86" viewBox="0 0 293 86" fill="none" xmlns="http://www.w3.org/2000/svg">
<path d="M15.8378 0.933216C18.1756 0.933216 20.1794 1.38408 21.8492 2.28579C23.5525 3.15411 24.8383 4.3731 25.7066 5.94276C26.6083 7.47902 27.0591 9.23236 27.0591 11.2028C27.0591 13.1732 26.6083 14.9432 25.7066 16.5129C24.8383 18.0491 23.5525 19.2681 21.8492 20.1699C20.1794 21.0382 18.1756 21.4723 15.8378 21.4723H5.51813V36H0.508586V0.933216H15.8378ZM15.6875 16.8135C17.6913 16.8135 19.2109 16.3459 20.2462 15.4108C21.2815 14.4423 21.7991 13.0396 21.7991 11.2028C21.7991 9.36594 21.2815 7.97997 20.2462 7.04486C19.2109 6.10974 17.6913 5.64219 15.6875 5.64219H5.51813V16.8135H15.6875ZM49.8721 36.501C46.499 36.501 43.4098 35.7161 40.6045 34.1465C37.7991 32.5434 35.5949 30.3726 33.9919 27.6341C32.3888 24.8621 31.5873 21.8063 31.5873 18.4666C31.5873 15.1269 32.3888 12.0878 33.9919 9.34925C35.5949 6.5773 37.7991 4.4065 40.6045 2.83684C43.4098 1.23379 46.499 0.432263 49.8721 0.432263C53.2452 0.432263 56.3344 1.23379 59.1398 2.83684C61.9451 4.4065 64.1493 6.5773 65.7524 9.34925C67.3554 12.0878 68.1569 15.1269 68.1569 18.4666C68.1569 21.8063 67.3554 24.8621 65.7524 27.6341C64.1493 30.3726 61.9451 32.5434 59.1398 34.1465C56.3344 35.7161 53.2452 36.501 49.8721 36.501ZM49.8721 31.6918C52.2767 31.6918 54.4642 31.1073 56.4346 29.9385C58.4384 28.7696 60.0081 27.1832 61.1436 25.1794C62.3125 23.1422 62.8969 20.9046 62.8969 18.4666C62.8969 16.0286 62.3125 13.8077 61.1436 11.8039C60.0081 9.76671 58.4384 8.16365 56.4346 6.99476C54.4642 5.82587 52.2767 5.24142 49.8721 5.24142C47.4675 5.24142 45.2634 5.82587 43.2595 6.99476C41.2891 8.16365 39.7195 9.76671 38.5506 11.8039C37.4151 13.8077 36.8473 16.0286 36.8473 18.4666C36.8473 20.9046 37.4151 23.1422 38.5506 25.1794C39.7195 27.1832 41.2891 28.7696 43.2595 29.9385C45.2634 31.1073 47.4675 31.6918 49.8721 31.6918ZM87.259 21.4723H80.6965V36H75.6869V0.933216H91.0161C93.3539 0.933216 95.3577 1.38408 97.0276 2.28579C98.7308 3.15411 100.017 4.3731 100.885 5.94276C101.787 7.47902 102.237 9.23236 102.237 11.2028C102.237 13.8411 101.453 16.0954 99.883 17.9657C98.3133 19.8025 96.1091 20.9213 93.2704 21.322L104.943 36H98.6306L87.259 21.4723ZM80.6965 16.9137H90.7155C92.7194 16.9137 94.2556 16.4294 95.3243 15.4609C96.4264 14.459 96.9775 13.0396 96.9775 11.2028C96.9775 9.36594 96.4264 7.96327 95.3243 6.99476C94.2556 5.99285 92.7194 5.4919 90.7155 5.4919H80.6965V16.9137ZM136.494 5.74238H123.97V36H118.961V5.74238H106.437V0.933216H136.494V5.74238ZM147.509 5.74238V16.1121H164.542V20.8211H147.509V36H142.5V0.933216H166.045V5.74238H147.509ZM188.341 36.501C184.968 36.501 181.879 35.7161 179.073 34.1465C176.268 32.5434 174.064 30.3726 172.461 27.6341C170.858 24.8621 170.056 21.8063 170.056 18.4666C170.056 15.1269 170.858 12.0878 172.461 9.34925C174.064 6.5773 176.268 4.4065 179.073 2.83684C181.879 1.23379 184.968 0.432263 188.341 0.432263C191.714 0.432263 194.803 1.23379 197.609 2.83684C200.414 4.4065 202.618 6.5773 204.221 9.34925C205.824 12.0878 206.626 15.1269 206.626 18.4666C206.626 21.8063 205.824 24.8621 204.221 27.6341C202.618 30.3726 200.414 32.5434 197.609 34.1465C194.803 35.7161 191.714 36.501 188.341 36.501ZM188.341 31.6918C190.745 31.6918 192.933 31.1073 194.903 29.9385C196.907 28.7696 198.477 27.1832 199.612 25.1794C200.781 23.1422 201.366 20.9046 201.366 18.4666C201.366 16.0286 200.781 13.8077 199.612 11.8039C198.477 9.76671 196.907 8.16365 194.903 6.99476C192.933 5.82587 190.745 5.24142 188.341 5.24142C185.936 5.24142 183.732 5.82587 181.728 6.99476C179.758 8.16365 178.188 9.76671 177.019 11.8039C175.884 13.8077 175.316 16.0286 175.316 18.4666C175.316 20.9046 175.884 23.1422 177.019 25.1794C178.188 27.1832 179.758 28.7696 181.728 29.9385C183.732 31.1073 185.936 31.6918 188.341 31.6918ZM237.701 31.1908V36H214.156V0.933216H219.165V31.1908H237.701ZM248.731 0.933216V36H243.722V0.933216H248.731ZM274.544 36.501C271.171 36.501 268.082 35.7161 265.276 34.1465C262.471 32.5434 260.267 30.3726 258.664 27.6341C257.061 24.8621 256.259 21.8063 256.259 18.4666C256.259 15.1269 257.061 12.0878 258.664 9.34925C260.267 6.5773 262.471 4.4065 265.276 2.83684C268.082 1.23379 271.171 0.432263 274.544 0.432263C277.917 0.432263 281.006 1.23379 283.812 2.83684C286.617 4.4065 288.821 6.5773 290.424 9.34925C292.027 12.0878 292.829 15.1269 292.829 18.4666C292.829 21.8063 292.027 24.8621 290.424 27.6341C288.821 30.3726 286.617 32.5434 283.812 34.1465C281.006 35.7161 277.917 36.501 274.544 36.501ZM274.544 31.6918C276.949 31.6918 279.136 31.1073 281.107 29.9385C283.11 28.7696 284.68 27.1832 285.816 25.1794C286.984 23.1422 287.569 20.9046 287.569 18.4666C287.569 16.0286 286.984 13.8077 285.816 11.8039C284.68 9.76671 283.11 8.16365 281.107 6.99476C279.136 5.82587 276.949 5.24142 274.544 5.24142C272.14 5.24142 269.935 5.82587 267.932 6.99476C265.961 8.16365 264.391 9.76671 263.223 11.8039C262.087 13.8077 261.519 16.0286 261.519 18.4666C261.519 20.9046 262.087 23.1422 263.223 25.1794C264.391 27.1832 265.961 28.7696 267.932 29.9385C269.935 31.1073 272.14 31.6918 274.544 31.6918ZM47.5983 85H42.5887V54.7424H26.5582V85H21.5487V54.7424H5.51813V85H0.508586V49.9332H47.5983V85ZM80.2162 76.9847H61.4305L58.9257 85H53.8661L64.9371 49.9332H76.8599L87.9309 85H82.721L80.2162 76.9847ZM78.8136 72.376L73.253 54.542H68.4939L62.8832 72.376H78.8136ZM124.236 85H119.227V54.7424H99.1887V85H94.1792V49.9332H124.236V85ZM156.862 76.9847H138.076L135.572 85H130.512L141.583 49.9332H153.506L164.577 85H159.367L156.862 76.9847ZM155.46 72.376L149.899 54.542H145.14L139.529 72.376H155.46ZM201.871 66.9657V85H197.362V79.0887C195.993 81.0592 194.223 82.6288 192.052 83.7977C189.914 84.9332 187.477 85.501 184.738 85.501C181.465 85.501 178.476 84.7161 175.771 83.1465C173.066 81.5434 170.928 79.3726 169.359 76.6341C167.822 73.8621 167.054 70.8063 167.054 67.4666C167.054 64.1269 167.839 61.0878 169.409 58.3492C171.012 55.5773 173.183 53.4065 175.921 51.8368C178.66 50.2338 181.699 49.4323 185.039 49.4323C188.545 49.4323 191.701 50.3841 194.507 52.2877C197.345 54.1913 199.383 56.7462 200.618 59.9523H194.907C193.872 58.1823 192.503 56.7963 190.8 55.7944C189.096 54.7591 187.176 54.2414 185.039 54.2414C182.667 54.2414 180.513 54.8259 178.576 55.9948C176.639 57.1637 175.103 58.7667 173.967 60.8039C172.865 62.8077 172.314 65.0286 172.314 67.4666C172.314 69.9046 172.865 72.1422 173.967 74.1794C175.07 76.1832 176.572 77.7696 178.476 78.9385C180.38 80.1073 182.484 80.6918 184.788 80.6918C187.894 80.6918 190.482 79.8235 192.553 78.0868C194.657 76.3168 196.043 74.1293 196.711 71.5243H184.237V66.9657H201.871ZM215.625 54.6422V65.1121H232.658V69.8211H215.625V80.291H234.161V85H210.616V49.9332H234.161V54.6422H215.625ZM254.004 70.4723H247.442V85H242.432V49.9332H257.761C260.099 49.9332 262.103 50.3841 263.773 51.2858C265.476 52.1541 266.762 53.3731 267.63 54.9428C268.532 56.479 268.983 58.2324 268.983 60.2028C268.983 62.8411 268.198 65.0954 266.628 66.9657C265.059 68.8025 262.854 69.9213 260.016 70.322L271.688 85H265.376L254.004 70.4723ZM247.442 65.9137H257.461C259.465 65.9137 261.001 65.4294 262.07 64.4609C263.172 63.459 263.723 62.0396 263.723 60.2028C263.723 58.3659 263.172 56.9633 262.07 55.9948C261.001 54.9929 259.465 54.4919 257.461 54.4919H247.442V65.9137Z" fill="#EAEAEA"/>
</svg>
