<svg width="88" height="88" viewBox="0 0 88 88" fill="none" xmlns="http://www.w3.org/2000/svg">
<g opacity="0.15">
<path d="M40.5359 8C42.0755 5.33334 45.9245 5.33333 47.4641 8L76.909 59C78.4486 61.6667 76.5241 65 73.4449 65H14.5551C11.4759 65 9.55143 61.6667 11.091 59L40.5359 8Z" stroke="white" stroke-width="2"/>
<g clip-path="url(#clip0_163_2628)">
<mask id="mask0_163_2628" style="mask-type:luminance" maskUnits="userSpaceOnUse" x="28" y="28" width="32" height="32">
<path d="M60 28H28V60H60V28Z" fill="white"/>
</mask>
<g mask="url(#mask0_163_2628)">
<path d="M44 60C42.9444 60 41.9722 59.7362 41.0833 59.2083C40.2222 58.7083 39.5278 58.0278 39 57.1667C38.5 56.2778 38.25 55.3056 38.25 54.2499C38.25 52.9166 38.5556 51.8056 39.1667 50.9166C39.7778 50.0278 40.7222 48.9861 42 47.7917C42.9444 46.9306 43.4167 46.111 43.4167 45.3333V44.5834H42.6667C41.8056 44.5834 40.625 45.4445 39.125 47.1667C37.6528 48.889 35.8611 49.7499 33.75 49.7499C32.6944 49.7499 31.7222 49.5 30.8333 49C29.9722 48.4722 29.2778 47.7778 28.75 46.9166C28.25 46.0278 28 45.0555 28 44C28 42.9444 28.25 41.9861 28.75 41.125C29.2778 40.2361 29.9722 39.5417 30.8333 39.0417C31.7222 38.5139 32.6944 38.25 33.75 38.25C35.8333 38.25 37.6111 39.0972 39.0833 40.7917C40.5556 42.4861 41.75 43.3333 42.6667 43.3333H43.4167V42.6667C43.4167 41.8889 42.9444 41.0694 42 40.2083L41.0417 39.3333C40.3472 38.6944 39.7083 37.9306 39.125 37.0417C38.5417 36.125 38.25 35.0278 38.25 33.75C38.25 32.6944 38.5 31.7361 39 30.875C39.5278 29.9861 40.2222 29.2917 41.0833 28.7917C41.9722 28.2639 42.9444 28 44 28C45.0555 28 46.0139 28.2639 46.875 28.7917C47.7638 29.3194 48.4584 30.0139 48.9584 30.875C49.4861 31.7361 49.7499 32.6944 49.7499 33.75C49.7499 35.8333 48.9027 37.6111 47.2083 39.0833C45.5139 40.5556 44.6667 41.75 44.6667 42.6667V43.3333H45.3333C46.2778 43.3333 47.4722 42.4861 48.9166 40.7917C50.3333 39.0972 52.111 38.25 54.2501 38.25C55.3056 38.25 56.2638 38.5139 57.125 39.0417C58.0139 39.5417 58.7083 40.2222 59.2083 41.0833C59.7362 41.9444 60 42.9167 60 44C60 45.0555 59.7362 46.0278 59.2083 46.9166C58.7083 47.7778 58.0139 48.4722 57.125 49C56.2638 49.5 55.3056 49.7499 54.2501 49.7499C52.9445 49.7499 51.8195 49.4306 50.875 48.7917C49.9584 48.1528 48.9306 47.2222 47.7917 46C46.9306 45.0555 46.111 44.5834 45.3333 44.5834H44.6667V45.3333C44.6667 46.3611 45.5139 47.5555 47.2083 48.9166C48.9027 50.2778 49.7499 52.0555 49.7499 54.2499C49.7499 55.3056 49.4861 56.2778 48.9584 57.1667C48.4584 58.0278 47.7778 58.7083 46.9166 59.2083C46.0555 59.7362 45.0834 60 44 60Z" fill="white"/>
</g>
</g>
</g>
<defs>
<clipPath id="clip0_163_2628">
<rect width="32" height="32" fill="white" transform="translate(28 28)"/>
</clipPath>
</defs>
</svg>
