<svg width="88" height="88" viewBox="0 0 88 88" fill="none" xmlns="http://www.w3.org/2000/svg">
<g opacity="0.15">
<path d="M40.5359 8C42.0755 5.33334 45.9245 5.33333 47.4641 8L76.909 59C78.4486 61.6667 76.5241 65 73.4449 65H14.5551C11.4759 65 9.55143 61.6667 11.091 59L40.5359 8Z" stroke="white" stroke-width="2"/>
<g clip-path="url(#clip0_163_2655)">
<path d="M54.554 49.4458C53.6793 50.3205 52.2609 50.3205 51.3861 49.4458L47.5242 45.5837C46.6493 44.709 46.6493 43.2908 47.5242 42.416L51.3861 38.554C52.2609 37.6792 53.6793 37.6792 54.554 38.554L58.4161 42.416C59.2908 43.2908 59.2908 44.709 58.4161 45.5837L54.554 49.4458ZM36.6136 49.4458C35.7389 50.3205 34.3206 50.3205 33.4458 49.4458L29.5838 45.5837C28.709 44.709 28.709 43.2908 29.5838 42.416L33.4458 38.554C34.3206 37.6792 35.7389 37.6792 36.6136 38.554L40.4756 42.416C41.3504 43.2908 41.3504 44.709 40.4756 45.5837L36.6136 49.4458ZM45.5839 58.4159C44.709 59.2908 43.2908 59.2908 42.416 58.4159L38.554 54.554C37.6792 53.6793 37.6792 52.2609 38.554 51.3861L42.416 47.5242C43.2908 46.6493 44.709 46.6493 45.5839 47.5242L49.4458 51.3861C50.3205 52.2609 50.3205 53.6793 49.4458 54.554L45.5839 58.4159ZM45.5839 40.4756C44.709 41.3504 43.2908 41.3504 42.416 40.4756L38.554 36.6136C37.6792 35.7389 37.6792 34.3206 38.554 33.4458L42.416 29.5838C43.2908 28.709 44.709 28.709 45.5839 29.5838L49.4458 33.4458C50.3205 34.3206 50.3205 35.7389 49.4458 36.6136L45.5839 40.4756Z" fill="white"/>
</g>
</g>
<defs>
<clipPath id="clip0_163_2655">
<rect width="32" height="32" fill="white" transform="translate(28 28)"/>
</clipPath>
</defs>
</svg>
