<svg width="88" height="88" viewBox="0 0 88 88" fill="none" xmlns="http://www.w3.org/2000/svg">
<g opacity="0.15">
<path d="M40.5359 8C42.0755 5.33334 45.9245 5.33333 47.4641 8L76.909 59C78.4486 61.6667 76.5241 65 73.4449 65H14.5551C11.4759 65 9.55143 61.6667 11.091 59L40.5359 8Z" stroke="white" stroke-width="2"/>
<g clip-path="url(#clip0_163_2646)">
<mask id="mask0_163_2646" style="mask-type:luminance" maskUnits="userSpaceOnUse" x="28" y="28" width="32" height="32">
<path d="M60 28H28V60H60V28Z" fill="white"/>
</mask>
<g mask="url(#mask0_163_2646)">
<path fill-rule="evenodd" clip-rule="evenodd" d="M44 36C44 31.5817 40.4183 28 36 28C36 32.4176 39.5807 35.999 43.9981 36C39.5807 36.001 36 39.5824 36 44C36 39.5817 32.4183 36 28 36C28 40.4183 31.5817 44 36 44C31.5817 44 28 47.5818 28 52C32.4175 52 35.9988 48.4195 36 44.0022C36.0012 48.4195 39.5825 52 44 52C39.5817 52 36 55.5818 36 60C40.4183 60 44 56.4182 44 52C48.4182 52 52 48.4182 52 44C52 48.4182 55.5818 52 60 52C60 47.5818 56.4182 44 52 44C52 39.5817 48.4182 36 44 36ZM52 28C47.5818 28 44 31.5817 44 36C48.4182 36 52 32.4183 52 28ZM52 60C47.5818 60 44 56.4182 44 52C48.4182 52 52 55.5818 52 60ZM60 36C60 40.4183 56.4182 44 52 44C52 39.5817 55.5818 36 60 36Z" fill="white"/>
</g>
</g>
</g>
<defs>
<clipPath id="clip0_163_2646">
<rect width="32" height="32" fill="white" transform="translate(28 28)"/>
</clipPath>
</defs>
</svg>
