<svg width="88" height="88" viewBox="0 0 88 88" fill="none" xmlns="http://www.w3.org/2000/svg">
<g opacity="0.15">
<path d="M40.5359 8C42.0755 5.33334 45.9245 5.33333 47.4641 8L76.909 59C78.4486 61.6667 76.5241 65 73.4449 65H14.5551C11.4759 65 9.55143 61.6667 11.091 59L40.5359 8Z" stroke="white" stroke-width="2"/>
<g clip-path="url(#clip0_163_2661)">
<mask id="mask0_163_2661" style="mask-type:luminance" maskUnits="userSpaceOnUse" x="28" y="28" width="32" height="32">
<path d="M60 28H28V60H60V28Z" fill="white"/>
</mask>
<g mask="url(#mask0_163_2661)">
<path d="M44.0406 60C43.536 60 43.1094 59.6346 42.9872 59.145C42.5976 57.5845 41.8519 55.925 40.75 54.1667C39.4444 52.0555 37.5833 50.0973 35.1667 48.2917C33.0648 46.703 30.9629 45.6197 28.861 45.0418C28.3632 44.905 28 44.4635 28 43.9472C28 43.4411 28.3492 43.0047 28.836 42.8657C30.8967 42.2774 32.882 41.3221 34.7917 40C36.9861 38.4722 38.8194 36.6389 40.2917 34.5C41.5941 32.5946 42.4881 30.7102 42.9738 28.8467C43.101 28.3586 43.5308 28 44.0354 28C44.5454 28 44.9782 28.3665 45.1024 28.8613C45.3827 29.9785 45.8208 31.1219 46.4166 32.2917C47.1667 33.7361 48.125 35.125 49.2917 36.4583C50.4861 37.7639 51.8195 38.9444 53.2917 40C55.2155 41.3637 57.1712 42.3218 59.159 42.8742C59.6467 43.0097 60 43.4439 60 43.95C60 44.4637 59.636 44.9014 59.1406 45.0373C57.8806 45.3827 56.5837 45.9398 55.2501 46.7083C53.6389 47.6528 52.1389 48.7778 50.7499 50.0834C49.3611 51.3611 48.2222 52.7083 47.3333 54.125C46.2293 55.8869 45.4827 57.5592 45.0939 59.1422C44.9733 59.6333 44.5461 60 44.0406 60Z" fill="white"/>
</g>
</g>
</g>
<defs>
<clipPath id="clip0_163_2661">
<rect width="32" height="32" fill="white" transform="translate(28 28)"/>
</clipPath>
</defs>
</svg>
