<svg width="88" height="88" viewBox="0 0 88 88" fill="none" xmlns="http://www.w3.org/2000/svg">
<g opacity="0.15">
<path d="M40.5359 8C42.0755 5.33334 45.9245 5.33333 47.4641 8L76.909 59C78.4486 61.6667 76.5241 65 73.4449 65H14.5551C11.4759 65 9.55143 61.6667 11.091 59L40.5359 8Z" stroke="white" stroke-width="2"/>
<g clip-path="url(#clip0_163_2637)">
<mask id="mask0_163_2637" style="mask-type:luminance" maskUnits="userSpaceOnUse" x="28" y="28" width="32" height="32">
<path d="M60 28H28V60H60V28Z" fill="white"/>
</mask>
<g mask="url(#mask0_163_2637)">
<path fill-rule="evenodd" clip-rule="evenodd" d="M44 33.3832C42.8438 33.3832 41.9065 34.3204 41.9065 35.4766H36.5234C36.5234 31.3474 39.8708 28 44 28C48.1293 28 51.4766 31.3474 51.4766 35.4766C51.4766 39.6059 48.1293 42.9533 44 42.9533V37.5701C45.1562 37.5701 46.0934 36.6328 46.0934 35.4766C46.0934 34.3204 45.1562 33.3832 44 33.3832ZM54.6168 44C54.6168 42.8438 53.6795 41.9065 52.5234 41.9065V36.5234C56.6526 36.5234 60 39.8708 60 44C60 48.1293 56.6526 51.4766 52.5234 51.4766C48.3941 51.4766 45.0467 48.1293 45.0467 44H50.4299C50.4299 45.1562 51.3672 46.0934 52.5234 46.0934C53.6795 46.0934 54.6168 45.1562 54.6168 44ZM35.4766 46.0934C34.3204 46.0934 33.3832 45.1562 33.3832 44C33.3832 42.8438 34.3204 41.9065 35.4766 41.9065C36.6328 41.9065 37.5701 42.8438 37.5701 44H42.9533C42.9533 39.8708 39.6059 36.5234 35.4766 36.5234C31.3474 36.5234 28 39.8708 28 44C28 48.1293 31.3474 51.4766 35.4766 51.4766V46.0934ZM44 54.6168C45.1562 54.6168 46.0934 53.6795 46.0934 52.5234H51.4766C51.4766 56.6526 48.1293 60 44 60C39.8708 60 36.5234 56.6526 36.5234 52.5234C36.5234 48.3941 39.8708 45.0467 44 45.0467V50.4299C42.8438 50.4299 41.9065 51.3672 41.9065 52.5234C41.9065 53.6795 42.8438 54.6168 44 54.6168Z" fill="white"/>
</g>
</g>
</g>
<defs>
<clipPath id="clip0_163_2637">
<rect width="32" height="32" fill="white" transform="translate(28 28)"/>
</clipPath>
</defs>
</svg>
