<svg width="88" height="88" viewBox="0 0 88 88" fill="none" xmlns="http://www.w3.org/2000/svg">
<g opacity="0.15">
<path d="M40.5359 8C42.0755 5.33334 45.9245 5.33333 47.4641 8L76.909 59C78.4486 61.6667 76.5241 65 73.4449 65H14.5551C11.4759 65 9.55143 61.6667 11.091 59L40.5359 8Z" stroke="white" stroke-width="2"/>
<g clip-path="url(#clip0_163_2674)">
<mask id="mask0_163_2674" style="mask-type:luminance" maskUnits="userSpaceOnUse" x="28" y="28" width="32" height="32">
<path d="M60 28H28V60H60V28Z" fill="white"/>
</mask>
<g mask="url(#mask0_163_2674)">
<path fill-rule="evenodd" clip-rule="evenodd" d="M44 28C39.5817 28 36 31.5817 36 36C31.5817 36 28 39.5817 28 44C28 48.4182 31.5817 52 36 52C36 56.4182 39.5817 60 44 60C48.4182 60 52 56.4182 52 52C56.4182 52 60 48.4182 60 44C60 39.5817 56.4182 36 52 36C52 31.5817 48.4182 28 44 28ZM50.449 37.551C50.449 33.9893 47.5616 31.102 44 31.102C40.4383 31.102 37.551 33.9893 37.551 37.551C33.9893 37.551 31.102 40.4383 31.102 44C31.102 47.5616 33.9893 50.449 37.551 50.449C37.551 54.0107 40.4383 56.8979 44 56.8979C47.5616 56.8979 50.449 54.0107 50.449 50.449C54.0107 50.449 56.8979 47.5616 56.8979 44C56.8979 40.4383 54.0107 37.551 50.449 37.551ZM39.102 39.102C39.102 36.397 41.2949 34.2041 44 34.2041C46.7051 34.2041 48.8979 36.397 48.8979 39.102C51.603 39.102 53.7958 41.2949 53.7958 44C53.7958 46.7051 51.603 48.8979 48.8979 48.8979C48.8979 51.603 46.7051 53.7958 44 53.7958C41.2949 53.7958 39.102 51.603 39.102 48.8979C36.397 48.8979 34.2041 46.7051 34.2041 44C34.2041 41.2949 36.397 39.102 39.102 39.102Z" fill="white"/>
</g>
</g>
</g>
<defs>
<clipPath id="clip0_163_2674">
<rect width="32" height="32" fill="white" transform="translate(28 28)"/>
</clipPath>
</defs>
</svg>
