<svg width="90" height="48" viewBox="0 0 90 48" fill="none" xmlns="http://www.w3.org/2000/svg">
<path fill-rule="evenodd" clip-rule="evenodd" d="M45.0001 48C63.5166 48 79.5835 36.2813 87.5828 29.2213C90.8057 26.3767 90.8057 21.6233 87.5828 18.7787C79.5835 11.7187 63.5166 0 45.0001 0C26.4834 0 10.4166 11.7187 2.41725 18.7788C-0.805754 21.6233 -0.805749 26.3767 2.41726 29.2213C10.4166 36.2813 26.4834 48 45.0001 48ZM45.0001 40.7442C54.3528 40.7442 61.9344 33.2476 61.9344 23.9999C61.9344 14.7524 54.3528 7.25577 45.0001 7.25577C35.6475 7.25577 28.0658 14.7524 28.0658 23.9999C28.0658 33.2476 35.6475 40.7442 45.0001 40.7442Z" fill="white"/>
</svg>
