<svg width="711" height="431" viewBox="0 0 711 431" fill="none" xmlns="http://www.w3.org/2000/svg">
<mask id="mask0_189_5225" style="mask-type:alpha" maskUnits="userSpaceOnUse" x="0" y="0" width="711" height="431">
<rect width="711" height="431" fill="#D9D9D9"/>
</mask>
<g mask="url(#mask0_189_5225)">
<path d="M849.687 215H401.187" stroke="#252627"/>
<line x1="401.687" y1="-233" x2="401.687" y2="664" stroke="#252627"/>
<line x1="84.4035" y1="-101.99" x2="718.678" y2="532.284" stroke="#252627"/>
<line x1="718.677" y1="-101.283" x2="84.4022" y2="532.992" stroke="#252627"/>
<path d="M834.535 331.098L401.317 215.018" stroke="#252627"/>
<line x1="517.75" y1="-217.589" x2="285.589" y2="648.846" stroke="#252627"/>
<line x1="177.37" y1="-173.162" x2="625.87" y2="603.663" stroke="#252627"/>
<path d="M789.849 -8.31641L401.436 215.934" stroke="#252627"/>
<path d="M789.849 439.316L401.437 215.066" stroke="#252627"/>
<line x1="625.87" y1="-172.662" x2="177.37" y2="604.163" stroke="#252627"/>
<line x1="285.59" y1="-217.848" x2="517.75" y2="648.587" stroke="#252627"/>
<path d="M834.533 99.9004L401.315 215.981" stroke="#252627"/>
<path d="M845.394 277.423L401.259 215.004" stroke="#252627"/>
<line x1="464.102" y1="-228.565" x2="339.263" y2="659.705" stroke="#252627"/>
<line x1="131.674" y1="-142.988" x2="671.502" y2="573.388" stroke="#252627"/>
<line x1="759.677" y1="-54.0147" x2="43.3009" y2="485.813" stroke="#252627"/>
<path d="M814.231 390.284L401.385 215.041" stroke="#252627"/>
<line x1="576.891" y1="-197.152" x2="226.405" y2="628.541" stroke="#252627"/>
<line x1="233.641" y1="-200.529" x2="569.663" y2="631.155" stroke="#252627"/>
<path d="M817.218 47.9512L401.376 215.962" stroke="#252627"/>
<line x1="48.0726" y1="-61.019" x2="754.918" y2="491.229" stroke="#252627"/>
<line x1="677.706" y1="-137.616" x2="125.457" y2="569.23" stroke="#252627"/>
<line x1="347.027" y1="-229.717" x2="456.343" y2="660.597" stroke="#252627"/>
<path d="M846.406 161.336L401.249 215.994" stroke="#252627"/>
</g>
</svg>
