<svg width="308" height="103" viewBox="0 0 308 103" fill="none" xmlns="http://www.w3.org/2000/svg">
<path d="M20.3124 26.6493H12.0229V45H5.69506V0.705117H25.0582C28.0112 0.705117 30.5424 1.27462 32.6517 2.41363C34.8031 3.51046 36.4273 5.05024 37.5241 7.03296C38.6631 8.9735 39.2326 11.1882 39.2326 13.6772C39.2326 17.0099 38.2412 19.8574 36.2585 22.2198C34.2758 24.54 31.4916 25.9532 27.9058 26.4594L42.6496 45H34.6766L20.3124 26.6493ZM12.0229 20.8909H24.6786C27.2097 20.8909 29.1503 20.2792 30.5002 19.0559C31.8923 17.7903 32.5884 15.9974 32.5884 13.6772C32.5884 11.357 31.8923 9.58519 30.5002 8.3618C29.1503 7.09624 27.2097 6.46345 24.6786 6.46345H12.0229V20.8909ZM56.2288 6.65329V19.8785H77.7434V25.8266H56.2288V39.0518H79.6418V45H49.901V0.705117H79.6418V6.65329H56.2288ZM128.087 0.705117L114.102 45H99.0421L85.0575 0.705117H91.6385L103.598 39.1784H109.61L121.696 0.705117H128.087ZM142.972 6.65329V19.8785H164.487V25.8266H142.972V39.0518H166.385V45H136.644V0.705117H166.385V6.65329H142.972ZM214.801 45H208.473V6.77984H183.161V45H176.833V0.705117H214.801V45ZM265.124 0.705117V45H227.157V0.705117H233.485V38.9253H258.796V0.705117H265.124ZM283.809 6.65329V19.8785H305.323V25.8266H283.809V39.0518H307.222V45H277.481V0.705117H307.222V6.65329H283.809ZM38.9162 63.7798H23.0966V102H16.7688V63.7798H0.949176V57.7051H38.9162V63.7798ZM63.5997 102.633C59.339 102.633 55.4368 101.641 51.8932 99.6587C48.3496 97.6338 45.5654 94.8917 43.5405 91.4325C41.5156 87.9311 40.5031 84.0711 40.5031 79.8526C40.5031 75.634 41.5156 71.7951 43.5405 68.3359C45.5654 64.8345 48.3496 62.0924 51.8932 60.1097C55.4368 58.0848 59.339 57.0723 63.5997 57.0723C67.8605 57.0723 71.7627 58.0848 75.3062 60.1097C78.8498 62.0924 81.6341 64.8345 83.659 68.3359C85.6839 71.7951 86.6964 75.634 86.6964 79.8526C86.6964 84.0711 85.6839 87.9311 83.659 91.4325C81.6341 94.8917 78.8498 97.6338 75.3062 99.6587C71.7627 101.641 67.8605 102.633 63.5997 102.633ZM63.5997 96.5581C66.6371 96.5581 69.4003 95.8198 71.8892 94.3433C74.4203 92.8668 76.4031 90.863 77.8374 88.3319C79.3139 85.7585 80.0521 82.9321 80.0521 79.8526C80.0521 76.773 79.3139 73.9677 77.8374 71.4365C76.4031 68.8632 74.4203 66.8383 71.8892 65.3618C69.4003 63.8853 66.6371 63.1471 63.5997 63.1471C60.5624 63.1471 57.7781 63.8853 55.247 65.3618C52.758 66.8383 50.7753 68.8632 49.2988 71.4365C47.8645 73.9677 47.1474 76.773 47.1474 79.8526C47.1474 82.9321 47.8645 85.7585 49.2988 88.3319C50.7753 90.863 52.758 92.8668 55.247 94.3433C57.7781 95.8198 60.5624 96.5581 63.5997 96.5581ZM110.129 82.8899H102.536V102H96.2079V57.7051H102.536V76.8152H110.003L126.202 57.7051H133.542L115.191 79.2831L133.922 102H125.949L110.129 82.8899ZM148.781 63.6533V76.8785H170.296V82.8266H148.781V96.0518H172.194V102H142.453V57.7051H172.194V63.6533H148.781ZM220.609 102H214.281V63.7798H188.97V102H182.642V57.7051H220.609V102Z" fill="#EAEAEA"/>
</svg>
