<svg width="309" height="150" viewBox="0 0 309 150" fill="none" xmlns="http://www.w3.org/2000/svg">
<path d="M25.1665 4.28368H14.9362V29H10.8441V4.28368H0.613816V0.355257H25.1665V4.28368ZM54.6248 0.355257V29H50.5327V16.6418H34.1643V29H30.0722V0.355257H34.1643V12.7134H50.5327V0.355257H54.6248ZM66.7077 4.20184V12.7543H80.6209V16.6009H66.7077V25.1534H81.8485V29H62.6156V0.355257H81.8485V4.20184H66.7077ZM125.241 0.355257V29H100.688V0.355257H104.78V25.0716H121.149V0.355257H125.241ZM152.465 25.0716V29H133.232V0.355257H137.324V25.0716H152.465ZM173.951 4.28368H163.721V29H159.629V4.28368H149.399V0.355257H173.951V4.28368ZM182.949 0.355257V29H178.857V0.355257H182.949ZM229.406 29H225.314V4.28368H212.219V29H208.127V4.28368H195.032V29H190.94V0.355257H229.406V29ZM256.05 22.4526H240.705L238.659 29H234.526L243.569 0.355257H253.308L262.352 29H258.096L256.05 22.4526ZM254.904 18.6879L250.362 4.11999H246.475L241.891 18.6879H254.904ZM284.863 4.28368H274.633V29H270.541V4.28368H260.311V0.355257H284.863V4.28368ZM293.861 4.20184V12.7543H307.774V16.6009H293.861V25.1534H309.002V29H289.769V0.355257H309.002V4.20184H293.861ZM16.2047 40.3553C18.1144 40.3553 19.7512 40.7235 21.1153 41.4601C22.5066 42.1694 23.5569 43.1652 24.2662 44.4474C25.0028 45.7023 25.3711 47.1345 25.3711 48.7441C25.3711 50.3536 25.0028 51.7995 24.2662 53.0817C23.5569 54.3366 22.5066 55.3324 21.1153 56.0689C19.7512 56.7782 18.1144 57.1329 16.2047 57.1329H7.775V69H3.6829V40.3553H16.2047ZM16.082 53.3272C17.7188 53.3272 18.9601 52.9453 19.8058 52.1814C20.6515 51.3903 21.0743 50.2445 21.0743 48.7441C21.0743 47.2436 20.6515 46.1115 19.8058 45.3476C18.9601 44.5838 17.7188 44.2018 16.082 44.2018H7.775V53.3272H16.082ZM44.0061 69.4092C41.2508 69.4092 38.7273 68.7681 36.4357 67.4859C34.1441 66.1764 32.3436 64.4032 31.0341 62.1662C29.7247 59.9019 29.0699 57.4057 29.0699 54.6776C29.0699 51.9496 29.7247 49.467 31.0341 47.23C32.3436 44.9657 34.1441 43.1925 36.4357 41.9103C38.7273 40.6008 41.2508 39.946 44.0061 39.946C46.7615 39.946 49.2849 40.6008 51.5765 41.9103C53.8681 43.1925 55.6686 44.9657 56.9781 47.23C58.2876 49.467 58.9423 51.9496 58.9423 54.6776C58.9423 57.4057 58.2876 59.9019 56.9781 62.1662C55.6686 64.4032 53.8681 66.1764 51.5765 67.4859C49.2849 68.7681 46.7615 69.4092 44.0061 69.4092ZM44.0061 65.4808C45.9703 65.4808 47.7572 65.0034 49.3668 64.0486C51.0036 63.0937 52.2858 61.7979 53.2134 60.1611C54.1682 58.4969 54.6456 56.6691 54.6456 54.6776C54.6456 52.6861 54.1682 50.872 53.2134 49.2351C52.2858 47.571 51.0036 46.2615 49.3668 45.3067C47.7572 44.3519 45.9703 43.8745 44.0061 43.8745C42.0419 43.8745 40.2414 44.3519 38.6045 45.3067C36.995 46.2615 35.7128 47.571 34.758 49.2351C33.8304 50.872 33.3666 52.6861 33.3666 54.6776C33.3666 56.6691 33.8304 58.4969 34.758 60.1611C35.7128 61.7979 36.995 63.0937 38.6045 64.0486C40.2414 65.0034 42.0419 65.4808 44.0061 65.4808ZM74.546 57.1329H69.1854V69H65.0933V40.3553H77.6151C79.5247 40.3553 81.1616 40.7235 82.5256 41.4601C83.9169 42.1694 84.9672 43.1652 85.6765 44.4474C86.4131 45.7023 86.7814 47.1345 86.7814 48.7441C86.7814 50.8993 86.1403 52.7407 84.8581 54.2684C83.5759 55.7689 81.7754 56.6828 79.4565 57.0101L88.9912 69H83.8351L74.546 57.1329ZM69.1854 53.4091H77.3696C79.0064 53.4091 80.2613 53.0135 81.1343 52.2224C82.0346 51.4039 82.4847 50.2445 82.4847 48.7441C82.4847 47.2436 82.0346 46.0978 81.1343 45.3067C80.2613 44.4883 79.0064 44.0791 77.3696 44.0791H69.1854V53.4091ZM114.764 44.2837H104.534V69H100.442V44.2837H90.2118V40.3553H114.764V44.2837ZM123.762 44.2837V52.7543H137.675V56.6009H123.762V69H119.67V40.3553H138.903V44.2837H123.762ZM157.116 69.4092C154.361 69.4092 151.837 68.7681 149.546 67.4859C147.254 66.1764 145.454 64.4032 144.144 62.1662C142.835 59.9019 142.18 57.4057 142.18 54.6776C142.18 51.9496 142.835 49.467 144.144 47.23C145.454 44.9657 147.254 43.1925 149.546 41.9103C151.837 40.6008 154.361 39.946 157.116 39.946C159.871 39.946 162.395 40.6008 164.686 41.9103C166.978 43.1925 168.779 44.9657 170.088 47.23C171.398 49.467 172.052 51.9496 172.052 54.6776C172.052 57.4057 171.398 59.9019 170.088 62.1662C168.779 64.4032 166.978 66.1764 164.686 67.4859C162.395 68.7681 159.871 69.4092 157.116 69.4092ZM157.116 65.4808C159.08 65.4808 160.867 65.0034 162.477 64.0486C164.114 63.0937 165.396 61.7979 166.323 60.1611C167.278 58.4969 167.756 56.6691 167.756 54.6776C167.756 52.6861 167.278 50.872 166.323 49.2351C165.396 47.571 164.114 46.2615 162.477 45.3067C160.867 44.3519 159.08 43.8745 157.116 43.8745C155.152 43.8745 153.351 44.3519 151.715 45.3067C150.105 46.2615 148.823 47.571 147.868 49.2351C146.94 50.872 146.477 52.6861 146.477 54.6776C146.477 56.6691 146.94 58.4969 147.868 60.1611C148.823 61.7979 150.105 63.0937 151.715 64.0486C153.351 65.0034 155.152 65.4808 157.116 65.4808ZM197.436 65.0716V69H178.203V40.3553H182.295V65.0716H197.436ZM206.447 40.3553V69H202.355V40.3553H206.447ZM227.532 69.4092C224.777 69.4092 222.253 68.7681 219.962 67.4859C217.67 66.1764 215.87 64.4032 214.56 62.1662C213.251 59.9019 212.596 57.4057 212.596 54.6776C212.596 51.9496 213.251 49.467 214.56 47.23C215.87 44.9657 217.67 43.1925 219.962 41.9103C222.253 40.6008 224.777 39.946 227.532 39.946C230.288 39.946 232.811 40.6008 235.103 41.9103C237.394 43.1925 239.195 44.9657 240.504 47.23C241.814 49.467 242.468 51.9496 242.468 54.6776C242.468 57.4057 241.814 59.9019 240.504 62.1662C239.195 64.4032 237.394 66.1764 235.103 67.4859C232.811 68.7681 230.288 69.4092 227.532 69.4092ZM227.532 65.4808C229.496 65.4808 231.283 65.0034 232.893 64.0486C234.53 63.0937 235.812 61.7979 236.74 60.1611C237.694 58.4969 238.172 56.6691 238.172 54.6776C238.172 52.6861 237.694 50.872 236.74 49.2351C235.812 47.571 234.53 46.2615 232.893 45.3067C231.283 44.3519 229.496 43.8745 227.532 43.8745C225.568 43.8745 223.768 44.3519 222.131 45.3067C220.521 46.2615 219.239 47.571 218.284 49.2351C217.357 50.872 216.893 52.6861 216.893 54.6776C216.893 56.6691 217.357 58.4969 218.284 60.1611C219.239 61.7979 220.521 63.0937 222.131 64.0486C223.768 65.0034 225.568 65.4808 227.532 65.4808ZM42.1487 109H38.0566V84.2837H24.9618V109H20.8697V84.2837H7.775V109H3.6829V80.3553H42.1487V109ZM68.7931 102.453H53.4477L51.4016 109H47.2686L56.3122 80.3553H66.0514L75.0949 109H70.8391L68.7931 102.453ZM67.6473 98.6879L63.1051 84.12H59.2176L54.6344 98.6879H67.6473ZM104.752 109H100.659V84.2837H84.291V109H80.1989V80.3553H104.752V109ZM131.402 102.453H116.057L114.011 109H109.878L118.921 80.3553H128.661L137.704 109H133.448L131.402 102.453ZM130.257 98.6879L125.714 84.12H121.827L117.244 98.6879H130.257ZM168.168 94.2684V109H164.485V104.171C163.367 105.781 161.921 107.063 160.147 108.018C158.401 108.945 156.41 109.409 154.173 109.409C151.499 109.409 149.058 108.768 146.848 107.486C144.638 106.176 142.892 104.403 141.61 102.166C140.355 99.9019 139.728 97.4057 139.728 94.6776C139.728 91.9496 140.369 89.467 141.651 87.23C142.961 84.9657 144.734 83.1925 146.971 81.9103C149.208 80.6008 151.69 79.946 154.418 79.946C157.283 79.946 159.861 80.7235 162.153 82.2785C164.471 83.8335 166.136 85.9205 167.145 88.5395H162.48C161.634 87.0936 160.516 85.9614 159.124 85.143C157.733 84.2973 156.164 83.8745 154.418 83.8745C152.482 83.8745 150.722 84.3519 149.14 85.3067C147.557 86.2615 146.302 87.571 145.375 89.2351C144.475 90.872 144.025 92.6861 144.025 94.6776C144.025 96.6691 144.475 98.4969 145.375 100.161C146.275 101.798 147.503 103.094 149.058 104.049C150.613 105.003 152.332 105.481 154.214 105.481C156.751 105.481 158.865 104.771 160.557 103.353C162.275 101.907 163.407 100.12 163.953 97.9922H153.764V94.2684H168.168ZM179.404 84.2018V92.7543H193.317V96.6009H179.404V105.153H194.544V109H175.312V80.3553H194.544V84.2018H179.404ZM210.754 97.1329H205.393V109H201.301V80.3553H213.823C215.733 80.3553 217.37 80.7235 218.734 81.4601C220.125 82.1694 221.175 83.1652 221.885 84.4474C222.621 85.7023 222.989 87.1345 222.989 88.7441C222.989 90.8993 222.348 92.7407 221.066 94.2684C219.784 95.7689 217.983 96.6828 215.665 97.0101L225.199 109H220.043L210.754 97.1329ZM205.393 93.4091H213.578C215.214 93.4091 216.469 93.0135 217.342 92.2224C218.243 91.4039 218.693 90.2445 218.693 88.7441C218.693 87.2436 218.243 86.0978 217.342 85.3067C216.469 84.4883 215.214 84.0791 213.578 84.0791H205.393V93.4091ZM7.775 124.284V132.754H21.6882V136.601H7.775V149H3.6829V120.355H22.9158V124.284H7.775ZM41.1289 149.409C38.3735 149.409 35.85 148.768 33.5585 147.486C31.2669 146.176 29.4664 144.403 28.1569 142.166C26.8474 139.902 26.1927 137.406 26.1927 134.678C26.1927 131.95 26.8474 129.467 28.1569 127.23C29.4664 124.966 31.2669 123.192 33.5585 121.91C35.85 120.601 38.3735 119.946 41.1289 119.946C43.8842 119.946 46.4077 120.601 48.6993 121.91C50.9908 123.192 52.7914 124.966 54.1008 127.23C55.4103 129.467 56.065 131.95 56.065 134.678C56.065 137.406 55.4103 139.902 54.1008 142.166C52.7914 144.403 50.9908 146.176 48.6993 147.486C46.4077 148.768 43.8842 149.409 41.1289 149.409ZM41.1289 145.481C43.0931 145.481 44.88 145.003 46.4895 144.049C48.1264 143.094 49.4086 141.798 50.3361 140.161C51.2909 138.497 51.7683 136.669 51.7683 134.678C51.7683 132.686 51.2909 130.872 50.3361 129.235C49.4086 127.571 48.1264 126.262 46.4895 125.307C44.88 124.352 43.0931 123.874 41.1289 123.874C39.1647 123.874 37.3641 124.352 35.7273 125.307C34.1177 126.262 32.8355 127.571 31.8807 129.235C30.9532 130.872 30.4894 132.686 30.4894 134.678C30.4894 136.669 30.9532 138.497 31.8807 140.161C32.8355 141.798 34.1177 143.094 35.7273 144.049C37.3641 145.003 39.1647 145.481 41.1289 145.481ZM71.6688 137.133H66.3081V149H62.216V120.355H74.7378C76.6475 120.355 78.2843 120.724 79.6484 121.46C81.0397 122.169 82.09 123.165 82.7993 124.447C83.5359 125.702 83.9042 127.135 83.9042 128.744C83.9042 130.899 83.2631 132.741 81.9809 134.268C80.6987 135.769 78.8981 136.683 76.5793 137.01L86.1139 149H80.9578L71.6688 137.133ZM66.3081 133.409H74.4923C76.1292 133.409 77.3841 133.014 78.257 132.222C79.1573 131.404 79.6074 130.245 79.6074 128.744C79.6074 127.244 79.1573 126.098 78.257 125.307C77.3841 124.488 76.1292 124.079 74.4923 124.079H66.3081V133.409ZM121.546 142.453H106.201L104.155 149H100.022L109.065 120.355H118.804L127.848 149H123.592L121.546 142.453ZM120.4 138.688L115.858 124.12H111.971L107.387 138.688H120.4ZM152.185 145.072V149H132.952V120.355H137.044V145.072H152.185ZM176.336 145.072V149H157.103V120.355H161.195V145.072H176.336Z" fill="#EAEAEA"/>
</svg>
