<svg width="297" height="132" viewBox="0 0 297 132" fill="none" xmlns="http://www.w3.org/2000/svg">
<path d="M53.8384 1.36681V57H45.8908V32.9983H14.1004V57H6.15284V1.36681H14.1004V25.3686H45.8908V1.36681H53.8384ZM94.7903 57.7948C89.4389 57.7948 84.5379 56.5496 80.0872 54.0594C75.6366 51.5162 72.1396 48.0722 69.5964 43.7275C67.0532 39.3298 65.7816 34.4818 65.7816 29.1834C65.7816 23.885 67.0532 19.0635 69.5964 14.7188C72.1396 10.3211 75.6366 6.87714 80.0872 4.38689C84.5379 1.84366 89.4389 0.572049 94.7903 0.572049C100.142 0.572049 105.043 1.84366 109.493 4.38689C113.944 6.87714 117.441 10.3211 119.984 14.7188C122.527 19.0635 123.799 23.885 123.799 29.1834C123.799 34.4818 122.527 39.3298 119.984 43.7275C117.441 48.0722 113.944 51.5162 109.493 54.0594C105.043 56.5496 100.142 57.7948 94.7903 57.7948ZM94.7903 50.1651C98.6051 50.1651 102.076 49.2378 105.202 47.3834C108.381 45.529 110.871 43.0122 112.672 39.8332C114.527 36.6012 115.454 33.0512 115.454 29.1834C115.454 25.3156 114.527 21.7921 112.672 18.6131C110.871 15.3811 108.381 12.8378 105.202 10.9834C102.076 9.12896 98.6051 8.20174 94.7903 8.20174C90.9754 8.20174 87.4785 9.12896 84.2995 10.9834C81.1734 12.8378 78.6832 15.3811 76.8287 18.6131C75.0273 21.7921 74.1265 25.3156 74.1265 29.1834C74.1265 33.0512 75.0273 36.6012 76.8287 39.8332C78.6832 43.0122 81.1734 45.529 84.2995 47.3834C87.4785 49.2378 90.9754 50.1651 94.7903 50.1651ZM210.453 1.36681V57H135.745V1.36681H143.693V49.3703H169.125V1.36681H177.073V49.3703H202.505V1.36681H210.453ZM47.8777 82.9965H28.0087V131H20.0611V82.9965H0.19214V75.3668H47.8777V82.9965ZM78.8796 131.795C73.5282 131.795 68.6272 130.55 64.1765 128.059C59.7259 125.516 56.2289 122.072 53.6857 117.728C51.1425 113.33 49.8708 108.482 49.8708 103.183C49.8708 97.885 51.1425 93.0635 53.6857 88.7188C56.2289 84.3211 59.7259 80.8771 64.1765 78.3869C68.6272 75.8437 73.5282 74.572 78.8796 74.572C84.231 74.572 89.132 75.8437 93.5826 78.3869C98.0333 80.8771 101.53 84.3211 104.073 88.7188C106.617 93.0635 107.888 97.885 107.888 103.183C107.888 108.482 106.617 113.33 104.073 117.728C101.53 122.072 98.0333 125.516 93.5826 128.059C89.132 130.55 84.231 131.795 78.8796 131.795ZM78.8796 124.165C82.6944 124.165 86.1649 123.238 89.2909 121.383C92.47 119.529 94.9602 117.012 96.7617 113.833C98.6161 110.601 99.5433 107.051 99.5433 103.183C99.5433 99.3156 98.6161 95.7921 96.7617 92.6131C94.9602 89.3811 92.47 86.8378 89.2909 84.9834C86.1649 83.129 82.6944 82.2017 78.8796 82.2017C75.0647 82.2017 71.5678 83.129 68.3887 84.9834C65.2627 86.8378 62.7724 89.3811 60.918 92.6131C59.1165 95.7921 58.2158 99.3156 58.2158 103.183C58.2158 107.051 59.1165 110.601 60.918 113.833C62.7724 117.012 65.2627 119.529 68.3887 121.383C71.5678 123.238 75.0647 124.165 78.8796 124.165ZM190.987 75.3668V131H143.302V75.3668H151.249V123.37H183.04V75.3668H190.987ZM225.978 131.795C219.514 131.795 214.057 130.205 209.606 127.026C205.209 123.794 202.533 119.317 201.579 113.595H209.527C210.852 117.251 212.838 119.926 215.488 121.622C218.19 123.317 221.766 124.165 226.217 124.165C230.509 124.165 233.979 123.397 236.628 121.86C239.277 120.271 240.602 118.231 240.602 115.741C240.602 113.568 239.622 111.82 237.661 110.495C235.701 109.118 232.469 107.978 227.965 107.078L221.925 105.965C215.62 104.852 210.904 102.945 207.778 100.243C204.652 97.4876 203.089 94.0967 203.089 90.0699C203.089 86.9968 204.017 84.2946 205.871 81.9633C207.725 79.632 210.322 77.8306 213.66 76.5589C216.998 75.2343 220.839 74.572 225.184 74.572C230.853 74.572 235.78 75.9761 239.966 78.7843C244.152 81.5394 246.907 85.4338 248.232 90.4672H239.887C238.827 87.7651 236.92 85.7252 234.164 84.3476C231.462 82.917 228.336 82.2017 224.786 82.2017C220.601 82.2017 217.289 82.9435 214.852 84.4271C212.468 85.8576 211.275 87.8445 211.275 90.3878C211.275 92.4541 212.229 94.1231 214.137 95.3948C216.097 96.6664 219.17 97.6731 223.356 98.4148L229.396 99.448C236.072 100.561 240.973 102.468 244.099 105.17C247.225 107.872 248.788 111.343 248.788 115.582C248.788 118.761 247.808 121.569 245.847 124.006C243.94 126.443 241.264 128.351 237.82 129.728C234.376 131.106 230.429 131.795 225.978 131.795ZM267.492 82.8376V99.448H294.514V106.919H267.492V123.529H296.898V131H259.545V75.3668H296.898V82.8376H267.492Z" fill="#EAEAEA"/>
</svg>
