<svg width="628" height="615" viewBox="0 0 628 615" fill="none" xmlns="http://www.w3.org/2000/svg">
<path opacity="0.06" d="M242.017 250.671C266.919 231.468 285.077 212.006 296.491 192.285C307.904 172.044 313.611 150.247 313.611 126.892C313.611 102.5 308.164 83.2975 297.269 69.2848C286.374 54.7532 271.848 47.4873 253.69 47.4873C219.45 47.4873 202.33 73.6962 202.33 126.114C202.33 148.949 205.702 171.006 212.446 192.285C219.19 213.044 229.048 232.506 242.017 250.671ZM197.66 323.848C164.976 342.532 139.556 364.589 121.398 390.019C103.24 414.93 94.1611 440.88 94.1611 467.867C94.1611 496.411 103.24 520.025 121.398 538.709C140.074 556.873 163.939 565.956 192.991 565.956C214.781 565.956 238.126 560.506 263.029 549.608C287.931 538.709 311.536 523.399 333.844 503.677L197.66 323.848ZM389.874 444.513C402.325 428.943 413.738 413.892 424.114 399.361C435.009 384.31 444.347 370.297 452.129 357.323C459.911 343.829 465.877 331.633 470.027 320.734C474.178 309.835 476.253 301.013 476.253 294.266C476.253 285.962 472.362 279.994 464.58 276.361C457.317 272.728 445.385 270.911 428.783 270.911V243.665H607.767V270.911C596.354 270.911 586.496 271.69 578.196 273.247C570.414 274.285 563.41 276.361 557.185 279.475C550.959 282.589 544.993 286.741 539.286 291.93C534.098 297.12 528.91 303.867 523.722 312.171L413.219 474.095C435.009 503.677 457.576 526.253 480.922 541.823C504.786 556.873 528.392 564.399 551.737 564.399C558.482 564.399 564.448 563.88 569.636 562.842C574.824 561.285 579.493 558.949 583.643 555.835C588.312 552.203 592.463 547.532 596.094 541.823C600.245 536.114 604.395 528.848 608.545 520.025L628 525.475C622.293 554.538 609.583 576.854 589.869 592.424C570.154 607.475 544.474 615 512.828 615C499.858 615 487.407 613.443 475.475 610.329C464.061 607.734 452.388 603.063 440.456 596.316C428.524 589.57 415.813 580.747 402.325 569.848C388.836 558.949 374.05 545.456 357.968 529.367C332.028 556.354 301.938 577.373 267.698 592.424C233.976 607.475 199.476 615 164.198 615C140.334 615 118.285 611.627 98.052 604.88C78.3379 597.614 61.2177 588.013 46.6914 576.076C32.1652 563.62 20.7518 549.089 12.4511 532.481C4.15035 515.354 0 496.93 0 477.209C0 441.918 14.0074 409.481 42.0223 379.899C70.0372 349.797 114.913 319.696 176.649 289.595C160.048 265.203 147.856 242.367 140.074 221.089C132.811 199.81 129.18 177.494 129.18 154.139C129.18 131.304 132.292 110.544 138.518 91.8607C145.262 72.6582 154.601 56.3101 166.533 42.8165C178.465 29.3228 192.732 18.943 209.333 11.6772C225.935 3.8924 244.352 0 264.585 0C282.224 0 298.306 2.85442 312.833 8.56327C327.878 14.2722 340.848 22.3165 351.742 32.6962C362.637 43.0759 370.938 55.2721 376.644 69.2848C382.87 83.2975 385.983 98.8671 385.983 115.994C385.983 145.057 376.385 172.304 357.19 197.734C338.513 223.165 307.385 250.671 263.807 280.253L389.874 444.513Z" fill="white"/>
</svg>
