<svg width="951" height="853" viewBox="0 0 951 853" fill="none" xmlns="http://www.w3.org/2000/svg">
<g opacity="0.15">
<path d="M588.34 426.314C588.34 364.072 537.707 313.432 475.465 313.432C413.223 313.432 362.583 364.072 362.583 426.314C362.583 488.556 413.223 539.189 475.465 539.189C537.707 539.189 588.34 488.556 588.34 426.314ZM475.465 521.232C456.69 521.234 438.336 515.667 422.724 505.237C407.113 494.807 394.945 479.982 387.759 462.636C380.573 445.291 378.693 426.204 382.355 407.789C386.018 389.375 395.059 372.46 408.335 359.184C421.611 345.908 438.526 336.867 456.94 333.204C475.355 329.542 494.442 331.422 511.787 338.608C529.133 345.794 543.958 357.962 554.388 373.573C564.818 389.185 570.385 407.539 570.383 426.314C570.353 451.479 560.343 475.604 542.549 493.398C524.755 511.192 500.63 521.202 475.465 521.232ZM546.162 494.594C551.329 489.237 555.875 483.315 559.715 476.939L569.337 482.503C565.001 489.713 559.855 496.405 554 502.447L546.162 494.594ZM561.454 473.98C565.083 467.472 567.957 460.571 570.022 453.411L580.758 456.294C578.45 464.391 575.206 472.191 571.091 479.536L561.454 473.98ZM570.887 450.113C572.687 442.884 573.657 435.472 573.779 428.023L584.899 428.023C584.774 436.444 583.675 444.821 581.624 452.989L570.887 450.113ZM573.786 424.597C573.665 417.15 572.695 409.742 570.895 402.515L581.631 399.631C583.682 407.799 584.781 416.177 584.907 424.597L573.786 424.597ZM570.022 399.21C567.959 392.051 565.09 385.15 561.469 378.64L571.091 373.084C575.207 380.431 578.451 388.234 580.758 396.333L570.022 399.21ZM559.737 375.719C555.896 369.345 551.35 363.422 546.185 358.064L554.045 350.211C559.902 356.254 565.048 362.949 569.382 370.163L559.737 375.719ZM543.746 355.647C538.388 350.48 532.466 345.934 526.09 342.095L531.624 332.412C538.836 336.748 545.528 341.897 551.568 347.756L543.746 355.647ZM523.131 340.333C516.625 336.703 509.723 333.833 502.562 331.78L505.445 321.036C513.54 323.351 521.339 326.595 528.688 330.703L523.131 340.333ZM499.249 330.884C492.022 329.084 484.613 328.114 477.167 327.993L477.167 316.872C485.587 316.997 493.965 318.096 502.133 320.147L499.249 330.884ZM473.741 327.993C466.294 328.114 458.885 329.084 451.658 330.884L448.805 320.147C456.973 318.096 465.35 316.997 473.771 316.872L473.741 327.993ZM448.353 331.757C441.193 333.818 434.294 336.695 427.791 340.333L422.235 330.703C429.583 326.595 437.383 323.351 445.477 321.036L448.353 331.757ZM424.825 342.019C418.45 345.861 412.528 350.407 407.169 355.571L399.317 347.719C405.358 341.857 412.053 336.709 419.269 332.375L424.825 342.019ZM404.753 358.011C399.588 363.369 395.042 369.292 391.2 375.666L381.578 370.11C385.913 362.894 391.061 356.2 396.923 350.158L404.753 358.011ZM389.469 378.625C385.841 385.132 382.972 392.034 380.916 399.194L370.172 396.318C372.485 388.221 375.729 380.419 379.839 373.069L389.469 378.625ZM380.027 402.5C378.227 409.727 377.257 417.135 377.136 424.582L365.986 424.582C366.112 416.162 367.211 407.784 369.261 399.616L380.027 402.5ZM377.136 428.008C377.258 435.457 378.227 442.868 380.027 450.098L369.291 452.974C367.24 444.806 366.141 436.428 366.016 428.008L377.136 428.008ZM380.901 453.396C382.954 460.557 385.824 467.459 389.454 473.965L379.824 479.521C375.723 472.172 372.487 464.373 370.18 456.279L380.901 453.396ZM391.163 476.924C395.002 483.3 399.548 489.222 404.715 494.579L396.862 502.432C391.003 496.392 385.854 489.7 381.518 482.488L391.163 476.924ZM407.154 496.996C412.513 502.161 418.435 506.707 424.81 510.548L419.253 520.178C412.041 515.839 405.347 510.691 399.302 504.834L407.154 496.996ZM427.769 512.288C434.278 515.911 441.179 518.781 448.338 520.841L445.454 531.577C437.358 529.269 429.558 526.025 422.212 521.91L427.769 512.288ZM451.643 521.721C458.87 523.521 466.279 524.491 473.726 524.613L473.726 535.733C465.321 535.609 456.959 534.515 448.805 532.473L451.643 521.721ZM477.151 524.613C484.598 524.491 492.007 523.521 499.234 521.721L502.118 532.458C493.95 534.509 485.572 535.608 477.151 535.733L477.151 524.613ZM502.539 520.848C509.699 518.788 516.6 515.919 523.108 512.295L528.665 521.917C521.326 526.025 513.534 529.264 505.445 531.569L502.539 520.848ZM526.068 510.579C532.443 506.739 538.366 502.193 543.723 497.026L551.576 504.887C545.528 510.737 538.835 515.88 531.624 520.216L526.068 510.579Z" fill="white"/>
<path d="M545.582 426.316C545.584 412.446 541.472 398.887 533.767 387.354C526.062 375.821 515.11 366.832 502.296 361.523C489.482 356.214 475.382 354.825 461.778 357.531C448.174 360.236 435.679 366.915 425.871 376.723C416.063 386.53 409.384 399.026 406.679 412.63C403.973 426.233 405.363 440.334 410.671 453.148C415.98 465.962 424.969 476.914 436.502 484.619C448.035 492.324 461.594 496.435 475.464 496.434C494.054 496.412 511.876 489.018 525.021 475.873C538.166 462.728 545.56 444.906 545.582 426.316ZM408.758 426.316C408.756 413.123 412.667 400.225 419.996 389.254C427.325 378.283 437.743 369.732 449.932 364.682C462.121 359.632 475.533 358.31 488.474 360.883C501.414 363.456 513.301 369.808 522.631 379.137C531.961 388.466 538.315 400.352 540.889 413.292C543.464 426.232 542.143 439.645 537.094 451.835C532.046 464.024 523.496 474.443 512.526 481.773C501.555 489.103 488.658 493.016 475.464 493.016C457.781 492.994 440.827 485.96 428.322 473.456C415.817 460.953 408.781 444 408.758 426.316Z" fill="white"/>
<path d="M513.254 442.331C513.454 442.004 513.537 441.619 513.492 441.238C513.446 440.858 513.274 440.504 513.003 440.233C512.732 439.962 512.378 439.79 511.997 439.744C511.617 439.699 511.232 439.782 510.905 439.982C504.032 444.133 495.968 445.861 487.998 444.891C480.028 443.921 472.613 440.308 466.938 434.629C461.262 428.951 457.652 421.535 456.686 413.564C455.719 405.594 457.451 397.53 461.605 390.66C461.805 390.332 461.888 389.948 461.843 389.567C461.797 389.186 461.625 388.832 461.354 388.561C461.083 388.29 460.729 388.118 460.349 388.073C459.968 388.027 459.583 388.111 459.256 388.311C454.156 391.4 449.826 395.61 446.593 400.619C443.359 405.629 441.307 411.308 440.591 417.228C439.876 423.147 440.515 429.152 442.462 434.788C444.408 440.424 447.611 445.544 451.827 449.76C456.043 453.976 461.163 457.179 466.799 459.125C472.435 461.072 478.439 461.711 484.359 460.996C490.279 460.28 495.958 458.228 500.968 454.994C505.977 451.761 510.186 447.431 513.276 442.331L513.254 442.331ZM454.211 447.353C450.875 444.019 448.227 440.06 446.421 435.703C444.615 431.345 443.686 426.675 443.686 421.958C443.686 417.241 444.615 412.57 446.421 408.212C448.228 403.855 450.875 399.896 454.211 396.562C454.633 396.141 455.062 395.734 455.499 395.335C452.822 402.42 452.246 410.127 453.84 417.531C455.434 424.935 459.131 431.722 464.487 437.077C469.842 442.432 476.63 446.127 484.034 447.721C491.438 449.314 499.145 448.736 506.229 446.058C505.83 446.502 505.424 446.931 505.002 447.353C501.667 450.688 497.708 453.334 493.351 455.139C488.993 456.943 484.323 457.872 479.607 457.872C474.89 457.872 470.22 456.943 465.863 455.139C461.505 453.334 457.546 450.688 454.211 447.353Z" fill="white"/>
<path d="M554.135 426.314C554.135 427.731 555.284 428.881 556.702 428.881C558.12 428.881 559.27 427.731 559.27 426.314C559.27 424.896 558.12 423.746 556.702 423.746C555.284 423.746 554.135 424.896 554.135 426.314Z" fill="white"/>
<path d="M551.456 405.952C551.586 406.443 551.859 406.884 552.241 407.22C552.622 407.555 553.095 407.77 553.599 407.837C554.102 407.904 554.614 407.82 555.07 407.596C555.526 407.371 555.905 407.017 556.159 406.577C556.414 406.137 556.532 405.631 556.498 405.124C556.465 404.617 556.282 404.132 555.973 403.729C555.664 403.326 555.242 403.023 554.76 402.86C554.279 402.697 553.761 402.681 553.27 402.813C552.944 402.899 552.639 403.049 552.371 403.254C552.104 403.459 551.88 403.714 551.711 404.006C551.542 404.297 551.433 404.62 551.389 404.954C551.345 405.288 551.368 405.627 551.456 405.952Z" fill="white"/>
<path d="M543.593 387.012C543.846 387.453 544.224 387.808 544.679 388.034C545.135 388.259 545.647 388.345 546.15 388.279C546.654 388.214 547.127 388 547.51 387.666C547.892 387.331 548.167 386.891 548.299 386.4C548.431 385.909 548.414 385.39 548.251 384.909C548.088 384.428 547.785 384.006 547.382 383.697C546.979 383.387 546.494 383.205 545.986 383.171C545.479 383.138 544.974 383.256 544.534 383.511C544.242 383.679 543.986 383.902 543.781 384.169C543.575 384.436 543.424 384.741 543.337 385.066C543.25 385.391 543.227 385.731 543.271 386.064C543.315 386.398 543.424 386.72 543.593 387.012Z" fill="white"/>
<path d="M531.089 370.685C531.448 371.044 531.905 371.289 532.403 371.388C532.901 371.487 533.418 371.437 533.887 371.242C534.356 371.048 534.758 370.719 535.04 370.297C535.322 369.875 535.473 369.378 535.473 368.87C535.473 368.362 535.322 367.866 535.04 367.443C534.758 367.021 534.356 366.692 533.887 366.498C533.418 366.304 532.901 366.253 532.403 366.352C531.905 366.452 531.448 366.696 531.089 367.056C530.608 367.537 530.338 368.19 530.338 368.87C530.338 369.551 530.608 370.203 531.089 370.685Z" fill="white"/>
<path d="M513.862 354.678C513.608 355.118 513.49 355.624 513.523 356.131C513.556 356.638 513.739 357.123 514.048 357.527C514.358 357.93 514.779 358.232 515.261 358.395C515.742 358.558 516.261 358.575 516.751 358.443C517.242 358.311 517.683 358.036 518.017 357.654C518.352 357.272 518.565 356.799 518.631 356.295C518.696 355.791 518.611 355.279 518.385 354.824C518.16 354.368 517.804 353.99 517.364 353.737C517.072 353.568 516.75 353.457 516.416 353.413C516.082 353.368 515.742 353.391 515.417 353.478C515.091 353.566 514.786 353.717 514.52 353.923C514.253 354.129 514.029 354.385 513.862 354.678Z" fill="white"/>
<path d="M498.963 348.503C499.095 348.013 499.078 347.494 498.915 347.013C498.752 346.532 498.45 346.11 498.047 345.8C497.644 345.491 497.158 345.308 496.651 345.275C496.144 345.242 495.638 345.36 495.199 345.614C494.759 345.868 494.404 346.247 494.18 346.703C493.955 347.159 493.871 347.671 493.938 348.175C494.005 348.678 494.22 349.151 494.555 349.532C494.891 349.914 495.332 350.187 495.823 350.318C496.48 350.493 497.179 350.4 497.768 350.06C498.357 349.72 498.786 349.16 498.963 348.503Z" fill="white"/>
<path d="M472.893 345.079C472.893 346.497 474.042 347.647 475.46 347.647C476.878 347.647 478.027 346.497 478.027 345.079C478.027 343.661 476.878 342.512 475.46 342.512C474.042 342.512 472.893 343.661 472.893 345.079Z" fill="white"/>
<path d="M456.91 347.177C456.779 346.686 456.506 346.245 456.124 345.909C455.743 345.573 455.27 345.359 454.766 345.292C454.263 345.225 453.751 345.309 453.295 345.533C452.839 345.758 452.46 346.112 452.206 346.552C451.952 346.992 451.834 347.498 451.867 348.004C451.9 348.511 452.083 348.997 452.392 349.4C452.702 349.803 453.123 350.105 453.605 350.268C454.086 350.432 454.605 350.448 455.095 350.316C455.752 350.14 456.311 349.71 456.652 349.122C456.992 348.533 457.085 347.834 456.91 347.177Z" fill="white"/>
<path d="M437.061 354.68C436.808 354.239 436.43 353.883 435.975 353.658C435.52 353.432 435.008 353.347 434.504 353.412C434 353.478 433.527 353.691 433.145 354.026C432.762 354.36 432.487 354.801 432.356 355.292C432.224 355.782 432.24 356.301 432.404 356.782C432.567 357.263 432.869 357.685 433.272 357.995C433.675 358.304 434.161 358.487 434.668 358.52C435.175 358.553 435.68 358.435 436.12 358.181C436.709 357.84 437.138 357.281 437.314 356.624C437.491 355.968 437.4 355.269 437.061 354.68Z" fill="white"/>
<path d="M419.831 367.056C419.472 366.696 419.015 366.452 418.517 366.352C418.018 366.253 417.502 366.304 417.033 366.498C416.563 366.692 416.162 367.021 415.88 367.443C415.598 367.866 415.447 368.362 415.447 368.87C415.447 369.378 415.598 369.875 415.88 370.297C416.162 370.719 416.563 371.048 417.033 371.242C417.502 371.437 418.018 371.487 418.517 371.388C419.015 371.289 419.472 371.044 419.831 370.685C420.312 370.203 420.582 369.551 420.582 368.87C420.582 368.19 420.312 367.537 419.831 367.056Z" fill="white"/>
<path d="M407.323 387.013C407.577 386.573 407.696 386.068 407.663 385.561C407.629 385.053 407.447 384.568 407.137 384.165C406.828 383.761 406.406 383.459 405.925 383.296C405.444 383.133 404.925 383.116 404.434 383.248C403.943 383.38 403.503 383.655 403.168 384.037C402.834 384.419 402.62 384.893 402.555 385.396C402.489 385.9 402.574 386.412 402.8 386.868C403.026 387.323 403.381 387.701 403.822 387.954C404.114 388.123 404.436 388.232 404.769 388.276C405.103 388.32 405.443 388.297 405.768 388.21C406.093 388.123 406.398 387.972 406.665 387.766C406.932 387.561 407.155 387.305 407.323 387.013Z" fill="white"/>
<path d="M399.463 405.947C399.595 405.456 399.578 404.937 399.415 404.456C399.252 403.975 398.95 403.553 398.547 403.244C398.144 402.934 397.658 402.752 397.151 402.718C396.644 402.685 396.139 402.803 395.699 403.057C395.259 403.312 394.904 403.691 394.68 404.147C394.456 404.602 394.372 405.115 394.438 405.618C394.505 406.122 394.72 406.594 395.055 406.976C395.391 407.357 395.832 407.631 396.323 407.761C396.649 407.849 396.988 407.871 397.322 407.828C397.656 407.784 397.978 407.674 398.27 407.506C398.561 407.337 398.817 407.113 399.022 406.845C399.226 406.578 399.376 406.272 399.463 405.947Z" fill="white"/>
<path d="M391.696 426.753C391.922 428.153 393.239 429.105 394.639 428.879C396.039 428.653 396.991 427.335 396.765 425.935C396.539 424.535 395.221 423.584 393.821 423.81C392.421 424.035 391.47 425.353 391.696 426.753Z" fill="white"/>
<path d="M399.463 446.673C399.332 446.182 399.059 445.741 398.677 445.405C398.296 445.07 397.823 444.855 397.32 444.788C396.816 444.721 396.304 444.805 395.848 445.03C395.392 445.254 395.013 445.608 394.759 446.048C394.505 446.488 394.387 446.994 394.42 447.501C394.453 448.008 394.636 448.493 394.945 448.896C395.254 449.299 395.677 449.602 396.158 449.765C396.639 449.928 397.158 449.944 397.648 449.812C397.974 449.726 398.279 449.576 398.547 449.371C398.814 449.166 399.039 448.911 399.207 448.619C399.376 448.328 399.485 448.006 399.529 447.671C399.573 447.337 399.55 446.998 399.463 446.673Z" fill="white"/>
<path d="M407.321 465.65C407.067 465.211 406.688 464.856 406.233 464.632C405.778 464.407 405.266 464.323 404.763 464.389C404.259 464.455 403.787 464.669 403.405 465.004C403.024 465.339 402.75 465.779 402.618 466.269C402.487 466.76 402.503 467.278 402.666 467.759C402.829 468.24 403.131 468.661 403.534 468.971C403.936 469.28 404.422 469.463 404.928 469.496C405.435 469.53 405.94 469.412 406.38 469.159C406.673 468.991 406.93 468.767 407.136 468.5C407.342 468.232 407.493 467.927 407.581 467.601C407.668 467.274 407.69 466.934 407.646 466.6C407.601 466.265 407.491 465.942 407.321 465.65Z" fill="white"/>
<path d="M419.831 481.94C419.472 481.581 419.015 481.336 418.517 481.237C418.018 481.138 417.502 481.188 417.033 481.383C416.563 481.577 416.162 481.906 415.88 482.328C415.598 482.751 415.447 483.247 415.447 483.755C415.447 484.263 415.598 484.759 415.88 485.182C416.162 485.604 416.563 485.933 417.033 486.127C417.502 486.321 418.018 486.372 418.517 486.273C419.015 486.173 419.472 485.929 419.831 485.569C420.312 485.088 420.582 484.435 420.582 483.755C420.582 483.074 420.312 482.422 419.831 481.94Z" fill="white"/>
<path d="M437.064 497.949C437.318 497.51 437.437 497.005 437.405 496.498C437.373 495.991 437.191 495.505 436.882 495.102C436.574 494.698 436.153 494.396 435.672 494.231C435.192 494.067 434.673 494.05 434.183 494.18C433.692 494.311 433.251 494.584 432.915 494.965C432.58 495.346 432.365 495.818 432.298 496.322C432.231 496.825 432.314 497.337 432.538 497.793C432.762 498.249 433.116 498.628 433.555 498.882C434.144 499.224 434.845 499.317 435.503 499.142C436.161 498.967 436.722 498.538 437.064 497.949Z" fill="white"/>
<path d="M451.965 504.119C451.833 504.61 451.85 505.129 452.013 505.61C452.176 506.091 452.478 506.513 452.881 506.822C453.284 507.132 453.77 507.315 454.277 507.348C454.784 507.381 455.289 507.263 455.729 507.009C456.169 506.754 456.523 506.375 456.748 505.92C456.972 505.464 457.056 504.952 456.989 504.448C456.923 503.944 456.708 503.472 456.372 503.09C456.037 502.709 455.596 502.435 455.105 502.305C454.779 502.217 454.44 502.195 454.106 502.239C453.772 502.282 453.45 502.392 453.158 502.56C452.866 502.729 452.611 502.953 452.406 503.221C452.201 503.488 452.051 503.794 451.965 504.119Z" fill="white"/>
<path d="M472.893 507.554C472.893 508.972 474.042 510.121 475.46 510.121C476.878 510.121 478.027 508.972 478.027 507.554C478.027 506.136 476.878 504.986 475.46 504.986C474.042 504.986 472.893 506.136 472.893 507.554Z" fill="white"/>
<path d="M493.971 505.444C494.102 505.935 494.375 506.377 494.757 506.712C495.138 507.048 495.611 507.262 496.114 507.329C496.618 507.396 497.13 507.312 497.586 507.088C498.042 506.863 498.421 506.509 498.675 506.069C498.929 505.629 499.047 505.124 499.014 504.617C498.981 504.11 498.798 503.624 498.489 503.221C498.179 502.818 497.757 502.516 497.276 502.353C496.795 502.19 496.276 502.173 495.786 502.305C495.129 502.481 494.57 502.911 494.229 503.5C493.889 504.088 493.796 504.787 493.971 505.444Z" fill="white"/>
<path d="M513.864 497.956C514.118 498.396 514.498 498.75 514.953 498.973C515.409 499.197 515.921 499.281 516.424 499.214C516.928 499.147 517.4 498.932 517.781 498.596C518.162 498.261 518.435 497.82 518.566 497.329C518.697 496.838 518.679 496.32 518.515 495.839C518.351 495.359 518.048 494.938 517.644 494.629C517.241 494.321 516.755 494.139 516.248 494.107C515.742 494.074 515.237 494.193 514.797 494.448C514.208 494.789 513.779 495.351 513.604 496.009C513.429 496.667 513.522 497.367 513.864 497.956Z" fill="white"/>
<path d="M531.089 485.569C531.448 485.929 531.905 486.173 532.403 486.273C532.901 486.372 533.418 486.321 533.887 486.127C534.356 485.933 534.758 485.604 535.04 485.182C535.322 484.759 535.473 484.263 535.473 483.755C535.473 483.247 535.322 482.751 535.04 482.328C534.758 481.906 534.356 481.577 533.887 481.383C533.418 481.188 532.901 481.138 532.403 481.237C531.905 481.336 531.448 481.581 531.089 481.94C530.608 482.422 530.338 483.074 530.338 483.755C530.338 484.435 530.608 485.088 531.089 485.569Z" fill="white"/>
<path d="M543.592 465.644C543.337 466.083 543.217 466.588 543.249 467.095C543.281 467.603 543.463 468.089 543.771 468.493C544.08 468.897 544.501 469.2 544.982 469.364C545.463 469.529 545.982 469.546 546.473 469.415C546.964 469.284 547.405 469.011 547.741 468.629C548.076 468.247 548.29 467.774 548.357 467.27C548.423 466.766 548.339 466.254 548.114 465.798C547.889 465.342 547.534 464.964 547.093 464.71C546.505 464.371 545.806 464.279 545.15 464.454C544.494 464.629 543.934 465.057 543.592 465.644Z" fill="white"/>
<path d="M551.457 446.676C551.325 447.167 551.342 447.685 551.505 448.167C551.668 448.648 551.97 449.07 552.373 449.379C552.776 449.688 553.262 449.871 553.769 449.904C554.276 449.938 554.781 449.82 555.221 449.565C555.661 449.311 556.016 448.932 556.24 448.476C556.464 448.02 556.548 447.508 556.482 447.005C556.415 446.501 556.2 446.029 555.864 445.647C555.529 445.265 555.088 444.992 554.597 444.861C554.271 444.774 553.932 444.751 553.598 444.795C553.264 444.839 552.942 444.948 552.65 445.117C552.359 445.285 552.103 445.51 551.898 445.778C551.694 446.045 551.544 446.35 551.457 446.676Z" fill="white"/>
</g>
<g opacity="0.15">
<path d="M757.662 430.582L757.662 427.164L602.218 427.164L602.218 430.582L757.662 430.582Z" fill="white"/>
<path d="M808.107 428.876C808.107 424.815 806.903 420.846 804.647 417.471C802.391 414.095 799.184 411.464 795.432 409.912C791.681 408.359 787.553 407.954 783.571 408.748C779.589 409.541 775.932 411.498 773.063 414.371C770.193 417.244 768.24 420.903 767.451 424.885C766.662 428.868 767.071 432.996 768.628 436.745C770.185 440.495 772.819 443.699 776.197 445.952C779.575 448.204 783.546 449.404 787.606 449.4C793.044 449.388 798.255 447.221 802.097 443.374C805.94 439.527 808.101 434.313 808.107 428.876ZM770.462 428.876C770.462 425.494 771.465 422.188 773.343 419.376C775.221 416.564 777.89 414.371 781.013 413.075C784.137 411.78 787.574 411.439 790.892 412.096C794.209 412.753 797.257 414.378 799.651 416.767C802.045 419.155 803.677 422.2 804.341 425.515C805.005 428.831 804.672 432.269 803.383 435.396C802.094 438.522 799.907 441.196 797.099 443.08C794.291 444.965 790.988 445.974 787.606 445.982C783.068 445.982 778.715 444.18 775.505 440.972C772.295 437.765 770.489 433.414 770.485 428.876L770.462 428.876Z" fill="white"/>
<path d="M829.492 428.875C829.486 440.884 833.042 452.626 839.71 462.614C846.377 472.602 855.857 480.389 866.951 484.989C878.044 489.589 890.253 490.795 902.032 488.456C913.812 486.117 924.633 480.337 933.127 471.847C941.621 463.357 947.406 452.539 949.751 440.761C952.096 428.983 950.896 416.774 946.301 405.678C941.707 394.582 933.925 385.098 923.94 378.426C913.955 371.753 902.215 368.191 890.206 368.191C874.114 368.209 858.687 374.608 847.305 385.983C835.924 397.359 829.518 412.784 829.492 428.875ZM947.502 428.875C947.503 440.207 944.144 451.286 937.849 460.709C931.555 470.132 922.607 477.477 912.137 481.815C901.668 486.153 890.148 487.288 879.033 485.078C867.918 482.868 857.708 477.412 849.694 469.4C841.681 461.387 836.223 451.178 834.012 440.063C831.801 428.949 832.935 417.428 837.271 406.958C841.607 396.488 848.951 387.54 858.373 381.244C867.796 374.948 878.874 371.587 890.206 371.587C905.395 371.605 919.957 377.646 930.698 388.386C941.439 399.125 947.482 413.686 947.502 428.875Z" fill="white"/>
<path d="M871.392 428.876C871.392 439.267 879.815 447.691 890.207 447.691C900.598 447.691 909.021 439.267 909.021 428.876C909.021 418.484 900.598 410.061 890.207 410.061C879.815 410.061 871.392 418.484 871.392 428.876Z" fill="white"/>
<path d="M843.177 428.873C843.177 430.761 844.708 432.291 846.596 432.291C848.483 432.291 850.014 430.761 850.014 428.873C850.014 426.985 848.483 425.455 846.596 425.455C844.708 425.455 843.177 426.985 843.177 428.873Z" fill="white"/>
<path d="M847.888 412.717C847.712 412.063 847.347 411.474 846.837 411.028C846.327 410.581 845.697 410.295 845.024 410.207C844.352 410.119 843.669 410.232 843.062 410.532C842.454 410.832 841.949 411.306 841.61 411.893C841.272 412.48 841.115 413.155 841.16 413.831C841.205 414.507 841.45 415.155 841.863 415.692C842.277 416.229 842.84 416.632 843.482 416.849C844.124 417.066 844.816 417.087 845.471 416.911C845.905 416.795 846.312 416.594 846.669 416.32C847.026 416.046 847.325 415.705 847.549 415.315C847.774 414.926 847.919 414.496 847.977 414.05C848.035 413.604 848.005 413.151 847.888 412.717Z" fill="white"/>
<path d="M831.723 389.574C832.201 389.096 832.527 388.487 832.659 387.823C832.791 387.16 832.723 386.473 832.464 385.849C832.206 385.224 831.768 384.69 831.205 384.314C830.643 383.939 829.982 383.738 829.306 383.738C828.63 383.738 827.969 383.939 827.407 384.314C826.845 384.69 826.407 385.224 826.148 385.849C825.89 386.473 825.822 387.16 825.954 387.823C826.086 388.487 826.411 389.096 826.89 389.574C827.206 389.892 827.583 390.144 827.998 390.317C828.413 390.489 828.857 390.578 829.306 390.578C829.755 390.578 830.2 390.489 830.615 390.317C831.03 390.144 831.406 389.892 831.723 389.574Z" fill="white"/>
<path d="M820.05 379.486C820.387 378.901 820.543 378.228 820.498 377.553C820.453 376.879 820.209 376.233 819.797 375.697C819.384 375.161 818.822 374.76 818.182 374.543C817.542 374.327 816.851 374.305 816.199 374.481C815.546 374.657 814.96 375.022 814.515 375.531C814.07 376.04 813.786 376.669 813.698 377.34C813.611 378.01 813.724 378.691 814.024 379.297C814.324 379.903 814.796 380.406 815.382 380.744C815.771 380.969 816.201 381.115 816.646 381.173C817.091 381.232 817.544 381.202 817.977 381.085C818.411 380.968 818.818 380.767 819.173 380.492C819.529 380.218 819.827 379.876 820.05 379.486Z" fill="white"/>
<path d="M806.163 372.77C806.338 372.117 806.315 371.427 806.098 370.786C805.881 370.146 805.479 369.585 804.942 369.173C804.406 368.762 803.759 368.518 803.085 368.474C802.41 368.43 801.738 368.587 801.152 368.925C800.567 369.263 800.094 369.767 799.795 370.373C799.496 370.98 799.384 371.661 799.472 372.331C799.561 373.002 799.846 373.631 800.291 374.139C800.737 374.647 801.324 375.012 801.977 375.187C802.41 375.304 802.863 375.334 803.308 375.276C803.753 375.218 804.183 375.073 804.572 374.848C804.961 374.623 805.301 374.324 805.575 373.968C805.848 373.611 806.047 373.204 806.163 372.77Z" fill="white"/>
<path d="M784.17 369.865C784.169 370.544 784.368 371.207 784.744 371.771C785.12 372.336 785.655 372.776 786.281 373.036C786.908 373.297 787.597 373.365 788.262 373.233C788.927 373.101 789.539 372.775 790.018 372.295C790.498 371.816 790.824 371.205 790.956 370.539C791.088 369.874 791.019 369.185 790.759 368.559C790.499 367.932 790.059 367.397 789.494 367.021C788.93 366.646 788.266 366.446 787.588 366.447C786.682 366.449 785.814 366.81 785.173 367.451C784.533 368.091 784.172 368.959 784.17 369.865Z" fill="white"/>
<path d="M775.624 370.996C775.45 370.344 775.086 369.757 774.578 369.311C774.07 368.865 773.442 368.579 772.772 368.491C772.102 368.402 771.42 368.513 770.814 368.812C770.207 369.11 769.703 369.581 769.364 370.166C769.025 370.751 768.868 371.423 768.911 372.097C768.954 372.772 769.196 373.418 769.607 373.955C770.017 374.492 770.578 374.895 771.217 375.114C771.857 375.332 772.547 375.356 773.2 375.183C773.634 375.067 774.041 374.867 774.398 374.594C774.755 374.322 775.055 373.981 775.28 373.592C775.505 373.203 775.651 372.774 775.711 372.329C775.77 371.883 775.74 371.431 775.624 370.996Z" fill="white"/>
<path d="M755.118 379.487C755.455 380.073 755.958 380.545 756.564 380.845C757.17 381.145 757.851 381.258 758.522 381.171C759.192 381.084 759.822 380.799 760.33 380.354C760.839 379.909 761.205 379.323 761.38 378.67C761.556 378.018 761.535 377.327 761.318 376.687C761.102 376.047 760.7 375.485 760.164 375.072C759.629 374.66 758.983 374.416 758.308 374.371C757.634 374.326 756.961 374.482 756.375 374.819C755.591 375.273 755.018 376.018 754.782 376.893C754.547 377.768 754.667 378.701 755.118 379.487Z" fill="white"/>
<path d="M748.286 384.753C747.808 384.275 747.199 383.95 746.536 383.818C745.873 383.686 745.186 383.753 744.561 384.012C743.936 384.271 743.403 384.709 743.027 385.271C742.651 385.833 742.451 386.494 742.451 387.17C742.451 387.846 742.651 388.507 743.027 389.069C743.403 389.631 743.936 390.069 744.561 390.328C745.186 390.587 745.873 390.655 746.536 390.523C747.199 390.391 747.808 390.065 748.286 389.587C748.927 388.946 749.287 388.077 749.287 387.17C749.287 386.264 748.927 385.394 748.286 384.753Z" fill="white"/>
<path d="M738.204 396.409C737.618 396.072 736.945 395.917 736.271 395.963C735.597 396.008 734.952 396.253 734.416 396.665C733.881 397.077 733.48 397.639 733.264 398.279C733.047 398.919 733.025 399.609 733.201 400.261C733.376 400.913 733.741 401.499 734.249 401.944C734.758 402.39 735.386 402.674 736.056 402.762C736.726 402.85 737.407 402.738 738.013 402.439C738.619 402.141 739.123 401.669 739.461 401.084C739.686 400.695 739.832 400.265 739.891 399.819C739.949 399.373 739.919 398.92 739.803 398.486C739.686 398.051 739.484 397.644 739.21 397.288C738.936 396.931 738.594 396.633 738.204 396.409Z" fill="white"/>
<path d="M731.48 410.3C730.828 410.125 730.138 410.148 729.498 410.365C728.858 410.582 728.297 410.985 727.886 411.521C727.474 412.056 727.231 412.702 727.187 413.377C727.142 414.051 727.298 414.723 727.636 415.308C727.973 415.894 728.476 416.366 729.082 416.666C729.688 416.965 730.369 417.079 731.039 416.991C731.709 416.904 732.338 416.62 732.847 416.176C733.355 415.731 733.721 415.146 733.897 414.493C734.132 413.617 734.009 412.683 733.556 411.897C733.103 411.11 732.356 410.536 731.48 410.3Z" fill="white"/>
<path d="M733.903 443.259C733.727 442.607 733.361 442.021 732.853 441.577C732.344 441.132 731.715 440.848 731.045 440.761C730.375 440.674 729.694 440.787 729.088 441.087C728.483 441.386 727.979 441.858 727.642 442.444C727.304 443.029 727.148 443.702 727.193 444.376C727.237 445.05 727.481 445.696 727.892 446.232C728.303 446.768 728.864 447.17 729.504 447.387C730.144 447.604 730.834 447.627 731.486 447.453C731.921 447.337 732.328 447.136 732.685 446.862C733.041 446.588 733.34 446.247 733.565 445.857C733.789 445.468 733.935 445.038 733.993 444.592C734.051 444.146 734.02 443.693 733.903 443.259Z" fill="white"/>
<path d="M739.428 456.668C739.09 456.082 738.587 455.609 737.981 455.309C737.375 455.01 736.694 454.896 736.023 454.984C735.353 455.071 734.724 455.355 734.215 455.8C733.706 456.246 733.341 456.831 733.165 457.484C732.989 458.137 733.011 458.827 733.227 459.468C733.444 460.108 733.845 460.67 734.381 461.082C734.917 461.495 735.563 461.739 736.237 461.784C736.912 461.829 737.584 461.673 738.17 461.336C738.955 460.882 739.527 460.136 739.763 459.261C739.999 458.387 739.878 457.454 739.428 456.668Z" fill="white"/>
<path d="M748.286 468.187C747.808 467.709 747.199 467.383 746.536 467.251C745.873 467.119 745.186 467.187 744.561 467.446C743.936 467.704 743.403 468.143 743.027 468.705C742.651 469.267 742.451 469.928 742.451 470.604C742.451 471.28 742.651 471.941 743.027 472.503C743.403 473.065 743.936 473.503 744.561 473.762C745.186 474.02 745.873 474.088 746.536 473.956C747.199 473.824 747.808 473.499 748.286 473.021C748.927 472.38 749.287 471.51 749.287 470.604C749.287 469.697 748.927 468.828 748.286 468.187Z" fill="white"/>
<path d="M755.124 478.263C754.784 478.849 754.626 479.523 754.669 480.2C754.713 480.876 754.956 481.525 755.368 482.063C755.78 482.601 756.342 483.005 756.984 483.223C757.626 483.442 758.318 483.465 758.973 483.29C759.627 483.115 760.216 482.749 760.663 482.24C761.11 481.731 761.396 481.1 761.484 480.428C761.573 479.756 761.46 479.073 761.16 478.465C760.86 477.857 760.387 477.352 759.799 477.013C759.014 476.56 758.08 476.437 757.203 476.671C756.327 476.905 755.579 477.478 755.124 478.263Z" fill="white"/>
<path d="M771.429 489.177C772.082 489.352 772.773 489.329 773.413 489.112C774.053 488.895 774.614 488.493 775.026 487.956C775.438 487.42 775.681 486.773 775.725 486.099C775.769 485.424 775.613 484.752 775.275 484.166C774.937 483.581 774.432 483.109 773.826 482.81C773.22 482.511 772.538 482.398 771.868 482.486C771.198 482.575 770.569 482.86 770.061 483.305C769.552 483.751 769.188 484.338 769.013 484.991C768.78 485.866 768.904 486.798 769.357 487.583C769.81 488.367 770.555 488.94 771.429 489.177Z" fill="white"/>
<path d="M787.604 484.463C786.926 484.463 786.263 484.664 785.7 485.041C785.136 485.418 784.697 485.953 784.438 486.579C784.179 487.206 784.111 487.895 784.244 488.56C784.377 489.224 784.704 489.835 785.184 490.314C785.664 490.792 786.275 491.118 786.94 491.249C787.605 491.381 788.294 491.312 788.92 491.051C789.545 490.791 790.08 490.351 790.456 489.786C790.831 489.222 791.031 488.559 791.029 487.881C791.029 487.432 790.941 486.986 790.768 486.571C790.596 486.156 790.344 485.779 790.025 485.461C789.707 485.144 789.33 484.892 788.914 484.721C788.498 484.55 788.053 484.462 787.604 484.463Z" fill="white"/>
<path d="M801.977 482.573C801.324 482.748 800.737 483.113 800.291 483.621C799.846 484.13 799.561 484.759 799.472 485.429C799.384 486.099 799.496 486.781 799.795 487.387C800.094 487.993 800.567 488.497 801.152 488.835C801.738 489.173 802.41 489.33 803.085 489.286C803.759 489.242 804.406 488.999 804.942 488.587C805.479 488.175 805.881 487.614 806.098 486.974C806.315 486.334 806.338 485.643 806.163 484.99C805.928 484.115 805.355 483.368 804.57 482.915C803.785 482.462 802.852 482.339 801.977 482.573Z" fill="white"/>
<path d="M820.053 478.261C819.714 477.674 819.209 477.2 818.601 476.9C817.993 476.601 817.31 476.488 816.638 476.576C815.966 476.665 815.335 476.951 814.826 477.398C814.316 477.845 813.951 478.433 813.776 479.088C813.601 479.743 813.624 480.435 813.842 481.076C814.061 481.718 814.465 482.281 815.003 482.693C815.541 483.105 816.189 483.348 816.866 483.391C817.542 483.435 818.216 483.276 818.803 482.936C819.192 482.712 819.534 482.413 819.807 482.056C820.081 481.699 820.282 481.292 820.398 480.858C820.514 480.424 820.543 479.971 820.484 479.525C820.425 479.08 820.278 478.65 820.053 478.261Z" fill="white"/>
<path d="M831.723 473.015C832.201 472.537 832.527 471.928 832.659 471.265C832.791 470.602 832.723 469.915 832.464 469.29C832.206 468.665 831.768 468.131 831.205 467.756C830.643 467.38 829.982 467.18 829.306 467.18C828.63 467.18 827.969 467.38 827.407 467.756C826.845 468.131 826.407 468.665 826.148 469.29C825.89 469.915 825.822 470.602 825.954 471.265C826.086 471.928 826.411 472.537 826.89 473.015C827.206 473.333 827.583 473.586 827.998 473.758C828.413 473.93 828.857 474.019 829.306 474.019C829.755 474.019 830.2 473.93 830.615 473.758C831.03 473.586 831.406 473.333 831.723 473.015Z" fill="white"/>
<path d="M847.883 445.029C848.057 444.375 848.033 443.685 847.815 443.046C847.596 442.406 847.193 441.846 846.656 441.435C846.119 441.025 845.473 440.783 844.798 440.739C844.124 440.696 843.452 440.854 842.867 441.193C842.282 441.531 841.811 442.036 841.512 442.642C841.214 443.249 841.102 443.93 841.191 444.6C841.28 445.27 841.566 445.899 842.012 446.406C842.458 446.914 843.044 447.278 843.697 447.453C844.131 447.569 844.584 447.598 845.029 447.539C845.475 447.48 845.904 447.334 846.293 447.109C846.682 446.883 847.022 446.584 847.295 446.227C847.568 445.87 847.768 445.463 847.883 445.029Z" fill="white"/>
<path d="M348.701 430.582L348.701 427.164L193.257 427.164L193.257 430.582L348.701 430.582Z" fill="white"/>
<path d="M142.809 428.876C142.809 432.935 144.013 436.903 146.268 440.278C148.523 443.653 151.729 446.284 155.479 447.837C159.229 449.391 163.356 449.797 167.337 449.005C171.319 448.213 174.976 446.259 177.846 443.388C180.716 440.518 182.671 436.861 183.463 432.88C184.255 428.898 183.849 424.772 182.295 421.021C180.742 417.271 178.111 414.066 174.736 411.81C171.361 409.555 167.393 408.352 163.333 408.352C157.892 408.358 152.675 410.522 148.827 414.37C144.98 418.217 142.815 423.434 142.809 428.876ZM180.454 428.876C180.456 432.259 179.454 435.568 177.575 438.382C175.696 441.196 173.024 443.39 169.898 444.685C166.772 445.981 163.332 446.32 160.013 445.661C156.694 445.001 153.645 443.372 151.253 440.979C148.86 438.586 147.231 435.537 146.571 432.218C145.911 428.9 146.25 425.46 147.546 422.334C148.842 419.208 151.035 416.536 153.85 414.657C156.664 412.778 159.972 411.776 163.356 411.777C167.885 411.789 172.225 413.595 175.425 416.8C178.625 420.004 180.426 424.347 180.432 428.876L180.454 428.876Z" fill="white"/>
<path d="M121.428 428.878C121.426 416.87 117.864 405.133 111.192 395.149C104.52 385.166 95.037 377.385 83.9428 372.791C72.8487 368.197 60.6414 366.996 48.8646 369.339C37.0878 371.683 26.2703 377.466 17.7801 385.957C9.28985 394.449 3.50815 405.267 1.1661 417.044C-1.17594 428.821 0.0268375 441.028 4.62234 452.122C9.21785 463.215 16.9996 472.697 26.9838 479.368C36.968 486.039 48.7062 489.6 60.714 489.6C76.8121 489.582 92.2456 483.178 103.628 471.794C115.01 460.411 121.412 444.976 121.428 428.878ZM3.41818 428.878C3.41818 417.546 6.77854 406.469 13.0743 397.046C19.37 387.624 28.3183 380.281 38.7878 375.944C49.2572 371.607 60.7776 370.473 71.8918 372.683C83.0061 374.894 93.2152 380.351 101.228 388.364C109.241 396.377 114.698 406.586 116.909 417.7C119.119 428.815 117.985 440.335 113.648 450.804C109.312 461.274 101.968 470.222 92.5457 476.518C83.1234 482.814 72.046 486.174 60.714 486.174C45.5231 486.158 30.9588 480.116 20.2173 469.375C9.47569 458.633 3.43412 444.069 3.41818 428.878Z" fill="white"/>
<path d="M41.8994 428.876C41.8994 439.267 50.3231 447.691 60.7143 447.691C71.1056 447.691 79.5293 439.267 79.5293 428.876C79.5293 418.484 71.1056 410.061 60.7143 410.061C50.3231 410.061 41.8994 418.484 41.8994 428.876Z" fill="white"/>
<path d="M100.927 429.366C101.232 431.23 102.989 432.493 104.852 432.189C106.715 431.884 107.979 430.127 107.674 428.264C107.37 426.401 105.613 425.137 103.75 425.442C101.886 425.746 100.623 427.503 100.927 429.366Z" fill="white"/>
<path d="M103.039 412.715C102.862 413.37 102.883 414.062 103.1 414.705C103.317 415.347 103.72 415.911 104.257 416.325C104.795 416.738 105.443 416.983 106.12 417.028C106.797 417.072 107.471 416.915 108.059 416.576C108.646 416.237 109.119 415.731 109.419 415.123C109.719 414.514 109.831 413.831 109.742 413.158C109.652 412.486 109.366 411.855 108.918 411.346C108.47 410.837 107.881 410.472 107.225 410.298C106.35 410.066 105.418 410.19 104.633 410.643C103.849 411.095 103.275 411.841 103.039 412.715Z" fill="white"/>
<path d="M119.191 384.757C118.714 385.235 118.389 385.844 118.258 386.507C118.127 387.17 118.195 387.857 118.454 388.481C118.713 389.105 119.151 389.638 119.713 390.013C120.275 390.388 120.936 390.588 121.611 390.588C122.287 390.588 122.947 390.388 123.509 390.013C124.071 389.638 124.509 389.105 124.768 388.481C125.027 387.857 125.095 387.17 124.964 386.507C124.833 385.844 124.509 385.235 124.032 384.757C123.714 384.438 123.337 384.186 122.922 384.013C122.506 383.841 122.061 383.752 121.611 383.752C121.161 383.752 120.716 383.841 120.301 384.013C119.885 384.186 119.508 384.438 119.191 384.757Z" fill="white"/>
<path d="M130.869 379.482C131.207 380.068 131.711 380.54 132.318 380.839C132.924 381.138 133.606 381.251 134.276 381.163C134.947 381.074 135.576 380.789 136.084 380.343C136.592 379.897 136.957 379.311 137.132 378.658C137.307 378.005 137.284 377.314 137.066 376.674C136.849 376.034 136.446 375.473 135.91 375.061C135.373 374.65 134.727 374.407 134.052 374.363C133.377 374.319 132.705 374.476 132.119 374.814C131.336 375.269 130.765 376.016 130.531 376.89C130.297 377.765 130.418 378.697 130.869 379.482Z" fill="white"/>
<path d="M148.941 375.187C149.594 375.012 150.181 374.647 150.626 374.139C151.072 373.631 151.357 373.002 151.445 372.331C151.534 371.661 151.421 370.98 151.122 370.373C150.823 369.767 150.351 369.263 149.765 368.925C149.18 368.587 148.507 368.43 147.833 368.474C147.158 368.518 146.512 368.762 145.975 369.173C145.439 369.585 145.037 370.146 144.82 370.786C144.602 371.427 144.58 372.117 144.755 372.77C144.989 373.646 145.562 374.392 146.347 374.845C147.132 375.298 148.065 375.421 148.941 375.187Z" fill="white"/>
<path d="M159.912 369.865C159.912 371.753 161.442 373.284 163.33 373.284C165.218 373.284 166.748 371.753 166.748 369.865C166.748 367.978 165.218 366.447 163.33 366.447C161.442 366.447 159.912 367.978 159.912 369.865Z" fill="white"/>
<path d="M179.488 368.583C178.835 368.408 178.145 368.431 177.505 368.648C176.865 368.865 176.303 369.268 175.892 369.804C175.48 370.34 175.237 370.987 175.192 371.661C175.148 372.336 175.305 373.009 175.643 373.594C175.981 374.179 176.485 374.652 177.092 374.951C177.698 375.25 178.379 375.362 179.05 375.274C179.72 375.186 180.349 374.901 180.857 374.455C181.365 374.009 181.73 373.423 181.905 372.769C182.14 371.894 182.017 370.961 181.564 370.176C181.11 369.391 180.364 368.818 179.488 368.583Z" fill="white"/>
<path d="M195.826 379.483C196.162 378.897 196.317 378.225 196.272 377.551C196.226 376.877 195.982 376.231 195.569 375.696C195.157 375.161 194.596 374.76 193.956 374.543C193.316 374.327 192.626 374.305 191.973 374.481C191.321 374.656 190.735 375.021 190.29 375.529C189.845 376.037 189.56 376.666 189.472 377.336C189.384 378.006 189.496 378.686 189.795 379.292C190.094 379.898 190.565 380.402 191.15 380.741C191.539 380.966 191.969 381.112 192.415 381.17C192.861 381.229 193.314 381.199 193.749 381.082C194.183 380.966 194.59 380.764 194.947 380.49C195.303 380.215 195.602 379.873 195.826 379.483Z" fill="white"/>
<path d="M202.608 389.573C203.086 390.051 203.695 390.377 204.358 390.509C205.021 390.641 205.709 390.573 206.333 390.314C206.958 390.056 207.492 389.618 207.867 389.056C208.243 388.493 208.443 387.833 208.443 387.156C208.443 386.48 208.243 385.819 207.867 385.257C207.492 384.695 206.958 384.257 206.333 383.998C205.709 383.74 205.021 383.672 204.358 383.804C203.695 383.936 203.086 384.262 202.608 384.74C201.971 385.383 201.613 386.251 201.613 387.156C201.613 388.062 201.971 388.93 202.608 389.573Z" fill="white"/>
<path d="M211.465 401.084C211.803 401.669 212.307 402.141 212.913 402.439C213.519 402.738 214.2 402.85 214.869 402.762C215.539 402.674 216.168 402.39 216.676 401.944C217.184 401.499 217.549 400.913 217.725 400.261C217.9 399.609 217.878 398.919 217.662 398.279C217.446 397.639 217.044 397.077 216.509 396.665C215.974 396.253 215.328 396.008 214.654 395.963C213.98 395.917 213.308 396.072 212.722 396.409C211.936 396.862 211.362 397.61 211.126 398.486C210.89 399.363 211.012 400.297 211.465 401.084Z" fill="white"/>
<path d="M217.029 414.495C217.204 415.15 217.57 415.738 218.08 416.185C218.589 416.632 219.22 416.918 219.892 417.006C220.564 417.094 221.247 416.981 221.855 416.681C222.463 416.381 222.968 415.907 223.306 415.32C223.645 414.733 223.801 414.058 223.756 413.382C223.711 412.705 223.466 412.058 223.053 411.52C222.64 410.983 222.077 410.581 221.434 410.364C220.792 410.147 220.1 410.125 219.446 410.302C219.012 410.418 218.604 410.619 218.248 410.892C217.891 411.166 217.592 411.508 217.367 411.897C217.143 412.287 216.997 412.717 216.939 413.163C216.881 413.609 216.912 414.061 217.029 414.495Z" fill="white"/>
<path d="M219.439 447.453C220.092 447.627 220.782 447.604 221.421 447.387C222.061 447.17 222.622 446.768 223.034 446.232C223.445 445.696 223.688 445.05 223.733 444.376C223.777 443.702 223.621 443.029 223.284 442.444C222.946 441.858 222.443 441.386 221.837 441.087C221.232 440.787 220.551 440.674 219.881 440.761C219.211 440.848 218.582 441.132 218.073 441.577C217.564 442.021 217.198 442.607 217.022 443.259C216.787 444.136 216.91 445.07 217.363 445.856C217.816 446.642 218.563 447.216 219.439 447.453Z" fill="white"/>
<path d="M212.726 461.336C213.312 461.673 213.985 461.829 214.66 461.784C215.334 461.739 215.98 461.495 216.516 461.082C217.052 460.67 217.453 460.108 217.67 459.468C217.886 458.827 217.908 458.137 217.732 457.484C217.556 456.831 217.191 456.246 216.682 455.8C216.173 455.355 215.544 455.071 214.873 454.984C214.203 454.896 213.522 455.01 212.916 455.309C212.31 455.609 211.806 456.082 211.469 456.668C211.244 457.057 211.098 457.486 211.04 457.931C210.981 458.377 211.011 458.829 211.128 459.263C211.245 459.697 211.446 460.103 211.72 460.459C211.995 460.815 212.337 461.113 212.726 461.336Z" fill="white"/>
<path d="M202.608 473.021C203.086 473.499 203.695 473.824 204.358 473.956C205.021 474.088 205.709 474.02 206.333 473.762C206.958 473.503 207.492 473.065 207.867 472.503C208.243 471.941 208.443 471.28 208.443 470.604C208.443 469.928 208.243 469.267 207.867 468.705C207.492 468.143 206.958 467.704 206.333 467.446C205.709 467.187 205.021 467.119 204.358 467.251C203.695 467.383 203.086 467.709 202.608 468.187C201.967 468.828 201.607 469.697 201.607 470.604C201.607 471.51 201.967 472.38 202.608 473.021Z" fill="white"/>
<path d="M195.829 478.261C195.49 477.674 194.985 477.2 194.377 476.9C193.769 476.601 193.086 476.488 192.414 476.576C191.742 476.665 191.111 476.951 190.602 477.398C190.092 477.845 189.727 478.433 189.552 479.088C189.377 479.743 189.4 480.435 189.618 481.076C189.837 481.718 190.241 482.281 190.779 482.693C191.317 483.105 191.966 483.348 192.642 483.391C193.319 483.435 193.993 483.276 194.579 482.936C195.364 482.482 195.937 481.734 196.171 480.857C196.405 479.981 196.282 479.047 195.829 478.261Z" fill="white"/>
<path d="M175.301 486.758C175.476 487.411 175.84 487.997 176.348 488.443C176.855 488.889 177.484 489.175 178.154 489.264C178.824 489.353 179.505 489.241 180.112 488.943C180.718 488.644 181.223 488.173 181.561 487.588C181.9 487.003 182.058 486.331 182.015 485.657C181.971 484.982 181.729 484.336 181.319 483.799C180.908 483.262 180.348 482.859 179.708 482.641C179.069 482.422 178.379 482.398 177.725 482.572C176.85 482.807 176.103 483.379 175.648 484.164C175.194 484.948 175.069 485.881 175.301 486.758Z" fill="white"/>
<path d="M160.255 489.291C160.982 491.033 162.984 491.856 164.726 491.129C166.469 490.402 167.291 488.401 166.564 486.658C165.837 484.916 163.836 484.093 162.094 484.82C160.351 485.547 159.528 487.549 160.255 489.291Z" fill="white"/>
<path d="M144.755 484.99C144.58 485.643 144.602 486.334 144.82 486.974C145.037 487.614 145.439 488.175 145.975 488.587C146.512 488.999 147.158 489.242 147.833 489.286C148.507 489.33 149.18 489.173 149.765 488.835C150.351 488.497 150.823 487.993 151.122 487.387C151.421 486.781 151.534 486.099 151.445 485.429C151.357 484.759 151.072 484.13 150.626 483.621C150.181 483.113 149.594 482.748 148.941 482.573C148.065 482.339 147.132 482.462 146.347 482.915C145.562 483.368 144.989 484.115 144.755 484.99Z" fill="white"/>
<path d="M130.874 478.265C130.534 478.852 130.376 479.526 130.419 480.203C130.463 480.879 130.706 481.527 131.118 482.066C131.53 482.604 132.092 483.008 132.734 483.226C133.376 483.445 134.068 483.468 134.723 483.293C135.378 483.118 135.966 482.752 136.413 482.243C136.86 481.733 137.146 481.103 137.234 480.431C137.323 479.759 137.21 479.075 136.91 478.467C136.61 477.86 136.137 477.354 135.549 477.016C135.161 476.79 134.731 476.644 134.285 476.584C133.84 476.525 133.387 476.555 132.953 476.671C132.518 476.787 132.111 476.987 131.754 477.261C131.398 477.535 131.099 477.876 130.874 478.265Z" fill="white"/>
<path d="M119.191 468.184C118.714 468.663 118.389 469.272 118.258 469.935C118.127 470.598 118.195 471.284 118.454 471.908C118.713 472.532 119.151 473.066 119.713 473.441C120.275 473.816 120.936 474.016 121.611 474.016C122.287 474.016 122.947 473.816 123.509 473.441C124.071 473.066 124.509 472.532 124.768 471.908C125.027 471.284 125.095 470.598 124.964 469.935C124.833 469.272 124.509 468.663 124.032 468.184C123.714 467.866 123.337 467.613 122.922 467.441C122.506 467.268 122.061 467.18 121.611 467.18C121.161 467.18 120.716 467.268 120.301 467.441C119.885 467.613 119.508 467.866 119.191 468.184Z" fill="white"/>
<path d="M103.036 445.029C103.211 445.682 103.576 446.269 104.084 446.715C104.592 447.16 105.221 447.445 105.892 447.534C106.562 447.622 107.243 447.509 107.85 447.21C108.456 446.911 108.96 446.439 109.298 445.854C109.636 445.268 109.793 444.596 109.749 443.921C109.704 443.246 109.461 442.6 109.049 442.064C108.638 441.527 108.077 441.125 107.436 440.908C106.796 440.691 106.106 440.668 105.453 440.843C104.577 441.078 103.831 441.651 103.378 442.436C102.924 443.221 102.801 444.154 103.036 445.029Z" fill="white"/>
<path d="M496.834 174.901C496.834 171.178 495.73 167.539 493.662 164.443C491.593 161.348 488.654 158.936 485.215 157.511C481.775 156.086 477.991 155.714 474.339 156.44C470.688 157.166 467.334 158.959 464.702 161.591C462.07 164.223 460.277 167.577 459.551 171.229C458.824 174.88 459.197 178.664 460.622 182.104C462.046 185.543 464.459 188.483 467.554 190.551C470.649 192.619 474.289 193.723 478.011 193.723C483.004 193.723 487.791 191.74 491.321 188.21C494.851 184.68 496.834 179.893 496.834 174.901ZM462.63 174.901C462.63 171.855 463.533 168.878 465.225 166.346C466.917 163.814 469.322 161.84 472.136 160.675C474.95 159.51 478.046 159.206 481.033 159.8C484.02 160.395 486.763 161.862 488.916 164.016C491.069 166.17 492.535 168.914 493.128 171.901C493.722 174.889 493.416 177.985 492.249 180.798C491.083 183.611 489.108 186.015 486.575 187.706C484.042 189.397 481.065 190.299 478.019 190.297C473.937 190.293 470.024 188.67 467.139 185.783C464.254 182.896 462.632 178.982 462.63 174.901Z" fill="white"/>
<path d="M470.328 103.925C470.328 108.175 473.773 111.62 478.022 111.62C482.272 111.62 485.717 108.175 485.717 103.925C485.717 99.6755 482.272 96.2305 478.022 96.2305C473.773 96.2305 470.328 99.6755 470.328 103.925Z" fill="white"/>
<path d="M481.37 37.6676C489.403 45.43 495.863 50.7906 496.518 50.1356C497.173 49.4806 491.813 43.0207 484.05 34.9873C499.537 34.799 511.373 33.7525 511.373 32.4952C511.373 31.2378 499.537 30.1913 484.05 30.0031C491.813 21.9696 497.173 15.5097 496.518 14.8547C495.863 14.1997 489.403 19.5603 481.37 27.3227C481.182 11.8356 480.135 -1.59254e-06 478.878 -1.65664e-06C477.62 -1.72075e-06 476.574 11.8356 476.386 27.3227C468.352 19.5603 461.892 14.1997 461.237 14.8547C460.582 15.5097 465.943 21.9696 473.705 30.0031C458.218 30.1913 446.383 31.2378 446.383 32.4952C446.383 33.7525 458.218 34.799 473.705 34.9873C465.943 43.0207 460.582 49.4806 461.237 50.1356C461.892 50.7906 468.352 45.43 476.386 37.6676C476.574 53.1547 477.62 64.9903 478.878 64.9903C480.135 64.9903 481.174 53.1773 481.37 37.6676Z" fill="white"/>
<path d="M477.178 631.524L477.178 568.055L473.76 568.055L473.76 631.524L477.178 631.524Z" fill="white"/>
<path d="M477.178 284.469L477.178 221L473.76 221L473.76 284.469L477.178 284.469Z" fill="white"/>
<path d="M496.834 677.721C496.834 673.998 495.73 670.359 493.662 667.264C491.593 664.168 488.654 661.756 485.215 660.331C481.775 658.907 477.991 658.534 474.339 659.26C470.688 659.986 467.334 661.779 464.702 664.411C462.07 667.044 460.277 670.398 459.551 674.049C458.824 677.7 459.197 681.485 460.622 684.924C462.046 688.363 464.459 691.303 467.554 693.371C470.649 695.44 474.289 696.543 478.011 696.543C483.004 696.543 487.791 694.56 491.321 691.031C494.851 687.501 496.834 682.713 496.834 677.721ZM462.63 677.721C462.63 674.675 463.533 671.698 465.225 669.166C466.917 666.634 469.322 664.661 472.136 663.495C474.95 662.33 478.046 662.026 481.033 662.621C484.02 663.215 486.763 664.682 488.916 666.836C491.069 668.99 492.535 671.735 493.128 674.722C493.722 677.709 493.416 680.805 492.249 683.618C491.083 686.432 489.108 688.836 486.575 690.527C484.042 692.218 481.065 693.119 478.019 693.118C473.937 693.114 470.024 691.49 467.139 688.603C464.254 685.716 462.632 681.803 462.63 677.721Z" fill="white"/>
<path d="M470.328 748.697C470.328 752.946 473.773 756.391 478.022 756.391C482.272 756.391 485.717 752.946 485.717 748.697C485.717 744.447 482.272 741.002 478.022 741.002C473.773 741.002 470.328 744.447 470.328 748.697Z" fill="white"/>
<path d="M478.878 852.598C480.135 852.598 481.182 840.762 481.37 825.275C489.403 833.037 495.863 838.398 496.518 837.743C497.173 837.088 491.813 830.636 484.05 822.602C499.537 822.407 511.373 821.36 511.373 820.103C511.373 818.845 499.537 817.799 484.05 817.611C491.813 809.577 497.173 803.125 496.518 802.47C495.863 801.815 489.403 807.168 481.37 814.93C481.182 799.443 480.135 787.607 478.878 787.607C477.62 787.607 476.574 799.443 476.386 814.93C468.352 807.168 461.892 801.815 461.237 802.47C460.582 803.125 465.943 809.577 473.705 817.611C458.218 817.799 446.383 818.845 446.383 820.103C446.383 821.36 458.218 822.407 473.705 822.602C465.943 830.636 460.582 837.088 461.237 837.743C461.892 838.398 468.352 833.037 476.386 825.275C476.574 840.762 477.62 852.598 478.878 852.598Z" fill="white"/>
</g>
</svg>
