<svg width="410" height="997" viewBox="0 0 410 997" fill="none" xmlns="http://www.w3.org/2000/svg">
<g filter="url(#filter0_f_167_826)">
<path d="M171.476 532.568C165.086 679.889 217.254 822.708 293.949 826.035C370.645 829.362 429.888 700.731 436.278 553.41C378.115 385.935 343.704 170.777 343.704 170.777C343.704 170.777 246.96 372.946 171.476 532.568Z" fill="url(#paint0_radial_167_826)"/>
</g>
<rect opacity="0.2" width="1.93141" height="1.93141" rx="0.965705" transform="matrix(-0.0720026 0.997404 0.997404 0.0720026 379.982 516.588)" fill="white"/>
<rect opacity="0.2" width="1.93141" height="1.93141" rx="0.965705" transform="matrix(-0.0545846 0.998509 0.998509 0.0545846 332.723 789.852)" fill="white"/>
<rect opacity="0.2" width="1.93141" height="1.93141" rx="0.965705" transform="matrix(-0.193019 0.981195 0.981195 0.193019 202.385 540.312)" fill="white"/>
<rect opacity="0.2" width="1.93141" height="1.93141" rx="0.965705" transform="matrix(-0.75323 -0.657757 -0.657757 0.75323 334.951 608.158)" fill="white"/>
<rect opacity="0.2" width="1.93141" height="1.93141" rx="0.965705" transform="matrix(0.74465 -0.667455 -0.667455 -0.74465 318.654 497.584)" fill="white"/>
<rect opacity="0.2" width="1.93141" height="1.93141" rx="0.965705" transform="matrix(0.482839 0.875709 0.875709 -0.482839 259.779 629.514)" fill="white"/>
<rect opacity="0.2" width="1.93141" height="1.93141" rx="0.965705" transform="matrix(0.388657 0.921382 0.921382 -0.388657 272.211 535.611)" fill="white"/>
<rect opacity="0.2" width="1.93141" height="1.93141" rx="0.965705" transform="matrix(-0.585962 -0.810339 -0.810339 0.585962 157.02 592.541)" fill="white"/>
<rect opacity="0.2" width="1.93141" height="1.93141" rx="0.965705" transform="matrix(0.981195 0.193019 0.193019 -0.981195 312.221 403.279)" fill="white"/>
<rect opacity="0.2" width="1.93141" height="1.93141" rx="0.965705" transform="matrix(-0.921382 0.388657 0.388657 0.921382 59.8887 747.963)" fill="white"/>
<rect opacity="0.2" width="1.93141" height="1.93141" rx="0.965705" transform="matrix(-0.970838 0.239736 0.239736 0.970838 379.195 798.631)" fill="white"/>
<rect opacity="0.2" width="1.93141" height="1.93141" rx="0.965705" transform="matrix(-0.944783 -0.327697 -0.327697 0.944783 260.635 556.246)" fill="white"/>
<rect opacity="0.2" width="1.93141" height="1.93141" rx="0.965705" transform="matrix(0.95175 -0.306875 -0.306875 -0.95175 262.324 510.445)" fill="white"/>
<rect opacity="0.2" width="1.93141" height="1.93141" rx="0.965705" transform="matrix(0.960639 0.277801 0.277801 -0.960639 97.5488 678.064)" fill="white"/>
<rect opacity="0.2" width="1.93141" height="1.93141" rx="0.965705" transform="matrix(0.914459 -0.404678 -0.404678 -0.914459 327.066 573.307)" fill="white"/>
<rect opacity="0.2" width="1.93141" height="1.93141" rx="0.965705" transform="matrix(0.0720026 -0.997404 -0.997404 -0.0720026 207.131 702.133)" fill="white"/>
<rect opacity="0.2" width="1.93141" height="1.93141" rx="0.965705" transform="matrix(-0.124104 0.992269 0.992269 0.124104 334.314 731.656)" fill="white"/>
<rect opacity="0.2" width="1.93141" height="1.93141" rx="0.965705" transform="matrix(0.420576 0.907257 0.907257 -0.420576 277.93 470.875)" fill="white"/>
<rect opacity="0.2" width="1.93141" height="1.93141" rx="0.965705" transform="matrix(0.388657 0.921382 0.921382 -0.388657 193.396 704.447)" fill="white"/>
<rect opacity="0.2" width="1.93141" height="1.93141" rx="0.965705" transform="matrix(-0.57173 -0.820442 -0.820442 0.57173 408.809 580.289)" fill="white"/>
<rect width="1.93141" height="1.93141" rx="0.965705" transform="matrix(0.667455 0.74465 0.74465 -0.667455 348.729 676.129)" fill="white"/>
<rect width="1.93141" height="1.93141" rx="0.965705" transform="matrix(0.482839 0.875709 0.875709 -0.482839 317.879 410.043)" fill="white"/>
<rect width="1.93141" height="1.93141" rx="0.965705" transform="matrix(-0.306875 -0.95175 -0.95175 0.306875 276.068 630.459)" fill="white"/>
<rect width="1.93141" height="1.93141" rx="0.965705" transform="matrix(-0.717774 -0.696276 -0.696276 0.717774 350.127 465.121)" fill="white"/>
<rect width="1.93141" height="1.93141" rx="0.965705" transform="matrix(-0.360469 0.932771 0.932771 0.360469 253.527 572.113)" fill="white"/>
<rect width="1.93141" height="1.93141" rx="0.965705" transform="matrix(0.960639 0.277801 0.277801 -0.960639 211.576 500.41)" fill="white"/>
<rect width="1.93141" height="1.93141" rx="0.965705" transform="matrix(0.158658 -0.987334 -0.987334 -0.158658 182.088 686.684)" fill="white"/>
<rect width="1.93141" height="1.93141" rx="0.965705" transform="matrix(0.999806 0.0197039 0.0197039 -0.999806 199.061 662.965)" fill="white"/>
<rect width="1.93141" height="1.93141" rx="0.965705" transform="matrix(-0.600015 -0.799989 -0.799989 0.600015 376.861 443.234)" fill="white"/>
<rect width="1.93141" height="1.93141" rx="0.965705" transform="matrix(-0.585962 -0.810339 -0.810339 0.585962 396.422 711.879)" fill="white"/>
<rect width="1.93141" height="1.93141" rx="0.965705" transform="matrix(-0.977677 -0.210114 -0.210114 0.977677 305.775 826.875)" fill="white"/>
<rect width="1.93141" height="1.93141" rx="0.965705" transform="matrix(-0.856005 -0.516967 -0.516967 0.856005 192.771 623.199)" fill="white"/>
<rect width="1.93141" height="1.93141" rx="0.965705" transform="matrix(-0.999467 0.0326489 0.0326489 0.999467 253.197 478.846)" fill="white"/>
<rect width="1.93141" height="1.93141" rx="0.965705" transform="matrix(0.339903 0.94046 0.94046 -0.339903 288.445 555.582)" fill="white"/>
<rect width="1.93141" height="1.93141" rx="0.965705" transform="matrix(0.376694 -0.926338 -0.926338 -0.376694 143.73 668.453)" fill="white"/>
<rect width="1.93141" height="1.93141" rx="0.965705" transform="matrix(0.764595 0.644511 0.644511 -0.764595 309.744 446.607)" fill="white"/>
<rect width="1.93141" height="1.93141" rx="0.965705" transform="matrix(0.372518 0.928025 0.928025 -0.372518 79.3047 765.551)" fill="white"/>
<rect width="1.93141" height="1.93141" rx="0.965705" transform="matrix(-0.944783 -0.327697 -0.327697 0.944783 222.564 547.236)" fill="white"/>
<rect width="1.93141" height="1.93141" rx="0.965705" transform="matrix(-0.998745 0.0500871 0.0500871 0.998745 280.203 625.959)" fill="white"/>
<rect width="1.93141" height="1.93141" rx="0.965705" transform="matrix(-0.789395 0.613885 0.613885 0.789395 316.721 610.576)" fill="white"/>
<rect width="1.93141" height="1.93141" rx="0.965705" transform="matrix(-0.0326489 -0.999467 -0.999467 0.0326489 394.113 499.213)" fill="white"/>
<rect width="1.93141" height="1.93141" rx="0.965705" transform="matrix(0.471459 -0.881888 -0.881888 -0.471459 141.211 566.41)" fill="white"/>
<rect width="1.93141" height="1.93141" rx="0.965705" transform="matrix(-0.561058 0.827776 0.827776 0.561058 247.012 520.514)" fill="white"/>
<rect opacity="0.5" width="1.93141" height="1.93141" rx="0.965705" transform="matrix(-0.557325 -0.830295 -0.830295 0.557325 348.879 553.445)" fill="white"/>
<rect opacity="0.5" width="1.93141" height="1.93141" rx="0.965705" transform="matrix(0.912627 0.408793 0.408793 -0.912627 85.7871 694.385)" fill="white"/>
<rect opacity="0.5" width="1.93141" height="1.93141" rx="0.965705" transform="matrix(0.486778 -0.873526 -0.873526 -0.486778 161.84 651.164)" fill="white"/>
<rect opacity="0.5" width="1.93141" height="1.93141" rx="0.965705" transform="matrix(0.93892 0.344135 0.344135 -0.93892 314.021 522.592)" fill="white"/>
<rect opacity="0.5" width="1.93141" height="1.93141" rx="0.965705" transform="matrix(0.0545846 -0.998509 -0.998509 -0.0545846 404.168 775.955)" fill="white"/>
<rect opacity="0.5" width="1.93141" height="1.93141" rx="0.965705" transform="matrix(-0.717774 -0.696276 -0.696276 0.717774 377.559 816.947)" fill="white"/>
<rect opacity="0.5" width="1.93141" height="1.93141" rx="0.965705" transform="matrix(-0.670802 0.741636 0.741636 0.670802 278.914 591.525)" fill="white"/>
<rect opacity="0.5" width="1.93141" height="1.93141" rx="0.965705" transform="matrix(-0.899779 0.436346 0.436346 0.899779 394.701 876.643)" fill="white"/>
<rect opacity="0.5" width="1.93141" height="1.93141" rx="0.965705" transform="matrix(-0.974874 0.222756 0.222756 0.974874 326.479 921.049)" fill="white"/>
<rect opacity="0.5" width="1.93141" height="1.93141" rx="0.965705" transform="matrix(-0.404678 -0.914459 -0.914459 0.404678 351.715 888.328)" fill="white"/>
<rect opacity="0.5" width="1.93141" height="1.93141" rx="0.965705" transform="matrix(0.372518 0.928025 0.928025 -0.372518 152.477 634.271)" fill="white"/>
<rect opacity="0.5" width="1.93141" height="1.93141" rx="0.965705" transform="matrix(0.613885 0.789395 0.789395 -0.613885 344.877 831.471)" fill="white"/>
<rect opacity="0.5" width="1.93141" height="1.93141" rx="0.965705" transform="matrix(-0.764595 -0.644511 -0.644511 0.764595 264.596 462.361)" fill="white"/>
<rect opacity="0.5" width="1.93141" height="1.93141" rx="0.965705" transform="matrix(-0.994284 -0.106768 -0.106768 0.994284 301.422 470.396)" fill="white"/>
<rect opacity="0.5" width="1.93141" height="1.93141" rx="0.965705" transform="matrix(0.498049 0.867149 0.867149 -0.498049 346.557 600.66)" fill="white"/>
<rect opacity="0.5" width="1.93141" height="1.93141" rx="0.965705" transform="matrix(-0.193019 0.981195 0.981195 0.193019 264.621 467.029)" fill="white"/>
<rect opacity="0.5" width="1.93141" height="1.93141" rx="0.965705" transform="matrix(-0.977677 -0.210114 -0.210114 0.977677 308.473 770.451)" fill="white"/>
<rect opacity="0.5" width="1.93141" height="1.93141" rx="0.965705" transform="matrix(0.670802 -0.741636 -0.741636 -0.670802 102.361 714.08)" fill="white"/>
<rect opacity="0.5" width="1.93141" height="1.93141" rx="0.965705" transform="matrix(-0.95175 0.306875 0.306875 0.95175 366.65 744.025)" fill="white"/>
<rect opacity="0.5" width="1.93141" height="1.93141" rx="0.965705" transform="matrix(-0.273472 -0.96188 -0.96188 0.273472 341.748 802.781)" fill="white"/>
<rect opacity="0.5" width="1.93141" height="1.93141" rx="0.965705" transform="matrix(-0.239736 -0.970838 -0.970838 0.239736 342.666 387.285)" fill="white"/>
<rect opacity="0.5" width="1.93141" height="1.93141" rx="0.965705" transform="matrix(-0.95175 0.306875 0.306875 0.95175 57.7305 762.234)" fill="white"/>
<path opacity="0.25" d="M491.644 562.41C472.864 532.435 440.401 510.458 402.105 496.958M172.483 551.985C197.109 575.04 223.662 590.995 250.952 601.39M468.568 592.833C447.245 601.022 423.583 608.01 398.629 612.447M190.441 495.974C236.237 465.211 408.365 431.465 499.851 555.664C499.851 555.664 427.892 306.282 364.258 189.072C280.355 293.758 162.608 523.431 162.608 523.431C191.877 500.87 230.977 487.514 272.36 482.901M205.309 472.295C284.531 434.689 397.183 442.946 452.621 495.933M211.147 595.839C214.134 597.386 217.087 598.877 220.008 600.314M454.651 606.563C446.908 609.678 439.171 612.723 431.362 615.576M272.36 482.901C224.702 506.778 215.452 577.182 250.952 601.39M272.36 482.901C316.022 478.033 362.226 482.9 402.105 496.958M250.952 601.39C300.111 620.116 351.66 620.8 398.629 612.447M402.105 496.958C432.757 519.134 427.896 596.364 398.629 612.447M400.52 513.543C414.415 536.958 412.34 565.707 409.565 577.155M399.927 546.115C401.95 551.328 400.999 561.276 400.761 563.764M160.944 540.843C160.944 540.843 196.882 745.088 295.694 901.537C405.052 787.457 498.187 573.076 498.187 573.076M325.562 441.899C328.594 434.698 336.22 418.669 342.469 412.151C347.989 417.172 352.919 436.867 354.694 446.087M249.643 451.494C249.902 443.873 251.59 426.215 256.264 416.55C263.678 421.378 272.503 437.919 275.989 445.587M401.277 458.966C406.448 452.282 419.022 438.098 427.96 434.834C430.294 441.798 428.794 462.063 427.753 471.327M298.733 639.217C298.733 639.217 293.559 735.404 302.256 832.884C331.806 744.185 344.257 643.568 344.257 643.568M238.346 416.711C287.362 326.408 335.739 261.86 359.991 228.826M450.215 463.643C442.709 424.159 397.455 305.575 370.51 248.362M186.72 580.955C206.859 676.966 254.236 781.148 276.326 824.83M298.714 869.943C315.761 853.437 432.085 678.789 443.797 638.189M282.826 624.64L277.107 651.432M282.826 624.64C275.322 622.6 267.582 620.156 259.58 617.268M282.826 624.64C297.07 628.512 310.459 630.928 323.168 632.154M259.58 617.268L252.247 634.774M259.58 617.268C252.88 614.85 245.996 612.121 238.912 609.059M238.912 609.059L227.99 632.456M238.912 609.059C232.764 606.401 226.465 603.491 220.008 600.314M220.008 600.314L212.501 612.769M360.25 632.463L364.95 653.52M360.25 632.463C348.481 633.416 336.182 633.409 323.168 632.154M360.25 632.463C370.378 631.642 380.114 630.11 389.575 628.048M323.168 632.154L321.523 649.369M389.575 628.048L395.666 643.445M389.575 628.048C396.143 626.617 402.579 624.931 408.922 623.052M408.922 623.052L418.629 641.278M408.922 623.052C416.512 620.803 423.969 618.276 431.362 615.576M431.362 615.576L440.186 626.041" stroke="#E7E7E7" stroke-width="3.36374" stroke-linecap="round" stroke-linejoin="round"/>
<path opacity="0.25" d="M318.384 591.66C293.418 589.274 275.123 569.816 283.231 537.703C284.656 540.369 286.507 545.605 292.499 546.178C299.988 546.894 308.196 540.089 306.419 532.33C304.641 524.57 298.975 522.342 294.895 521.109C300.287 517.408 311.551 504.992 333.78 509.646C355.873 514.272 366.575 535.55 364.898 553.098C363.221 570.647 343.349 594.046 318.384 591.66Z" fill="#E7E7E7"/>
<defs>
<filter id="filter0_f_167_826" x="0.947266" y="0.777344" width="605.332" height="995.32" filterUnits="userSpaceOnUse" color-interpolation-filters="sRGB">
<feFlood flood-opacity="0" result="BackgroundImageFix"/>
<feBlend mode="normal" in="SourceGraphic" in2="BackgroundImageFix" result="shape"/>
<feGaussianBlur stdDeviation="85" result="effect1_foregroundBlur_167_826"/>
</filter>
<radialGradient id="paint0_radial_167_826" cx="0" cy="0" r="1" gradientUnits="userSpaceOnUse" gradientTransform="translate(305.519 559.287) rotate(92.4836) scale(267 139)">
<stop stop-color="white"/>
<stop offset="0.697917" stop-color="#0063D8"/>
</radialGradient>
</defs>
</svg>
