<svg width="478" height="396" viewBox="0 0 478 396" fill="none" xmlns="http://www.w3.org/2000/svg">
<line x1="75.2061" y1="156.423" x2="255.896" y2="105.389" stroke="#494949" stroke-width="1.27155"/>
<line x1="75.2061" y1="190.906" x2="255.896" y2="139.871" stroke="#494949" stroke-width="1.27155"/>
<line x1="75.2061" y1="226.767" x2="255.896" y2="175.733" stroke="#494949" stroke-width="1.27155"/>
<line x1="75.2061" y1="261.251" x2="255.896" y2="210.217" stroke="#494949" stroke-width="1.27155"/>
<line x1="75.2061" y1="295.734" x2="255.896" y2="244.699" stroke="#494949" stroke-width="1.27155"/>
<line x1="74.6358" y1="157.035" x2="74.6358" y2="296.346" stroke="#494949" stroke-width="1.27155"/>
<line x1="110.499" y1="147.379" x2="110.499" y2="286.689" stroke="#494949" stroke-width="1.27155"/>
<line x1="146.36" y1="136.346" x2="146.36" y2="275.656" stroke="#494949" stroke-width="1.27155"/>
<line x1="182.222" y1="126.691" x2="182.222" y2="266.002" stroke="#494949" stroke-width="1.27155"/>
<line x1="219.464" y1="115.654" x2="219.464" y2="254.965" stroke="#494949" stroke-width="1.27155"/>
<line x1="255.327" y1="106" x2="255.327" y2="245.31" stroke="#494949" stroke-width="1.27155"/>
<line x1="254.962" y1="105.425" x2="392.893" y2="170.252" stroke="#494949" stroke-width="1.27155"/>
<line x1="254.962" y1="139.907" x2="392.893" y2="204.735" stroke="#494949" stroke-width="1.27155"/>
<line x1="254.962" y1="175.77" x2="392.893" y2="240.598" stroke="#494949" stroke-width="1.27155"/>
<line x1="254.962" y1="210.253" x2="392.893" y2="275.08" stroke="#494949" stroke-width="1.27155"/>
<line x1="254.962" y1="244.733" x2="392.893" y2="309.561" stroke="#494949" stroke-width="1.27155"/>
<line x1="288.429" y1="121.172" x2="288.429" y2="260.482" stroke="#494949" stroke-width="1.27155"/>
<line x1="322.913" y1="137.723" x2="322.913" y2="277.033" stroke="#494949" stroke-width="1.27155"/>
<line x1="356.015" y1="154.277" x2="356.015" y2="293.588" stroke="#494949" stroke-width="1.27155"/>
<line x1="393.257" y1="169.449" x2="393.257" y2="310.139" stroke="#494949" stroke-width="1.27155"/>
<line x1="74.2682" y1="295.769" x2="213.579" y2="360.597" stroke="#494949" stroke-width="1.27155"/>
<line x1="110.129" y1="286.114" x2="249.4" y2="350.204" stroke="#494949" stroke-width="1.27155"/>
<line x1="145.99" y1="275.077" x2="286.515" y2="339.747" stroke="#494949" stroke-width="1.27155"/>
<line x1="181.853" y1="265.423" x2="321.419" y2="329.953" stroke="#494949" stroke-width="1.27155"/>
<line x1="219.094" y1="254.387" x2="359.679" y2="319.104" stroke="#494949" stroke-width="1.27155"/>
<line x1="213.136" y1="360.56" x2="393.825" y2="309.526" stroke="#494949" stroke-width="1.27155"/>
<line x1="177.078" y1="343.427" x2="356.586" y2="292.975" stroke="#494949" stroke-width="1.27155"/>
<line x1="142.794" y1="327.458" x2="323.484" y2="276.424" stroke="#494949" stroke-width="1.27155"/>
<line x1="107.56" y1="311.146" x2="288.999" y2="259.869" stroke="#494949" stroke-width="1.27155"/>
<g filter="url(#filter0_d_170_2145)">
<path d="M347.497 314.927L238.609 262.221V154.41C247.876 152.673 253.612 168.412 255.985 176.421C260.619 192.057 265.088 197.353 281.47 189.161C290.737 184.528 295.949 182.211 312.746 190.899C326.183 197.85 347.497 215.225 347.497 239.556V314.927Z" fill="#67DCE4"/>
</g>
<g filter="url(#filter1_d_170_2145)">
<path d="M333.597 318.362L224.709 265.656V163.637C233.976 161.9 239.711 184.59 242.085 192.599C246.718 208.235 248.87 211.214 265.252 203.022C274.52 198.389 283.207 189.701 300.004 198.389C313.441 205.339 333.597 243.642 333.597 267.972V318.362Z" fill="#5CC5E7"/>
</g>
<g filter="url(#filter2_d_170_2145)">
<path d="M316.758 323.932L207.793 268.833V169.53C217.067 167.714 222.806 196.882 225.181 205.254C229.818 221.6 234.29 227.136 250.684 218.573C259.957 213.729 265.174 211.307 281.982 220.389C295.429 227.655 316.758 245.82 316.758 271.255V323.932Z" fill="#50ADEA"/>
</g>
<g filter="url(#filter3_d_170_2145)">
<path d="M300.208 328.069L191.242 268.78V159.884C200.516 157.929 202.385 188.1 209.79 192.46C221.961 199.628 220.222 200.93 233.553 206.794C243.209 211.041 247.464 195.718 264.272 205.491C277.719 213.309 300.208 244.017 300.208 271.386V328.069Z" fill="#3D87DE"/>
</g>
<g filter="url(#filter4_d_170_2145)">
<path d="M286.415 332.208L177.449 273.234V157.141C186.723 155.197 188.893 180.677 196.576 184.359C200.633 186.304 197.571 193.524 213.964 184.359C223.238 179.175 234.25 192.784 251.059 202.505C264.506 210.282 286.415 248.603 286.415 275.826V332.208Z" fill="#2A62D0"/>
</g>
<g filter="url(#filter5_d_170_2145)">
<path d="M272.782 336.287L163.894 283.58L162.156 168.241C171.423 166.503 177.504 201.321 183.586 207.047C193.433 216.315 188.219 212.836 205.596 207.046C216.021 203.573 223.551 222.686 240.347 231.374C253.784 238.324 272.782 261.566 272.782 285.897V336.287Z" fill="#224CDC"/>
</g>
<g filter="url(#filter6_d_170_2145)">
<path d="M259.462 340.322L150.574 287.616V171.698C159.841 169.96 165.577 218.789 167.95 226.798C172.584 242.434 172.998 233.174 189.38 224.983C198.647 220.35 207.914 232.588 224.711 241.276C238.148 248.226 259.462 265.602 259.462 289.933V340.322Z" fill="#1A37E7"/>
</g>
<g filter="url(#filter7_d_170_2145)">
<path d="M244.402 344.971L135.514 292.265V189.088C144.781 187.35 150.516 223.438 152.889 231.447C157.523 247.083 160.833 245.931 177.216 237.74C186.483 233.106 192.854 237.237 209.65 245.925C223.088 252.875 244.402 270.251 244.402 294.581V344.971Z" fill="#1B22E3"/>
</g>
<g filter="url(#filter8_d_170_2145)">
<path d="M227.027 349.544L118.139 296.838V201.847C127.406 200.11 133.141 228.011 135.514 236.02C140.148 251.656 144.617 256.951 160.999 248.76C170.266 244.126 175.479 241.81 192.275 250.498C205.713 257.448 227.027 274.824 227.027 299.154V349.544Z" fill="#1C0DDE"/>
</g>
<g filter="url(#filter9_f_170_2145)">
<ellipse cx="239" cy="198.082" rx="112.5" ry="71.25" fill="#0063D8" fill-opacity="0.45"/>
</g>
<defs>
<filter id="filter0_d_170_2145" x="238.609" y="151.734" width="113.975" height="165.737" filterUnits="userSpaceOnUse" color-interpolation-filters="sRGB">
<feFlood flood-opacity="0" result="BackgroundImageFix"/>
<feColorMatrix in="SourceAlpha" type="matrix" values="0 0 0 0 0 0 0 0 0 0 0 0 0 0 0 0 0 0 127 0" result="hardAlpha"/>
<feOffset dx="2.5431"/>
<feGaussianBlur stdDeviation="1.27155"/>
<feComposite in2="hardAlpha" operator="out"/>
<feColorMatrix type="matrix" values="0 0 0 0 0 0 0 0 0 0 0 0 0 0 0 0 0 0 0.05 0"/>
<feBlend mode="normal" in2="BackgroundImageFix" result="effect1_dropShadow_170_2145"/>
<feBlend mode="normal" in="SourceGraphic" in2="effect1_dropShadow_170_2145" result="shape"/>
</filter>
<filter id="filter1_d_170_2145" x="224.709" y="161" width="113.975" height="159.905" filterUnits="userSpaceOnUse" color-interpolation-filters="sRGB">
<feFlood flood-opacity="0" result="BackgroundImageFix"/>
<feColorMatrix in="SourceAlpha" type="matrix" values="0 0 0 0 0 0 0 0 0 0 0 0 0 0 0 0 0 0 127 0" result="hardAlpha"/>
<feOffset dx="2.5431"/>
<feGaussianBlur stdDeviation="1.27155"/>
<feComposite in2="hardAlpha" operator="out"/>
<feColorMatrix type="matrix" values="0 0 0 0 0 0 0 0 0 0 0 0 0 0 0 0 0 0 0.05 0"/>
<feBlend mode="normal" in2="BackgroundImageFix" result="effect1_dropShadow_170_2145"/>
<feBlend mode="normal" in="SourceGraphic" in2="effect1_dropShadow_170_2145" result="shape"/>
</filter>
<filter id="filter2_d_170_2145" x="207.793" y="166.906" width="114.051" height="159.569" filterUnits="userSpaceOnUse" color-interpolation-filters="sRGB">
<feFlood flood-opacity="0" result="BackgroundImageFix"/>
<feColorMatrix in="SourceAlpha" type="matrix" values="0 0 0 0 0 0 0 0 0 0 0 0 0 0 0 0 0 0 127 0" result="hardAlpha"/>
<feOffset dx="2.5431"/>
<feGaussianBlur stdDeviation="1.27155"/>
<feComposite in2="hardAlpha" operator="out"/>
<feColorMatrix type="matrix" values="0 0 0 0 0 0 0 0 0 0 0 0 0 0 0 0 0 0 0.05 0"/>
<feBlend mode="normal" in2="BackgroundImageFix" result="effect1_dropShadow_170_2145"/>
<feBlend mode="normal" in="SourceGraphic" in2="effect1_dropShadow_170_2145" result="shape"/>
</filter>
<filter id="filter3_d_170_2145" x="191.242" y="157.25" width="114.051" height="173.362" filterUnits="userSpaceOnUse" color-interpolation-filters="sRGB">
<feFlood flood-opacity="0" result="BackgroundImageFix"/>
<feColorMatrix in="SourceAlpha" type="matrix" values="0 0 0 0 0 0 0 0 0 0 0 0 0 0 0 0 0 0 127 0" result="hardAlpha"/>
<feOffset dx="2.5431"/>
<feGaussianBlur stdDeviation="1.27155"/>
<feComposite in2="hardAlpha" operator="out"/>
<feColorMatrix type="matrix" values="0 0 0 0 0 0 0 0 0 0 0 0 0 0 0 0 0 0 0.05 0"/>
<feBlend mode="normal" in2="BackgroundImageFix" result="effect1_dropShadow_170_2145"/>
<feBlend mode="normal" in="SourceGraphic" in2="effect1_dropShadow_170_2145" result="shape"/>
</filter>
<filter id="filter4_d_170_2145" x="177.449" y="154.492" width="114.051" height="180.258" filterUnits="userSpaceOnUse" color-interpolation-filters="sRGB">
<feFlood flood-opacity="0" result="BackgroundImageFix"/>
<feColorMatrix in="SourceAlpha" type="matrix" values="0 0 0 0 0 0 0 0 0 0 0 0 0 0 0 0 0 0 127 0" result="hardAlpha"/>
<feOffset dx="2.5431"/>
<feGaussianBlur stdDeviation="1.27155"/>
<feComposite in2="hardAlpha" operator="out"/>
<feColorMatrix type="matrix" values="0 0 0 0 0 0 0 0 0 0 0 0 0 0 0 0 0 0 0.05 0"/>
<feBlend mode="normal" in2="BackgroundImageFix" result="effect1_dropShadow_170_2145"/>
<feBlend mode="normal" in="SourceGraphic" in2="effect1_dropShadow_170_2145" result="shape"/>
</filter>
<filter id="filter5_d_170_2145" x="162.156" y="165.635" width="115.711" height="173.196" filterUnits="userSpaceOnUse" color-interpolation-filters="sRGB">
<feFlood flood-opacity="0" result="BackgroundImageFix"/>
<feColorMatrix in="SourceAlpha" type="matrix" values="0 0 0 0 0 0 0 0 0 0 0 0 0 0 0 0 0 0 127 0" result="hardAlpha"/>
<feOffset dx="2.5431"/>
<feGaussianBlur stdDeviation="1.27155"/>
<feComposite in2="hardAlpha" operator="out"/>
<feColorMatrix type="matrix" values="0 0 0 0 0 0 0 0 0 0 0 0 0 0 0 0 0 0 0.05 0"/>
<feBlend mode="normal" in2="BackgroundImageFix" result="effect1_dropShadow_170_2145"/>
<feBlend mode="normal" in="SourceGraphic" in2="effect1_dropShadow_170_2145" result="shape"/>
</filter>
<filter id="filter6_d_170_2145" x="150.574" y="169.109" width="113.975" height="173.756" filterUnits="userSpaceOnUse" color-interpolation-filters="sRGB">
<feFlood flood-opacity="0" result="BackgroundImageFix"/>
<feColorMatrix in="SourceAlpha" type="matrix" values="0 0 0 0 0 0 0 0 0 0 0 0 0 0 0 0 0 0 127 0" result="hardAlpha"/>
<feOffset dx="2.5431"/>
<feGaussianBlur stdDeviation="1.27155"/>
<feComposite in2="hardAlpha" operator="out"/>
<feColorMatrix type="matrix" values="0 0 0 0 0 0 0 0 0 0 0 0 0 0 0 0 0 0 0.05 0"/>
<feBlend mode="normal" in2="BackgroundImageFix" result="effect1_dropShadow_170_2145"/>
<feBlend mode="normal" in="SourceGraphic" in2="effect1_dropShadow_170_2145" result="shape"/>
</filter>
<filter id="filter7_d_170_2145" x="135.514" y="186.484" width="113.975" height="161.03" filterUnits="userSpaceOnUse" color-interpolation-filters="sRGB">
<feFlood flood-opacity="0" result="BackgroundImageFix"/>
<feColorMatrix in="SourceAlpha" type="matrix" values="0 0 0 0 0 0 0 0 0 0 0 0 0 0 0 0 0 0 127 0" result="hardAlpha"/>
<feOffset dx="2.5431"/>
<feGaussianBlur stdDeviation="1.27155"/>
<feComposite in2="hardAlpha" operator="out"/>
<feColorMatrix type="matrix" values="0 0 0 0 0 0 0 0 0 0 0 0 0 0 0 0 0 0 0.05 0"/>
<feBlend mode="normal" in2="BackgroundImageFix" result="effect1_dropShadow_170_2145"/>
<feBlend mode="normal" in="SourceGraphic" in2="effect1_dropShadow_170_2145" result="shape"/>
</filter>
<filter id="filter8_d_170_2145" x="118.139" y="199.226" width="113.975" height="152.862" filterUnits="userSpaceOnUse" color-interpolation-filters="sRGB">
<feFlood flood-opacity="0" result="BackgroundImageFix"/>
<feColorMatrix in="SourceAlpha" type="matrix" values="0 0 0 0 0 0 0 0 0 0 0 0 0 0 0 0 0 0 127 0" result="hardAlpha"/>
<feOffset dx="2.5431"/>
<feGaussianBlur stdDeviation="1.27155"/>
<feComposite in2="hardAlpha" operator="out"/>
<feColorMatrix type="matrix" values="0 0 0 0 0 0 0 0 0 0 0 0 0 0 0 0 0 0 0.05 0"/>
<feBlend mode="normal" in2="BackgroundImageFix" result="effect1_dropShadow_170_2145"/>
<feBlend mode="normal" in="SourceGraphic" in2="effect1_dropShadow_170_2145" result="shape"/>
</filter>
<filter id="filter9_f_170_2145" x="0.51046" y="0.842491" width="476.979" height="394.479" filterUnits="userSpaceOnUse" color-interpolation-filters="sRGB">
<feFlood flood-opacity="0" result="BackgroundImageFix"/>
<feBlend mode="normal" in="SourceGraphic" in2="BackgroundImageFix" result="shape"/>
<feGaussianBlur stdDeviation="62.9948" result="effect1_foregroundBlur_170_2145"/>
</filter>
</defs>
</svg>
