<svg width="404" height="667" viewBox="0 0 404 667" fill="none" xmlns="http://www.w3.org/2000/svg">
<path d="M325.229 496.266C239.229 496.266 169.309 426.266 169.309 340.346C169.309 254.426 239.249 184.426 325.229 184.426C365 184.374 403.274 199.587 432.158 226.926C432.607 227.323 432.895 227.871 432.967 228.467C433.039 229.062 432.89 229.663 432.549 230.155C432.208 230.648 431.698 230.999 431.115 231.141C430.533 231.283 429.919 231.206 429.389 230.926C407.593 220.111 383.064 216.052 358.946 219.267C334.828 222.483 312.219 232.828 294.019 248.976C293.799 249.171 293.544 249.324 293.269 249.426C292.789 249.616 281.359 254.346 282.949 271.936C284.089 274.176 287.659 282.876 283.539 297.866C283.649 300.716 285.089 322.536 303.029 345.866C303.26 346.171 303.417 346.526 303.488 346.903C303.56 347.279 303.543 347.667 303.439 348.036C302.069 352.826 296.269 361.626 284.009 360.696C283.691 360.669 283.382 360.581 283.099 360.436L271.689 354.736C271.189 354.536 265.279 351.966 264.489 346.996C264.029 344.066 265.409 341.206 268.609 338.476C269.107 338.089 269.735 337.91 270.363 337.975C270.99 338.04 271.568 338.345 271.977 338.825C272.385 339.306 272.593 339.926 272.556 340.555C272.519 341.185 272.24 341.776 271.779 342.206C270.529 343.266 269.099 344.826 269.319 346.206C269.599 348.006 272.459 349.746 273.719 350.266L284.849 355.826C293.769 356.336 297.239 350.296 298.329 347.756C278.929 321.896 278.639 298.546 278.639 297.556C278.638 297.33 278.669 297.104 278.729 296.886C282.999 281.716 278.529 274.006 278.479 273.886C278.296 273.579 278.177 273.239 278.129 272.886C276.129 253.236 288.439 246.286 291.049 245.046C307.942 230.155 328.486 220.016 350.581 215.664C372.676 211.312 395.53 212.904 416.809 220.276C390.521 200.132 358.317 189.234 325.199 189.276C241.919 189.276 174.199 257.026 174.199 340.276C174.199 423.526 241.949 491.276 325.199 491.276C358.317 491.318 390.521 480.42 416.809 460.276C403.403 464.943 389.304 467.31 375.109 467.276C355.217 467.229 335.611 462.535 317.854 453.567C300.098 444.6 284.683 431.607 272.839 415.626C272.728 415.473 272.634 415.309 272.559 415.136C272.399 414.756 268.559 405.746 273.339 397.916C273.673 397.36 274.214 396.96 274.843 396.804C275.472 396.647 276.138 396.747 276.694 397.081C277.249 397.415 277.649 397.956 277.806 398.586C277.963 399.215 277.863 399.88 277.529 400.436C274.439 405.556 276.528 411.706 276.958 412.976C288.356 428.269 303.16 440.697 320.197 449.272C337.234 457.846 356.035 462.333 375.109 462.376C393.933 462.475 412.521 458.174 429.389 449.816C429.919 449.535 430.533 449.459 431.115 449.601C431.698 449.743 432.208 450.094 432.549 450.586C432.89 451.079 433.039 451.68 432.967 452.275C432.895 452.871 432.607 453.419 432.158 453.816C403.266 481.136 364.993 496.33 325.229 496.266Z" fill="#212121"/>
<path d="M281.629 384.555C281.519 384.565 281.409 384.565 281.299 384.555L254.849 380.925C254.229 380.811 253.677 380.463 253.308 379.952C252.938 379.442 252.779 378.809 252.864 378.185C252.949 377.561 253.271 376.993 253.764 376.6C254.256 376.207 254.881 376.019 255.509 376.075L278.569 379.245C276.999 367.905 281.799 357.685 282.019 357.245C282.158 356.955 282.352 356.696 282.59 356.481C282.829 356.267 283.108 356.101 283.411 355.995C283.714 355.888 284.034 355.842 284.355 355.859C284.675 355.876 284.989 355.956 285.279 356.095C285.569 356.233 285.828 356.428 286.043 356.666C286.257 356.905 286.422 357.184 286.529 357.487C286.636 357.789 286.682 358.11 286.665 358.431C286.648 358.751 286.568 359.065 286.429 359.355C286.379 359.465 281.159 370.655 283.999 381.545C284.092 381.907 284.101 382.285 284.025 382.65C283.95 383.016 283.792 383.36 283.563 383.655C283.334 383.95 283.041 384.189 282.706 384.354C282.371 384.519 282.002 384.604 281.629 384.605V384.555Z" fill="#212121"/>
<path d="M269.71 405.305C269.55 405.32 269.389 405.32 269.23 405.305C268.23 405.115 259.89 403.305 258.52 397.795C258.442 397.484 258.427 397.161 258.474 396.844C258.522 396.526 258.631 396.222 258.797 395.947C258.962 395.672 259.18 395.432 259.438 395.242C259.695 395.051 259.988 394.913 260.3 394.836C260.611 394.758 260.934 394.743 261.251 394.79C261.569 394.838 261.873 394.947 262.148 395.112C262.423 395.278 262.663 395.496 262.853 395.753C263.044 396.011 263.182 396.304 263.26 396.615C263.68 398.275 267.11 399.726 269.4 400.326C273.09 398.426 277.14 395.596 277.17 392.326C277.17 388.116 270.83 383.876 268.59 382.716C268.305 382.568 268.051 382.367 267.844 382.122C267.637 381.877 267.481 381.593 267.383 381.288C267.286 380.982 267.249 380.661 267.276 380.341C267.303 380.022 267.393 379.71 267.54 379.425C267.687 379.141 267.888 378.887 268.133 378.68C268.378 378.473 268.662 378.317 268.967 378.219C269.273 378.122 269.594 378.085 269.914 378.112C270.233 378.139 270.545 378.228 270.83 378.376C271.98 378.966 282.15 384.436 282.06 392.376C282.06 397.196 278.21 401.485 270.78 405.115C270.442 405.261 270.076 405.326 269.71 405.305Z" fill="#212121"/>
<path d="M249.139 321.675C242.529 321.675 236.069 317.505 231.509 314.555C229.979 313.555 228.649 312.715 227.639 312.205C222.129 309.445 219.089 311.725 218.899 311.885C218.428 312.329 217.8 312.568 217.153 312.549C216.506 312.531 215.893 312.256 215.449 311.785C215.005 311.314 214.765 310.686 214.784 310.039C214.803 309.392 215.078 308.779 215.549 308.335C215.593 308.286 215.64 308.239 215.689 308.195C216.799 307.255 243.189 285.525 270.769 299.585C271.138 299.775 271.454 300.055 271.685 300.4C271.916 300.746 272.056 301.144 272.091 301.558C272.126 301.972 272.055 302.388 271.885 302.767C271.715 303.146 271.451 303.476 271.119 303.725L265.429 307.985C262.429 315.105 258.429 319.505 253.429 321.075C252.038 321.494 250.591 321.696 249.139 321.675ZM226.899 306.675C227.903 306.986 228.88 307.381 229.819 307.855C231.312 308.658 232.764 309.536 234.169 310.485C239.229 313.755 246.169 318.235 251.999 316.395C255.659 315.235 258.759 311.565 261.209 305.495C261.386 305.099 261.662 304.755 262.009 304.495L264.909 302.325C250.019 296.535 235.509 301.915 226.899 306.645V306.675Z" fill="#212121"/>
<path d="M205.02 306.906C204.561 306.905 204.111 306.777 203.72 306.536C203.173 306.187 202.786 305.636 202.644 305.003C202.502 304.37 202.615 303.706 202.96 303.156C203.2 302.776 227.49 265.336 271.07 281.156C271.649 281.4 272.112 281.857 272.364 282.433C272.615 283.009 272.636 283.659 272.422 284.25C272.207 284.841 271.774 285.326 271.212 285.607C270.649 285.887 270.001 285.94 269.4 285.756C229.48 271.286 207.31 305.456 207.09 305.756C206.871 306.108 206.567 306.399 206.204 306.6C205.842 306.802 205.434 306.907 205.02 306.906Z" fill="#212121"/>
<path d="M212.639 378.525C208.069 378.523 203.602 377.166 199.802 374.625C196.003 372.085 193.043 368.475 191.295 364.252C189.548 360.029 189.092 355.382 189.984 350.9C190.877 346.418 193.079 342.301 196.311 339.07C199.544 335.839 203.662 333.639 208.144 332.748C212.627 331.857 217.273 332.315 221.495 334.065C225.717 335.814 229.326 338.776 231.865 342.577C234.404 346.377 235.759 350.844 235.759 355.415C235.754 361.544 233.316 367.421 228.981 371.754C224.646 376.087 218.768 378.522 212.639 378.525ZM212.639 337.195C209.035 337.195 205.513 338.263 202.517 340.265C199.52 342.267 197.185 345.113 195.806 348.442C194.427 351.771 194.066 355.435 194.769 358.969C195.472 362.504 197.207 365.75 199.756 368.298C202.304 370.846 205.55 372.582 209.084 373.285C212.619 373.988 216.282 373.627 219.612 372.248C222.941 370.869 225.786 368.533 227.788 365.537C229.79 362.541 230.859 359.018 230.859 355.415C230.851 350.585 228.929 345.955 225.514 342.54C222.099 339.125 217.469 337.203 212.639 337.195Z" fill="#212121"/>
<path d="M246.529 311.555C250.445 311.555 253.619 308.381 253.619 304.465C253.619 300.549 250.445 297.375 246.529 297.375C242.614 297.375 239.439 300.549 239.439 304.465C239.439 308.381 242.614 311.555 246.529 311.555Z" fill="#212121"/>
<path d="M325.879 514.816C229.659 514.816 151.369 436.526 151.369 340.306C151.369 244.086 229.659 165.816 325.879 165.816C422.099 165.816 500.399 244.096 500.399 340.326C500.399 436.556 422.109 514.816 325.879 514.816ZM325.879 170.686C232.359 170.686 156.259 246.776 156.259 340.306C156.259 433.836 232.359 509.926 325.879 509.926C419.399 509.926 495.509 433.836 495.509 340.306C495.509 246.776 419.409 170.726 325.879 170.726V170.686Z" fill="#212121"/>
<path d="M325.88 11.7056C325.395 11.7056 324.929 11.5127 324.586 11.1696C324.243 10.8264 324.05 10.3609 324.05 9.87555V1.97556C324.031 1.72319 324.065 1.46969 324.149 1.2309C324.232 0.992117 324.365 0.773171 324.537 0.587761C324.709 0.402351 324.918 0.25446 325.15 0.153328C325.381 0.0521954 325.632 0 325.885 0C326.138 0 326.388 0.0521954 326.62 0.153328C326.852 0.25446 327.061 0.402351 327.233 0.587761C327.405 0.773171 327.537 0.992117 327.621 1.2309C327.705 1.46969 327.738 1.72319 327.72 1.97556V9.87555C327.72 10.1167 327.672 10.3555 327.58 10.5782C327.487 10.8009 327.351 11.003 327.18 11.1731C327.009 11.3432 326.806 11.4778 326.583 11.5691C326.36 11.6605 326.121 11.7069 325.88 11.7056Z" fill="#212121"/>
<path d="M316.609 170.356H316.499C316.258 170.342 316.023 170.281 315.806 170.176C315.59 170.071 315.396 169.924 315.236 169.744C315.076 169.563 314.954 169.353 314.875 169.126C314.797 168.898 314.764 168.657 314.779 168.416L324.019 16.2865C324.053 15.8232 324.261 15.39 324.602 15.0739C324.942 14.7577 325.389 14.582 325.854 14.582C326.318 14.582 326.766 14.7577 327.106 15.0739C327.447 15.39 327.655 15.8232 327.689 16.2865L337.019 168.416C337.034 168.657 337.001 168.898 336.923 169.126C336.844 169.353 336.722 169.563 336.562 169.744C336.402 169.924 336.208 170.071 335.991 170.176C335.775 170.281 335.539 170.342 335.299 170.356C335.055 170.376 334.809 170.346 334.576 170.27C334.343 170.194 334.127 170.072 333.941 169.912C333.755 169.753 333.603 169.558 333.493 169.339C333.382 169.12 333.317 168.881 333.299 168.636L325.859 46.5465L318.419 168.636C318.391 169.099 318.189 169.534 317.853 169.853C317.517 170.172 317.072 170.352 316.609 170.356Z" fill="#212121"/>
<path d="M325.88 169.497C325.557 169.497 325.246 169.368 325.017 169.139C324.789 168.91 324.66 168.6 324.66 168.277V16.3965C324.688 16.0908 324.829 15.8064 325.056 15.5993C325.282 15.3922 325.578 15.2773 325.885 15.2773C326.192 15.2773 326.488 15.3922 326.715 15.5993C326.942 15.8064 327.082 16.0908 327.11 16.3965V168.277C327.11 168.438 327.078 168.597 327.016 168.746C326.954 168.894 326.864 169.029 326.749 169.143C326.635 169.256 326.499 169.346 326.35 169.407C326.201 169.467 326.041 169.498 325.88 169.497Z" fill="#212121"/>
<path d="M321.71 169.495H321.65C321.489 169.489 321.331 169.45 321.184 169.382C321.038 169.314 320.907 169.218 320.798 169.099C320.689 168.98 320.605 168.841 320.551 168.689C320.496 168.537 320.472 168.376 320.48 168.215L324.66 78.9649C324.675 78.6509 324.81 78.3547 325.037 78.1372C325.264 77.9196 325.566 77.7971 325.88 77.7949C326.195 77.7947 326.498 77.9163 326.726 78.1344C326.953 78.3525 327.087 78.6501 327.1 78.9649L331.28 168.215C331.29 168.375 331.267 168.536 331.213 168.688C331.16 168.84 331.077 168.979 330.969 169.098C330.861 169.218 330.73 169.314 330.584 169.382C330.439 169.45 330.281 169.489 330.12 169.495C329.797 169.509 329.482 169.395 329.242 169.177C329.003 168.96 328.858 168.658 328.84 168.335L325.84 105.175L322.89 168.335C322.873 168.64 322.743 168.929 322.524 169.143C322.306 169.358 322.016 169.483 321.71 169.495Z" fill="#212121"/>
<path d="M314.109 170.335C313.948 170.336 313.789 170.306 313.64 170.245C313.492 170.184 313.357 170.094 313.243 169.981C313.13 169.867 313.04 169.732 312.979 169.584C312.918 169.435 312.887 169.276 312.889 169.115V87.7552C312.889 87.4316 313.017 87.1213 313.246 86.8925C313.475 86.6637 313.785 86.5352 314.109 86.5352C314.432 86.5352 314.743 86.6637 314.971 86.8925C315.2 87.1213 315.329 87.4316 315.329 87.7552V169.115C315.329 169.439 315.2 169.749 314.971 169.978C314.743 170.207 314.432 170.335 314.109 170.335Z" fill="#212121"/>
<path d="M308.79 170.336C308.63 170.336 308.471 170.305 308.323 170.243C308.175 170.182 308.041 170.092 307.928 169.979C307.814 169.866 307.724 169.731 307.663 169.583C307.602 169.435 307.57 169.276 307.57 169.116V103.326C307.598 103.02 307.739 102.736 307.966 102.529C308.192 102.322 308.488 102.207 308.795 102.207C309.102 102.207 309.398 102.322 309.625 102.529C309.852 102.736 309.993 103.02 310.02 103.326V169.116C310.02 169.277 309.988 169.437 309.926 169.585C309.864 169.734 309.774 169.869 309.659 169.982C309.545 170.096 309.409 170.186 309.26 170.246C309.111 170.307 308.951 170.338 308.79 170.336Z" fill="#212121"/>
<path d="M303.47 170.945C303.146 170.945 302.836 170.816 302.607 170.588C302.379 170.359 302.25 170.048 302.25 169.725V117.385C302.278 117.079 302.419 116.795 302.645 116.588C302.872 116.38 303.168 116.266 303.475 116.266C303.782 116.266 304.078 116.38 304.305 116.588C304.531 116.795 304.672 117.079 304.7 117.385V169.725C304.697 170.049 304.567 170.36 304.336 170.588C304.106 170.817 303.794 170.945 303.47 170.945Z" fill="#212121"/>
<path d="M298.16 171.726C297.999 171.727 297.839 171.697 297.69 171.636C297.541 171.575 297.405 171.486 297.291 171.372C297.176 171.259 297.085 171.124 297.023 170.975C296.962 170.826 296.93 170.667 296.93 170.506V134.506C296.957 134.2 297.098 133.916 297.325 133.709C297.552 133.502 297.848 133.387 298.155 133.387C298.462 133.387 298.758 133.502 298.984 133.709C299.211 133.916 299.352 134.2 299.38 134.506V170.506C299.38 170.829 299.251 171.14 299.022 171.369C298.794 171.597 298.483 171.726 298.16 171.726Z" fill="#212121"/>
<path d="M292.839 172.677C292.516 172.677 292.205 172.548 291.976 172.319C291.748 172.091 291.619 171.78 291.619 171.457V151.607C291.619 151.283 291.748 150.973 291.976 150.744C292.205 150.515 292.516 150.387 292.839 150.387C293.163 150.387 293.473 150.515 293.702 150.744C293.931 150.973 294.059 151.283 294.059 151.607V171.457C294.059 171.78 293.931 172.091 293.702 172.319C293.473 172.548 293.163 172.677 292.839 172.677Z" fill="#212121"/>
<path d="M287.519 173.816C287.195 173.816 286.885 173.687 286.656 173.458C286.427 173.229 286.299 172.919 286.299 172.596V162.986C286.299 162.662 286.427 162.352 286.656 162.123C286.885 161.894 287.195 161.766 287.519 161.766C287.842 161.766 288.153 161.894 288.381 162.123C288.61 162.352 288.739 162.662 288.739 162.986V172.596C288.739 172.919 288.61 173.229 288.381 173.458C288.153 173.687 287.842 173.816 287.519 173.816Z" fill="#212121"/>
<path d="M337.659 170.335C337.499 170.336 337.34 170.306 337.191 170.245C337.042 170.184 336.907 170.094 336.794 169.981C336.68 169.867 336.59 169.732 336.53 169.584C336.469 169.435 336.438 169.276 336.439 169.115V87.7552C336.439 87.4316 336.568 87.1213 336.797 86.8925C337.026 86.6637 337.336 86.5352 337.659 86.5352C337.983 86.5352 338.293 86.6637 338.522 86.8925C338.751 87.1213 338.879 87.4316 338.879 87.7552V169.115C338.879 169.439 338.751 169.749 338.522 169.978C338.293 170.207 337.983 170.335 337.659 170.335Z" fill="#212121"/>
<path d="M343.019 170.336C342.858 170.338 342.698 170.307 342.549 170.246C342.4 170.186 342.264 170.096 342.15 169.982C342.036 169.869 341.945 169.734 341.883 169.585C341.821 169.437 341.789 169.277 341.789 169.116V103.326C341.817 103.02 341.958 102.736 342.184 102.529C342.411 102.322 342.707 102.207 343.014 102.207C343.321 102.207 343.617 102.322 343.844 102.529C344.07 102.736 344.211 103.02 344.239 103.326V169.116C344.239 169.44 344.11 169.75 343.882 169.979C343.653 170.208 343.343 170.336 343.019 170.336Z" fill="#212121"/>
<path d="M348.29 170.945C347.967 170.945 347.656 170.816 347.427 170.588C347.199 170.359 347.07 170.048 347.07 169.725V117.385C347.098 117.079 347.239 116.795 347.466 116.588C347.692 116.38 347.988 116.266 348.295 116.266C348.602 116.266 348.898 116.38 349.125 116.588C349.352 116.795 349.493 117.079 349.52 117.385V169.725C349.518 170.049 349.387 170.36 349.156 170.588C348.926 170.817 348.615 170.945 348.29 170.945Z" fill="#212121"/>
<path d="M353.609 171.725C353.285 171.725 352.975 171.597 352.746 171.368C352.517 171.139 352.389 170.829 352.389 170.505V134.505C352.389 134.182 352.517 133.871 352.746 133.642C352.975 133.414 353.285 133.285 353.609 133.285C353.932 133.285 354.242 133.414 354.471 133.642C354.7 133.871 354.829 134.182 354.829 134.505V170.505C354.83 170.666 354.799 170.825 354.738 170.974C354.677 171.122 354.588 171.257 354.474 171.371C354.361 171.484 354.226 171.574 354.077 171.635C353.928 171.696 353.769 171.726 353.609 171.725Z" fill="#212121"/>
<path d="M358.929 172.677C358.605 172.677 358.295 172.548 358.066 172.319C357.838 172.091 357.709 171.78 357.709 171.457V151.607C357.709 151.283 357.838 150.973 358.066 150.744C358.295 150.515 358.605 150.387 358.929 150.387C359.253 150.387 359.563 150.515 359.792 150.744C360.021 150.973 360.149 151.283 360.149 151.607V171.457C360.149 171.617 360.117 171.776 360.056 171.924C359.995 172.072 359.905 172.206 359.792 172.319C359.678 172.433 359.544 172.523 359.396 172.584C359.248 172.645 359.089 172.677 358.929 172.677Z" fill="#212121"/>
<path d="M364.249 173.815C363.924 173.815 363.613 173.687 363.382 173.459C363.152 173.23 363.021 172.92 363.019 172.595V162.985C363.003 162.815 363.023 162.644 363.078 162.482C363.133 162.32 363.22 162.171 363.336 162.045C363.451 161.919 363.591 161.818 363.747 161.749C363.904 161.68 364.073 161.645 364.244 161.645C364.415 161.645 364.584 161.68 364.74 161.749C364.896 161.818 365.036 161.919 365.152 162.045C365.267 162.171 365.355 162.32 365.409 162.482C365.464 162.644 365.484 162.815 365.469 162.985V172.595C365.469 172.919 365.34 173.229 365.111 173.458C364.883 173.687 364.572 173.815 364.249 173.815Z" fill="#212121"/>
<path d="M325.879 666.117C325.412 666.118 324.963 665.94 324.622 665.62C324.282 665.3 324.077 664.863 324.049 664.397L314.779 512.277C314.764 512.036 314.796 511.795 314.874 511.568C314.952 511.34 315.074 511.13 315.234 510.949C315.393 510.768 315.586 510.621 315.802 510.515C316.019 510.409 316.254 510.347 316.494 510.332C316.734 510.317 316.975 510.349 317.203 510.427C317.431 510.505 317.641 510.627 317.822 510.786C318.002 510.946 318.15 511.139 318.256 511.355C318.362 511.571 318.424 511.806 318.439 512.047L325.879 634.137L333.319 512.047C333.367 511.574 333.597 511.138 333.96 510.83C334.322 510.522 334.79 510.367 335.265 510.397C335.739 510.427 336.184 510.639 336.505 510.99C336.827 511.34 337 511.801 336.989 512.277L327.719 664.397C327.688 664.864 327.481 665.301 327.139 665.621C326.798 665.94 326.347 666.118 325.879 666.117Z" fill="#212121"/>
<path d="M325.88 665.504C325.557 665.504 325.246 665.376 325.017 665.147C324.789 664.918 324.66 664.608 324.66 664.284V512.404C324.688 512.099 324.829 511.814 325.056 511.607C325.282 511.4 325.578 511.285 325.885 511.285C326.192 511.285 326.488 511.4 326.715 511.607C326.942 511.814 327.082 512.099 327.11 512.404V664.284C327.107 664.609 326.977 664.919 326.746 665.148C326.516 665.376 326.205 665.504 325.88 665.504Z" fill="#212121"/>
<path d="M325.88 602.886C325.565 602.887 325.262 602.765 325.035 602.547C324.807 602.329 324.673 602.031 324.66 601.716L320.48 512.466C320.472 512.305 320.496 512.144 320.551 511.992C320.605 511.841 320.689 511.701 320.798 511.582C320.907 511.463 321.038 511.367 321.184 511.299C321.331 511.231 321.489 511.193 321.65 511.186C321.811 511.175 321.972 511.197 322.125 511.25C322.277 511.303 322.417 511.386 322.536 511.494C322.656 511.603 322.752 511.734 322.82 511.88C322.888 512.027 322.925 512.185 322.93 512.346L325.88 575.516L328.88 512.346C328.896 512.023 329.04 511.719 329.28 511.501C329.52 511.284 329.837 511.17 330.16 511.186C330.484 511.202 330.788 511.346 331.005 511.586C331.223 511.826 331.336 512.143 331.32 512.466L327.14 601.716C327.135 601.876 327.098 602.033 327.032 602.179C326.966 602.324 326.871 602.455 326.754 602.564C326.637 602.673 326.499 602.757 326.349 602.813C326.199 602.868 326.04 602.893 325.88 602.886Z" fill="#212121"/>
<path d="M337.659 594.146C337.499 594.147 337.34 594.116 337.191 594.056C337.042 593.995 336.907 593.905 336.794 593.791C336.68 593.678 336.59 593.543 336.53 593.394C336.469 593.245 336.438 593.086 336.439 592.926V511.566C336.439 511.242 336.568 510.932 336.797 510.703C337.026 510.474 337.336 510.346 337.659 510.346C337.983 510.346 338.293 510.474 338.522 510.703C338.751 510.932 338.879 511.242 338.879 511.566V592.926C338.879 593.249 338.751 593.56 338.522 593.788C338.293 594.017 337.983 594.146 337.659 594.146Z" fill="#212121"/>
<path d="M343.019 578.575C342.695 578.575 342.383 578.446 342.153 578.218C341.922 577.989 341.792 577.679 341.789 577.354V511.565C341.817 511.259 341.958 510.974 342.184 510.767C342.411 510.56 342.707 510.445 343.014 510.445C343.321 510.445 343.617 510.56 343.844 510.767C344.07 510.974 344.211 511.259 344.239 511.565V577.354C344.239 577.678 344.11 577.988 343.882 578.217C343.653 578.446 343.343 578.575 343.019 578.575Z" fill="#212121"/>
<path d="M348.29 564.525C347.966 564.523 347.656 564.392 347.427 564.161C347.198 563.931 347.07 563.62 347.07 563.295V510.955C347.098 510.649 347.239 510.365 347.466 510.158C347.692 509.951 347.988 509.836 348.295 509.836C348.602 509.836 348.898 509.951 349.125 510.158C349.352 510.365 349.493 510.649 349.52 510.955V563.295C349.52 563.457 349.488 563.617 349.427 563.766C349.365 563.915 349.274 564.051 349.16 564.165C349.046 564.279 348.91 564.37 348.761 564.432C348.612 564.493 348.452 564.525 348.29 564.525Z" fill="#212121"/>
<path d="M353.609 547.434C353.284 547.432 352.974 547.301 352.745 547.071C352.517 546.84 352.389 546.529 352.389 546.204V510.204C352.389 509.881 352.517 509.571 352.746 509.342C352.975 509.113 353.285 508.984 353.609 508.984C353.932 508.984 354.242 509.113 354.471 509.342C354.7 509.571 354.829 509.881 354.829 510.204V546.204C354.83 546.365 354.799 546.525 354.739 546.674C354.678 546.823 354.588 546.959 354.475 547.074C354.361 547.188 354.226 547.279 354.078 547.341C353.929 547.403 353.77 547.434 353.609 547.434Z" fill="#212121"/>
<path d="M358.929 530.306C358.768 530.306 358.609 530.274 358.46 530.212C358.311 530.15 358.176 530.059 358.063 529.945C357.949 529.83 357.86 529.695 357.799 529.546C357.738 529.396 357.708 529.237 357.709 529.076V509.236C357.709 508.912 357.838 508.602 358.066 508.373C358.295 508.144 358.605 508.016 358.929 508.016C359.253 508.016 359.563 508.144 359.792 508.373C360.021 508.602 360.149 508.912 360.149 509.236V529.076C360.15 529.237 360.12 529.396 360.059 529.546C359.998 529.695 359.909 529.83 359.795 529.945C359.682 530.059 359.547 530.15 359.398 530.212C359.25 530.274 359.09 530.306 358.929 530.306Z" fill="#212121"/>
<path d="M364.249 518.946C363.924 518.946 363.613 518.818 363.382 518.589C363.152 518.361 363.021 518.051 363.019 517.726V508.116C363.003 507.946 363.023 507.774 363.078 507.613C363.133 507.451 363.22 507.302 363.336 507.176C363.451 507.05 363.591 506.949 363.747 506.88C363.904 506.811 364.073 506.775 364.244 506.775C364.415 506.775 364.584 506.811 364.74 506.88C364.896 506.949 365.036 507.05 365.152 507.176C365.267 507.302 365.355 507.451 365.409 507.613C365.464 507.774 365.484 507.946 365.469 508.116V517.726C365.469 518.05 365.34 518.36 365.111 518.589C364.883 518.818 364.572 518.946 364.249 518.946Z" fill="#212121"/>
<path d="M314.109 594.146C313.948 594.147 313.789 594.116 313.64 594.056C313.492 593.995 313.357 593.905 313.243 593.791C313.13 593.678 313.04 593.543 312.979 593.394C312.918 593.245 312.887 593.086 312.889 592.926V511.566C312.889 511.242 313.017 510.932 313.246 510.703C313.475 510.474 313.785 510.346 314.109 510.346C314.432 510.346 314.743 510.474 314.971 510.703C315.2 510.932 315.329 511.242 315.329 511.566V592.926C315.329 593.249 315.2 593.56 314.971 593.788C314.743 594.017 314.432 594.146 314.109 594.146Z" fill="#212121"/>
<path d="M308.79 578.575C308.467 578.575 308.156 578.446 307.928 578.217C307.699 577.988 307.57 577.678 307.57 577.354V511.565C307.598 511.259 307.739 510.974 307.966 510.767C308.192 510.56 308.488 510.445 308.795 510.445C309.102 510.445 309.398 510.56 309.625 510.767C309.852 510.974 309.993 511.259 310.02 511.565V577.354C310.018 577.679 309.887 577.989 309.656 578.218C309.426 578.446 309.115 578.575 308.79 578.575Z" fill="#212121"/>
<path d="M303.47 564.525C303.145 564.523 302.835 564.392 302.607 564.161C302.378 563.931 302.25 563.62 302.25 563.295V510.955C302.278 510.649 302.419 510.365 302.645 510.158C302.872 509.951 303.168 509.836 303.475 509.836C303.782 509.836 304.078 509.951 304.305 510.158C304.531 510.365 304.672 510.649 304.7 510.955V563.295C304.7 563.457 304.668 563.617 304.606 563.766C304.545 563.915 304.454 564.051 304.34 564.165C304.226 564.279 304.09 564.37 303.941 564.432C303.791 564.493 303.631 564.525 303.47 564.525Z" fill="#212121"/>
<path d="M298.16 547.435C297.833 547.435 297.521 547.306 297.29 547.075C297.059 546.844 296.93 546.531 296.93 546.205V510.205C296.957 509.899 297.098 509.615 297.325 509.408C297.552 509.201 297.848 509.086 298.155 509.086C298.462 509.086 298.758 509.201 298.984 509.408C299.211 509.615 299.352 509.899 299.38 510.205V546.205C299.38 546.53 299.251 546.841 299.023 547.071C298.794 547.302 298.484 547.432 298.16 547.435Z" fill="#212121"/>
<path d="M292.839 530.306C292.678 530.306 292.519 530.274 292.37 530.212C292.221 530.15 292.086 530.059 291.973 529.945C291.86 529.83 291.77 529.695 291.709 529.546C291.648 529.396 291.618 529.237 291.619 529.076V509.236C291.619 508.912 291.748 508.602 291.976 508.373C292.205 508.144 292.516 508.016 292.839 508.016C293.163 508.016 293.473 508.144 293.702 508.373C293.931 508.602 294.059 508.912 294.059 509.236V529.076C294.061 529.237 294.03 529.396 293.969 529.546C293.909 529.695 293.819 529.83 293.705 529.945C293.592 530.059 293.457 530.15 293.308 530.212C293.16 530.274 293 530.306 292.839 530.306Z" fill="#212121"/>
<path d="M287.519 518.945C287.195 518.945 286.885 518.816 286.656 518.587C286.427 518.358 286.299 518.048 286.299 517.724V508.115C286.299 507.791 286.427 507.481 286.656 507.252C286.885 507.023 287.195 506.895 287.519 506.895C287.842 506.895 288.153 507.023 288.381 507.252C288.61 507.481 288.739 507.791 288.739 508.115V517.724C288.739 518.048 288.61 518.358 288.381 518.587C288.153 518.816 287.842 518.945 287.519 518.945Z" fill="#212121"/>
<path d="M96.8186 571.236C96.4741 571.229 96.1386 571.125 95.8506 570.936C95.5626 570.747 95.3338 570.48 95.1907 570.167C95.0475 569.853 94.9959 569.506 95.0415 569.164C95.0871 568.823 95.2282 568.501 95.4486 568.236L196.449 454.116C196.771 453.751 197.225 453.53 197.71 453.5C198.196 453.47 198.674 453.634 199.039 453.956C199.403 454.278 199.625 454.732 199.655 455.218C199.685 455.704 199.521 456.181 199.199 456.546L118.129 548.136L209.719 467.066C209.899 466.906 210.109 466.784 210.337 466.706C210.565 466.627 210.806 466.595 211.047 466.61C211.287 466.624 211.522 466.687 211.739 466.792C211.955 466.898 212.149 467.045 212.309 467.226C212.468 467.407 212.591 467.617 212.669 467.845C212.747 468.073 212.78 468.314 212.765 468.554C212.75 468.795 212.688 469.03 212.582 469.246C212.477 469.463 212.329 469.656 212.149 469.816L98.0186 570.816C97.6821 571.096 97.2561 571.245 96.8186 571.236Z" fill="#212121"/>
<path d="M96.8202 570.625C96.5798 570.622 96.3456 570.548 96.1469 570.412C95.9481 570.277 95.7934 570.086 95.7019 569.864C95.6104 569.641 95.5861 569.397 95.632 569.161C95.6779 568.925 95.7919 568.707 95.9601 568.535L203.35 461.145C203.464 461.032 203.599 460.942 203.747 460.88C203.895 460.819 204.054 460.787 204.215 460.787C204.376 460.787 204.535 460.819 204.683 460.88C204.832 460.942 204.967 461.032 205.08 461.145C205.194 461.259 205.284 461.394 205.345 461.542C205.407 461.691 205.438 461.85 205.438 462.01C205.438 462.171 205.407 462.33 205.345 462.479C205.284 462.627 205.194 462.762 205.08 462.875L97.6902 570.265C97.5763 570.38 97.4406 570.471 97.2913 570.533C97.1419 570.595 96.9818 570.626 96.8202 570.625Z" fill="#212121"/>
<path d="M141.1 526.346C140.872 526.339 140.65 526.268 140.46 526.141C140.27 526.014 140.119 525.836 140.025 525.627C139.932 525.419 139.898 525.188 139.929 524.962C139.96 524.735 140.054 524.522 140.2 524.346L200.36 458.276C200.578 458.036 200.882 457.892 201.205 457.876C201.529 457.861 201.845 457.974 202.085 458.191C202.325 458.409 202.469 458.713 202.485 459.036C202.501 459.36 202.388 459.676 202.17 459.916L159.59 506.676L206.35 464.096C206.59 463.879 206.907 463.766 207.23 463.782C207.554 463.797 207.858 463.941 208.075 464.181C208.293 464.421 208.406 464.738 208.39 465.061C208.374 465.385 208.23 465.689 207.99 465.906L141.93 526.066C141.699 526.261 141.402 526.361 141.1 526.346Z" fill="#212121"/>
<path d="M155.599 528.496C155.359 528.492 155.125 528.418 154.926 528.283C154.727 528.147 154.573 527.956 154.481 527.734C154.39 527.512 154.365 527.267 154.411 527.031C154.457 526.795 154.571 526.578 154.739 526.406L212.269 468.876C212.499 468.646 212.81 468.518 213.134 468.518C213.459 468.518 213.77 468.646 213.999 468.876C214.229 469.105 214.358 469.416 214.358 469.741C214.358 470.065 214.229 470.376 213.999 470.606L156.469 528.136C156.355 528.251 156.22 528.341 156.071 528.403C155.921 528.465 155.761 528.496 155.599 528.496Z" fill="#212121"/>
<path d="M170.379 521.246C170.138 521.244 169.902 521.171 169.702 521.036C169.502 520.902 169.345 520.711 169.253 520.488C169.16 520.266 169.135 520.02 169.18 519.783C169.226 519.546 169.34 519.328 169.509 519.156L216.019 472.636C216.132 472.522 216.267 472.432 216.416 472.37C216.564 472.309 216.723 472.277 216.884 472.277C217.044 472.277 217.204 472.309 217.352 472.37C217.5 472.432 217.635 472.522 217.749 472.636C217.862 472.749 217.952 472.884 218.014 473.032C218.075 473.181 218.107 473.34 218.107 473.501C218.107 473.661 218.075 473.82 218.014 473.969C217.952 474.117 217.862 474.252 217.749 474.366L171.229 520.886C171.004 521.113 170.699 521.243 170.379 521.246Z" fill="#212121"/>
<path d="M184.07 515.067C183.83 515.063 183.596 514.989 183.397 514.853C183.198 514.718 183.043 514.527 182.952 514.305C182.86 514.082 182.836 513.838 182.882 513.602C182.928 513.366 183.042 513.148 183.21 512.977L220.21 475.977C220.442 475.751 220.752 475.625 221.075 475.625C221.398 475.625 221.709 475.751 221.94 475.977C222.054 476.09 222.145 476.225 222.206 476.373C222.268 476.522 222.3 476.681 222.3 476.842C222.3 477.002 222.268 477.161 222.206 477.31C222.145 477.458 222.054 477.593 221.94 477.707L184.94 514.707C184.826 514.821 184.691 514.912 184.541 514.974C184.392 515.036 184.232 515.067 184.07 515.067Z" fill="#212121"/>
<path d="M199.919 506.735C199.76 506.736 199.601 506.706 199.454 506.646C199.306 506.586 199.172 506.497 199.059 506.385C198.945 506.271 198.854 506.137 198.793 505.988C198.731 505.84 198.699 505.68 198.699 505.52C198.699 505.359 198.731 505.2 198.793 505.051C198.854 504.903 198.945 504.768 199.059 504.655L224.529 479.175C224.758 478.945 225.069 478.816 225.394 478.816C225.718 478.816 226.029 478.945 226.259 479.175C226.488 479.404 226.617 479.715 226.617 480.04C226.617 480.364 226.488 480.675 226.259 480.905L200.789 506.385C200.674 506.498 200.538 506.587 200.389 506.647C200.24 506.707 200.08 506.737 199.919 506.735Z" fill="#212121"/>
<path d="M215.789 498.386C215.549 498.382 215.314 498.308 215.116 498.172C214.917 498.037 214.762 497.846 214.671 497.624C214.579 497.402 214.555 497.157 214.601 496.921C214.647 496.685 214.761 496.468 214.929 496.296L228.929 482.296C229.158 482.066 229.47 481.938 229.794 481.938C230.118 481.938 230.43 482.066 230.659 482.296C230.888 482.525 231.017 482.836 231.017 483.161C231.017 483.485 230.888 483.796 230.659 484.026L216.659 498.026C216.545 498.14 216.409 498.231 216.26 498.293C216.111 498.355 215.951 498.386 215.789 498.386Z" fill="#212121"/>
<path d="M227.58 494.115C227.34 494.111 227.105 494.037 226.907 493.902C226.708 493.767 226.553 493.576 226.462 493.353C226.37 493.131 226.346 492.887 226.392 492.651C226.438 492.415 226.552 492.197 226.72 492.025L233.51 485.235C233.739 485.006 234.05 484.877 234.375 484.877C234.699 484.877 235.01 485.006 235.24 485.235C235.469 485.465 235.598 485.776 235.598 486.1C235.598 486.425 235.469 486.736 235.24 486.965L228.45 493.755C228.336 493.87 228.2 493.961 228.051 494.023C227.902 494.084 227.742 494.116 227.58 494.115Z" fill="#212121"/>
<path d="M138.949 511.816C138.709 511.812 138.475 511.738 138.276 511.603C138.077 511.467 137.922 511.277 137.831 511.054C137.739 510.832 137.715 510.588 137.761 510.352C137.807 510.115 137.921 509.898 138.089 509.726L195.619 452.196C195.848 451.967 196.16 451.838 196.484 451.838C196.808 451.838 197.12 451.967 197.349 452.196C197.578 452.426 197.707 452.737 197.707 453.061C197.707 453.386 197.578 453.697 197.349 453.926L139.819 511.456C139.705 511.571 139.57 511.662 139.42 511.723C139.271 511.785 139.111 511.817 138.949 511.816Z" fill="#212121"/>
<path d="M146.209 497.076C145.968 497.074 145.732 497.001 145.532 496.866C145.332 496.732 145.176 496.541 145.083 496.318C144.99 496.096 144.965 495.851 145.01 495.614C145.056 495.377 145.17 495.158 145.339 494.986L191.859 448.466C192.088 448.236 192.399 448.107 192.724 448.107C193.048 448.107 193.359 448.236 193.589 448.466C193.818 448.695 193.947 449.006 193.947 449.331C193.947 449.655 193.818 449.966 193.589 450.196L147.069 496.716C146.957 496.83 146.823 496.92 146.675 496.982C146.527 497.044 146.369 497.076 146.209 497.076Z" fill="#212121"/>
<path d="M152.379 483.375C152.138 483.372 151.904 483.298 151.705 483.162C151.507 483.027 151.352 482.836 151.261 482.614C151.169 482.391 151.145 482.147 151.191 481.911C151.236 481.675 151.351 481.457 151.519 481.285L188.519 444.285C188.632 444.171 188.767 444.081 188.915 444.019C189.064 443.958 189.223 443.926 189.384 443.926C189.544 443.926 189.704 443.958 189.852 444.019C190.001 444.081 190.135 444.171 190.249 444.285C190.474 444.517 190.6 444.827 190.6 445.15C190.6 445.474 190.474 445.784 190.249 446.015L153.249 483.015C153.135 483.13 152.999 483.221 152.85 483.283C152.701 483.345 152.54 483.376 152.379 483.375Z" fill="#212121"/>
<path d="M160.709 467.526C160.468 467.527 160.231 467.456 160.03 467.323C159.829 467.189 159.672 466.999 159.579 466.776C159.486 466.554 159.461 466.309 159.507 466.072C159.553 465.835 159.669 465.617 159.839 465.446L185.319 439.966C185.433 439.852 185.568 439.762 185.716 439.701C185.864 439.639 186.023 439.607 186.184 439.607C186.345 439.607 186.504 439.639 186.652 439.701C186.801 439.762 186.935 439.852 187.049 439.966C187.163 440.079 187.253 440.214 187.314 440.363C187.376 440.511 187.407 440.67 187.407 440.831C187.407 440.991 187.376 441.15 187.314 441.299C187.253 441.447 187.163 441.582 187.049 441.696L161.569 467.166C161.457 467.28 161.323 467.37 161.175 467.432C161.027 467.494 160.869 467.526 160.709 467.526Z" fill="#212121"/>
<path d="M169.019 451.655C168.858 451.656 168.7 451.624 168.552 451.562C168.404 451.5 168.271 451.41 168.159 451.295C168.045 451.182 167.954 451.047 167.892 450.899C167.831 450.75 167.799 450.591 167.799 450.43C167.799 450.27 167.831 450.11 167.892 449.962C167.954 449.813 168.045 449.679 168.159 449.565L182.159 435.565C182.272 435.452 182.407 435.362 182.555 435.3C182.704 435.239 182.863 435.207 183.024 435.207C183.184 435.207 183.343 435.239 183.492 435.3C183.64 435.362 183.775 435.452 183.889 435.565C184.002 435.679 184.092 435.814 184.154 435.962C184.215 436.111 184.247 436.27 184.247 436.43C184.247 436.591 184.215 436.75 184.154 436.898C184.092 437.047 184.002 437.182 183.889 437.295L169.889 451.295C169.775 451.411 169.64 451.502 169.49 451.564C169.341 451.626 169.18 451.657 169.019 451.655Z" fill="#212121"/>
<path d="M173.33 439.865C173.09 439.861 172.855 439.787 172.657 439.652C172.458 439.517 172.303 439.326 172.212 439.103C172.12 438.881 172.096 438.637 172.142 438.401C172.188 438.165 172.302 437.947 172.47 437.775L179.26 430.985C179.489 430.756 179.8 430.627 180.125 430.627C180.449 430.627 180.76 430.756 180.99 430.985C181.219 431.215 181.348 431.526 181.348 431.85C181.348 432.175 181.219 432.486 180.99 432.715L174.2 439.505C173.969 439.735 173.656 439.864 173.33 439.865Z" fill="#212121"/>
<path d="M154.07 351.445H153.95L1.83008 342.175C1.34473 342.175 0.879202 341.982 0.536011 341.639C0.192819 341.296 0 340.83 0 340.345C0 339.86 0.192819 339.394 0.536011 339.051C0.879202 338.708 1.34473 338.515 1.83008 338.515L153.95 329.235C154.195 329.214 154.441 329.243 154.675 329.319C154.908 329.394 155.124 329.516 155.31 329.676C155.497 329.836 155.649 330.031 155.759 330.251C155.869 330.471 155.934 330.71 155.95 330.955C155.965 331.195 155.932 331.436 155.854 331.664C155.775 331.892 155.653 332.102 155.493 332.282C155.333 332.462 155.139 332.609 154.922 332.714C154.706 332.82 154.47 332.881 154.23 332.895L32.14 340.345L154.18 347.815C154.42 347.822 154.657 347.877 154.876 347.975C155.095 348.074 155.293 348.215 155.458 348.39C155.623 348.565 155.751 348.771 155.837 348.995C155.922 349.22 155.962 349.46 155.955 349.7C155.948 349.94 155.893 350.177 155.795 350.396C155.696 350.615 155.555 350.813 155.38 350.978C155.205 351.143 154.999 351.271 154.775 351.357C154.55 351.442 154.31 351.482 154.07 351.475V351.445Z" fill="#212121"/>
<path d="M153.82 341.565H1.93958C1.63379 341.538 1.34931 341.397 1.14221 341.17C0.935113 340.943 0.820312 340.647 0.820312 340.34C0.820312 340.033 0.935113 339.737 1.14221 339.511C1.34931 339.284 1.63379 339.143 1.93958 339.115H153.82C154.125 339.143 154.41 339.284 154.617 339.511C154.824 339.737 154.939 340.033 154.939 340.34C154.939 340.647 154.824 340.943 154.617 341.17C154.41 341.397 154.125 341.538 153.82 341.565Z" fill="#212121"/>
<path d="M153.82 345.747H153.76L64.5098 341.567C64.204 341.539 63.9196 341.398 63.7125 341.171C63.5054 340.945 63.3906 340.649 63.3906 340.342C63.3906 340.035 63.5054 339.739 63.7125 339.512C63.9196 339.285 64.204 339.144 64.5098 339.117L153.76 334.947C153.92 334.939 154.08 334.963 154.231 335.017C154.382 335.071 154.521 335.154 154.64 335.262C154.759 335.369 154.855 335.499 154.924 335.644C154.993 335.789 155.032 335.947 155.04 336.107C155.048 336.267 155.024 336.427 154.97 336.578C154.916 336.729 154.833 336.868 154.725 336.987C154.617 337.106 154.487 337.202 154.342 337.271C154.197 337.34 154.04 337.379 153.88 337.387L90.7097 340.387L153.88 343.387C154.186 343.421 154.468 343.569 154.67 343.8C154.872 344.032 154.98 344.332 154.973 344.639C154.965 344.947 154.843 345.241 154.629 345.462C154.416 345.684 154.127 345.818 153.82 345.837V345.747Z" fill="#212121"/>
<path d="M154.66 353.335H73.3C72.9765 353.335 72.6662 353.206 72.4374 352.977C72.2086 352.748 72.0801 352.438 72.0801 352.115C72.0801 351.791 72.2086 351.481 72.4374 351.252C72.6662 351.023 72.9765 350.895 73.3 350.895H154.66C154.984 350.895 155.294 351.023 155.523 351.252C155.752 351.481 155.88 351.791 155.88 352.115C155.88 352.438 155.752 352.748 155.523 352.977C155.294 353.206 154.984 353.335 154.66 353.335Z" fill="#212121"/>
<path d="M154.658 358.655H88.8684C88.5448 358.655 88.2345 358.526 88.0057 358.298C87.7769 358.069 87.6484 357.758 87.6484 357.435C87.6484 357.111 87.7769 356.801 88.0057 356.572C88.2345 356.343 88.5448 356.215 88.8684 356.215H154.658C154.982 356.215 155.292 356.343 155.521 356.572C155.75 356.801 155.878 357.111 155.878 357.435C155.878 357.758 155.75 358.069 155.521 358.298C155.292 358.526 154.982 358.655 154.658 358.655Z" fill="#212121"/>
<path d="M155.27 363.975H102.92C102.614 363.948 102.33 363.807 102.123 363.58C101.916 363.353 101.801 363.057 101.801 362.75C101.801 362.443 101.916 362.147 102.123 361.921C102.33 361.694 102.614 361.553 102.92 361.525H155.27C155.576 361.553 155.86 361.694 156.067 361.921C156.274 362.147 156.389 362.443 156.389 362.75C156.389 363.057 156.274 363.353 156.067 363.58C155.86 363.807 155.576 363.948 155.27 363.975Z" fill="#212121"/>
<path d="M156.019 369.295H120.019C119.848 369.31 119.677 369.29 119.515 369.235C119.353 369.181 119.204 369.093 119.078 368.978C118.952 368.863 118.851 368.722 118.782 368.566C118.713 368.41 118.678 368.241 118.678 368.07C118.678 367.899 118.713 367.73 118.782 367.574C118.851 367.417 118.952 367.277 119.078 367.162C119.204 367.047 119.353 366.959 119.515 366.904C119.677 366.85 119.848 366.829 120.019 366.845H156.019C156.324 366.872 156.609 367.014 156.816 367.24C157.023 367.467 157.138 367.763 157.138 368.07C157.138 368.377 157.023 368.673 156.816 368.899C156.609 369.126 156.324 369.267 156.019 369.295Z" fill="#212121"/>
<path d="M157.019 374.606H137.179C136.856 374.606 136.545 374.477 136.316 374.249C136.088 374.02 135.959 373.71 135.959 373.386C135.959 373.062 136.088 372.752 136.316 372.523C136.545 372.295 136.856 372.166 137.179 372.166H157.019C157.343 372.166 157.653 372.295 157.882 372.523C158.111 372.752 158.239 373.062 158.239 373.386C158.239 373.71 158.111 374.02 157.882 374.249C157.653 374.477 157.343 374.606 157.019 374.606Z" fill="#212121"/>
<path d="M158.109 379.924H148.509C148.185 379.924 147.875 379.796 147.646 379.567C147.418 379.338 147.289 379.028 147.289 378.704C147.289 378.381 147.418 378.07 147.646 377.842C147.875 377.613 148.185 377.484 148.509 377.484H158.109C158.433 377.484 158.743 377.613 158.972 377.842C159.2 378.07 159.329 378.381 159.329 378.704C159.329 379.028 159.2 379.338 158.972 379.567C158.743 379.796 158.433 379.924 158.109 379.924Z" fill="#212121"/>
<path d="M154.659 329.815H73.299C72.9932 329.788 72.7087 329.647 72.5016 329.42C72.2945 329.193 72.1797 328.897 72.1797 328.59C72.1797 328.283 72.2945 327.987 72.5016 327.761C72.7087 327.534 72.9932 327.393 73.299 327.365H154.659C154.965 327.393 155.249 327.534 155.456 327.761C155.663 327.987 155.778 328.283 155.778 328.59C155.778 328.897 155.663 329.193 155.456 329.42C155.249 329.647 154.965 329.788 154.659 329.815Z" fill="#212121"/>
<path d="M154.659 324.475H88.8691C88.5634 324.448 88.279 324.307 88.0719 324.08C87.8648 323.853 87.75 323.557 87.75 323.25C87.75 322.943 87.8648 322.647 88.0719 322.421C88.279 322.194 88.5634 322.053 88.8691 322.025H154.659C154.965 322.053 155.249 322.194 155.456 322.421C155.664 322.647 155.778 322.943 155.778 323.25C155.778 323.557 155.664 323.853 155.456 324.08C155.249 324.307 154.965 324.448 154.659 324.475Z" fill="#212121"/>
<path d="M155.27 319.155H102.92C102.614 319.127 102.33 318.986 102.123 318.76C101.916 318.533 101.801 318.237 101.801 317.93C101.801 317.623 101.916 317.327 102.123 317.1C102.33 316.874 102.614 316.733 102.92 316.705H155.27C155.576 316.733 155.86 316.874 156.067 317.1C156.274 317.327 156.389 317.623 156.389 317.93C156.389 318.237 156.274 318.533 156.067 318.76C155.86 318.986 155.576 319.127 155.27 319.155Z" fill="#212121"/>
<path d="M156.019 313.815H120.019C119.695 313.815 119.385 313.686 119.156 313.458C118.927 313.229 118.799 312.919 118.799 312.595C118.799 312.271 118.927 311.961 119.156 311.732C119.385 311.504 119.695 311.375 120.019 311.375H156.019C156.342 311.375 156.653 311.504 156.881 311.732C157.11 311.961 157.239 312.271 157.239 312.595C157.239 312.919 157.11 313.229 156.881 313.458C156.653 313.686 156.342 313.815 156.019 313.815Z" fill="#212121"/>
<path d="M157.019 308.516H137.179C136.856 308.516 136.545 308.388 136.316 308.159C136.088 307.93 135.959 307.62 135.959 307.296C135.959 306.973 136.088 306.662 136.316 306.434C136.545 306.205 136.856 306.076 137.179 306.076H157.019C157.343 306.076 157.653 306.205 157.882 306.434C158.111 306.662 158.239 306.973 158.239 307.296C158.239 307.62 158.111 307.93 157.882 308.159C157.653 308.388 157.343 308.516 157.019 308.516Z" fill="#212121"/>
<path d="M158.109 303.205H148.509C148.339 303.22 148.167 303.2 148.005 303.146C147.843 303.091 147.695 303.003 147.568 302.888C147.442 302.773 147.342 302.633 147.273 302.476C147.204 302.32 147.168 302.151 147.168 301.98C147.168 301.809 147.204 301.64 147.273 301.484C147.342 301.327 147.442 301.187 147.568 301.072C147.695 300.957 147.843 300.869 148.005 300.814C148.167 300.76 148.339 300.74 148.509 300.755H158.109C158.279 300.74 158.451 300.76 158.612 300.814C158.774 300.869 158.923 300.957 159.049 301.072C159.175 301.187 159.276 301.327 159.345 301.484C159.414 301.64 159.45 301.809 159.45 301.98C159.45 302.151 159.414 302.32 159.345 302.476C159.276 302.633 159.175 302.773 159.049 302.888C158.923 303.003 158.774 303.091 158.612 303.146C158.451 303.2 158.279 303.22 158.109 303.205Z" fill="#212121"/>
<path d="M197.829 227.236C197.569 227.235 197.313 227.18 197.077 227.073C196.841 226.966 196.63 226.81 196.458 226.616L95.4585 112.496C95.1678 112.143 95.0191 111.694 95.0412 111.237C95.0633 110.781 95.2548 110.349 95.5781 110.025C95.9014 109.702 96.3335 109.511 96.7902 109.488C97.247 109.466 97.6955 109.615 98.0485 109.906L212.169 210.906C212.533 211.228 212.755 211.682 212.785 212.168C212.815 212.653 212.651 213.131 212.329 213.496C212.006 213.86 211.552 214.082 211.067 214.112C210.581 214.142 210.103 213.978 209.738 213.656L118.149 132.586L199.218 224.176C199.45 224.441 199.601 224.768 199.653 225.117C199.704 225.466 199.654 225.823 199.509 226.144C199.363 226.466 199.129 226.738 198.832 226.93C198.536 227.122 198.191 227.225 197.838 227.226L197.829 227.236Z" fill="#212121"/>
<path d="M204.22 219.895C204.058 219.896 203.898 219.864 203.749 219.802C203.599 219.74 203.464 219.65 203.35 219.535L95.9598 112.145C95.7304 111.916 95.6016 111.604 95.6016 111.28C95.6016 110.955 95.7304 110.644 95.9598 110.415C96.1893 110.186 96.5005 110.057 96.825 110.057C97.1494 110.057 97.4605 110.186 97.6899 110.415L205.08 217.815C205.248 217.987 205.362 218.204 205.408 218.44C205.454 218.676 205.43 218.921 205.338 219.143C205.247 219.366 205.092 219.556 204.893 219.692C204.694 219.827 204.46 219.901 204.22 219.905V219.895Z" fill="#212121"/>
<path d="M201.26 222.816C201.091 222.815 200.923 222.779 200.768 222.71C200.613 222.641 200.474 222.541 200.36 222.416L140.2 156.346C139.971 156.117 139.842 155.806 139.842 155.481C139.842 155.157 139.971 154.846 140.2 154.616C140.43 154.387 140.741 154.258 141.065 154.258C141.39 154.258 141.701 154.387 141.93 154.616L208.02 214.816C208.26 215.034 208.404 215.338 208.42 215.661C208.436 215.985 208.323 216.301 208.105 216.541C207.888 216.781 207.584 216.925 207.26 216.941C206.937 216.957 206.62 216.844 206.38 216.626L159.62 174.046L202.17 220.816C202.385 221.058 202.497 221.374 202.482 221.697C202.467 222.021 202.326 222.325 202.09 222.546C201.855 222.733 201.56 222.829 201.26 222.816Z" fill="#212121"/>
<path d="M196.48 228.815C196.32 228.815 196.162 228.783 196.014 228.721C195.866 228.66 195.733 228.569 195.62 228.455L138.09 170.925C137.976 170.812 137.886 170.677 137.824 170.529C137.762 170.38 137.73 170.221 137.73 170.06C137.73 169.9 137.762 169.74 137.824 169.592C137.886 169.443 137.976 169.309 138.09 169.195C138.322 168.97 138.632 168.844 138.955 168.844C139.278 168.844 139.589 168.97 139.82 169.195L197.35 226.725C197.519 226.898 197.633 227.116 197.679 227.353C197.724 227.59 197.699 227.835 197.606 228.058C197.514 228.281 197.357 228.471 197.157 228.606C196.957 228.741 196.721 228.813 196.48 228.815Z" fill="#212121"/>
<path d="M192.72 232.575C192.56 232.575 192.402 232.543 192.254 232.481C192.106 232.419 191.973 232.329 191.86 232.215L145.34 185.695C145.226 185.581 145.136 185.447 145.074 185.298C145.012 185.15 144.98 184.991 144.98 184.83C144.98 184.669 145.012 184.51 145.074 184.361C145.136 184.213 145.226 184.078 145.34 183.965C145.572 183.739 145.882 183.613 146.205 183.613C146.528 183.613 146.839 183.739 147.07 183.965L193.59 230.485C193.759 230.657 193.873 230.876 193.919 231.113C193.964 231.35 193.939 231.595 193.846 231.818C193.754 232.04 193.597 232.231 193.397 232.366C193.197 232.5 192.961 232.573 192.72 232.575Z" fill="#212121"/>
<path d="M189.39 236.817C189.229 236.816 189.071 236.784 188.923 236.723C188.776 236.661 188.642 236.57 188.53 236.457L151.53 199.457C151.416 199.343 151.325 199.208 151.263 199.06C151.202 198.911 151.17 198.752 151.17 198.592C151.17 198.431 151.202 198.272 151.263 198.123C151.325 197.975 151.416 197.84 151.53 197.727C151.761 197.501 152.071 197.375 152.395 197.375C152.718 197.375 153.028 197.501 153.26 197.727L190.26 234.727C190.485 234.958 190.611 235.268 190.611 235.592C190.611 235.915 190.485 236.225 190.26 236.457C190.146 236.571 190.01 236.662 189.861 236.724C189.711 236.786 189.551 236.817 189.39 236.817Z" fill="#212121"/>
<path d="M186.19 241.076C186.028 241.077 185.868 241.045 185.719 240.983C185.569 240.921 185.434 240.831 185.32 240.716L159.84 215.246C159.614 215.014 159.488 214.704 159.488 214.381C159.488 214.058 159.614 213.747 159.84 213.516C159.953 213.402 160.088 213.311 160.236 213.25C160.385 213.188 160.544 213.156 160.705 213.156C160.866 213.156 161.025 213.188 161.173 213.25C161.322 213.311 161.456 213.402 161.57 213.516L187.02 238.996C187.189 239.167 187.305 239.383 187.351 239.619C187.398 239.855 187.374 240.1 187.282 240.322C187.19 240.544 187.034 240.734 186.835 240.869C186.635 241.003 186.4 241.075 186.16 241.076H186.19Z" fill="#212121"/>
<path d="M183.088 245.505C182.928 245.505 182.77 245.473 182.622 245.411C182.475 245.349 182.341 245.259 182.228 245.145L168.228 231.145C168.111 231.033 168.018 230.898 167.953 230.75C167.888 230.601 167.854 230.441 167.852 230.279C167.85 230.116 167.88 229.955 167.941 229.805C168.002 229.655 168.092 229.518 168.206 229.403C168.321 229.288 168.457 229.197 168.607 229.135C168.757 229.073 168.918 229.042 169.08 229.043C169.242 229.044 169.403 229.078 169.552 229.141C169.701 229.205 169.836 229.298 169.949 229.415L183.949 243.415C184.119 243.586 184.234 243.804 184.28 244.041C184.327 244.278 184.302 244.523 184.209 244.746C184.116 244.968 183.958 245.158 183.757 245.292C183.556 245.425 183.32 245.496 183.079 245.495L183.088 245.505Z" fill="#212121"/>
<path d="M180.129 250.056C179.805 250.056 179.493 249.931 179.259 249.706L172.469 242.906C172.355 242.792 172.265 242.658 172.203 242.509C172.141 242.361 172.109 242.202 172.109 242.041C172.109 241.88 172.141 241.721 172.203 241.572C172.265 241.424 172.355 241.289 172.469 241.176C172.701 240.95 173.011 240.824 173.334 240.824C173.657 240.824 173.968 240.95 174.199 241.176L180.989 247.976C181.103 248.089 181.194 248.224 181.255 248.372C181.317 248.521 181.349 248.68 181.349 248.841C181.349 249.002 181.317 249.161 181.255 249.309C181.194 249.458 181.103 249.592 180.989 249.706C180.758 249.929 180.45 250.055 180.129 250.056Z" fill="#212121"/>
<path d="M213.139 212.166C212.978 212.166 212.817 212.135 212.668 212.073C212.519 212.011 212.383 211.92 212.269 211.806L154.739 154.276C154.51 154.046 154.381 153.735 154.381 153.411C154.381 153.086 154.51 152.775 154.739 152.546C154.969 152.316 155.28 152.188 155.604 152.188C155.929 152.187 156.24 152.316 156.469 152.546L214.019 210.076C214.187 210.248 214.301 210.465 214.347 210.701C214.393 210.937 214.369 211.182 214.277 211.404C214.186 211.626 214.031 211.817 213.832 211.952C213.634 212.088 213.4 212.162 213.159 212.166H213.139Z" fill="#212121"/>
<path d="M216.899 208.406C216.737 208.406 216.577 208.375 216.427 208.313C216.278 208.251 216.143 208.16 216.029 208.046L169.509 161.526C169.279 161.296 169.15 160.985 169.15 160.661C169.15 160.336 169.279 160.025 169.509 159.796C169.738 159.566 170.049 159.438 170.374 159.438C170.698 159.437 171.009 159.566 171.239 159.796L217.759 206.316C217.927 206.488 218.041 206.705 218.087 206.941C218.133 207.177 218.108 207.422 218.017 207.644C217.925 207.866 217.771 208.057 217.572 208.192C217.373 208.328 217.139 208.402 216.899 208.406Z" fill="#212121"/>
<path d="M221.09 205.075C220.928 205.076 220.768 205.044 220.619 204.983C220.469 204.921 220.334 204.83 220.22 204.715L183.22 167.715C183.106 167.602 183.016 167.467 182.954 167.318C182.893 167.17 182.861 167.011 182.861 166.85C182.861 166.69 182.893 166.531 182.954 166.382C183.016 166.234 183.106 166.099 183.22 165.985C183.333 165.872 183.468 165.782 183.617 165.72C183.765 165.659 183.924 165.627 184.085 165.627C184.245 165.627 184.404 165.659 184.553 165.72C184.701 165.782 184.836 165.872 184.95 165.985L221.95 202.985C222.118 203.157 222.232 203.375 222.278 203.611C222.324 203.847 222.299 204.091 222.208 204.313C222.116 204.536 221.962 204.727 221.763 204.862C221.564 204.997 221.33 205.071 221.09 205.075Z" fill="#212121"/>
<path d="M225.398 201.866C225.072 201.865 224.76 201.735 224.528 201.506L199.018 176.036C198.789 175.806 198.66 175.495 198.66 175.171C198.66 174.846 198.789 174.535 199.018 174.306C199.248 174.076 199.559 173.947 199.883 173.947C200.208 173.947 200.519 174.076 200.748 174.306L226.258 199.816C226.427 199.987 226.541 200.205 226.587 200.441C226.632 200.677 226.608 200.921 226.517 201.144C226.425 201.366 226.27 201.557 226.072 201.692C225.873 201.828 225.639 201.902 225.398 201.906V201.866Z" fill="#212121"/>
<path d="M229.83 198.815C229.504 198.815 229.191 198.685 228.96 198.456L214.96 184.456C214.846 184.342 214.756 184.207 214.695 184.059C214.633 183.91 214.602 183.751 214.602 183.59C214.602 183.43 214.633 183.271 214.695 183.122C214.756 182.974 214.846 182.839 214.96 182.725C215.073 182.612 215.208 182.522 215.357 182.46C215.505 182.399 215.664 182.367 215.825 182.367C215.986 182.367 216.145 182.399 216.293 182.46C216.442 182.522 216.576 182.612 216.69 182.725L230.69 196.725C230.858 196.897 230.972 197.115 231.018 197.351C231.064 197.587 231.04 197.831 230.948 198.054C230.857 198.276 230.702 198.467 230.503 198.602C230.304 198.738 230.07 198.812 229.83 198.815Z" fill="#212121"/>
<path d="M234.38 195.816C234.054 195.815 233.741 195.686 233.51 195.456L226.72 188.666C226.49 188.437 226.361 188.126 226.361 187.801C226.361 187.477 226.49 187.166 226.72 186.936C226.949 186.707 227.26 186.578 227.585 186.578C227.909 186.578 228.22 186.707 228.45 186.936L235.24 193.726C235.408 193.898 235.522 194.116 235.568 194.352C235.614 194.588 235.589 194.832 235.498 195.055C235.406 195.277 235.252 195.468 235.053 195.603C234.854 195.738 234.62 195.813 234.38 195.816Z" fill="#212121"/>
<path d="M217.02 130.386C216.828 130.389 216.638 130.347 216.464 130.263C216.291 130.18 216.139 130.058 216.02 129.906L213.02 125.976C212.923 125.845 212.852 125.696 212.811 125.537C212.771 125.378 212.763 125.213 212.787 125.051C212.81 124.889 212.866 124.733 212.95 124.593C213.033 124.452 213.144 124.329 213.275 124.231C213.407 124.134 213.556 124.063 213.715 124.022C213.874 123.982 214.039 123.974 214.201 123.997C214.363 124.021 214.519 124.077 214.659 124.16C214.8 124.244 214.923 124.355 215.02 124.486L218.02 128.426C218.118 128.554 218.189 128.699 218.23 128.854C218.271 129.009 218.281 129.17 218.26 129.329C218.238 129.488 218.186 129.641 218.105 129.779C218.025 129.918 217.918 130.039 217.79 130.136C217.57 130.306 217.298 130.395 217.02 130.386Z" fill="#212121"/>
<path d="M269.619 199.345C269.427 199.35 269.235 199.309 269.062 199.225C268.888 199.142 268.736 199.018 268.619 198.865L218.819 133.615C218.622 133.35 218.538 133.017 218.585 132.69C218.633 132.362 218.809 132.068 219.074 131.87C219.34 131.672 219.672 131.588 220 131.636C220.327 131.684 220.622 131.86 220.819 132.125L270.619 197.385C270.716 197.512 270.788 197.658 270.829 197.813C270.87 197.967 270.88 198.129 270.858 198.288C270.837 198.446 270.785 198.6 270.704 198.738C270.624 198.877 270.517 198.998 270.389 199.095C270.169 199.265 269.897 199.353 269.619 199.345Z" fill="#212121"/>
<path d="M258.02 113.365C257.724 113.365 257.438 113.258 257.216 113.063C256.993 112.868 256.849 112.598 256.81 112.305L256.15 107.405C256.107 107.091 256.187 106.773 256.373 106.518C256.56 106.262 256.838 106.089 257.15 106.035C257.472 105.995 257.796 106.082 258.054 106.279C258.312 106.475 258.483 106.764 258.53 107.085L259.18 111.985C259.227 112.299 259.148 112.618 258.96 112.874C258.773 113.131 258.493 113.303 258.18 113.355L258.02 113.365Z" fill="#212121"/>
<path d="M269.609 199.345C269.313 199.343 269.029 199.235 268.806 199.041C268.584 198.846 268.44 198.578 268.399 198.285L257.469 116.935C257.451 116.626 257.551 116.322 257.748 116.084C257.945 115.845 258.225 115.69 258.531 115.648C258.838 115.606 259.149 115.682 259.402 115.859C259.656 116.037 259.833 116.303 259.899 116.605L270.829 197.965C270.872 198.279 270.792 198.597 270.606 198.853C270.419 199.108 270.141 199.281 269.829 199.335L269.609 199.345Z" fill="#212121"/>
<path d="M269.59 199.286C269.386 199.279 269.187 199.221 269.012 199.116C268.837 199.011 268.692 198.863 268.59 198.686L237.59 146.376C237.424 146.098 237.376 145.765 237.455 145.451C237.535 145.137 237.736 144.867 238.015 144.701C238.293 144.535 238.626 144.487 238.94 144.567C239.255 144.646 239.524 144.848 239.69 145.126L262.01 182.736L234.01 115.136C233.949 114.988 233.918 114.829 233.918 114.668C233.918 114.508 233.95 114.349 234.012 114.201C234.074 114.053 234.164 113.918 234.278 113.805C234.392 113.692 234.527 113.602 234.675 113.541C234.823 113.48 234.982 113.449 235.143 113.449C235.303 113.45 235.462 113.482 235.61 113.543C235.758 113.605 235.893 113.695 236.006 113.809C236.119 113.923 236.209 114.058 236.27 114.206L270.81 197.596C270.926 197.882 270.931 198.2 270.824 198.489C270.716 198.778 270.504 199.016 270.23 199.156C270.033 199.258 269.811 199.303 269.59 199.286Z" fill="#212121"/>
<path d="M236.119 142.884C235.915 142.876 235.717 142.817 235.543 142.712C235.368 142.607 235.222 142.46 235.119 142.284L233.789 140.044C233.624 139.764 233.577 139.431 233.658 139.116C233.738 138.801 233.94 138.531 234.219 138.364C234.497 138.2 234.83 138.153 235.143 138.234C235.456 138.314 235.724 138.516 235.889 138.794L237.219 141.034C237.302 141.172 237.358 141.325 237.382 141.484C237.406 141.643 237.398 141.806 237.359 141.962C237.32 142.118 237.25 142.265 237.154 142.394C237.058 142.523 236.937 142.632 236.799 142.714C236.592 142.833 236.357 142.892 236.119 142.884Z" fill="#212121"/>
<path d="M269.59 199.286C269.348 199.288 269.111 199.218 268.91 199.084C268.709 198.951 268.552 198.76 268.46 198.536L233.92 115.136C233.859 114.988 233.828 114.829 233.828 114.668C233.828 114.508 233.86 114.349 233.922 114.201C233.984 114.053 234.074 113.918 234.188 113.805C234.302 113.692 234.437 113.602 234.585 113.541C234.733 113.48 234.892 113.449 235.053 113.449C235.213 113.45 235.372 113.482 235.52 113.543C235.668 113.605 235.803 113.695 235.916 113.809C236.029 113.923 236.119 114.058 236.18 114.206L264.18 181.806L253.37 139.426C253.29 139.112 253.339 138.779 253.505 138.5C253.671 138.222 253.941 138.021 254.255 137.941C254.569 137.862 254.902 137.91 255.181 138.076C255.459 138.242 255.66 138.512 255.74 138.826L270.74 197.766C270.817 198.064 270.778 198.38 270.632 198.651C270.485 198.922 270.242 199.127 269.95 199.226C269.833 199.263 269.712 199.283 269.59 199.286Z" fill="#212121"/>
<path d="M253.369 135.746C253.098 135.746 252.835 135.655 252.621 135.488C252.407 135.322 252.255 135.089 252.189 134.826L251.539 132.296C251.499 132.141 251.49 131.979 251.512 131.819C251.535 131.66 251.588 131.507 251.67 131.369C251.752 131.231 251.86 131.11 251.988 131.013C252.117 130.917 252.263 130.846 252.419 130.806C252.574 130.766 252.736 130.757 252.895 130.78C253.054 130.802 253.207 130.856 253.346 130.938C253.484 131.019 253.605 131.127 253.702 131.256C253.798 131.384 253.869 131.531 253.909 131.686L254.559 134.216C254.637 134.532 254.588 134.866 254.421 135.145C254.254 135.424 253.984 135.626 253.669 135.706C253.57 135.729 253.47 135.743 253.369 135.746Z" fill="#212121"/>
<path d="M398.58 113.366H398.42C398.261 113.345 398.108 113.293 397.969 113.212C397.83 113.132 397.709 113.026 397.611 112.898C397.513 112.771 397.442 112.626 397.401 112.471C397.359 112.316 397.349 112.155 397.37 111.996L398.03 107.096C398.072 106.775 398.241 106.484 398.497 106.287C398.754 106.09 399.079 106.003 399.4 106.046C399.721 106.088 400.012 106.256 400.209 106.513C400.406 106.77 400.492 107.095 400.45 107.416L399.79 112.316C399.749 112.607 399.604 112.874 399.382 113.067C399.159 113.26 398.874 113.366 398.58 113.366Z" fill="#212121"/>
<path d="M387.019 199.345H386.859C386.547 199.291 386.269 199.118 386.082 198.862C385.896 198.606 385.816 198.288 385.859 197.975L396.789 116.615C396.811 116.456 396.864 116.303 396.944 116.164C397.025 116.026 397.132 115.905 397.26 115.808C397.388 115.71 397.534 115.64 397.689 115.599C397.844 115.558 398.005 115.548 398.164 115.57C398.323 115.591 398.476 115.644 398.615 115.725C398.753 115.806 398.875 115.913 398.972 116.041C399.069 116.169 399.14 116.314 399.18 116.469C399.221 116.624 399.231 116.786 399.209 116.945L388.279 198.295C388.237 198.595 388.085 198.869 387.852 199.063C387.619 199.257 387.322 199.358 387.019 199.345Z" fill="#212121"/>
<path d="M387.019 199.347C386.751 199.348 386.491 199.26 386.279 199.097C386.151 199 386.042 198.879 385.961 198.741C385.88 198.602 385.827 198.449 385.806 198.29C385.784 198.131 385.795 197.969 385.837 197.814C385.878 197.659 385.951 197.513 386.049 197.387L435.849 132.127C435.947 131.999 436.069 131.892 436.208 131.812C436.347 131.732 436.501 131.68 436.66 131.659C436.819 131.638 436.981 131.649 437.136 131.69C437.291 131.732 437.437 131.804 437.564 131.902C437.691 131.999 437.798 132.121 437.878 132.26C437.959 132.4 438.011 132.553 438.032 132.712C438.053 132.872 438.042 133.033 438 133.189C437.959 133.344 437.887 133.489 437.789 133.617L388.019 198.867C387.903 199.021 387.752 199.145 387.578 199.229C387.404 199.313 387.212 199.353 387.019 199.347Z" fill="#212121"/>
<path d="M387.019 199.285C386.89 199.284 386.762 199.264 386.639 199.225C386.345 199.128 386.099 198.924 385.951 198.653C385.802 198.382 385.762 198.065 385.839 197.765L400.839 138.825C400.878 138.669 400.948 138.523 401.045 138.394C401.141 138.265 401.262 138.157 401.401 138.075C401.539 137.993 401.692 137.94 401.852 137.918C402.011 137.895 402.173 137.905 402.329 137.945C402.484 137.984 402.63 138.053 402.759 138.148C402.888 138.244 402.996 138.364 403.078 138.501C403.16 138.639 403.213 138.791 403.236 138.95C403.258 139.109 403.249 139.27 403.208 139.425L392.468 181.815L420.468 114.215C420.529 114.067 420.618 113.932 420.731 113.818C420.843 113.704 420.977 113.613 421.125 113.551C421.272 113.489 421.431 113.456 421.591 113.455C421.751 113.454 421.91 113.485 422.059 113.545C422.359 113.669 422.598 113.907 422.724 114.207C422.849 114.507 422.851 114.844 422.728 115.145L388.178 198.545C388.084 198.773 387.923 198.966 387.715 199.098C387.508 199.23 387.264 199.296 387.019 199.285Z" fill="#212121"/>
<path d="M403.27 135.746C403.17 135.755 403.07 135.755 402.97 135.746C402.814 135.706 402.668 135.636 402.539 135.539C402.41 135.443 402.302 135.322 402.22 135.184C402.139 135.045 402.085 134.892 402.063 134.733C402.04 134.573 402.05 134.411 402.09 134.256L402.74 131.726C402.774 131.564 402.84 131.412 402.935 131.277C403.03 131.142 403.151 131.028 403.291 130.941C403.431 130.854 403.587 130.796 403.75 130.772C403.913 130.747 404.08 130.755 404.239 130.797C404.399 130.838 404.548 130.911 404.679 131.012C404.809 131.112 404.918 131.238 404.998 131.382C405.079 131.526 405.129 131.685 405.147 131.848C405.164 132.012 405.149 132.178 405.1 132.336L404.46 134.866C404.384 135.122 404.227 135.346 404.012 135.505C403.798 135.663 403.537 135.748 403.27 135.746Z" fill="#212121"/>
<path d="M387.019 199.285C386.831 199.286 386.646 199.242 386.479 199.155C386.201 199.019 385.985 198.782 385.876 198.492C385.766 198.202 385.771 197.882 385.889 197.595L420.439 114.205C420.499 114.057 420.588 113.922 420.701 113.808C420.814 113.694 420.947 113.603 421.095 113.541C421.243 113.479 421.401 113.446 421.561 113.445C421.722 113.444 421.881 113.475 422.029 113.535C422.329 113.659 422.568 113.897 422.694 114.197C422.82 114.497 422.821 114.834 422.699 115.135L394.699 182.735L417.019 145.125C417.185 144.847 417.454 144.646 417.768 144.566C418.083 144.486 418.416 144.535 418.694 144.7C418.972 144.866 419.174 145.136 419.253 145.45C419.333 145.764 419.285 146.097 419.119 146.375L388.119 198.685C388.007 198.875 387.845 199.032 387.652 199.137C387.458 199.243 387.239 199.294 387.019 199.285Z" fill="#212121"/>
<path d="M436.829 548.064C436.636 548.071 436.444 548.03 436.27 547.947C436.096 547.863 435.944 547.739 435.829 547.584L386.019 482.324C385.92 482.193 385.847 482.044 385.806 481.884C385.764 481.725 385.755 481.559 385.778 481.396C385.8 481.233 385.855 481.076 385.938 480.934C386.022 480.793 386.132 480.669 386.264 480.569C386.395 480.47 386.544 480.398 386.704 480.357C386.863 480.315 387.029 480.306 387.192 480.328C387.355 480.351 387.512 480.406 387.654 480.489C387.796 480.573 387.92 480.683 388.019 480.814L437.819 546.074C437.916 546.202 437.987 546.347 438.028 546.502C438.069 546.657 438.079 546.818 438.058 546.977C438.036 547.136 437.984 547.289 437.903 547.427C437.823 547.566 437.716 547.687 437.589 547.784C437.375 547.963 437.107 548.062 436.829 548.064Z" fill="#212121"/>
<path d="M399.24 573.694C398.944 573.694 398.658 573.587 398.435 573.392C398.213 573.197 398.069 572.928 398.03 572.634L397.37 567.724C397.327 567.403 397.414 567.079 397.611 566.822C397.808 566.565 398.099 566.397 398.42 566.354C398.741 566.312 399.065 566.399 399.322 566.596C399.579 566.792 399.747 567.083 399.79 567.404L400.45 572.304C400.494 572.619 400.414 572.938 400.228 573.196C400.041 573.453 399.762 573.628 399.45 573.684L399.24 573.694Z" fill="#212121"/>
<path d="M397.96 564.165C397.663 564.168 397.376 564.061 397.153 563.866C396.93 563.67 396.787 563.4 396.75 563.105L385.82 481.755C385.798 481.596 385.808 481.435 385.849 481.28C385.889 481.125 385.961 480.979 386.058 480.851C386.155 480.724 386.276 480.616 386.414 480.536C386.553 480.455 386.706 480.402 386.865 480.38C387.024 480.359 387.185 480.368 387.34 480.409C387.495 480.45 387.641 480.521 387.769 480.618C387.896 480.715 388.004 480.836 388.084 480.975C388.165 481.113 388.218 481.266 388.24 481.425L399.17 562.815C399.191 562.974 399.181 563.136 399.139 563.291C399.098 563.445 399.026 563.591 398.929 563.718C398.831 563.845 398.71 563.952 398.571 564.032C398.432 564.112 398.279 564.164 398.12 564.185L397.96 564.165Z" fill="#212121"/>
<path d="M421.599 566.266C421.357 566.268 421.121 566.198 420.919 566.064C420.718 565.93 420.561 565.739 420.469 565.516L385.919 482.116C385.813 481.831 385.816 481.517 385.928 481.235C386.04 480.952 386.252 480.721 386.524 480.586C386.796 480.451 387.108 480.421 387.401 480.502C387.694 480.583 387.946 480.77 388.109 481.026L419.109 533.336C419.191 533.474 419.245 533.626 419.268 533.785C419.291 533.944 419.283 534.106 419.243 534.261C419.204 534.417 419.134 534.563 419.038 534.692C418.942 534.82 418.822 534.929 418.684 535.011C418.546 535.093 418.393 535.147 418.235 535.17C418.076 535.193 417.914 535.185 417.759 535.145C417.603 535.106 417.457 535.036 417.328 534.94C417.2 534.844 417.091 534.724 417.009 534.586L394.699 496.976L422.699 564.576C422.821 564.877 422.82 565.214 422.694 565.514C422.569 565.814 422.329 566.052 422.029 566.176C421.892 566.231 421.747 566.261 421.599 566.266Z" fill="#212121"/>
<path d="M421.599 566.265C421.358 566.267 421.121 566.197 420.92 566.063C420.718 565.929 420.561 565.738 420.469 565.515L392.469 497.915L403.279 540.285C403.319 540.44 403.327 540.602 403.304 540.761C403.281 540.92 403.227 541.073 403.144 541.21C403.062 541.348 402.954 541.469 402.825 541.565C402.696 541.661 402.55 541.73 402.394 541.77C402.239 541.809 402.077 541.817 401.918 541.794C401.759 541.771 401.607 541.717 401.469 541.635C401.331 541.553 401.21 541.444 401.114 541.315C401.018 541.187 400.949 541.04 400.909 540.885L385.909 481.945C385.83 481.645 385.869 481.326 386.016 481.054C386.164 480.781 386.409 480.575 386.703 480.477C386.998 480.379 387.318 480.396 387.599 480.526C387.881 480.656 388.103 480.887 388.219 481.175L422.769 564.575C422.892 564.876 422.89 565.213 422.765 565.513C422.639 565.813 422.4 566.051 422.099 566.175C421.941 566.239 421.771 566.269 421.599 566.265Z" fill="#212121"/>
<path d="M403.92 548.945C403.649 548.944 403.386 548.854 403.172 548.687C402.959 548.521 402.807 548.288 402.74 548.025L402.09 545.495C402.011 545.181 402.059 544.848 402.225 544.569C402.391 544.291 402.661 544.09 402.975 544.01C403.289 543.93 403.622 543.979 403.901 544.145C404.179 544.311 404.38 544.581 404.46 544.895L405.1 547.415C405.141 547.571 405.15 547.733 405.128 547.892C405.105 548.051 405.052 548.205 404.97 548.343C404.888 548.482 404.78 548.603 404.651 548.699C404.523 548.795 404.376 548.865 404.22 548.905C404.123 548.934 404.021 548.947 403.92 548.945Z" fill="#212121"/>
<path d="M257.41 573.696H257.24C256.928 573.64 256.649 573.465 256.463 573.207C256.276 572.95 256.196 572.631 256.24 572.316L256.9 567.416C256.945 567.094 257.115 566.803 257.374 566.607C257.632 566.41 257.958 566.323 258.28 566.366C258.593 566.418 258.874 566.59 259.061 566.847C259.248 567.103 259.326 567.422 259.28 567.736L258.63 572.646C258.587 572.939 258.44 573.206 258.216 573.398C257.992 573.591 257.706 573.697 257.41 573.696Z" fill="#212121"/>
<path d="M258.689 564.165H258.519C258.208 564.111 257.929 563.938 257.742 563.682C257.556 563.426 257.476 563.108 257.519 562.795L268.449 481.435C268.459 481.265 268.503 481.1 268.58 480.948C268.657 480.797 268.764 480.663 268.895 480.555C269.025 480.447 269.177 480.367 269.341 480.321C269.504 480.274 269.675 480.262 269.843 480.285C270.011 480.307 270.173 480.365 270.318 480.453C270.463 480.542 270.588 480.659 270.685 480.798C270.782 480.937 270.85 481.095 270.883 481.261C270.917 481.427 270.915 481.599 270.879 481.765L259.949 563.115C259.905 563.414 259.752 563.687 259.52 563.88C259.288 564.074 258.992 564.175 258.689 564.165Z" fill="#212121"/>
<path d="M214.02 555.706C213.783 555.718 213.547 555.661 213.342 555.541C213.137 555.422 212.971 555.245 212.865 555.033C212.759 554.821 212.717 554.582 212.745 554.346C212.772 554.11 212.868 553.888 213.02 553.706L216.02 549.766C216.117 549.634 216.24 549.524 216.381 549.44C216.522 549.356 216.677 549.3 216.839 549.277C217.001 549.253 217.167 549.262 217.325 549.302C217.484 549.342 217.633 549.413 217.765 549.511C217.896 549.609 218.007 549.731 218.091 549.872C218.174 550.013 218.23 550.168 218.254 550.33C218.277 550.492 218.269 550.658 218.229 550.816C218.189 550.975 218.117 551.124 218.02 551.256L215.02 555.186C214.908 555.347 214.758 555.479 214.584 555.569C214.41 555.66 214.216 555.707 214.02 555.706Z" fill="#212121"/>
<path d="M219.82 548.066C219.549 548.069 219.285 547.981 219.07 547.816C218.943 547.719 218.836 547.597 218.755 547.459C218.675 547.32 218.622 547.167 218.601 547.008C218.579 546.85 218.589 546.688 218.631 546.533C218.672 546.378 218.743 546.233 218.84 546.106L268.64 480.846C268.737 480.715 268.859 480.604 268.999 480.52C269.139 480.435 269.295 480.38 269.456 480.355C269.618 480.331 269.782 480.339 269.941 480.379C270.099 480.418 270.249 480.489 270.38 480.586C270.511 480.683 270.622 480.805 270.706 480.945C270.79 481.085 270.846 481.24 270.87 481.402C270.894 481.564 270.886 481.728 270.847 481.887C270.807 482.045 270.737 482.195 270.64 482.326L220.84 547.586C220.722 547.743 220.567 547.868 220.389 547.952C220.211 548.036 220.016 548.075 219.82 548.066Z" fill="#212121"/>
<path d="M235.019 566.265C234.858 566.265 234.698 566.234 234.549 566.175C234.25 566.049 234.013 565.81 233.89 565.51C233.766 565.211 233.766 564.875 233.889 564.575L268.429 481.175C268.546 480.887 268.767 480.656 269.049 480.526C269.33 480.396 269.651 480.379 269.945 480.477C270.239 480.575 270.485 480.781 270.632 481.054C270.78 481.326 270.818 481.645 270.739 481.945L255.739 540.885C255.699 541.04 255.63 541.187 255.534 541.315C255.438 541.444 255.318 541.553 255.18 541.635C255.042 541.717 254.889 541.771 254.73 541.794C254.571 541.817 254.409 541.809 254.254 541.77C254.098 541.73 253.952 541.661 253.823 541.565C253.694 541.469 253.586 541.348 253.504 541.21C253.422 541.073 253.367 540.92 253.344 540.761C253.321 540.602 253.329 540.44 253.369 540.285L264.179 497.915L236.179 565.515C236.084 565.742 235.922 565.936 235.715 566.07C235.508 566.204 235.265 566.272 235.019 566.265Z" fill="#212121"/>
<path d="M252.719 548.945C252.62 548.96 252.519 548.96 252.419 548.945C252.264 548.906 252.117 548.835 251.988 548.739C251.86 548.643 251.751 548.522 251.67 548.383C251.588 548.245 251.534 548.091 251.512 547.932C251.489 547.773 251.499 547.611 251.539 547.455L252.189 544.935C252.227 544.779 252.295 544.632 252.39 544.503C252.485 544.373 252.605 544.264 252.743 544.182C252.881 544.1 253.034 544.047 253.193 544.025C253.353 544.003 253.514 544.013 253.669 544.055C253.825 544.094 253.972 544.163 254.101 544.258C254.23 544.353 254.339 544.473 254.421 544.611C254.504 544.748 254.559 544.9 254.582 545.059C254.606 545.218 254.598 545.38 254.559 545.535L253.909 548.065C253.833 548.321 253.676 548.545 253.462 548.704C253.247 548.863 252.986 548.948 252.719 548.945Z" fill="#212121"/>
<path d="M235.019 566.266C234.858 566.266 234.698 566.236 234.549 566.176C234.25 566.05 234.013 565.811 233.89 565.512C233.766 565.212 233.766 564.876 233.889 564.576L261.889 496.976L239.569 534.586C239.404 534.865 239.136 535.066 238.823 535.147C238.51 535.227 238.177 535.18 237.899 535.016C237.62 534.85 237.418 534.58 237.337 534.265C237.257 533.95 237.304 533.616 237.469 533.336L268.469 481.026C268.622 480.753 268.875 480.548 269.175 480.456C269.475 480.364 269.798 480.391 270.079 480.531C270.359 480.671 270.575 480.914 270.681 481.21C270.787 481.505 270.776 481.829 270.649 482.116L236.109 565.516C236.019 565.733 235.868 565.919 235.674 566.052C235.481 566.185 235.253 566.259 235.019 566.266Z" fill="#212121"/>
<path d="M234.79 541.515C234.571 541.516 234.357 541.458 234.17 541.345C233.891 541.181 233.689 540.912 233.609 540.599C233.528 540.286 233.575 539.954 233.739 539.675L235.07 537.425C235.152 537.287 235.26 537.167 235.389 537.071C235.517 536.975 235.663 536.905 235.819 536.866C235.974 536.826 236.136 536.818 236.295 536.841C236.454 536.864 236.607 536.918 236.744 537C236.882 537.082 237.003 537.191 237.099 537.319C237.195 537.448 237.264 537.594 237.304 537.75C237.343 537.905 237.352 538.067 237.329 538.226C237.306 538.384 237.252 538.537 237.17 538.675L235.839 540.915C235.733 541.099 235.58 541.252 235.396 541.357C235.211 541.462 235.002 541.517 234.79 541.515Z" fill="#212121"/>
<path d="M113.699 455.416C113.507 455.418 113.317 455.376 113.143 455.293C112.97 455.209 112.818 455.087 112.699 454.936C112.602 454.808 112.531 454.663 112.49 454.508C112.449 454.353 112.439 454.192 112.46 454.033C112.481 453.874 112.534 453.721 112.614 453.583C112.695 453.444 112.802 453.323 112.929 453.226L116.859 450.226C117.124 450.028 117.457 449.944 117.785 449.992C118.112 450.039 118.407 450.215 118.604 450.481C118.802 450.746 118.886 451.079 118.838 451.406C118.79 451.733 118.614 452.028 118.349 452.226L114.419 455.226C114.206 455.364 113.953 455.43 113.699 455.416Z" fill="#212121"/>
<path d="M121.34 449.586C121.147 449.588 120.957 449.546 120.784 449.463C120.61 449.379 120.458 449.257 120.34 449.106C120.243 448.978 120.172 448.833 120.131 448.678C120.089 448.523 120.079 448.362 120.101 448.203C120.122 448.044 120.175 447.891 120.255 447.753C120.336 447.614 120.443 447.493 120.57 447.396L185.83 397.596C186.087 397.4 186.412 397.313 186.733 397.357C187.053 397.4 187.344 397.569 187.54 397.826C187.736 398.083 187.822 398.408 187.779 398.728C187.736 399.049 187.567 399.339 187.31 399.536L122.06 449.336C121.854 449.495 121.601 449.583 121.34 449.586Z" fill="#212121"/>
<path d="M95.7084 411.995C95.398 411.996 95.099 411.879 94.872 411.667C94.6451 411.455 94.5074 411.165 94.487 410.855C94.4666 410.545 94.5651 410.24 94.7623 410C94.9595 409.76 95.2407 409.605 95.5485 409.565L100.449 408.905C100.769 408.863 101.094 408.949 101.351 409.146C101.608 409.343 101.776 409.634 101.819 409.955C101.861 410.276 101.774 410.601 101.577 410.858C101.38 411.114 101.089 411.283 100.769 411.325L95.8685 411.985L95.7084 411.995Z" fill="#212121"/>
<path d="M105.23 410.714C104.92 410.715 104.62 410.598 104.394 410.386C104.167 410.174 104.029 409.884 104.008 409.575C103.988 409.265 104.087 408.959 104.284 408.719C104.481 408.479 104.762 408.324 105.07 408.284L186.43 397.354C186.751 397.312 187.076 397.399 187.332 397.596C187.589 397.792 187.758 398.083 187.8 398.404C187.842 398.725 187.756 399.05 187.559 399.307C187.362 399.564 187.071 399.732 186.75 399.774L105.4 410.704L105.23 410.714Z" fill="#212121"/>
<path d="M103.129 434.356C102.845 434.358 102.569 434.262 102.349 434.083C102.129 433.904 101.978 433.654 101.922 433.375C101.866 433.097 101.91 432.808 102.044 432.558C102.178 432.308 102.396 432.113 102.659 432.006L186.059 397.456C186.343 397.35 186.657 397.353 186.94 397.465C187.222 397.577 187.453 397.789 187.589 398.061C187.724 398.333 187.754 398.645 187.673 398.938C187.592 399.23 187.405 399.483 187.149 399.646L134.839 430.646C134.701 430.734 134.546 430.793 134.385 430.819C134.224 430.846 134.059 430.84 133.9 430.802C133.741 430.764 133.591 430.694 133.46 430.597C133.329 430.499 133.218 430.377 133.135 430.236C133.052 430.095 132.998 429.939 132.976 429.777C132.954 429.615 132.966 429.45 133.009 429.293C133.052 429.135 133.127 428.988 133.228 428.86C133.329 428.731 133.455 428.625 133.599 428.546L171.199 406.236L103.599 434.236C103.451 434.306 103.292 434.347 103.129 434.356Z" fill="#212121"/>
<path d="M127.879 434.606C127.612 434.606 127.352 434.518 127.139 434.355C126.927 434.193 126.774 433.965 126.703 433.707C126.633 433.449 126.649 433.176 126.749 432.928C126.85 432.68 127.029 432.472 127.259 432.336L129.499 431.006C129.637 430.924 129.79 430.87 129.948 430.847C130.107 430.824 130.269 430.832 130.424 430.872C130.58 430.911 130.726 430.981 130.855 431.077C130.983 431.173 131.092 431.293 131.174 431.431C131.256 431.569 131.31 431.721 131.333 431.88C131.356 432.039 131.348 432.201 131.308 432.356C131.269 432.512 131.199 432.658 131.103 432.787C131.007 432.915 130.887 433.024 130.749 433.106L128.509 434.436C128.319 434.55 128.101 434.609 127.879 434.606Z" fill="#212121"/>
<path d="M103.129 434.356C102.845 434.359 102.569 434.262 102.349 434.083C102.129 433.904 101.978 433.654 101.922 433.376C101.866 433.097 101.91 432.809 102.044 432.559C102.178 432.309 102.396 432.113 102.659 432.006L170.269 404.006L127.899 414.816C127.584 414.897 127.251 414.85 126.971 414.685C126.692 414.52 126.49 414.251 126.409 413.936C126.328 413.622 126.375 413.289 126.54 413.009C126.705 412.73 126.974 412.527 127.289 412.446L186.229 397.446C186.528 397.368 186.847 397.406 187.12 397.553C187.392 397.701 187.599 397.946 187.697 398.24C187.795 398.535 187.777 398.855 187.647 399.136C187.518 399.418 187.286 399.64 186.999 399.756L103.599 434.306C103.446 434.352 103.287 434.369 103.129 434.356Z" fill="#212121"/>
<path d="M120.46 416.675C120.156 416.686 119.859 416.583 119.627 416.386C119.394 416.189 119.244 415.913 119.205 415.611C119.166 415.309 119.242 415.004 119.417 414.755C119.592 414.506 119.853 414.331 120.15 414.265L122.68 413.625C122.994 413.544 123.328 413.591 123.607 413.756C123.887 413.921 124.089 414.19 124.17 414.505C124.251 414.819 124.204 415.152 124.039 415.432C123.874 415.711 123.604 415.914 123.29 415.995L120.76 416.635C120.663 416.663 120.561 416.677 120.46 416.675Z" fill="#212121"/>
<path d="M100.61 270.816H100.45L95.5497 270.156C95.2489 270.09 94.9839 269.913 94.807 269.661C94.6302 269.409 94.5543 269.099 94.5945 268.794C94.6347 268.489 94.7881 268.209 95.0242 268.012C95.2603 267.814 95.562 267.712 95.8697 267.726L100.77 268.386C101.068 268.439 101.336 268.6 101.523 268.838C101.71 269.076 101.803 269.375 101.783 269.678C101.763 269.98 101.632 270.264 101.416 270.476C101.199 270.688 100.912 270.813 100.61 270.826V270.816Z" fill="#212121"/>
<path d="M186.59 282.376H186.43L105.07 271.446C104.768 271.38 104.501 271.203 104.324 270.949C104.146 270.696 104.071 270.385 104.113 270.078C104.154 269.772 104.31 269.492 104.549 269.295C104.787 269.098 105.091 268.998 105.4 269.016L186.75 279.946C187.049 279.998 187.317 280.159 187.504 280.398C187.691 280.636 187.783 280.935 187.763 281.237C187.744 281.54 187.613 281.824 187.396 282.036C187.18 282.248 186.893 282.372 186.59 282.386V282.376Z" fill="#212121"/>
<path d="M117.629 229.745C117.358 229.745 117.095 229.657 116.879 229.495L112.949 226.495C112.715 226.289 112.568 226.002 112.537 225.693C112.507 225.383 112.595 225.073 112.784 224.825C112.973 224.578 113.249 224.411 113.556 224.359C113.863 224.307 114.179 224.374 114.439 224.545L118.369 227.545C118.57 227.702 118.717 227.917 118.79 228.161C118.864 228.405 118.86 228.666 118.778 228.907C118.697 229.149 118.543 229.359 118.337 229.509C118.131 229.659 117.883 229.742 117.629 229.745Z" fill="#212121"/>
<path d="M186.589 282.375C186.322 282.377 186.061 282.289 185.849 282.125L120.589 232.325C120.355 232.119 120.208 231.833 120.178 231.523C120.147 231.213 120.235 230.903 120.425 230.655C120.614 230.408 120.89 230.241 121.197 230.189C121.504 230.137 121.819 230.204 122.079 230.375L187.329 280.175C187.53 280.332 187.678 280.547 187.751 280.791C187.824 281.035 187.82 281.296 187.739 281.537C187.658 281.779 187.503 281.989 187.297 282.139C187.092 282.289 186.844 282.372 186.589 282.375Z" fill="#212121"/>
<path d="M186.53 282.345C186.431 282.36 186.33 282.36 186.23 282.345L127.29 267.345C127.135 267.305 126.988 267.235 126.86 267.138C126.731 267.042 126.623 266.921 126.542 266.783C126.376 266.503 126.329 266.17 126.41 265.855C126.491 265.541 126.693 265.272 126.973 265.107C127.252 264.942 127.586 264.894 127.9 264.975L170.27 275.795L102.66 247.795C102.512 247.734 102.377 247.643 102.263 247.529C102.15 247.416 102.06 247.281 101.999 247.132C101.937 246.983 101.906 246.824 101.906 246.663C101.906 246.503 101.938 246.344 102 246.195C102.062 246.047 102.152 245.912 102.266 245.799C102.38 245.685 102.515 245.595 102.663 245.534C102.812 245.473 102.971 245.441 103.132 245.441C103.293 245.442 103.452 245.474 103.6 245.535L187 280.075C187.263 280.182 187.48 280.377 187.615 280.627C187.749 280.877 187.792 281.166 187.737 281.445C187.681 281.723 187.53 281.973 187.31 282.152C187.09 282.331 186.814 282.428 186.53 282.425V282.345Z" fill="#212121"/>
<path d="M123.02 266.127C122.921 266.142 122.82 266.142 122.72 266.127L120.19 265.487C120.035 265.447 119.888 265.376 119.76 265.28C119.631 265.183 119.523 265.062 119.442 264.924C119.36 264.786 119.306 264.633 119.284 264.473C119.261 264.314 119.27 264.152 119.31 263.997C119.35 263.841 119.421 263.695 119.517 263.566C119.614 263.438 119.735 263.33 119.873 263.248C120.011 263.166 120.164 263.113 120.323 263.09C120.483 263.068 120.645 263.077 120.8 263.117L123.33 263.757C123.627 263.823 123.889 263.998 124.064 264.247C124.238 264.496 124.314 264.801 124.275 265.103C124.236 265.405 124.086 265.681 123.854 265.878C123.622 266.075 123.324 266.178 123.02 266.167V266.127Z" fill="#212121"/>
<path d="M186.53 282.345C186.369 282.344 186.21 282.314 186.06 282.255L102.66 247.715C102.512 247.653 102.377 247.563 102.263 247.449C102.15 247.336 102.06 247.2 101.999 247.052C101.937 246.903 101.906 246.744 101.906 246.583C101.906 246.423 101.938 246.264 102 246.115C102.062 245.967 102.152 245.832 102.266 245.719C102.38 245.605 102.515 245.515 102.663 245.454C102.812 245.393 102.971 245.361 103.132 245.361C103.293 245.362 103.452 245.393 103.6 245.455L171.2 273.455L133.6 251.135C133.333 250.966 133.142 250.698 133.067 250.39C132.993 250.082 133.042 249.757 133.203 249.485C133.364 249.212 133.625 249.012 133.931 248.928C134.236 248.845 134.562 248.883 134.84 249.035L187.15 280.035C187.419 280.191 187.618 280.443 187.707 280.74C187.796 281.037 187.769 281.357 187.63 281.635C187.53 281.844 187.375 282.02 187.181 282.146C186.986 282.271 186.761 282.34 186.53 282.345Z" fill="#212121"/>
<path d="M130.129 248.884C129.907 248.883 129.691 248.824 129.499 248.714L127.259 247.384C127.005 247.206 126.829 246.939 126.764 246.637C126.699 246.334 126.75 246.018 126.908 245.752C127.066 245.485 127.318 245.288 127.615 245.2C127.912 245.111 128.231 245.138 128.509 245.274L130.749 246.604C130.976 246.743 131.152 246.952 131.251 247.2C131.35 247.447 131.365 247.72 131.295 247.977C131.225 248.235 131.074 248.462 130.863 248.626C130.653 248.789 130.395 248.88 130.129 248.884Z" fill="#212121"/>
<path d="M232.229 109.095C231.987 109.095 231.749 109.023 231.548 108.888C231.347 108.752 231.191 108.56 231.099 108.335L229.039 103.335C228.978 103.187 228.947 103.028 228.947 102.868C228.948 102.707 228.98 102.548 229.041 102.4C229.103 102.252 229.193 102.118 229.307 102.004C229.421 101.891 229.556 101.801 229.704 101.74C229.853 101.679 230.012 101.648 230.172 101.648C230.332 101.649 230.491 101.681 230.639 101.743C230.788 101.804 230.922 101.895 231.035 102.008C231.148 102.122 231.238 102.257 231.299 102.405L233.359 107.405C233.482 107.705 233.482 108.041 233.358 108.341C233.235 108.641 232.998 108.879 232.699 109.005C232.55 109.067 232.39 109.098 232.229 109.095Z" fill="#212121"/>
</svg>
