<svg width="822" height="478" viewBox="0 0 822 478" fill="none" xmlns="http://www.w3.org/2000/svg">
<rect opacity="0.2" x="206.254" y="227.615" width="2.26675" height="2.26675" rx="1.13338" transform="rotate(-160 206.254 227.615)" fill="white"/>
<rect opacity="0.2" x="99.7207" y="93.6406" width="2.26675" height="2.26675" rx="1.13338" transform="rotate(113 99.7207 93.6406)" fill="white"/>
<rect opacity="0.2" x="433.383" y="195.881" width="2.26675" height="2.26675" rx="1.13338" transform="rotate(-159 433.383 195.881)" fill="white"/>
<rect opacity="0.2" x="537.203" y="102.941" width="2.26675" height="2.26675" rx="1.13338" transform="rotate(-171 537.203 102.941)" fill="white"/>
<rect opacity="0.2" x="63.9023" y="86.8418" width="2.26675" height="2.26675" rx="1.13338" transform="rotate(81 63.9023 86.8418)" fill="white"/>
<rect opacity="0.2" x="95.6406" y="406.453" width="2.26675" height="2.26675" rx="1.13338" transform="rotate(-167 95.6406 406.453)" fill="white"/>
<rect opacity="0.2" x="86.5723" y="231.914" width="2.26675" height="2.26675" rx="1.13338" transform="rotate(73 86.5723 231.914)" fill="white"/>
<rect opacity="0.2" x="589.793" y="62.1426" width="2.26675" height="2.26675" rx="1.13338" transform="rotate(-104 589.793 62.1426)" fill="white"/>
<rect opacity="0.2" x="763.879" y="240.98" width="2.26675" height="2.26675" rx="1.13338" transform="rotate(17 763.879 240.98)" fill="white"/>
<rect opacity="0.2" x="197.186" y="302.418" width="2.26675" height="2.26675" rx="1.13338" transform="rotate(-24 197.186 302.418)" fill="white"/>
<rect opacity="0.2" x="27.6348" y="302.184" width="2.26675" height="2.26675" rx="1.13338" transform="rotate(-127 27.6348 302.184)" fill="white"/>
<rect opacity="0.2" x="712.193" y="334.148" width="2.26675" height="2.26675" rx="1.13338" transform="rotate(81 712.193 334.148)" fill="white"/>
<rect opacity="0.2" x="134.172" y="333.918" width="2.26675" height="2.26675" rx="1.13338" transform="rotate(-133 134.172 333.918)" fill="white"/>
<rect opacity="0.2" x="356.314" y="444.986" width="2.26675" height="2.26675" rx="1.13338" transform="rotate(60 356.314 444.986)" fill="white"/>
<rect opacity="0.2" x="295.111" y="354.553" width="2.26675" height="2.26675" rx="1.13338" transform="rotate(-77 295.111 354.553)" fill="white"/>
<rect opacity="0.2" x="143.24" y="474.457" width="2.26675" height="2.26675" rx="1.13338" transform="rotate(137 143.24 474.457)" fill="white"/>
<rect opacity="0.2" x="412.986" y="436.156" width="2.26675" height="2.26675" rx="1.13338" transform="rotate(128 412.986 436.156)" fill="white"/>
<rect opacity="0.2" x="557.604" y="318.049" width="2.26675" height="2.26675" rx="1.13338" transform="rotate(94 557.604 318.049)" fill="white"/>
<rect opacity="0.2" x="106.52" y="336.418" width="2.26675" height="2.26675" rx="1.13338" transform="rotate(95 106.52 336.418)" fill="white"/>
<rect opacity="0.2" x="156.389" y="356.584" width="2.26675" height="2.26675" rx="1.13338" transform="rotate(-48 156.389 356.584)" fill="white"/>
<rect opacity="0.2" x="612.453" y="359.088" width="2.26675" height="2.26675" rx="1.13338" transform="rotate(-139 612.453 359.088)" fill="white"/>
<rect opacity="0.2" x="236.178" y="467.656" width="2.26675" height="2.26675" rx="1.13338" transform="rotate(-82 236.178 467.656)" fill="white"/>
<rect opacity="0.2" x="120.117" y="257.08" width="2.26675" height="2.26675" rx="1.13338" transform="rotate(-42 120.117 257.08)" fill="white"/>
<rect opacity="0.2" x="508.184" y="136.941" width="2.26675" height="2.26675" rx="1.13338" transform="rotate(175 508.184 136.941)" fill="white"/>
<rect opacity="0.2" x="417.516" y="281.783" width="2.26675" height="2.26675" rx="1.13338" transform="rotate(20 417.516 281.783)" fill="white"/>
<rect opacity="0.2" x="712.193" y="384.018" width="2.26675" height="2.26675" rx="1.13338" transform="rotate(77 712.193 384.018)" fill="white"/>
<rect opacity="0.2" x="775.211" y="456.557" width="2.26675" height="2.26675" rx="1.13338" transform="rotate(-101 775.211 456.557)" fill="white"/>
<rect opacity="0.2" x="689.523" y="370.184" width="2.26675" height="2.26675" rx="1.13338" transform="rotate(7 689.523 370.184)" fill="white"/>
<rect opacity="0.2" x="444.268" y="125.375" width="2.26675" height="2.26675" rx="1.13338" transform="rotate(-163 444.268 125.375)" fill="white"/>
<rect opacity="0.2" x="804.68" y="222.846" width="2.26675" height="2.26675" rx="1.13338" transform="rotate(55 804.68 222.846)" fill="white"/>
<rect opacity="0.2" x="741.666" y="263.648" width="2.26675" height="2.26675" rx="1.13338" transform="rotate(38 741.666 263.648)" fill="white"/>
<rect opacity="0.2" x="589.338" y="218.545" width="2.26675" height="2.26675" rx="1.13338" transform="rotate(-90 589.338 218.545)" fill="white"/>
<rect opacity="0.2" x="505.465" y="444.986" width="2.26675" height="2.26675" rx="1.13338" transform="rotate(-88 505.465 444.986)" fill="white"/>
<rect opacity="0.2" x="206.254" y="358.852" width="2.26675" height="2.26675" rx="1.13338" transform="rotate(-131 206.254 358.852)" fill="white"/>
<rect opacity="0.2" x="408.449" y="295.383" width="2.26675" height="2.26675" rx="1.13338" transform="rotate(-133 408.449 295.383)" fill="white"/>
<rect opacity="0.2" x="496.402" y="256.85" width="2.26675" height="2.26675" rx="1.13338" transform="rotate(-180 496.402 256.85)" fill="white"/>
<rect opacity="0.2" x="736.678" y="123.111" width="2.26675" height="2.26675" rx="1.13338" transform="rotate(149 736.678 123.111)" fill="white"/>
<rect opacity="0.2" x="151.855" y="166.176" width="2.26675" height="2.26675" rx="1.13338" transform="rotate(59 151.855 166.176)" fill="white"/>
<rect opacity="0.2" x="634.674" y="112.012" width="2.26675" height="2.26675" rx="1.13338" transform="rotate(58 634.674 112.012)" fill="white"/>
<rect opacity="0.2" x="36.2539" y="78.0078" width="2.26675" height="2.26675" rx="1.13338" transform="rotate(-151 36.2539 78.0078)" fill="white"/>
<rect x="324.58" y="238.949" width="2.26675" height="2.26675" rx="1.13338" transform="rotate(-143 324.58 238.949)" fill="white"/>
<rect x="349.061" y="250.279" width="2.26675" height="2.26675" rx="1.13338" transform="rotate(133 349.061 250.279)" fill="white"/>
<rect x="20.3809" y="184.545" width="2.26675" height="2.26675" rx="1.13338" transform="rotate(-114 20.3809 184.545)" fill="white"/>
<rect x="818.277" y="168.445" width="2.26675" height="2.26675" rx="1.13338" transform="rotate(-43 818.277 168.445)" fill="white"/>
<rect x="290.576" y="345.248" width="2.26675" height="2.26675" rx="1.13338" transform="rotate(-127 290.576 345.248)" fill="white"/>
<rect x="102.434" y="77.7715" width="2.26675" height="2.26675" rx="1.13338" transform="rotate(-27 102.434 77.7715)" fill="white"/>
<rect x="34.4375" y="284.283" width="2.26675" height="2.26675" rx="1.13338" transform="rotate(42 34.4375 284.283)" fill="white"/>
<rect x="732.598" y="397.387" width="2.26675" height="2.26675" rx="1.13338" transform="rotate(-117 732.598 397.387)" fill="white"/>
<rect x="478.266" y="234.414" width="2.26675" height="2.26675" rx="1.13338" transform="rotate(42 478.266 234.414)" fill="white"/>
<rect x="568.934" y="424.822" width="2.26675" height="2.26675" rx="1.13338" transform="rotate(-109 568.934 424.822)" fill="white"/>
<rect x="247.057" y="284.283" width="2.26675" height="2.26675" rx="1.13338" transform="rotate(70 247.057 284.283)" fill="white"/>
<rect x="741.666" y="195.645" width="2.26675" height="2.26675" rx="1.13338" transform="rotate(23 741.666 195.645)" fill="white"/>
<rect x="86.1133" y="336.418" width="2.26675" height="2.26675" rx="1.13338" transform="rotate(-177 86.1133 336.418)" fill="white"/>
<rect x="607.469" y="402.152" width="2.26675" height="2.26675" rx="1.13338" transform="rotate(-170 607.469 402.152)" fill="white"/>
<rect x="142.787" y="415.752" width="2.26675" height="2.26675" rx="1.13338" transform="rotate(-82 142.787 415.752)" fill="white"/>
<rect x="768.867" y="304.684" width="2.26675" height="2.26675" rx="1.13338" transform="rotate(111 768.867 304.684)" fill="white"/>
<rect x="666.861" y="336.184" width="2.26675" height="2.26675" rx="1.13338" transform="rotate(65 666.861 336.184)" fill="white"/>
<rect x="471.467" y="62.1426" width="2.26675" height="2.26675" rx="1.13338" transform="rotate(-40 471.467 62.1426)" fill="white"/>
<rect x="422.047" y="316.018" width="2.26675" height="2.26675" rx="1.13338" transform="rotate(15 422.047 316.018)" fill="white"/>
<rect x="455.596" y="309.219" width="2.26675" height="2.26675" rx="1.13338" transform="rotate(-67 455.596 309.219)" fill="white"/>
<rect x="283.324" y="266.148" width="2.26675" height="2.26675" rx="1.13338" transform="rotate(61 283.324 266.148)" fill="white"/>
<rect x="811.475" y="248.014" width="2.26675" height="2.26675" rx="1.13338" transform="rotate(-163 811.475 248.014)" fill="white"/>
<rect x="4.96875" y="116.311" width="2.26675" height="2.26675" rx="1.13338" transform="rotate(60 4.96875 116.311)" fill="white"/>
<rect x="380.799" y="206.98" width="2.26675" height="2.26675" rx="1.13338" transform="rotate(102 380.799 206.98)" fill="white"/>
<rect x="100.17" y="136.941" width="2.26675" height="2.26675" rx="1.13338" transform="rotate(-73 100.17 136.941)" fill="white"/>
<rect x="725.346" y="474.691" width="2.26675" height="2.26675" rx="1.13338" transform="rotate(82 725.346 474.691)" fill="white"/>
<rect x="433.383" y="2.97266" width="2.26675" height="2.26675" rx="1.13338" transform="rotate(-113 433.383 2.97266)" fill="white"/>
<rect x="2.25" y="376.984" width="2.26675" height="2.26675" rx="1.13338" transform="rotate(83 2.25 376.984)" fill="white"/>
<rect x="738.943" y="132.176" width="2.26675" height="2.26675" rx="1.13338" transform="rotate(-155 738.943 132.176)" fill="white"/>
<rect x="675.477" y="12.0371" width="2.26675" height="2.26675" rx="1.13338" transform="rotate(129 675.477 12.0371)" fill="white"/>
<rect x="704.939" y="7.50391" width="2.26675" height="2.26675" rx="1.13338" transform="rotate(42 704.939 7.50391)" fill="white"/>
<rect x="185.854" y="381.518" width="2.26675" height="2.26675" rx="1.13338" transform="rotate(116 185.854 381.518)" fill="white"/>
<rect x="120.576" y="306.949" width="2.26675" height="2.26675" rx="1.13338" transform="rotate(-136 120.576 306.949)" fill="white"/>
<rect x="535.383" y="148.045" width="2.26675" height="2.26675" rx="1.13338" transform="rotate(2 535.383 148.045)" fill="white"/>
<rect x="247.51" y="336.418" width="2.26675" height="2.26675" rx="1.13338" transform="rotate(-106 247.51 336.418)" fill="white"/>
<rect x="133.719" y="445.223" width="2.26675" height="2.26675" rx="1.13338" transform="rotate(-134 133.719 445.223)" fill="white"/>
<rect x="97.9043" y="381.518" width="2.26675" height="2.26675" rx="1.13338" transform="rotate(95 97.9043 381.518)" fill="white"/>
<rect x="41.2402" y="282.016" width="2.26675" height="2.26675" rx="1.13338" transform="rotate(117 41.2402 282.016)" fill="white"/>
<rect x="75.2344" y="250.279" width="2.26675" height="2.26675" rx="1.13338" transform="rotate(152 75.2344 250.279)" fill="white"/>
<rect x="231.648" y="220.814" width="2.26675" height="2.26675" rx="1.13338" transform="rotate(26 231.648 220.814)" fill="white"/>
<rect x="376.715" y="474.457" width="2.26675" height="2.26675" rx="1.13338" transform="rotate(-4 376.715 474.457)" fill="white"/>
<rect x="138.258" y="368.152" width="2.26675" height="2.26675" rx="1.13338" transform="rotate(170 138.258 368.152)" fill="white"/>
<rect x="523.602" y="395.117" width="2.26675" height="2.26675" rx="1.13338" transform="rotate(-61 523.602 395.117)" fill="white"/>
<rect opacity="0.5" x="718.996" y="12.0371" width="2.26675" height="2.26675" rx="1.13338" transform="rotate(131 718.996 12.0371)" fill="white"/>
<rect opacity="0.5" x="151.855" y="243.246" width="2.26675" height="2.26675" rx="1.13338" transform="rotate(58 151.855 243.246)" fill="white"/>
<rect opacity="0.5" x="213.053" y="472.422" width="2.26675" height="2.26675" rx="1.13338" transform="rotate(-90 213.053 472.422)" fill="white"/>
<rect opacity="0.5" x="562.592" y="136.941" width="2.26675" height="2.26675" rx="1.13338" transform="rotate(-5 562.592 136.941)" fill="white"/>
<rect opacity="0.5" x="168.176" y="295.383" width="2.26675" height="2.26675" rx="1.13338" transform="rotate(-86 168.176 295.383)" fill="white"/>
<rect opacity="0.5" x="546.721" y="418.021" width="2.26675" height="2.26675" rx="1.13338" transform="rotate(-12 546.721 418.021)" fill="white"/>
<rect opacity="0.5" x="449.254" y="420.287" width="2.26675" height="2.26675" rx="1.13338" transform="rotate(21 449.254 420.287)" fill="white"/>
<rect opacity="0.5" x="682.27" y="340.953" width="2.26675" height="2.26675" rx="1.13338" transform="rotate(-28 682.27 340.953)" fill="white"/>
<rect opacity="0.5" x="589.793" y="402.152" width="2.26675" height="2.26675" rx="1.13338" transform="rotate(-174 589.793 402.152)" fill="white"/>
<rect opacity="0.5" x="392.582" y="429.121" width="2.26675" height="2.26675" rx="1.13338" transform="rotate(70 392.582 429.121)" fill="white"/>
<rect opacity="0.5" x="521.785" y="148.277" width="2.26675" height="2.26675" rx="1.13338" transform="rotate(138 521.785 148.277)" fill="white"/>
<rect opacity="0.5" x="77.5" y="299.914" width="2.26675" height="2.26675" rx="1.13338" transform="rotate(162 77.5 299.914)" fill="white"/>
<rect opacity="0.5" x="626.055" y="435.922" width="2.26675" height="2.26675" rx="1.13338" transform="rotate(-46 626.055 435.922)" fill="white"/>
<rect opacity="0.5" x="610.188" y="193.379" width="2.26675" height="2.26675" rx="1.13338" transform="rotate(77 610.188 193.379)" fill="white"/>
<rect opacity="0.5" x="301.914" y="107.242" width="2.26675" height="2.26675" rx="1.13338" transform="rotate(140 301.914 107.242)" fill="white"/>
<rect opacity="0.5" x="256.574" y="433.887" width="2.26675" height="2.26675" rx="1.13338" transform="rotate(127 256.574 433.887)" fill="white"/>
<rect opacity="0.5" x="770.678" y="277.248" width="2.26675" height="2.26675" rx="1.13338" transform="rotate(-112 770.678 277.248)" fill="white"/>
<rect opacity="0.5" x="661.873" y="100.676" width="2.26675" height="2.26675" rx="1.13338" transform="rotate(-79 661.873 100.676)" fill="white"/>
<rect opacity="0.5" x="505.918" y="161.645" width="2.26675" height="2.26675" rx="1.13338" transform="rotate(-99 505.918 161.645)" fill="white"/>
<rect opacity="0.5" x="303.73" y="422.557" width="2.26675" height="2.26675" rx="1.13338" transform="rotate(48 303.73 422.557)" fill="white"/>
<rect opacity="0.5" x="669.127" y="121.076" width="2.26675" height="2.26675" rx="1.13338" transform="rotate(-10 669.127 121.076)" fill="white"/>
<rect opacity="0.5" x="576.195" y="155.076" width="2.26675" height="2.26675" rx="1.13338" transform="rotate(-134 576.195 155.076)" fill="white"/>
<rect opacity="0.5" x="326.391" y="182.279" width="2.26675" height="2.26675" rx="1.13338" transform="rotate(-118 326.391 182.279)" fill="white"/>
<rect opacity="0.5" x="208.979" y="377.219" width="2.26675" height="2.26675" rx="1.13338" transform="rotate(74 208.979 377.219)" fill="white"/>
<rect opacity="0.5" x="218.041" y="333.918" width="2.26675" height="2.26675" rx="1.13338" transform="rotate(108 218.041 333.918)" fill="white"/>
<rect opacity="0.5" x="100.17" y="223.08" width="2.26675" height="2.26675" rx="1.13338" transform="rotate(-126 100.17 223.08)" fill="white"/>
<rect opacity="0.5" x="203.99" y="374.953" width="2.26675" height="2.26675" rx="1.13338" transform="rotate(-167 203.99 374.953)" fill="white"/>
<rect opacity="0.5" x="718.996" y="313.75" width="2.26675" height="2.26675" rx="1.13338" transform="rotate(144 718.996 313.75)" fill="white"/>
<rect opacity="0.5" x="390.316" y="134.441" width="2.26675" height="2.26675" rx="1.13338" transform="rotate(102 390.316 134.441)" fill="white"/>
<rect opacity="0.5" x="734.404" y="256.85" width="2.26675" height="2.26675" rx="1.13338" transform="rotate(28 734.404 256.85)" fill="white"/>
<rect opacity="0.5" x="639.203" y="383.787" width="2.26675" height="2.26675" rx="1.13338" transform="rotate(-85 639.203 383.787)" fill="white"/>
<rect opacity="0.5" x="199.91" y="445.223" width="2.26675" height="2.26675" rx="1.13338" transform="rotate(-18 199.91 445.223)" fill="white"/>
<rect opacity="0.5" x="446.531" y="84.8066" width="2.26675" height="2.26675" rx="1.13338" transform="rotate(132 446.531 84.8066)" fill="white"/>
<rect opacity="0.5" x="623.342" y="463.357" width="2.26675" height="2.26675" rx="1.13338" transform="rotate(-76 623.342 463.357)" fill="white"/>
<rect opacity="0.5" x="423.861" y="180.012" width="2.26675" height="2.26675" rx="1.13338" transform="rotate(40 423.861 180.012)" fill="white"/>
<rect opacity="0.5" x="326.844" y="329.619" width="2.26675" height="2.26675" rx="1.13338" transform="rotate(38 326.844 329.619)" fill="white"/>
<rect opacity="0.5" x="126.92" y="469.922" width="2.26675" height="2.26675" rx="1.13338" transform="rotate(132 126.92 469.922)" fill="white"/>
<rect opacity="0.5" x="521.336" y="379.252" width="2.26675" height="2.26675" rx="1.13338" transform="rotate(-22 521.336 379.252)" fill="white"/>
<rect opacity="0.5" x="174.975" y="84.8066" width="2.26675" height="2.26675" rx="1.13338" transform="rotate(-76 174.975 84.8066)" fill="white"/>
</svg>
