<svg width="390" height="669" viewBox="0 0 390 669" fill="none" xmlns="http://www.w3.org/2000/svg">
<g opacity="0.05">
<path d="M34.8272 298.842C34.4485 298.836 34.0763 298.743 33.7397 298.57C33.4031 298.396 33.1113 298.147 32.8872 297.842C10.6372 268.962 -18.1128 290.242 -19.3328 291.152C-19.5882 291.349 -19.88 291.493 -20.1913 291.578C-20.5027 291.662 -20.8276 291.684 -21.1475 291.643C-21.4674 291.601 -21.776 291.497 -22.0557 291.337C-22.3355 291.176 -22.5808 290.962 -22.7778 290.707C-23.1756 290.191 -23.3523 289.538 -23.2688 288.892C-23.1854 288.246 -22.8487 287.659 -22.3328 287.262C-21.9928 287.002 11.5472 262.172 36.7272 294.862C37.0049 295.224 37.1758 295.657 37.2206 296.112C37.2653 296.566 37.1821 297.024 36.9803 297.434C36.7786 297.844 36.4663 298.189 36.0788 298.43C35.6912 298.672 35.2439 298.801 34.7872 298.802L34.8272 298.842Z" fill="white"/>
<path d="M55.1485 360.091C48.7685 360.091 46.8185 353.211 46.6785 349.571C47.6785 323.731 40.2985 305.151 40.2185 304.961C40.0096 304.366 40.038 303.714 40.298 303.139C40.5579 302.565 41.0293 302.113 41.6141 301.877C42.1989 301.641 42.8521 301.64 43.4378 301.874C44.0234 302.107 44.4965 302.558 44.7585 303.131C45.0785 303.921 52.5985 322.811 51.5685 349.571C51.5685 349.571 51.9085 355.201 55.1485 355.201C55.4827 355.18 55.8178 355.227 56.133 355.34C56.4482 355.453 56.7369 355.63 56.9811 355.859C57.2254 356.088 57.4201 356.365 57.5532 356.672C57.6863 356.98 57.7549 357.311 57.7549 357.646C57.7549 357.981 57.6863 358.312 57.5532 358.62C57.4201 358.927 57.2254 359.204 56.9811 359.433C56.7369 359.662 56.4482 359.839 56.133 359.952C55.8178 360.065 55.4827 360.112 55.1485 360.091Z" fill="white"/>
<path d="M50.7871 357.591C45.9471 357.591 42.5771 356.231 40.7871 353.591C38.3171 349.911 40.0271 345.501 40.2271 345.011C40.4946 344.443 40.9697 344 41.5543 343.772C42.139 343.545 42.7887 343.55 43.3696 343.787C43.9505 344.025 44.4182 344.476 44.6764 345.047C44.9345 345.619 44.9634 346.268 44.7571 346.861C44.7571 346.941 43.8271 349.371 44.8571 350.861C45.6871 352.071 47.7371 352.711 50.7871 352.711C51.1214 352.69 51.4564 352.737 51.7716 352.85C52.0868 352.963 52.3755 353.14 52.6197 353.369C52.864 353.598 53.0587 353.875 53.1918 354.182C53.3249 354.49 53.3936 354.821 53.3936 355.156C53.3936 355.491 53.3249 355.822 53.1918 356.13C53.0587 356.437 52.864 356.714 52.6197 356.943C52.3755 357.172 52.0868 357.349 51.7716 357.462C51.4564 357.575 51.1214 357.622 50.7871 357.601V357.591Z" fill="white"/>
<path d="M55.1477 387.152C50.9177 387.152 48.6777 386.472 46.5077 380.252C46.3077 379.682 46.0777 379.602 45.9377 379.552C44.7077 379.132 41.9377 380.212 40.4077 381.162C40.0205 381.403 39.5738 381.531 39.1177 381.532H30.9177C28.1332 382.056 25.2731 382.032 22.4977 381.462C21.924 381.312 21.4242 380.958 21.0911 380.468C20.758 379.977 20.6141 379.382 20.6861 378.794C20.7582 378.205 21.0413 377.663 21.4829 377.267C21.9245 376.871 22.4947 376.649 23.0877 376.642H30.4977C33.0288 376.13 35.4177 375.072 37.4977 373.542L38.2777 372.972C42.7177 369.712 45.9177 367.362 49.5477 367.972C52.1777 368.402 54.4577 370.242 57.1777 374.132C57.3616 374.394 57.4919 374.691 57.5612 375.004C57.6306 375.317 57.6376 375.64 57.5819 375.956C57.5262 376.272 57.4088 376.573 57.2365 376.844C57.0642 377.114 56.8403 377.348 56.5777 377.532C56.3151 377.716 56.0188 377.846 55.7058 377.915C55.3928 377.985 55.0692 377.992 54.7534 377.936C54.4377 377.88 54.1361 377.763 53.8657 377.59C53.5954 377.418 53.3616 377.194 53.1777 376.932C51.3577 374.342 49.9177 372.932 48.7577 372.792C47.5977 372.652 46.2377 373.372 44.3577 374.642C45.4481 374.507 46.5548 374.616 47.5977 374.962C48.4361 375.262 49.1936 375.753 49.8111 376.395C50.4287 377.036 50.8895 377.812 51.1577 378.662C52.4177 382.282 52.5277 382.282 55.1577 382.282C55.4919 382.26 55.827 382.308 56.1422 382.421C56.4574 382.534 56.7461 382.711 56.9904 382.94C57.2346 383.169 57.4293 383.446 57.5624 383.753C57.6955 384.06 57.7642 384.392 57.7642 384.727C57.7642 385.062 57.6955 385.393 57.5624 385.7C57.4293 386.008 57.2346 386.284 56.9904 386.513C56.7461 386.743 56.4574 386.919 56.1422 387.032C55.827 387.146 55.4919 387.193 55.1577 387.172L55.1477 387.152Z" fill="white"/>
<path d="M55.1476 395.821C38.4276 395.821 28.9376 386.821 28.5376 386.461C28.0708 386.012 27.8017 385.395 27.7895 384.747C27.7773 384.099 28.023 383.473 28.4726 383.006C28.9221 382.54 29.5387 382.27 30.1866 382.258C30.8345 382.246 31.4608 382.492 31.9276 382.941C32.0876 383.091 40.5576 390.941 55.1476 390.941C55.4818 390.92 55.8169 390.967 56.1321 391.08C56.4473 391.194 56.7359 391.37 56.9802 391.599C57.2245 391.829 57.4192 392.105 57.5523 392.413C57.6853 392.72 57.754 393.051 57.754 393.386C57.754 393.721 57.6853 394.053 57.5523 394.36C57.4192 394.667 57.2245 394.944 56.9802 395.173C56.7359 395.402 56.4473 395.579 56.1321 395.692C55.8169 395.805 55.4818 395.853 55.1476 395.831V395.821Z" fill="white"/>
<path d="M7.0085 336.101C-8.5315 336.101 -15.5515 320.101 -17.0915 311.631C-17.1883 311.097 -17.1053 310.547 -16.8556 310.065C-16.6059 309.584 -16.2035 309.199 -15.7115 308.971C-14.8515 308.581 5.51848 299.471 31.0785 308.901C31.6446 309.11 32.1139 309.52 32.3962 310.053C32.6785 310.587 32.7541 311.205 32.6085 311.791C32.3585 312.751 26.3085 336.101 7.0085 336.101ZM-11.8215 312.751C-10.4415 317.891 -5.6515 331.251 7.0085 331.251C19.4585 331.251 25.3485 318.031 27.1985 312.761C14.5302 308.569 0.848953 308.565 -11.8215 312.751Z" fill="white"/>
<path d="M7.77745 327.932C5.29531 327.93 2.8554 327.289 0.692882 326.071C-1.46964 324.853 -3.28185 323.098 -4.56908 320.975C-5.85631 318.853 -6.57515 316.435 -6.65633 313.954C-6.73751 311.473 -6.17829 309.013 -5.03255 306.812C-4.8947 306.509 -4.69666 306.237 -4.45049 306.014C-4.20432 305.79 -3.91516 305.619 -3.60067 305.51C-3.28618 305.402 -2.95294 305.359 -2.62124 305.384C-2.28953 305.408 -1.9663 305.5 -1.67128 305.654C-1.37627 305.808 -1.11562 306.02 -0.905232 306.277C-0.694842 306.535 -0.539135 306.833 -0.44756 307.152C-0.355986 307.472 -0.330456 307.807 -0.372579 308.137C-0.414701 308.467 -0.523582 308.785 -0.692555 309.072C-1.40755 310.435 -1.77831 311.952 -1.77254 313.492C-1.77254 316.024 -0.766396 318.453 1.02458 320.244C2.81555 322.035 5.24463 323.042 7.77745 323.042C10.3103 323.042 12.7393 322.035 14.5303 320.244C16.3213 318.453 17.3274 316.024 17.3274 313.492C17.3327 311.978 16.9725 310.486 16.2774 309.142C16.1103 308.854 16.0037 308.534 15.964 308.204C15.9243 307.873 15.9525 307.538 16.0468 307.218C16.1411 306.899 16.2995 306.602 16.5124 306.346C16.7253 306.09 16.9881 305.88 17.2849 305.729C17.5817 305.578 17.9062 305.489 18.2385 305.467C18.5708 305.446 18.9041 305.492 19.2178 305.604C19.5316 305.715 19.8193 305.89 20.0634 306.116C20.3075 306.343 20.5028 306.617 20.6375 306.922C21.7599 309.123 22.2988 311.575 22.2026 314.044C22.1064 316.513 21.3783 318.916 20.088 321.023C18.7976 323.13 16.9882 324.871 14.8329 326.078C12.6775 327.286 10.2482 327.921 7.77745 327.922V327.932Z" fill="white"/>
<path d="M13.8373 313.492C13.8392 314.693 13.4847 315.868 12.8185 316.868C12.1522 317.867 11.2043 318.647 10.0948 319.108C8.9852 319.568 7.76391 319.689 6.58551 319.456C5.40712 319.222 4.32464 318.643 3.47513 317.794C2.62562 316.944 2.04731 315.862 1.81342 314.683C1.57952 313.505 1.70056 312.284 2.16123 311.174C2.62189 310.065 3.40145 309.117 4.40119 308.45C5.40092 307.784 6.57587 307.43 7.77725 307.432C9.38447 307.432 10.9258 308.07 12.0623 309.207C13.1988 310.343 13.8373 311.884 13.8373 313.492Z" fill="white"/>
<path d="M45.1377 285.412C44.6084 285.412 44.0935 285.24 43.6699 284.923C43.2462 284.606 42.9367 284.16 42.7877 283.652C42.7877 283.552 39.5877 273.062 31.2477 270.982C27.5577 270.062 25.5477 268.392 25.2477 266.042C24.9477 263.692 26.4077 261.662 29.0977 260.222C31.2677 259.062 34.5677 258.342 36.7177 260.222C37.0177 260.482 37.3677 260.752 37.7177 261.052C41.2077 263.742 47.7177 268.742 47.5377 283.052C47.5314 283.638 47.315 284.203 46.9278 284.643C46.5406 285.084 46.0084 285.371 45.4277 285.452L45.1377 285.412ZM30.2477 265.412C30.9195 265.827 31.6618 266.115 32.4377 266.262C35.2017 266.982 37.753 268.353 39.8777 270.262C38.5453 268.172 36.8119 266.368 34.7777 264.952C34.3077 264.592 33.8877 264.262 33.5277 263.952C32.9177 263.752 30.8777 264.612 30.2477 265.382V265.412Z" fill="white"/>
<path d="M-10.9819 388.962C-15.0245 388.962 -18.9764 387.763 -22.3377 385.517C-25.699 383.271 -28.3189 380.079 -29.866 376.344C-31.413 372.609 -31.8178 368.499 -31.0291 364.534C-30.2404 360.569 -28.2937 356.927 -25.4351 354.069C-22.5765 351.21 -18.9345 349.263 -14.9695 348.475C-11.0045 347.686 -6.89474 348.091 -3.15982 349.638C0.5751 351.185 3.76739 353.805 6.01337 357.166C8.25934 360.528 9.45813 364.479 9.45813 368.522C9.45284 373.941 7.29764 379.137 3.46555 382.969C-0.36655 386.802 -5.56247 388.957 -10.9819 388.962ZM-10.9819 352.962C-14.0574 352.962 -17.0638 353.874 -19.621 355.583C-22.1782 357.291 -24.1712 359.72 -25.3482 362.561C-26.5251 365.403 -26.8331 368.529 -26.2331 371.546C-25.6331 374.562 -24.1521 377.333 -21.9774 379.508C-19.8027 381.682 -17.0319 383.163 -14.0155 383.763C-10.9991 384.363 -7.87252 384.055 -5.03113 382.878C-2.18974 381.701 0.238823 379.708 1.94748 377.151C3.65614 374.594 4.56815 371.588 4.56815 368.512C4.56021 364.391 2.91903 360.442 0.00427055 357.529C-2.91049 354.616 -6.86111 352.977 -10.9819 352.972V352.962Z" fill="white"/>
<path d="M55.1489 415.751C51.2397 415.645 47.5017 414.124 44.6289 411.471C44.2063 411.007 43.9779 410.398 43.9907 409.771C44.0036 409.144 44.2567 408.545 44.6978 408.099C45.139 407.652 45.7346 407.392 46.3618 407.372C46.9891 407.352 47.6001 407.574 48.0689 407.991C50.0205 409.746 52.5258 410.762 55.1489 410.861C55.4831 410.839 55.8182 410.887 56.1334 411C56.4486 411.113 56.7373 411.29 56.9815 411.519C57.2258 411.748 57.4205 412.025 57.5536 412.332C57.6867 412.639 57.7553 412.971 57.7553 413.306C57.7553 413.641 57.6867 413.972 57.5536 414.279C57.4205 414.587 57.2258 414.863 56.9815 415.093C56.7373 415.322 56.4486 415.498 56.1334 415.612C55.8182 415.725 55.4831 415.772 55.1489 415.751Z" fill="white"/>
<path d="M75.467 298.841C75.0096 298.842 74.561 298.714 74.1726 298.472C73.7842 298.231 73.4715 297.885 73.2703 297.474C73.069 297.063 72.9873 296.604 73.0345 296.149C73.0817 295.694 73.2558 295.261 73.537 294.901C98.717 262.211 132.247 287.041 132.587 287.301C133.103 287.698 133.44 288.285 133.523 288.931C133.606 289.577 133.43 290.23 133.032 290.746C132.634 291.261 132.048 291.598 131.402 291.682C130.756 291.765 130.103 291.588 129.587 291.191C128.367 290.281 99.587 269.071 77.357 297.881C77.1345 298.172 76.8489 298.41 76.5217 298.577C76.1945 298.743 75.834 298.833 75.467 298.841Z" fill="white"/>
<path d="M55.1471 360.091C54.5256 360.052 53.9427 359.777 53.5167 359.323C53.0906 358.868 52.8535 358.269 52.8535 357.646C52.8535 357.024 53.0906 356.424 53.5167 355.97C53.9427 355.516 54.5256 355.241 55.1471 355.201C58.4371 355.201 58.7271 349.441 58.7371 349.381C57.7371 322.811 65.2271 303.921 65.5471 303.131C65.7897 302.531 66.2611 302.051 66.8575 301.798C67.4538 301.545 68.1264 301.539 68.7271 301.781C69.3278 302.024 69.8075 302.495 70.0607 303.092C70.3138 303.688 70.3197 304.361 70.0771 304.961C70.0071 305.151 62.6371 323.731 63.6171 349.381C63.4771 353.211 61.5271 360.091 55.1471 360.091Z" fill="white"/>
<path d="M59.5088 357.591C59.1746 357.613 58.8395 357.565 58.5243 357.452C58.2091 357.339 57.9204 357.162 57.6761 356.933C57.4319 356.704 57.2372 356.427 57.1041 356.12C56.971 355.813 56.9023 355.481 56.9023 355.146C56.9023 354.811 56.971 354.48 57.1041 354.173C57.2372 353.865 57.4319 353.589 57.6761 353.359C57.9204 353.13 58.2091 352.954 58.5243 352.841C58.8395 352.727 59.1746 352.68 59.5088 352.701C62.5588 352.701 64.6088 352.061 65.4388 350.851C66.4388 349.311 65.5588 346.851 65.5488 346.851C65.4273 346.555 65.3655 346.237 65.3668 345.916C65.3682 345.595 65.4327 345.278 65.5566 344.982C65.6806 344.687 65.8616 344.418 66.0893 344.192C66.317 343.967 66.587 343.788 66.8838 343.666C67.1806 343.545 67.4984 343.483 67.8191 343.484C68.1397 343.486 68.457 343.55 68.7528 343.674C69.0485 343.798 69.317 343.979 69.5428 344.207C69.7686 344.435 69.9473 344.705 70.0688 345.001C70.2788 345.491 71.9788 349.901 69.5088 353.581C67.7188 356.231 64.3488 357.591 59.5088 357.591Z" fill="white"/>
<path d="M55.1471 387.151C54.5257 387.111 53.9427 386.836 53.5167 386.382C53.0907 385.928 52.8535 385.329 52.8535 384.706C52.8535 384.083 53.0907 383.484 53.5167 383.03C53.9427 382.576 54.5257 382.301 55.1471 382.261C57.8071 382.261 57.9071 382.261 59.1471 378.641C59.4125 377.79 59.8724 377.013 60.4903 376.371C61.1082 375.728 61.8672 375.239 62.7071 374.941C63.7464 374.595 64.85 374.486 65.9371 374.621C64.0671 373.351 62.6171 372.621 61.5371 372.771C60.4571 372.921 58.9371 374.321 57.1171 376.911C56.7458 377.441 56.179 377.803 55.5413 377.915C54.9037 378.028 54.2475 377.882 53.7171 377.511C53.1867 377.14 52.8255 376.573 52.7129 375.935C52.6004 375.298 52.7458 374.641 53.1171 374.111C55.8371 370.221 58.1171 368.381 60.7471 367.951C64.3771 367.351 67.5871 369.711 72.0271 372.951L72.7971 373.521C74.8776 375.05 77.2663 376.108 79.7971 376.621H87.2471C87.8409 376.626 88.4127 376.846 88.8561 377.241C89.2995 377.636 89.5843 378.179 89.6577 378.768C89.731 379.357 89.5879 379.953 89.2548 380.445C88.9218 380.937 88.4215 381.29 87.8471 381.441C85.0716 382.011 82.2116 382.035 79.4271 381.511H71.2171C70.7612 381.509 70.3147 381.381 69.9271 381.141C68.3871 380.141 65.6071 379.141 64.3971 379.531C64.2571 379.581 64.0271 379.661 63.8271 380.231C61.6171 386.471 59.3871 387.151 55.1471 387.151Z" fill="white"/>
<path d="M55.1471 395.822C54.5256 395.782 53.9427 395.507 53.5167 395.053C53.0906 394.599 52.8535 393.999 52.8535 393.377C52.8535 392.754 53.0906 392.154 53.5167 391.7C53.9427 391.246 54.5256 390.971 55.1471 390.932C69.9171 390.932 78.2771 383.022 78.3671 382.932C78.5982 382.709 78.8709 382.534 79.1696 382.417C79.4683 382.3 79.7872 382.242 80.108 382.248C80.4289 382.255 80.7454 382.324 81.0395 382.452C81.3336 382.58 81.5995 382.765 81.8221 382.997C82.0447 383.228 82.2196 383.5 82.3368 383.799C82.454 384.098 82.5112 384.417 82.5051 384.737C82.4991 385.058 82.4299 385.375 82.3016 385.669C82.1732 385.963 81.9882 386.229 81.7571 386.452C81.3671 386.842 71.8671 395.822 55.1471 395.822Z" fill="white"/>
<path d="M103.249 336.101C83.9486 336.101 77.8986 312.781 77.6486 311.791C77.503 311.205 77.5786 310.587 77.8609 310.053C78.1432 309.52 78.6124 309.11 79.1786 308.901C104.749 299.471 125.109 308.581 125.969 308.971C126.461 309.199 126.863 309.584 127.113 310.065C127.362 310.547 127.445 311.097 127.349 311.631C125.849 320.091 118.839 336.101 103.249 336.101ZM83.1086 312.751C84.9586 318.021 90.8386 331.241 103.289 331.241C115.739 331.241 120.699 317.841 122.109 312.731C109.443 308.552 95.7695 308.559 83.1086 312.751Z" fill="white"/>
<path d="M102.528 327.932C100.057 327.934 97.6256 327.301 95.4686 326.094C93.3116 324.887 91.5009 323.146 90.21 321.038C88.9192 318.93 88.1914 316.526 88.0966 314.056C88.0017 311.586 88.5429 309.133 89.6683 306.932C89.8045 306.628 90.0012 306.355 90.2463 306.13C90.4915 305.905 90.78 305.732 91.0941 305.622C91.4083 305.512 91.7415 305.467 92.0736 305.49C92.4057 305.513 92.7296 305.604 93.0255 305.756C93.3215 305.909 93.5832 306.12 93.7949 306.377C94.0065 306.634 94.1636 306.931 94.2565 307.251C94.3494 307.57 94.3762 307.905 94.3353 308.236C94.2943 308.566 94.1865 308.885 94.0184 309.172C93.344 310.518 93.0012 312.006 93.0184 313.512C93.0139 314.962 93.3398 316.395 93.9714 317.7C94.603 319.006 95.5237 320.151 96.6637 321.047C97.8037 321.944 99.1329 322.57 100.551 322.876C101.968 323.182 103.437 323.162 104.846 322.816C106.254 322.47 107.566 321.808 108.68 320.88C109.795 319.951 110.683 318.782 111.278 317.459C111.873 316.136 112.159 314.695 112.114 313.245C112.069 311.796 111.694 310.375 111.018 309.092C110.719 308.518 110.659 307.848 110.853 307.23C111.048 306.612 111.479 306.097 112.053 305.797C112.628 305.497 113.297 305.438 113.915 305.632C114.533 305.826 115.049 306.258 115.348 306.832C116.497 309.033 117.058 311.492 116.979 313.973C116.9 316.455 116.182 318.873 114.895 320.996C113.609 323.119 111.797 324.874 109.634 326.093C107.471 327.311 105.031 327.952 102.548 327.952L102.528 327.932Z" fill="white"/>
<path d="M96.457 313.492C96.4551 314.693 96.8093 315.867 97.4751 316.867C98.1409 317.866 99.0882 318.646 100.197 319.107C101.306 319.568 102.527 319.689 103.705 319.456C104.883 319.223 105.966 318.646 106.816 317.797C107.666 316.949 108.245 315.867 108.48 314.69C108.715 313.512 108.595 312.291 108.136 311.181C107.677 310.071 106.899 309.123 105.9 308.455C104.902 307.788 103.728 307.432 102.527 307.432C100.919 307.432 99.3765 308.07 98.2384 309.206C97.1004 310.342 96.4597 311.884 96.457 313.492Z" fill="white"/>
<path d="M65.1578 285.412H64.8277C64.247 285.335 63.7137 285.05 63.326 284.611C62.9383 284.172 62.7223 283.608 62.7177 283.022C62.5577 268.732 69.0478 263.732 72.5378 261.022C72.9278 260.722 73.2778 260.452 73.5378 260.192C75.6878 258.352 78.9978 259.062 81.1678 260.192C83.8478 261.632 85.2878 263.812 85.0078 266.012C84.7278 268.212 82.6978 270.012 79.0078 270.952C70.6778 273.032 67.4977 283.522 67.4677 283.622C67.3261 284.129 67.0249 284.576 66.6089 284.899C66.1928 285.221 65.684 285.401 65.1578 285.412ZM76.9577 263.932C76.855 263.916 76.7504 263.916 76.6477 263.932C76.4077 264.162 75.9877 264.492 75.5177 264.852C73.4869 266.268 71.757 268.073 70.4277 270.162C72.5487 268.253 75.0967 266.881 77.8577 266.162C78.6336 266.015 79.3759 265.727 80.0477 265.312C79.1946 264.529 78.1101 264.045 76.9577 263.932Z" fill="white"/>
<path d="M121.249 388.962C117.206 388.962 113.254 387.763 109.893 385.517C106.531 383.271 103.912 380.079 102.365 376.344C100.817 372.609 100.413 368.499 101.201 364.534C101.99 360.569 103.937 356.927 106.795 354.069C109.654 351.21 113.296 349.263 117.261 348.475C121.226 347.686 125.336 348.091 129.071 349.638C132.806 351.185 135.998 353.805 138.244 357.166C140.49 360.528 141.689 364.479 141.689 368.522C141.683 373.941 139.528 379.137 135.696 382.969C131.864 386.802 126.668 388.957 121.249 388.962ZM121.249 352.962C118.173 352.96 115.165 353.87 112.607 355.578C110.048 357.285 108.054 359.713 106.875 362.554C105.697 365.396 105.387 368.522 105.986 371.54C106.585 374.557 108.065 377.328 110.24 379.504C112.414 381.68 115.185 383.162 118.201 383.763C121.218 384.363 124.345 384.056 127.187 382.879C130.029 381.703 132.458 379.71 134.167 377.152C135.876 374.595 136.789 371.588 136.789 368.512C136.781 364.393 135.141 360.445 132.228 357.532C129.316 354.62 125.368 352.98 121.249 352.972V352.962Z" fill="white"/>
<path d="M55.1471 415.752C54.5256 415.712 53.9427 415.437 53.5167 414.983C53.0906 414.529 52.8535 413.93 52.8535 413.307C52.8535 412.684 53.0906 412.085 53.5167 411.631C53.9427 411.177 54.5256 410.902 55.1471 410.862C57.7698 410.761 60.2745 409.746 62.2271 407.992C62.6901 407.541 63.3108 407.289 63.9571 407.289C64.6033 407.289 65.224 407.541 65.6871 407.992C66.1445 408.45 66.4014 409.07 66.4014 409.717C66.4014 410.364 66.1445 410.985 65.6871 411.442C62.8151 414.113 59.0677 415.646 55.1471 415.752Z" fill="white"/>
<path d="M55.1486 291.151C54.5217 291.152 53.9186 290.911 53.4643 290.479C53.01 290.047 52.7394 289.457 52.7086 288.831C52.3086 280.831 50.2386 266.831 46.4086 263.281C46.127 263.015 45.9123 262.686 45.782 262.321C45.6516 261.956 45.6094 261.565 45.6586 261.181C46.0386 258.181 48.5186 252.621 55.1486 252.621C61.7786 252.621 64.2586 258.221 64.6486 261.181C64.6982 261.566 64.6551 261.958 64.5229 262.323C64.3908 262.688 64.1733 263.017 63.8886 263.281C60.0586 266.871 57.9986 280.861 57.5886 288.831C57.5578 289.457 57.2871 290.047 56.8329 290.479C56.3786 290.911 55.7755 291.152 55.1486 291.151ZM50.7586 260.811C52.7586 263.311 54.1386 267.181 55.1486 271.261C56.1486 267.181 57.5786 263.261 59.5486 260.811C59.2701 259.861 58.6913 259.027 57.899 258.434C57.1067 257.84 56.1435 257.52 55.1536 257.52C54.1637 257.52 53.2005 257.84 52.4082 258.434C51.6159 259.027 51.0371 259.861 50.7586 260.811Z" fill="white"/>
<path d="M55.1471 443.111C33.6003 443.111 12.5375 436.721 -5.37777 424.75C-23.2931 412.779 -37.2562 395.765 -45.5013 375.858C-53.7464 355.951 -55.9032 334.046 -51.6989 312.914C-47.4947 291.781 -37.1181 272.37 -21.8816 257.135C-6.64505 241.9 12.7671 231.525 33.9001 227.323C55.033 223.12 76.9375 225.279 96.8435 233.526C116.75 241.773 133.763 255.738 145.732 273.654C157.702 291.57 164.089 312.634 164.087 334.181C164.053 363.062 152.564 390.75 132.141 411.171C111.718 431.592 84.0283 443.079 55.1471 443.111ZM55.1471 230.111C34.5851 230.13 14.4903 236.245 -2.59768 247.681C-19.6857 259.118 -33.0001 275.363 -40.8584 294.365C-48.7166 313.366 -50.766 334.27 -46.7475 354.435C-42.729 374.601 -32.823 393.123 -18.2814 407.66C-3.73976 422.198 14.7849 432.098 34.9515 436.111C55.1182 440.124 76.0219 438.068 95.0208 430.205C114.02 422.341 130.261 409.022 141.693 391.93C153.124 374.839 159.233 354.743 159.247 334.181C159.215 306.586 148.236 280.131 128.719 260.624C109.202 241.116 82.7418 230.149 55.1471 230.131V230.111Z" fill="white"/>
<path d="M75.8273 232.151C75.4384 232.156 75.054 232.068 74.7061 231.894C74.3582 231.72 74.0569 231.465 73.8273 231.151C73.4773 230.671 39.0373 182.831 74.3273 106.311C95.8073 59.751 71.1974 26.311 57.0074 12.041C64.7874 31.351 75.7974 73.641 47.0074 116.241C9.89735 171.241 40.5774 226.471 40.8874 227.021C41.0704 227.301 41.1943 227.615 41.2512 227.945C41.3082 228.274 41.2971 228.612 41.2186 228.937C41.1401 229.262 40.9958 229.568 40.7947 229.835C40.5936 230.102 40.34 230.326 40.0493 230.491C39.7587 230.657 39.4372 230.761 39.1048 230.797C38.7724 230.834 38.436 230.802 38.1163 230.704C37.7967 230.605 37.5005 230.443 37.2462 230.225C36.9918 230.008 36.7846 229.741 36.6374 229.441C36.3074 228.871 4.16733 170.991 42.9573 113.501C79.9573 58.631 47.9574 4.26099 47.6374 3.72099C47.3418 3.24189 47.221 2.67535 47.2955 2.11738C47.3699 1.55941 47.635 1.04433 48.0457 0.659451C48.4565 0.27457 48.9877 0.0435599 49.5493 0.00556658C50.111 -0.0324268 50.6685 0.124935 51.1273 0.450986C51.7173 0.860986 109.257 42.181 78.7373 108.361C44.7373 182.101 77.3873 227.781 77.7373 228.241C77.9291 228.499 78.068 228.792 78.1461 229.104C78.2243 229.415 78.2401 229.739 78.1927 230.057C78.1453 230.375 78.0357 230.68 77.87 230.955C77.7043 231.231 77.486 231.47 77.2274 231.661C76.8219 231.964 76.3332 232.135 75.8273 232.151Z" fill="white"/>
<path d="M55.1483 230.131C54.7142 230.131 54.2879 230.015 53.9135 229.795C53.5391 229.576 53.23 229.26 53.0183 228.881C34.9483 196.791 37.9383 154.391 61.8983 102.881C88.2483 46.2309 48.4583 4.59087 48.0483 4.18087C47.5935 3.71674 47.3416 3.09093 47.3482 2.44112C47.3548 1.79131 47.6192 1.17072 48.0833 0.715869C48.5474 0.261023 49.1732 0.00918641 49.8231 0.0157502C50.4729 0.0223139 51.0935 0.286744 51.5483 0.750873C51.9783 1.19087 94.1383 45.1509 66.3283 104.951C43.0683 154.951 40.0283 195.841 57.2783 226.481C57.4907 226.853 57.6015 227.274 57.5995 227.702C57.5974 228.131 57.4828 228.551 57.2669 228.921C57.051 229.291 56.7416 229.597 56.3697 229.81C55.9978 230.022 55.5766 230.133 55.1483 230.131Z" fill="white"/>
<path d="M143.648 277.371C143.528 277.381 143.407 277.381 143.288 277.371C142.969 277.325 142.664 277.216 142.388 277.051C142.112 276.886 141.871 276.668 141.68 276.409C141.488 276.151 141.35 275.857 141.272 275.545C141.195 275.233 141.179 274.909 141.228 274.591C141.318 274.011 150.798 215.821 229.858 186.671C277.968 168.901 284.248 127.821 284.248 107.751C276.108 126.901 253.978 164.581 203.528 174.381C138.408 187.031 121.038 247.781 120.868 248.381C120.67 248.977 120.252 249.474 119.699 249.77C119.146 250.066 118.501 250.14 117.896 249.974C117.291 249.809 116.772 249.418 116.447 248.881C116.122 248.345 116.015 247.704 116.148 247.091C116.328 246.451 134.528 182.791 202.598 169.571C267.598 156.951 283.388 95.8711 283.538 95.2511C283.665 94.7051 283.98 94.2211 284.428 93.8832C284.876 93.5452 285.427 93.3747 285.988 93.4011C286.546 93.4172 287.082 93.6246 287.507 93.9887C287.931 94.3527 288.217 94.8513 288.318 95.4011C288.448 96.1011 299.918 166.001 231.538 191.211C155.338 219.311 146.138 274.711 146.058 275.211C145.985 275.802 145.701 276.346 145.258 276.743C144.815 277.14 144.243 277.363 143.648 277.371Z" fill="white"/>
<path d="M130.449 261.32C130.226 261.319 130.004 261.289 129.789 261.23C129.48 261.145 129.192 260.999 128.94 260.802C128.688 260.605 128.478 260.36 128.321 260.081C128.164 259.803 128.063 259.496 128.025 259.178C127.987 258.86 128.012 258.538 128.099 258.23C138.019 222.75 170.099 194.89 223.469 175.41C282.269 153.94 283.469 96.4104 283.469 95.8304C283.471 95.185 283.73 94.5669 284.187 94.1115C284.644 93.6561 285.263 93.4004 285.909 93.4004C286.557 93.4083 287.175 93.6727 287.629 94.1356C288.082 94.5985 288.334 95.2223 288.329 95.8704C288.329 96.4904 287.049 157.39 225.109 180C173.309 198.91 142.239 225.67 132.769 259.54C132.625 260.047 132.321 260.494 131.903 260.814C131.485 261.135 130.975 261.313 130.449 261.32Z" fill="white"/>
<path d="M319.119 366.751C307.589 366.751 294.829 364.221 280.959 357.831C207.219 323.831 161.539 356.491 161.079 356.831C160.556 357.169 159.923 357.295 159.311 357.184C158.698 357.073 158.151 356.732 157.78 356.231C157.409 355.731 157.243 355.108 157.315 354.489C157.388 353.871 157.693 353.303 158.169 352.901C158.649 352.551 206.489 318.111 283.009 353.401C330.419 375.271 363.649 350.241 377.589 335.951C358.429 343.741 315.909 355.021 273.079 326.121C218.079 289.011 162.849 319.681 162.299 320.001C161.737 320.291 161.086 320.354 160.48 320.175C159.874 319.996 159.36 319.59 159.046 319.041C158.733 318.492 158.643 317.844 158.796 317.231C158.95 316.618 159.334 316.088 159.869 315.751C160.449 315.421 218.329 283.281 275.809 322.061C330.689 359.061 385.049 327.061 385.599 326.751C386.078 326.461 386.642 326.345 387.197 326.422C387.751 326.498 388.263 326.764 388.645 327.173C389.027 327.582 389.257 328.111 389.296 328.669C389.335 329.228 389.181 329.783 388.859 330.241C388.539 330.691 362.649 366.751 319.119 366.751Z" fill="white"/>
<path d="M325.478 354.842C311.247 354.746 297.213 351.509 284.378 345.362C234.378 322.102 193.488 319.052 162.838 336.312C162.273 336.63 161.605 336.711 160.98 336.536C160.356 336.362 159.826 335.946 159.508 335.382C159.19 334.817 159.109 334.148 159.283 333.524C159.458 332.899 159.873 332.37 160.438 332.052C192.538 313.982 234.928 316.962 286.438 340.922C343.088 367.272 384.728 327.492 385.138 327.082C385.367 326.857 385.638 326.68 385.936 326.56C386.234 326.44 386.552 326.38 386.873 326.384C387.194 326.387 387.511 326.453 387.806 326.579C388.101 326.705 388.369 326.887 388.593 327.117C388.818 327.346 388.995 327.617 389.115 327.914C389.234 328.212 389.294 328.53 389.291 328.851C389.288 329.172 389.221 329.489 389.096 329.784C388.97 330.079 388.787 330.347 388.558 330.572C388.248 330.902 363.248 354.842 325.478 354.842Z" fill="white"/>
<path d="M281.829 568.152C260.549 568.152 216.899 561.572 198.099 510.572C169.939 434.202 114.599 425.172 114.049 425.092C113.436 424.966 112.895 424.61 112.537 424.098C112.178 423.586 112.029 422.956 112.12 422.337C112.21 421.719 112.534 421.158 113.025 420.77C113.515 420.383 114.136 420.197 114.759 420.252C115.349 420.342 173.539 429.822 202.689 508.882C220.419 556.992 261.499 563.272 281.589 563.292C262.439 555.142 224.749 533.022 214.959 482.572C202.309 417.442 141.559 400.072 140.959 399.902C140.649 399.818 140.36 399.673 140.106 399.476C139.853 399.279 139.641 399.035 139.482 398.756C139.323 398.478 139.221 398.171 139.181 397.853C139.141 397.534 139.164 397.211 139.249 396.902C139.333 396.593 139.478 396.303 139.675 396.05C139.871 395.797 140.116 395.585 140.394 395.426C140.673 395.267 140.98 395.165 141.298 395.125C141.616 395.085 141.939 395.107 142.249 395.192C142.889 395.362 206.539 413.562 219.769 481.642C232.389 546.642 293.469 562.422 294.079 562.572C294.623 562.707 295.105 563.025 295.443 563.473C295.782 563.921 295.956 564.471 295.938 565.032C295.919 565.593 295.708 566.13 295.341 566.555C294.973 566.979 294.471 567.264 293.919 567.362C289.914 567.929 285.873 568.193 281.829 568.152Z" fill="white"/>
<path d="M293.487 567.39C292.867 567.39 231.967 566.12 209.357 504.17C190.447 452.37 163.677 421.3 129.807 411.83C129.217 411.627 128.726 411.205 128.436 410.652C128.146 410.098 128.079 409.455 128.247 408.853C128.416 408.252 128.808 407.737 129.343 407.415C129.878 407.093 130.517 406.988 131.127 407.12C166.597 417.04 194.467 449.12 213.947 502.49C235.377 561.19 292.947 562.49 293.527 562.49C294.149 562.53 294.732 562.805 295.158 563.259C295.584 563.713 295.821 564.313 295.821 564.935C295.821 565.558 295.584 566.158 295.158 566.612C294.732 567.066 294.149 567.341 293.527 567.38L293.487 567.39Z" fill="white"/>
<path d="M60.4976 668.332C59.9963 668.336 59.5066 668.182 59.0976 667.892C58.5076 667.482 0.967587 626.172 31.4976 559.992C65.4976 486.242 32.8376 440.562 32.4976 440.112C32.2816 439.856 32.1204 439.559 32.0239 439.238C31.9274 438.918 31.8976 438.58 31.9365 438.248C31.9753 437.915 32.0819 437.594 32.2497 437.304C32.4174 437.015 32.6429 436.762 32.912 436.563C33.1811 436.364 33.4882 436.222 33.8143 436.146C34.1405 436.07 34.4787 436.062 34.8081 436.122C35.1376 436.181 35.4513 436.308 35.7298 436.494C36.0084 436.68 36.2458 436.921 36.4276 437.202C36.7776 437.672 71.2176 485.522 35.9276 562.042C14.0576 609.442 39.0876 642.672 53.3776 656.612C45.5876 637.452 34.3076 594.932 63.2076 552.102C100.208 497.192 69.6376 441.872 69.3276 441.322C69.1445 441.042 69.0207 440.728 68.9637 440.398C68.9068 440.069 68.9179 439.731 68.9964 439.406C69.0749 439.081 69.2191 438.775 69.4202 438.508C69.6213 438.241 69.875 438.017 70.1656 437.852C70.4563 437.686 70.7777 437.582 71.1101 437.546C71.4426 437.509 71.779 437.541 72.0986 437.639C72.4183 437.738 72.7144 437.901 72.9688 438.118C73.2231 438.335 73.4303 438.602 73.5776 438.902C73.9076 439.482 106.048 497.352 67.2676 554.842C30.1876 609.842 62.2676 664.082 62.5776 664.622C62.8034 664.993 62.9263 665.416 62.9338 665.85C62.9413 666.284 62.8329 666.712 62.62 667.09C62.4071 667.468 62.0973 667.782 61.7225 668C61.3476 668.219 60.9214 668.333 60.4876 668.332H60.4976Z" fill="white"/>
<path d="M60.4989 668.331C60.1747 668.333 59.8534 668.269 59.5545 668.144C59.2555 668.018 58.9849 667.834 58.7589 667.601C58.3289 667.161 16.1589 623.201 43.9689 563.411C67.2289 513.411 70.2689 472.511 52.9689 441.871C52.8113 441.592 52.7104 441.284 52.6718 440.965C52.6333 440.646 52.6579 440.323 52.7442 440.014C52.8306 439.705 52.977 439.415 53.1751 439.163C53.3733 438.91 53.6192 438.699 53.8989 438.541C54.1786 438.384 54.4866 438.283 54.8054 438.244C55.1241 438.206 55.4473 438.23 55.7565 438.317C56.0657 438.403 56.3549 438.549 56.6075 438.748C56.8602 438.946 57.0713 439.192 57.2289 439.471C75.2989 471.571 72.3189 513.961 48.3589 565.471C21.9589 622.231 61.7889 663.761 62.1989 664.171C62.6569 664.631 62.9141 665.253 62.9141 665.901C62.9141 666.55 62.6569 667.172 62.1989 667.631C61.747 668.08 61.1358 668.332 60.4989 668.331Z" fill="white"/>
<path d="M2.87832 242.281C2.33588 242.28 1.80875 242.101 1.37832 241.771C0.998318 241.471 -36.6217 211.591 -26.6217 162.281C-17.1917 115.971 -53.1017 88.9807 -53.4617 88.7107C-53.9198 88.3797 -54.2488 87.8999 -54.3925 87.3533C-54.5362 86.8067 -54.4857 86.2272 -54.2496 85.7137C-54.0135 85.2002 -53.6064 84.7846 -53.098 84.5378C-52.5895 84.2911 -52.0112 84.2285 -51.4617 84.3607C-50.9517 84.4707 -0.771671 96.2107 -2.86167 149.181C-5.16167 207.291 28.7883 228.311 29.1383 228.521C29.6755 228.864 30.0576 229.404 30.2034 230.025C30.3492 230.645 30.2472 231.298 29.9192 231.845C29.5911 232.392 29.0628 232.789 28.4464 232.953C27.8301 233.116 27.1742 233.033 26.6183 232.721C25.1183 231.821 -10.1617 209.971 -7.75169 148.981C-6.42168 115.201 -28.0417 99.5807 -41.7517 93.1207C-30.9617 105.031 -14.9217 129.291 -21.8317 163.261C-31.2717 209.621 3.98832 237.631 4.34832 237.901C4.74947 238.214 5.04289 238.645 5.18783 239.133C5.33276 239.622 5.32199 240.143 5.15701 240.625C4.99202 241.106 4.68103 241.525 4.26727 241.821C3.8535 242.118 3.35754 242.279 2.84832 242.281H2.87832Z" fill="white"/>
<path d="M13.5688 237.421C13.0197 237.422 12.4867 237.235 12.0588 236.891C-8.94119 220.391 -18.7512 191.201 -16.9912 150.131C-15.1012 105.711 -51.4112 89.6512 -52.9912 88.9912C-53.2867 88.8658 -53.5546 88.6834 -53.7795 88.4544C-54.0045 88.2255 -54.1822 87.9545 -54.3025 87.6569C-54.4227 87.3592 -54.4832 87.0409 -54.4804 86.7199C-54.4776 86.3989 -54.4116 86.0816 -54.2862 85.7862C-54.1608 85.4907 -53.9784 85.2228 -53.7494 84.9978C-53.5205 84.7728 -53.2495 84.5951 -52.9519 84.4749C-52.6543 84.3546 -52.3359 84.2942 -52.0149 84.297C-51.6939 84.2998 -51.3767 84.3658 -51.0812 84.4912C-50.6712 84.6712 -10.0812 102.491 -12.1512 150.341C-13.8312 189.741 -4.68118 217.571 15.0388 233.051C15.4366 233.366 15.7267 233.798 15.8689 234.285C16.0111 234.772 15.9984 235.292 15.8326 235.771C15.6669 236.251 15.3561 236.668 14.9434 236.963C14.5307 237.259 14.0364 237.419 13.5288 237.421H13.5688Z" fill="white"/>
<path d="M109.078 244.101C108.534 244.102 108.004 243.92 107.575 243.584C107.145 243.249 106.84 242.78 106.708 242.251C106.288 240.551 96.7985 200.161 141.618 158.741C166.908 135.361 162.368 109.011 157.118 94.911C156.388 110.911 150.688 139.651 121.588 158.911C82.1385 185.011 87.2484 229.751 87.3284 230.201C87.3904 230.836 87.2022 231.47 86.8038 231.969C86.4054 232.467 85.8282 232.79 85.1951 232.87C84.562 232.949 83.9229 232.779 83.4137 232.394C82.9045 232.01 82.5654 231.442 82.4685 230.811C82.4085 230.331 76.9285 182.591 118.888 154.811C158.228 128.811 151.998 84.241 151.888 83.811C151.798 83.2545 151.903 82.6839 152.186 82.1962C152.469 81.7085 152.912 81.3338 153.44 81.1358C153.968 80.9379 154.548 80.9288 155.082 81.1103C155.616 81.2917 156.071 81.6524 156.368 82.131C156.648 82.561 183.818 126.351 144.898 162.321C102.178 201.791 111.318 240.671 111.418 241.051C111.503 241.41 111.505 241.783 111.425 242.142C111.345 242.502 111.184 242.839 110.955 243.127C110.726 243.416 110.435 243.649 110.103 243.809C109.771 243.969 109.407 244.052 109.038 244.051L109.078 244.101Z" fill="white"/>
<path d="M95.8877 237.071C95.2918 237.068 94.7174 236.848 94.272 236.452C93.8266 236.056 93.5406 235.512 93.4676 234.921C90.2676 208.381 103.998 180.821 134.278 153.021C167.108 122.881 152.278 84.7506 152.078 84.3606C151.88 83.7682 151.917 83.1228 152.179 82.5563C152.442 81.9898 152.911 81.545 153.491 81.3126C154.07 81.0803 154.717 81.078 155.298 81.3062C155.879 81.5345 156.351 81.976 156.618 82.5406C156.778 82.9506 172.878 124.221 137.618 156.621C108.558 183.301 95.3476 209.441 98.3576 234.331C98.4338 234.975 98.2513 235.623 97.8501 236.133C97.4489 236.643 96.8618 236.973 96.2176 237.051L95.8877 237.071Z" fill="white"/>
<path d="M158.707 309.341C158.263 309.343 157.827 309.222 157.447 308.991C156.893 308.657 156.494 308.117 156.336 307.489C156.179 306.862 156.276 306.197 156.607 305.641C157.507 304.131 179.357 268.851 240.347 271.261C274.157 272.611 289.747 250.971 296.207 237.261C284.297 248.051 260.037 264.091 226.067 257.181C179.707 247.741 151.697 283.011 151.427 283.361C151.235 283.629 150.991 283.855 150.71 284.026C150.428 284.197 150.115 284.31 149.789 284.357C149.463 284.405 149.131 284.386 148.813 284.302C148.494 284.218 148.196 284.071 147.935 283.869C147.675 283.667 147.458 283.415 147.297 283.128C147.137 282.84 147.036 282.523 147 282.196C146.965 281.868 146.996 281.537 147.092 281.222C147.188 280.906 147.346 280.614 147.557 280.361C147.857 279.981 177.737 242.361 227.047 252.361C273.357 261.791 300.347 225.881 300.607 225.511C300.941 225.058 301.421 224.734 301.966 224.593C302.511 224.453 303.088 224.504 303.6 224.739C304.112 224.973 304.527 225.377 304.776 225.882C305.025 226.387 305.092 226.962 304.967 227.511C304.857 228.011 293.577 276.161 243.347 276.171C242.297 276.171 241.237 276.171 240.147 276.101C182.147 273.821 161.007 307.761 160.807 308.101C160.596 308.473 160.291 308.783 159.922 309.001C159.554 309.218 159.135 309.336 158.707 309.341Z" fill="white"/>
<path d="M154.358 295.041C153.891 295.047 153.433 294.92 153.036 294.675C152.64 294.43 152.321 294.076 152.118 293.656C151.916 293.236 151.837 292.767 151.892 292.303C151.947 291.84 152.133 291.402 152.428 291.041C168.938 270.041 198.148 260.221 239.198 261.981C283.758 263.871 300.198 226.401 300.328 225.981C300.582 225.383 301.064 224.911 301.667 224.668C302.27 224.425 302.945 224.431 303.543 224.686C304.141 224.941 304.613 225.422 304.856 226.025C305.099 226.628 305.092 227.303 304.838 227.901C304.658 228.311 286.898 268.851 238.988 266.831C199.598 265.151 171.758 274.291 156.278 294.011C156.061 294.321 155.774 294.575 155.44 294.754C155.107 294.933 154.736 295.031 154.358 295.041Z" fill="white"/>
<path d="M272.307 444.922C258.307 444.922 241.977 440.182 226.997 423.922C187.647 381.382 148.647 390.392 148.247 390.482C147.619 390.638 146.954 390.539 146.399 390.205C145.843 389.871 145.444 389.33 145.287 388.702C145.131 388.073 145.23 387.408 145.564 386.853C145.898 386.298 146.439 385.898 147.067 385.742C148.767 385.322 189.157 375.822 230.577 420.642C253.947 445.942 280.307 441.392 294.407 436.142C278.407 435.412 249.667 429.722 230.407 400.622C204.297 361.162 159.557 366.292 159.117 366.352C158.474 366.433 157.825 366.255 157.313 365.857C156.801 365.46 156.468 364.875 156.387 364.232C156.306 363.589 156.484 362.94 156.882 362.428C157.279 361.916 157.864 361.583 158.507 361.502C158.987 361.432 206.727 355.962 234.507 397.922C260.597 437.342 305.067 431.032 305.507 430.922C306.064 430.831 306.634 430.937 307.122 431.22C307.61 431.502 307.984 431.946 308.182 432.473C308.38 433.001 308.389 433.582 308.208 434.115C308.027 434.649 307.666 435.104 307.187 435.402C296.558 441.486 284.554 444.762 272.307 444.922Z" fill="white"/>
<path d="M283.588 439.451C268.918 439.451 249.588 435.021 232.698 416.611C206.028 387.561 179.888 374.351 154.998 377.351C154.368 377.401 153.743 377.205 153.254 376.805C152.765 376.405 152.449 375.831 152.373 375.204C152.297 374.577 152.466 373.944 152.846 373.438C153.225 372.933 153.785 372.593 154.408 372.491C180.958 369.291 208.508 383.021 236.308 413.301C266.448 446.131 304.578 431.301 304.958 431.111C305.256 430.991 305.574 430.931 305.895 430.933C306.216 430.936 306.533 431.002 306.828 431.127C307.123 431.253 307.391 431.435 307.616 431.664C307.841 431.893 308.018 432.164 308.138 432.461C308.259 432.759 308.319 433.077 308.316 433.397C308.313 433.718 308.247 434.035 308.122 434.331C307.997 434.626 307.814 434.894 307.586 435.119C307.357 435.343 307.086 435.521 306.788 435.641C299.331 438.232 291.483 439.521 283.588 439.451Z" fill="white"/>
<path d="M162.297 584.061C162.119 584.06 161.941 584.04 161.767 584.001C161.257 583.891 111.087 572.141 113.177 519.181C115.467 461.061 81.5174 440.041 81.1774 439.831C80.9023 439.666 80.6623 439.448 80.4712 439.191C80.2801 438.933 80.1416 438.641 80.0636 438.33C79.9856 438.018 79.9696 437.695 80.0166 437.378C80.0636 437.061 80.1726 436.756 80.3374 436.481C80.5022 436.205 80.7196 435.965 80.9771 435.774C81.2347 435.583 81.5273 435.445 81.8384 435.367C82.1495 435.289 82.4729 435.273 82.7901 435.32C83.1074 435.367 83.4123 435.476 83.6874 435.641C85.1874 436.541 120.467 458.391 118.057 519.371C116.727 553.151 138.357 568.771 152.057 575.231C141.257 563.321 125.217 539.061 132.137 505.091C141.537 458.751 106.247 430.751 105.917 430.451C105.664 430.254 105.452 430.009 105.293 429.73C105.134 429.451 105.032 429.143 104.992 428.825C104.952 428.506 104.975 428.183 105.06 427.873C105.145 427.564 105.29 427.274 105.487 427.021C105.684 426.767 105.929 426.555 106.208 426.396C106.487 426.237 106.795 426.135 107.113 426.095C107.432 426.055 107.755 426.078 108.065 426.163C108.374 426.248 108.664 426.394 108.917 426.591C109.297 426.881 146.917 456.771 136.917 506.071C127.487 552.391 163.397 579.371 163.757 579.641C164.171 579.946 164.478 580.374 164.634 580.864C164.791 581.354 164.79 581.881 164.63 582.37C164.471 582.858 164.162 583.285 163.747 583.588C163.332 583.892 162.832 584.057 162.317 584.061H162.297Z" fill="white"/>
<path d="M162.298 584.062C161.954 584.065 161.614 583.997 161.298 583.862C160.888 583.692 120.298 565.862 122.368 518.012C124.048 478.612 114.908 450.782 95.1777 435.312C94.7298 434.895 94.4546 434.325 94.4061 433.714C94.3577 433.104 94.5395 432.497 94.9159 432.014C95.2922 431.531 95.8358 431.207 96.4395 431.105C97.0432 431.002 97.6633 431.13 98.1777 431.462C119.178 447.962 128.988 477.152 127.238 518.222C125.338 562.642 161.648 578.702 163.238 579.362C163.758 579.586 164.185 579.984 164.445 580.487C164.705 580.99 164.783 581.568 164.665 582.122C164.547 582.676 164.241 583.173 163.798 583.526C163.356 583.88 162.804 584.069 162.238 584.062H162.298Z" fill="white"/>
<path d="M-44.0516 587.352C-44.4622 587.351 -44.866 587.247 -45.2259 587.05C-45.5859 586.852 -45.8904 586.567 -46.1116 586.222C-46.3916 585.782 -73.5616 541.992 -34.6316 506.022C7.93837 466.682 -1.06163 427.672 -1.16163 427.282C-1.28395 426.664 -1.16391 426.023 -0.826424 425.492C-0.488937 424.961 0.0401001 424.58 0.650993 424.428C1.26189 424.276 1.90774 424.365 2.45464 424.677C3.00154 424.988 3.40752 425.499 3.58837 426.102C4.01837 427.802 13.5084 468.192 -31.3216 509.612C-56.1516 532.562 -51.9016 558.902 -46.8016 573.132C-46.0116 557.072 -40.2016 528.582 -11.2916 509.452C28.1684 483.342 23.0284 438.602 22.9784 438.152C22.9383 437.833 22.9614 437.51 23.0463 437.2C23.1311 436.891 23.2761 436.601 23.473 436.348C23.6698 436.094 23.9147 435.882 24.1936 435.723C24.4725 435.564 24.7799 435.462 25.0984 435.422C25.4168 435.382 25.7401 435.405 26.0496 435.489C26.3592 435.574 26.6489 435.719 26.9024 435.916C27.1559 436.113 27.3682 436.358 27.5271 436.637C27.6859 436.916 27.7883 437.223 27.8284 437.542C27.8884 438.022 33.3684 485.762 -8.59162 513.542C-47.9216 539.542 -41.7016 584.102 -41.5916 584.542C-41.5076 585.097 -41.6167 585.664 -41.9006 586.148C-42.1846 586.632 -42.6262 587.004 -43.1516 587.202C-43.4389 587.31 -43.7447 587.361 -44.0516 587.352Z" fill="white"/>
<path d="M-44.0516 587.351C-44.5389 587.35 -45.0149 587.204 -45.4191 586.931C-45.8232 586.659 -46.1373 586.273 -46.3216 585.821C-46.4816 585.401 -62.5816 544.131 -27.3216 511.731C1.67842 485.061 14.9384 458.911 11.9384 434.021C11.9003 433.703 11.9254 433.38 12.012 433.071C12.0987 432.763 12.2454 432.474 12.4436 432.222C12.844 431.713 13.4303 431.383 14.0734 431.306C14.7166 431.229 15.3639 431.411 15.8731 431.812C16.3823 432.212 16.7115 432.798 16.7884 433.441C19.9884 459.981 6.25842 487.531 -24.0116 515.331C-56.8416 545.471 -42.0116 583.611 -41.8216 583.991C-41.701 584.289 -41.6403 584.607 -41.643 584.928C-41.6456 585.249 -41.7115 585.566 -41.8369 585.861C-41.9623 586.157 -42.1447 586.425 -42.3738 586.649C-42.6028 586.874 -42.8739 587.051 -43.1716 587.171C-43.4515 587.285 -43.7497 587.346 -44.0516 587.351Z" fill="white"/>
<path d="M66.487 212.522C65.9368 212.521 65.4028 212.335 64.9711 211.994C64.5394 211.653 64.235 211.177 64.107 210.642C63.837 209.472 57.467 181.842 71.437 161.892C75.187 156.532 79.707 152.362 84.077 148.312C95.577 137.682 105.507 128.492 96.077 101.402C95.8927 100.865 95.9006 100.281 96.0992 99.7488C96.2979 99.2171 96.675 98.7708 97.1661 98.4863C97.6573 98.2018 98.232 98.0966 98.7921 98.1888C99.3522 98.2809 99.8629 98.5647 100.237 98.9917C100.507 99.3017 127.237 130.662 100.097 157.092C75.927 180.622 87.837 206.172 88.357 207.252C88.6394 207.835 88.6785 208.507 88.4657 209.119C88.2528 209.732 87.8055 210.234 87.222 210.517C86.6385 210.799 85.9667 210.838 85.3544 210.625C84.7421 210.413 84.2394 209.965 83.957 209.382C83.817 209.092 69.957 179.642 96.687 153.582C110.467 140.162 108.617 125.492 104.407 115.272C106.497 134.212 96.807 143.182 87.407 151.902C83.247 155.752 78.887 159.752 75.447 164.692C62.717 182.862 68.807 209.242 68.867 209.512C68.9414 209.824 68.9535 210.147 68.9028 210.464C68.8521 210.78 68.7394 211.084 68.5713 211.357C68.4032 211.63 68.183 211.867 67.9231 212.055C67.6633 212.243 67.369 212.378 67.057 212.452C66.8708 212.5 66.6792 212.523 66.487 212.522Z" fill="white"/>
<path d="M80.7171 232.612C80.3683 232.611 80.0267 232.512 79.7314 232.326C79.4361 232.141 79.199 231.876 79.0471 231.562C78.5371 230.472 66.6471 204.652 73.2971 180.652C73.3572 180.413 73.4646 180.189 73.6129 179.993C73.7611 179.796 73.9472 179.632 74.1602 179.509C74.3732 179.386 74.6087 179.306 74.8528 179.276C75.0969 179.245 75.3446 179.264 75.5814 179.331C75.8181 179.398 76.0391 179.512 76.2311 179.665C76.4232 179.819 76.5824 180.01 76.6995 180.226C76.8166 180.442 76.8891 180.68 76.9127 180.925C76.9363 181.17 76.9106 181.417 76.8371 181.652C70.5471 204.322 82.2571 229.772 82.3771 230.022C82.5817 230.463 82.6029 230.968 82.4361 231.426C82.2692 231.883 81.928 232.255 81.4871 232.462C81.2449 232.569 80.9817 232.62 80.7171 232.612Z" fill="white"/>
<path d="M76.9288 175.331C76.7277 175.333 76.528 175.299 76.3388 175.231C76.1101 175.155 75.8987 175.035 75.7168 174.877C75.5349 174.719 75.3861 174.527 75.2792 174.311C75.1722 174.095 75.1091 173.86 75.0936 173.62C75.0781 173.38 75.1104 173.139 75.1888 172.911C76.2111 169.906 77.552 167.02 79.1888 164.301C79.454 163.894 79.8701 163.609 80.3455 163.508C80.8209 163.408 81.3167 163.501 81.7238 163.766C82.1309 164.031 82.416 164.447 82.5163 164.922C82.6166 165.398 82.524 165.894 82.2588 166.301C80.8008 168.765 79.5979 171.372 78.6688 174.081C78.5456 174.445 78.3115 174.761 77.9995 174.985C77.6874 175.209 77.313 175.33 76.9288 175.331Z" fill="white"/>
<path d="M166.088 269.561C165.816 269.562 165.546 269.518 165.288 269.431C164.984 269.327 164.704 269.163 164.464 268.95C164.223 268.737 164.027 268.479 163.887 268.19C163.747 267.901 163.665 267.587 163.646 267.266C163.628 266.946 163.672 266.624 163.778 266.321C163.878 266.011 174.718 235.861 211.338 235.861H212.848C231.658 235.861 240.578 224.311 244.788 214.211C232.868 229.091 219.668 228.581 206.838 228.081C201.148 227.861 195.258 227.631 189.348 228.671C167.548 232.521 153.148 255.481 153.008 255.671C152.652 256.188 152.111 256.548 151.498 256.677C150.884 256.807 150.244 256.696 149.709 256.368C149.175 256.04 148.786 255.519 148.624 254.913C148.462 254.307 148.539 253.662 148.838 253.111C149.468 252.111 164.508 228.051 188.498 223.821C194.928 222.681 201.078 222.921 207.028 223.151C222.688 223.761 236.198 224.291 248.708 198.481C248.96 197.971 249.381 197.564 249.9 197.331C250.419 197.097 251.003 197.052 251.552 197.202C252.101 197.352 252.58 197.689 252.908 198.154C253.236 198.619 253.391 199.184 253.348 199.751C253.348 200.161 250.088 240.751 212.858 240.751H212.168C178.258 240.261 168.498 267.641 168.398 267.911C168.233 268.393 167.922 268.811 167.508 269.107C167.093 269.402 166.597 269.561 166.088 269.561Z" fill="white"/>
<path d="M146.338 280.971C146.123 280.974 145.909 280.937 145.708 280.861C145.252 280.696 144.88 280.357 144.674 279.919C144.468 279.48 144.444 278.977 144.608 278.521C145.018 277.391 154.868 250.711 176.548 238.451C176.757 238.333 176.988 238.257 177.227 238.228C177.466 238.199 177.708 238.217 177.939 238.282C178.171 238.347 178.388 238.456 178.577 238.604C178.766 238.753 178.925 238.937 179.043 239.146C179.161 239.356 179.237 239.586 179.266 239.825C179.295 240.064 179.277 240.306 179.212 240.538C179.148 240.769 179.038 240.986 178.89 241.175C178.741 241.365 178.557 241.523 178.348 241.641C157.848 253.241 148.158 279.501 148.058 279.761C147.932 280.116 147.698 280.423 147.39 280.64C147.082 280.857 146.715 280.972 146.338 280.971Z" fill="white"/>
<path d="M184.168 237.752C183.755 237.748 183.356 237.607 183.034 237.35C182.712 237.093 182.485 236.735 182.391 236.334C182.296 235.932 182.339 235.511 182.513 235.137C182.686 234.763 182.98 234.458 183.348 234.272C186.191 232.885 189.175 231.805 192.248 231.052C192.724 230.951 193.22 231.043 193.628 231.309C194.036 231.574 194.322 231.99 194.423 232.467C194.523 232.943 194.431 233.439 194.166 233.847C193.9 234.255 193.484 234.541 193.008 234.642C190.244 235.359 187.562 236.365 185.008 237.642C184.74 237.744 184.452 237.782 184.168 237.752Z" fill="white"/>
<path d="M259.249 391.301C250.619 391.301 241.179 388.301 232.249 379.141C208.719 354.981 183.169 366.881 182.089 367.401C181.511 367.645 180.862 367.657 180.275 367.436C179.689 367.216 179.209 366.779 178.935 366.215C178.661 365.651 178.613 365.004 178.801 364.406C178.99 363.808 179.401 363.306 179.949 363.001C180.249 362.861 209.709 349.001 235.759 375.731C249.169 389.511 263.849 387.661 274.069 383.451C255.139 385.551 246.159 375.861 237.439 366.451C233.569 362.271 229.569 357.951 224.649 354.501C206.479 341.781 180.099 347.861 179.829 347.931C179.212 348.042 178.577 347.912 178.054 347.569C177.53 347.225 177.158 346.695 177.014 346.086C176.869 345.476 176.963 344.835 177.276 344.293C177.59 343.751 178.099 343.35 178.699 343.171C179.869 342.891 207.499 336.531 227.449 350.501C232.799 354.241 236.979 358.761 241.029 363.131C251.659 374.631 260.849 384.561 287.939 375.131C288.476 374.939 289.063 374.941 289.599 375.137C290.134 375.333 290.584 375.71 290.871 376.203C291.157 376.697 291.262 377.275 291.166 377.837C291.071 378.399 290.782 378.91 290.349 379.281C290.129 379.461 276.249 391.301 259.249 391.301Z" fill="white"/>
<path d="M158.549 361.572C158.131 361.575 157.725 361.434 157.399 361.174C157.072 360.913 156.844 360.549 156.753 360.142C156.662 359.734 156.713 359.307 156.898 358.933C157.083 358.558 157.39 358.258 157.769 358.082C158.859 357.572 184.679 345.672 208.679 352.332C208.911 352.398 209.127 352.509 209.316 352.658C209.505 352.807 209.663 352.992 209.78 353.203C209.898 353.413 209.973 353.645 210.001 353.884C210.029 354.123 210.009 354.366 209.944 354.597C209.878 354.829 209.767 355.046 209.618 355.235C209.469 355.424 209.284 355.581 209.073 355.699C208.863 355.816 208.632 355.891 208.392 355.919C208.153 355.947 207.911 355.928 207.679 355.862C184.979 349.562 159.559 361.282 159.309 361.402C159.071 361.513 158.811 361.571 158.549 361.572Z" fill="white"/>
<path d="M224.017 361.572C223.663 361.574 223.316 361.473 223.017 361.282C220.559 359.819 217.955 358.616 215.247 357.692C214.817 357.514 214.47 357.179 214.276 356.754C214.083 356.33 214.059 355.848 214.207 355.406C214.356 354.964 214.667 354.595 215.077 354.373C215.487 354.152 215.966 354.094 216.417 354.212C219.422 355.235 222.308 356.576 225.027 358.212C225.361 358.426 225.616 358.743 225.754 359.115C225.892 359.486 225.906 359.893 225.793 360.273C225.68 360.653 225.447 360.986 225.129 361.222C224.81 361.459 224.424 361.585 224.027 361.582L224.017 361.572Z" fill="white"/>
<path d="M189.729 532.38H189.559C189.139 532.38 148.069 529.09 148.559 491.2C149.009 457.48 122.559 447.83 121.389 447.43C120.776 447.218 120.273 446.771 119.99 446.188C119.706 445.605 119.667 444.933 119.879 444.32C120.091 443.707 120.538 443.204 121.121 442.921C121.704 442.638 122.376 442.598 122.989 442.81C123.299 442.92 153.989 453.93 153.449 491.27C153.189 510.5 164.869 519.57 175.079 523.82C160.249 511.89 160.739 498.75 161.249 485.87C161.469 480.18 161.699 474.29 160.649 468.37C156.809 446.58 133.849 432.18 133.649 432.03C133.097 431.691 132.703 431.146 132.553 430.516C132.403 429.886 132.509 429.222 132.849 428.67C133.188 428.118 133.733 427.724 134.363 427.574C134.993 427.424 135.657 427.531 136.209 427.87C137.209 428.5 161.269 443.54 165.499 467.52C166.639 473.96 166.399 480.11 166.159 486.06C165.549 501.71 165.029 515.23 190.829 527.73C191.324 527.973 191.724 528.376 191.962 528.874C192.199 529.373 192.262 529.937 192.139 530.475C192.017 531.013 191.716 531.494 191.286 531.84C190.855 532.186 190.321 532.376 189.769 532.38H189.729Z" fill="white"/>
<path d="M149.248 458.311C148.923 458.31 148.604 458.224 148.323 458.06C148.043 457.897 147.81 457.663 147.648 457.381C136.048 436.871 109.798 427.181 109.528 427.091C109.071 426.925 108.698 426.585 108.491 426.144C108.285 425.703 108.262 425.198 108.428 424.741C108.594 424.283 108.935 423.911 109.375 423.704C109.816 423.498 110.321 423.475 110.778 423.641C111.908 424.051 138.588 433.891 150.848 455.571C151.005 455.851 151.086 456.166 151.083 456.487C151.08 456.808 150.994 457.122 150.832 457.399C150.67 457.676 150.439 457.905 150.161 458.065C149.884 458.225 149.569 458.31 149.248 458.311Z" fill="white"/>
<path d="M156.477 473.501C156.057 473.501 155.649 473.355 155.323 473.09C154.997 472.824 154.773 472.453 154.687 472.041C153.971 469.277 152.966 466.595 151.687 464.041C151.561 463.824 151.48 463.582 151.45 463.332C151.421 463.081 151.443 462.828 151.515 462.586C151.588 462.345 151.709 462.121 151.872 461.928C152.034 461.736 152.235 461.579 152.461 461.467C152.686 461.355 152.933 461.29 153.185 461.278C153.436 461.265 153.688 461.304 153.924 461.393C154.16 461.481 154.375 461.617 154.557 461.793C154.738 461.968 154.881 462.179 154.977 462.411C156.378 465.257 157.471 468.244 158.237 471.321C158.338 471.796 158.246 472.292 157.982 472.698C157.717 473.105 157.302 473.391 156.828 473.491C156.711 473.507 156.594 473.51 156.477 473.501Z" fill="white"/>
<path d="M11.8878 570.202C11.5387 570.203 11.1934 570.128 10.8758 569.983C10.5582 569.838 10.2757 569.626 10.0478 569.362C9.76777 569.052 -16.9522 537.692 10.1778 511.272C34.3478 487.742 22.4378 462.182 21.9178 461.112C21.6746 460.534 21.662 459.885 21.8827 459.298C22.1034 458.712 22.5405 458.232 23.1042 457.958C23.6679 457.684 24.3152 457.636 24.913 457.825C25.5108 458.013 26.0135 458.424 26.3178 458.972C26.4678 459.262 40.3178 488.722 13.5978 514.772C-0.122211 528.122 1.67778 542.772 5.86778 553.002C3.80778 534.112 13.4878 525.162 22.8678 516.452C27.0478 512.582 31.3778 508.582 34.8678 503.662C47.5678 485.532 41.5078 459.112 41.4478 458.852C41.3527 458.532 41.3239 458.197 41.363 457.866C41.402 457.535 41.5082 457.215 41.6751 456.927C41.8419 456.638 42.0659 456.387 42.3333 456.188C42.6007 455.989 42.9059 455.846 43.2302 455.769C43.5545 455.692 43.891 455.682 44.2193 455.74C44.5476 455.798 44.8607 455.922 45.1395 456.104C45.4182 456.287 45.6567 456.525 45.8404 456.803C46.0241 457.081 46.1491 457.394 46.2078 457.722C46.4878 458.882 52.8478 486.522 38.8778 506.472C35.1278 511.822 30.6178 516.002 26.2378 520.042C14.7378 530.682 4.80777 539.862 14.2378 566.952C14.4221 567.488 14.4153 568.072 14.2185 568.604C14.0217 569.137 13.6469 569.584 13.1578 569.872C12.7714 570.093 12.333 570.207 11.8878 570.202Z" fill="white"/>
<path d="M35.2474 489.051C35.0815 489.051 34.9165 489.027 34.7574 488.98C34.5254 488.916 34.3084 488.806 34.1189 488.657C33.9295 488.509 33.7712 488.324 33.6532 488.114C33.5352 487.904 33.4598 487.673 33.4314 487.434C33.4029 487.195 33.4219 486.952 33.4874 486.72C39.7674 464.05 28.0674 438.6 27.9474 438.35C27.7352 437.913 27.7056 437.409 27.865 436.949C28.0244 436.49 28.3598 436.113 28.7974 435.901C29.235 435.688 29.739 435.659 30.1984 435.818C30.6579 435.977 31.0352 436.313 31.2474 436.751C31.7574 437.841 43.6574 463.67 36.9974 487.66C36.9002 488.053 36.6758 488.402 36.3592 488.654C36.0426 488.905 35.6517 489.045 35.2474 489.051Z" fill="white"/>
<path d="M29.5887 504.881C29.2342 504.883 28.8866 504.783 28.5887 504.591C28.181 504.325 27.8953 503.908 27.7941 503.432C27.6929 502.956 27.7844 502.459 28.0487 502.051C29.5093 499.588 30.7123 496.98 31.6387 494.271C31.8171 493.84 32.1523 493.493 32.5768 493.3C33.0012 493.107 33.483 493.082 33.925 493.231C34.3669 493.379 34.736 493.69 34.9576 494.1C35.1792 494.511 35.2367 494.99 35.1187 495.441C34.0917 498.443 32.7509 501.329 31.1187 504.051C30.9519 504.305 30.725 504.513 30.458 504.658C30.191 504.803 29.8924 504.879 29.5887 504.881Z" fill="white"/>
<path d="M0.117798 244.822C-0.0971947 244.825 -0.310806 244.787 -0.512207 244.712C-1.64221 244.302 -28.3122 234.462 -40.5722 212.782C-40.6904 212.573 -40.7662 212.342 -40.7952 212.103C-40.8242 211.865 -40.806 211.622 -40.7414 211.391C-40.6769 211.159 -40.5674 210.942 -40.4191 210.753C-40.2708 210.564 -40.0867 210.405 -39.8772 210.287C-39.6677 210.169 -39.437 210.093 -39.1983 210.064C-38.9596 210.035 -38.7174 210.053 -38.4857 210.118C-38.2541 210.182 -38.0374 210.292 -37.848 210.44C-37.6587 210.589 -37.5004 210.773 -37.3822 210.982C-25.8022 231.452 0.477795 241.172 0.737793 241.262C1.14905 241.404 1.49638 241.687 1.7175 242.062C1.93862 242.437 2.01909 242.878 1.94446 243.306C1.86982 243.735 1.64498 244.123 1.31024 244.401C0.975502 244.678 0.55275 244.828 0.117798 244.822Z" fill="white"/>
<path d="M13.3883 219.212C13.0177 219.212 12.6518 219.128 12.3189 218.965C11.986 218.802 11.695 218.565 11.4683 218.272C10.7283 217.332 -6.64169 194.912 -2.33169 170.942C-1.17169 164.512 1.17831 158.822 3.44831 153.322C9.44831 138.842 14.5883 126.322 -5.3117 105.692C-5.70706 105.283 -5.94773 104.749 -5.99243 104.182C-6.03712 103.614 -5.88304 103.049 -5.55663 102.583C-5.23023 102.117 -4.75184 101.78 -4.20355 101.628C-3.65525 101.476 -3.07123 101.52 -2.55169 101.752C-2.17169 101.922 35.2483 119.172 21.6883 154.552C9.5783 186.162 31.8383 204.822 32.0683 205.002C32.5248 205.425 32.803 206.007 32.8462 206.628C32.8894 207.249 32.6945 207.863 32.301 208.346C31.9075 208.829 31.345 209.143 30.7278 209.226C30.1106 209.309 29.4851 209.154 28.9783 208.792C28.7183 208.582 3.75829 187.672 17.1183 152.792C23.9683 134.912 16.1983 122.382 8.11829 114.852C17.8983 131.132 12.8783 143.312 7.97831 155.172C5.80831 160.432 3.5583 165.872 2.4983 171.792C-1.4317 193.622 15.1583 215.012 15.3183 215.232C15.6129 215.592 15.7986 216.029 15.8538 216.492C15.9089 216.954 15.8312 217.422 15.6297 217.842C15.4283 218.262 15.1114 218.615 14.7162 218.861C14.321 219.108 13.8638 219.236 13.3983 219.232L13.3883 219.212Z" fill="white"/>
<path d="M34.9885 231.431C34.5564 231.433 34.1379 231.281 33.8085 231.001C32.8885 230.221 11.2485 211.751 7.2485 187.191C7.17026 186.711 7.28592 186.22 7.57003 185.825C7.85415 185.43 8.28347 185.165 8.76351 185.086C9.24356 185.008 9.73499 185.124 10.1298 185.408C10.5245 185.692 10.7903 186.121 10.8685 186.601C14.6785 209.851 35.9685 228.011 36.1885 228.191C36.5577 228.506 36.7879 228.953 36.8291 229.436C36.8703 229.919 36.7192 230.399 36.4085 230.771C36.2368 230.981 36.0199 231.15 35.774 231.264C35.5282 231.378 35.2596 231.435 34.9885 231.431Z" fill="white"/>
<path d="M7.51755 181.012C7.06604 181.014 6.62975 180.849 6.2934 180.547C5.95706 180.246 5.74471 179.831 5.69758 179.382C5.35862 176.227 5.35862 173.046 5.69758 169.892C5.76786 169.41 6.02647 168.976 6.41654 168.686C6.80662 168.395 7.2962 168.271 7.77756 168.342C8.25893 168.412 8.69266 168.67 8.98334 169.061C9.27403 169.451 9.39783 169.94 9.32755 170.422C9.03441 173.267 9.03441 176.136 9.32755 178.982C9.37523 179.461 9.23187 179.94 8.92857 180.314C8.62526 180.689 8.18651 180.929 7.70756 180.982L7.51755 181.012Z" fill="white"/>
<path d="M127.727 229.211C127.121 229.211 126.537 228.986 126.088 228.58C125.639 228.173 125.357 227.614 125.297 227.011C125.297 226.691 122.397 194.251 156.507 179.011C174.077 171.181 177.407 156.771 176.977 145.721C172.407 164.221 160.217 169.291 148.347 174.221C143.087 176.401 137.657 178.671 132.717 182.091C114.547 194.731 111.107 221.611 111.077 221.881C111.054 222.211 110.963 222.534 110.811 222.829C110.659 223.123 110.449 223.384 110.194 223.595C109.938 223.806 109.642 223.963 109.324 224.057C109.006 224.15 108.672 224.178 108.343 224.139C108.014 224.1 107.696 223.994 107.409 223.828C107.122 223.663 106.871 223.44 106.673 223.175C106.474 222.91 106.331 222.607 106.253 222.285C106.175 221.962 106.162 221.628 106.217 221.301C106.357 220.111 109.927 191.981 129.927 178.081C135.297 174.351 140.977 171.991 146.477 169.701C160.937 163.701 173.477 158.501 173.957 129.831C173.972 129.266 174.182 128.723 174.551 128.295C174.92 127.867 175.426 127.58 175.983 127.482C176.54 127.384 177.113 127.482 177.606 127.759C178.099 128.036 178.481 128.475 178.687 129.001C178.837 129.391 193.097 168.051 158.497 183.481C127.587 197.261 130.127 226.201 130.157 226.481C130.191 226.8 130.16 227.123 130.069 227.43C129.977 227.738 129.826 228.024 129.623 228.273C129.421 228.522 129.171 228.729 128.889 228.881C128.606 229.033 128.297 229.128 127.977 229.161L127.727 229.211Z" fill="white"/>
<path d="M114.838 247.8C114.379 247.799 113.938 247.626 113.601 247.315C113.264 247.004 113.056 246.578 113.018 246.12C112.908 244.93 110.658 216.58 125.198 196.36C125.339 196.163 125.516 195.996 125.722 195.868C125.927 195.74 126.155 195.653 126.394 195.613C126.633 195.573 126.877 195.581 127.113 195.635C127.348 195.69 127.571 195.79 127.768 195.93C127.965 196.071 128.132 196.249 128.261 196.454C128.389 196.659 128.475 196.888 128.515 197.126C128.555 197.365 128.548 197.609 128.493 197.845C128.439 198.081 128.339 198.303 128.198 198.5C114.468 217.6 116.668 245.5 116.688 245.81C116.713 246.052 116.689 246.296 116.618 246.528C116.547 246.76 116.43 246.976 116.275 247.162C116.119 247.349 115.928 247.502 115.712 247.613C115.496 247.725 115.26 247.792 115.018 247.81L114.838 247.8Z" fill="white"/>
<path d="M131.069 192.75C130.649 192.752 130.242 192.607 129.919 192.34C129.541 192.036 129.3 191.595 129.247 191.113C129.195 190.631 129.335 190.148 129.639 189.77C131.63 187.3 133.883 185.054 136.359 183.07C136.552 182.926 136.771 182.822 137.004 182.763C137.238 182.704 137.481 182.691 137.719 182.726C137.957 182.761 138.186 182.843 138.393 182.966C138.599 183.089 138.78 183.252 138.924 183.445C139.067 183.638 139.172 183.858 139.231 184.091C139.29 184.324 139.302 184.567 139.267 184.805C139.232 185.043 139.151 185.272 139.028 185.479C138.904 185.686 138.742 185.866 138.549 186.01C136.347 187.817 134.337 189.844 132.549 192.06C132.374 192.284 132.149 192.463 131.891 192.583C131.634 192.702 131.352 192.76 131.069 192.75Z" fill="white"/>
<path d="M182.418 311.991C181.955 311.989 181.502 311.857 181.111 311.608C180.72 311.36 180.408 311.006 180.21 310.587C180.012 310.169 179.937 309.702 179.993 309.243C180.05 308.783 180.235 308.349 180.528 307.991C180.738 307.741 201.648 282.781 236.528 296.141C254.408 302.991 266.938 295.211 274.468 287.141C258.188 296.931 246.008 291.901 234.148 287.011C228.888 284.831 223.438 282.581 217.528 281.521C195.708 277.591 174.298 294.181 174.088 294.351C173.573 294.683 172.953 294.81 172.35 294.708C171.746 294.606 171.202 294.281 170.826 293.798C170.45 293.315 170.268 292.709 170.316 292.099C170.365 291.488 170.64 290.918 171.088 290.501C172.028 289.761 194.438 272.401 218.418 276.711C224.848 277.861 230.538 280.211 236.038 282.481C250.518 288.481 263.038 293.631 283.668 273.721C284.078 273.332 284.61 273.097 285.174 273.055C285.738 273.014 286.299 273.169 286.761 273.494C287.224 273.819 287.56 274.294 287.712 274.838C287.865 275.382 287.824 275.963 287.598 276.481C287.428 276.861 270.188 314.291 234.798 300.731C203.188 288.611 184.528 310.881 184.348 311.101C184.115 311.385 183.82 311.614 183.485 311.768C183.151 311.922 182.786 311.998 182.418 311.991Z" fill="white"/>
<path d="M159.727 315.852C159.38 315.851 159.041 315.751 158.748 315.564C158.456 315.377 158.223 315.111 158.076 314.796C157.929 314.482 157.875 314.132 157.919 313.788C157.964 313.443 158.105 313.119 158.327 312.852C159.097 311.932 177.557 290.302 202.127 286.282C202.603 286.198 203.093 286.305 203.49 286.58C203.888 286.855 204.16 287.277 204.247 287.752C204.323 288.232 204.207 288.722 203.924 289.116C203.642 289.511 203.215 289.779 202.737 289.862C179.477 293.662 161.327 314.962 161.147 315.172C160.975 315.383 160.759 315.553 160.513 315.671C160.268 315.788 159.999 315.85 159.727 315.852Z" fill="white"/>
<path d="M219.178 288.381C219.088 288.39 218.998 288.39 218.908 288.381C216.063 288.079 213.193 288.079 210.348 288.381C209.882 288.4 209.425 288.242 209.071 287.938C208.717 287.634 208.491 287.207 208.441 286.743C208.39 286.279 208.517 285.813 208.797 285.439C209.077 285.065 209.488 284.812 209.948 284.731C213.103 284.397 216.284 284.397 219.438 284.731C219.915 284.774 220.356 285.003 220.666 285.368C220.976 285.733 221.13 286.205 221.096 286.683C221.062 287.161 220.843 287.606 220.484 287.923C220.125 288.241 219.656 288.405 219.178 288.381Z" fill="white"/>
<path d="M241.897 460.751C229.627 460.751 214.257 456.441 205.817 437.531C192.037 406.611 163.097 409.161 162.817 409.191C162.187 409.228 161.566 409.021 161.084 408.612C160.603 408.203 160.298 407.624 160.234 406.995C160.169 406.367 160.35 405.738 160.738 405.239C161.126 404.741 161.692 404.412 162.317 404.321C162.647 404.321 195.087 401.431 210.317 435.541C218.107 453.021 232.477 456.411 243.517 455.991C225.087 451.391 220.027 439.221 215.107 427.381C212.917 422.121 210.657 416.681 207.227 411.751C194.597 393.571 167.717 390.131 167.447 390.101C166.826 389.996 166.269 389.657 165.892 389.153C165.514 388.649 165.345 388.019 165.42 387.394C165.495 386.769 165.807 386.196 166.293 385.795C166.778 385.394 167.399 385.196 168.027 385.241C169.217 385.391 197.347 388.951 211.247 408.961C214.977 414.321 217.337 419.961 219.627 425.501C225.627 439.971 230.827 452.501 259.497 452.991C260.062 453.006 260.605 453.215 261.033 453.585C261.461 453.954 261.748 454.46 261.846 455.016C261.944 455.573 261.846 456.146 261.569 456.639C261.292 457.132 260.854 457.514 260.327 457.721C254.386 459.712 248.164 460.735 241.897 460.751Z" fill="white"/>
<path d="M191.898 407.552C191.513 407.554 191.138 407.431 190.828 407.202C171.718 393.472 143.828 395.682 143.518 395.702C143.049 395.716 142.591 395.55 142.24 395.238C141.889 394.925 141.671 394.491 141.63 394.023C141.589 393.555 141.729 393.089 142.02 392.721C142.312 392.352 142.733 392.109 143.198 392.042C144.408 391.942 172.748 389.692 192.968 404.222C193.282 404.449 193.516 404.771 193.637 405.139C193.758 405.508 193.759 405.905 193.64 406.275C193.522 406.644 193.289 406.966 192.976 407.196C192.663 407.425 192.286 407.55 191.898 407.552Z" fill="white"/>
<path d="M204.808 418.311C204.524 418.312 204.242 418.247 203.987 418.12C203.732 417.993 203.51 417.809 203.339 417.581C201.531 415.363 199.504 413.333 197.288 411.521C197.089 411.375 196.92 411.19 196.794 410.978C196.667 410.765 196.586 410.529 196.553 410.283C196.52 410.038 196.538 409.789 196.605 409.55C196.671 409.312 196.786 409.09 196.941 408.897C197.096 408.704 197.288 408.544 197.507 408.428C197.725 408.311 197.965 408.241 198.211 408.22C198.458 408.198 198.706 408.228 198.941 408.305C199.176 408.383 199.393 408.507 199.579 408.671C202.047 410.66 204.293 412.91 206.279 415.381C206.424 415.574 206.529 415.794 206.589 416.027C206.649 416.261 206.663 416.504 206.628 416.743C206.594 416.982 206.513 417.212 206.389 417.419C206.265 417.626 206.102 417.807 205.908 417.951C205.591 418.188 205.205 418.315 204.808 418.311Z" fill="white"/>
<path d="M113.847 566.811C113.502 566.811 113.161 566.736 112.847 566.591C112.477 566.421 75.0571 549.171 88.6071 513.801C100.677 482.301 79.1471 464.101 78.2271 463.341C77.7527 462.922 77.4592 462.335 77.4083 461.703C77.3574 461.072 77.553 460.446 77.954 459.955C78.355 459.465 78.9303 459.149 79.5592 459.074C80.1881 458.999 80.8217 459.17 81.3271 459.551C81.5771 459.761 106.537 480.671 93.1771 515.551C86.3271 533.421 94.1071 545.951 102.177 553.491C92.3871 537.201 97.4171 525.021 102.307 513.171C104.487 507.901 106.727 502.461 107.797 496.541C111.727 474.711 95.137 453.321 94.967 453.101C94.6348 452.587 94.5073 451.967 94.6095 451.363C94.7117 450.76 95.0362 450.216 95.5192 449.84C96.0022 449.463 96.6086 449.282 97.219 449.33C97.8294 449.378 98.3995 449.654 98.8171 450.101C99.5571 451.041 116.927 473.461 112.607 497.431C111.447 503.861 109.107 509.551 106.827 515.051C100.827 529.531 95.687 542.051 115.597 562.681C115.931 563.028 116.155 563.465 116.242 563.938C116.329 564.412 116.275 564.9 116.086 565.343C115.898 565.785 115.583 566.162 115.181 566.427C114.779 566.692 114.308 566.833 113.827 566.831L113.847 566.811Z" fill="white"/>
<path d="M101.248 483.29C100.814 483.286 100.396 483.13 100.067 482.848C99.7376 482.566 99.5184 482.178 99.4477 481.75C95.6477 458.5 74.3477 440.34 74.1277 440.16C73.9439 440.004 73.7925 439.814 73.6822 439.6C73.5718 439.386 73.5048 439.152 73.4848 438.912C73.4649 438.672 73.4924 438.43 73.5658 438.201C73.6392 437.972 73.7571 437.759 73.9127 437.575C74.0683 437.391 74.2586 437.24 74.4727 437.129C74.6869 437.019 74.9206 436.952 75.1607 436.932C75.4007 436.912 75.6424 436.94 75.8718 437.013C76.1012 437.086 76.3139 437.204 76.4977 437.36C77.4177 438.13 99.0477 456.58 103.068 481.16C103.108 481.398 103.1 481.641 103.046 481.876C102.992 482.111 102.892 482.333 102.751 482.529C102.611 482.725 102.433 482.891 102.228 483.019C102.024 483.146 101.796 483.231 101.558 483.27L101.248 483.29Z" fill="white"/>
<path d="M102.778 500.031C102.692 500.041 102.605 500.041 102.518 500.031C102.279 499.998 102.049 499.918 101.841 499.795C101.633 499.672 101.452 499.509 101.308 499.316C101.163 499.122 101.059 498.902 101.001 498.667C100.943 498.433 100.932 498.19 100.968 497.951C101.263 495.105 101.263 492.237 100.968 489.391C100.924 489.142 100.931 488.887 100.989 488.641C101.048 488.396 101.156 488.165 101.307 487.963C101.459 487.76 101.651 487.592 101.87 487.467C102.09 487.342 102.333 487.264 102.584 487.237C102.835 487.21 103.089 487.235 103.33 487.311C103.571 487.386 103.794 487.511 103.985 487.676C104.176 487.842 104.33 488.045 104.439 488.273C104.548 488.501 104.609 488.749 104.618 489.001C104.952 492.152 104.952 495.33 104.618 498.481C104.549 498.917 104.325 499.314 103.987 499.598C103.649 499.883 103.22 500.037 102.778 500.031Z" fill="white"/>
<path d="M-66.103 540.9C-66.5996 540.899 -67.0841 540.747 -67.4928 540.465C-67.9015 540.183 -68.2154 539.784 -68.393 539.32C-68.543 538.93 -82.803 500.32 -48.203 484.85C-17.283 471.06 -19.833 442.12 -19.863 441.85C-19.8965 441.221 -19.6865 440.603 -19.2766 440.125C-18.8667 439.647 -18.2884 439.345 -17.6617 439.282C-17.0351 439.219 -16.4081 439.4 -15.9112 439.786C-15.4142 440.173 -15.0854 440.737 -14.993 441.36C-14.993 441.69 -12.103 474.12 -46.213 489.36C-63.773 497.2 -67.113 511.61 -66.683 522.66C-62.103 504.15 -49.923 499.08 -38.053 494.15C-32.793 491.97 -27.353 489.71 -22.423 486.28C-4.25301 473.6 -0.812988 446.75 -0.752991 446.44C-0.714905 446.122 -0.614479 445.814 -0.457428 445.534C-0.300377 445.254 -0.0897903 445.008 0.162323 444.81C0.414436 444.612 0.70314 444.465 1.01193 444.379C1.32072 444.292 1.64355 444.267 1.96201 444.305C2.28046 444.343 2.58831 444.444 2.86795 444.601C3.14759 444.758 3.39355 444.968 3.5918 445.22C3.79005 445.472 3.93672 445.761 4.02341 446.07C4.11009 446.379 4.1351 446.702 4.09702 447.02C3.95702 448.21 0.387024 476.34 -19.613 490.25C-24.973 493.97 -30.663 496.34 -36.153 498.62C-50.623 504.62 -63.153 509.82 -63.643 538.5C-63.6523 539.064 -63.8566 539.607 -64.2212 540.037C-64.5858 540.468 -65.0883 540.758 -65.643 540.86C-65.7943 540.891 -65.9486 540.904 -66.103 540.9Z" fill="white"/>
</g>
</svg>
