<svg width="52" height="48" viewBox="0 0 52 48" fill="none" xmlns="http://www.w3.org/2000/svg">
<g id="1inch-1inch-logo">
<g clip-path="url(#clip0_163_2303)">
<rect width="51.0018" height="48" rx="8" fill="#171516"/>
<path id="Vector" d="M12.138 26.4461L13.4874 16.3078L1.7832 8.18275L12.4771 11.8051L15.0027 7.9302L24.2246 2.20801L44.5517 13.407L45.6052 30.4942L36.5493 43.0787L29.3911 44.1755L33.0929 37.3998V30.8767L30.4014 25.7823L27.6665 23.9711L23.4597 28.3078V32.8971L20.1765 35.9711L16.0057 36.4762L14.1584 37.5225L11.1278 36.5556L9.86498 32.0096L12.138 28.8129V26.4461Z" fill="white"/>
<path id="Vector_2" d="M30.8267 8.0961C28.597 7.63428 26.1581 7.75695 26.1581 7.75695C26.1581 7.75695 25.3571 11.4587 20.3926 12.4328C20.4287 12.4328 26.9518 14.6625 30.8267 8.0961Z" fill="#94A6C3"/>
<path id="Vector_3" d="M32.846 41.6863C35.5376 39.5793 37.558 36.6785 38.4889 33.3953C38.5322 33.2726 38.9074 33.0561 39.1599 32.8902C39.5785 32.6376 40.0042 32.4284 40.0836 32.0892C40.2495 31.1223 40.3361 30.1121 40.3361 29.1018C40.3361 28.7266 39.9537 28.3442 39.5785 27.9689C39.2826 27.7164 38.9868 27.4205 38.9868 27.2113C38.5682 23.3796 36.8003 19.8006 33.9789 17.1956L33.6831 17.4915C36.4179 20.0603 38.1858 23.5528 38.5682 27.2546C38.6115 27.5937 38.9435 27.9256 39.2826 28.2648C39.5785 28.5174 39.9176 28.8998 39.9176 29.0658C39.9176 30.0327 39.831 30.9996 39.6651 31.9665C39.6218 32.1325 39.2465 32.3057 38.9507 32.4717C38.5322 32.6809 38.1497 32.8902 38.0703 33.2293C37.0601 36.8084 34.7438 39.9256 31.6699 41.9461C32.2183 40.7699 33.9429 36.9383 34.8665 34.9972L34.7005 28.7699L29.3536 23.5961L26.3229 24.0146L22.9964 29.4049C22.9964 29.4049 24.555 31.3821 22.3614 33.6983C20.2183 35.9714 18.5298 36.4765 18.5298 36.4765L16.9711 35.6322C17.4329 35.0405 18.3638 34.1602 19.0782 33.5685C20.2976 32.5582 21.5171 32.4716 21.5171 31.3821C21.5676 29.1018 19.1215 29.7296 19.1215 29.7296L18.2339 30.5739L17.8587 33.6911L16.0114 36.0074L15.8022 35.9641L12.7715 35.2931C12.7715 35.2931 14.626 34.3261 14.9218 33.2293C15.2177 32.1758 14.3301 28.6833 14.2868 28.4741C14.3301 28.5174 15.1744 29.2317 15.5496 30.4079C16.2207 28.5534 17.1082 26.7855 17.3608 26.6196C17.6133 26.4536 21.0192 24.6424 21.0192 24.6424L19.8863 27.6298L20.7306 27.168L22.751 22.2035C22.751 22.2035 24.7282 21.2365 26.2002 21.2365C28.8485 21.1932 32.7667 17.9533 30.9988 12.1445C31.5039 12.3538 40.2568 16.7338 41.7721 25.3207C42.905 31.9232 39.1599 38.1073 32.846 41.6863Z" fill="#94A6C3"/>
<path id="Vector_4" d="M22.8306 9.01965C23.7975 7.87954 23.4223 6.19824 23.4223 6.19824L20.6009 10.369C20.5576 10.369 21.6039 10.4123 22.8306 9.01965Z" fill="#1B314F"/>
<path id="Vector_5" d="M13.3574 31.7936L13.6965 30.1123C13.6965 30.1123 12.3039 32.5513 12.1812 32.8904C12.0513 33.2729 12.2678 33.9439 12.809 33.9006C13.3574 33.8573 14.0285 33.0564 14.0285 32.4719C14.0285 31.7142 13.3574 31.7936 13.3574 31.7936Z" fill="#1B314F"/>
<path id="Vector_6" d="M38.3589 5.022C38.3589 5.022 40.4659 5.10859 42.6523 5.36115C37.7239 1.48622 33.0552 0.353331 29.2669 0.353331C24.0498 0.353331 20.514 2.50366 20.2976 2.62633L21.9428 0.0141852C21.9428 0.0141852 15.3763 -0.620812 13.06 6.32808C12.4683 4.85604 11.9271 2.70571 11.9271 2.70571C11.9271 2.70571 8.51403 5.70029 10.116 10.6648C6.19774 9.23607 0.605433 7.25171 0.388957 7.21563C0.0931061 7.17233 0.0065156 7.30222 0.0065156 7.30222C0.0065156 7.30222 -0.0800749 7.42489 0.172481 7.64136C0.641513 8.00937 9.48096 14.5397 11.422 15.8025C11.0035 17.3179 11.0035 18.0322 11.422 18.7466C12.0137 19.7135 12.0498 20.2186 11.9704 20.933C11.8838 21.6474 11.1262 27.8386 10.9602 28.5963C10.7942 29.3539 9.02636 32.0455 9.10573 32.8464C9.19232 33.6474 10.2819 37.0533 11.2561 37.4357C11.9704 37.6883 13.7383 38.2367 14.9145 38.2367C15.333 38.2367 15.7155 38.1501 15.8814 37.9841C16.5958 37.3563 16.8051 37.2265 17.3102 37.2265C17.3535 37.2265 17.3968 37.2265 17.4329 37.2265C17.6421 37.2265 17.8947 37.2697 18.1905 37.2697C18.8616 37.2697 19.7492 37.1399 20.3769 36.5554C21.3006 35.6317 22.9025 34.369 23.4076 33.7773C24.0426 32.9763 24.3745 31.8867 24.2086 30.7899C24.0787 29.7797 24.6271 28.8921 25.2621 28.0118C26.063 26.9583 27.5351 25.0677 27.5351 25.0677C30.4431 27.2469 32.2543 30.5734 32.2543 34.2752C32.2543 40.8416 26.5321 46.1453 19.4605 46.1453C18.3637 46.1453 17.3174 46.0226 16.2639 45.77C19.5038 46.9029 22.2386 47.2854 24.4756 47.2854C29.2308 47.2854 31.7564 45.5608 31.7564 45.5608C31.7564 45.5608 30.876 46.7009 29.4401 47.9998C29.4834 47.9998 29.4834 47.9998 29.4834 47.9998C37.3559 46.9029 41.1875 40.4231 41.1875 40.4231C41.1875 40.4231 40.8917 42.5301 40.5164 43.9589C50.9867 36.0863 49.2188 26.2367 49.1755 25.9047C49.2621 26.0274 50.3156 27.2902 50.8568 27.9685C52.5453 10.6215 38.3589 5.022 38.3589 5.022ZM22.2386 32.7237C22.0727 32.933 21.3583 33.568 20.8532 34.0298C20.3481 34.4916 19.7997 34.9535 19.3811 35.3792C19.2152 35.5452 18.876 35.6317 18.3709 35.6317C18.205 35.6317 18.0318 35.6317 17.9091 35.6317C17.8225 35.6317 17.7431 35.6317 17.6565 35.6317C17.57 35.6317 17.5267 35.6317 17.4906 35.6317C17.3607 35.6317 17.238 35.6317 17.1081 35.6317C17.7431 34.7875 19.5904 32.8536 20.2254 32.4351C20.9831 31.93 21.3655 31.4249 20.8965 30.5446C20.4347 29.657 19.2152 29.8735 19.2152 29.8735C19.2152 29.8735 19.9295 29.5776 20.5645 29.5776C19.7636 29.3684 18.7534 29.5776 18.2915 30.0394C17.7864 30.5013 17.873 32.1465 17.6638 33.1928C17.4545 34.2896 16.7401 34.838 15.6433 35.8482C15.0516 36.3966 14.6331 36.5626 14.2939 36.5626C13.5796 36.4399 12.7353 36.2234 12.1436 36.0142C11.7251 35.4658 11.0901 33.6546 10.9241 32.8969C11.0468 32.4784 11.5519 31.5909 11.8045 31.0857C12.3096 30.1188 12.6054 29.5704 12.692 29.0653C12.858 28.3509 13.4064 23.9276 13.6157 22.0803C14.1641 22.7947 14.9217 23.9781 14.7485 24.7358C15.968 23.0112 15.0877 21.3227 14.662 20.6516C14.2867 19.9805 13.7816 18.6311 14.2001 17.2024C14.6187 15.7737 16.134 11.8121 16.134 11.8121C16.134 11.8121 16.6391 12.6997 17.3535 12.5265C18.0679 12.3605 23.8333 3.68707 23.8333 3.68707C23.8333 3.68707 25.392 7.09296 23.7467 9.58244C22.0654 12.0647 20.4202 12.5265 20.4202 12.5265C20.4202 12.5265 22.7365 12.945 24.8796 11.3864C25.76 13.4501 26.6042 15.5933 26.6475 15.8891C26.5176 16.185 24.8363 20.2259 24.6704 20.4784C24.5838 20.565 23.9993 20.731 23.5736 20.8176C22.8592 21.0268 22.4407 21.1567 22.2675 21.2794C21.9716 21.5319 20.6223 25.2337 19.9945 27.0449C19.2368 27.2541 18.4792 27.6799 17.9307 28.5169C18.2266 28.3076 19.1502 28.1777 19.8285 28.0984C20.4202 28.0551 22.2242 29.022 22.6932 30.8332C22.6932 30.8765 22.6932 30.8765 22.6932 30.9198C22.787 31.5836 22.5778 32.2186 22.2386 32.7237ZM18.2843 33.2289C18.6668 32.6805 18.6235 31.7568 18.6668 31.461C18.7101 31.1651 18.7894 30.6167 19.1286 30.5373C19.4677 30.4507 20.2687 30.5806 20.2687 31.1651C20.2687 31.7135 19.677 31.8362 19.2585 32.2186C18.9554 32.5073 18.3637 33.1423 18.2843 33.2289ZM35.0757 25.1832C35.4942 23.04 35.5375 21.1856 35.4148 19.6702C37.0528 21.8566 38.063 24.5121 38.3589 27.2469C38.4022 27.586 38.7341 27.918 39.0733 28.2571C39.3691 28.5097 39.7083 28.8488 39.7083 29.0581C39.7083 30.025 39.6217 30.9919 39.4557 31.9661C39.4124 32.0887 39.0372 32.3052 38.7413 32.4712C38.3228 32.6805 37.9404 32.8897 37.861 33.2289C36.9374 36.4688 34.953 39.3335 32.3048 41.3539C36.2158 37.2697 38.1063 30.5301 35.0757 25.1832ZM32.4274 41.7292C35.1623 39.6221 37.2693 36.678 38.1929 33.3515C38.2362 33.2289 38.6114 33.0124 38.864 32.8464C39.2825 32.6372 39.7083 32.3846 39.7876 32.0455C39.9536 31.0785 40.0402 30.0683 40.0402 29.0581C40.0402 28.6829 39.6578 28.3004 39.2825 27.9252C39.0733 27.6726 38.7341 27.3768 38.7341 27.1675C38.395 24.0936 37.1755 21.1928 35.2849 18.7899C34.4407 13.7388 31.0781 12.1801 30.9915 12.1369C31.0781 12.2667 33.2645 15.4201 31.7492 19.1218C30.1905 22.8669 26.1929 22.2824 25.8538 22.3185C25.5146 22.3185 24.2158 23.9998 22.5706 27.117C22.3613 27.0304 21.4737 26.8212 20.4635 26.9943C21.2212 24.8873 22.3613 21.8999 22.5706 21.6474C22.6571 21.5608 23.2849 21.3948 23.7107 21.2722C24.5116 21.0629 24.8869 20.933 25.0167 20.767C25.1033 20.6372 25.5219 19.6702 25.9404 18.66C26.3228 18.66 27.2897 18.5734 27.3691 18.5301C27.4557 18.4435 28.2567 16.387 28.2567 16.1344C28.2567 15.9252 26.6114 11.841 25.9837 10.2824C26.2795 9.94323 26.5754 9.52471 26.864 9.06289C35.4942 9.99374 42.2338 17.3179 42.2338 26.1934C42.2338 33.0124 38.2362 38.951 32.4274 41.7292Z" fill="#1B314F"/>
<path id="Vector_7" d="M21.2285 18.9995C22.0294 18.0759 21.6109 16.3513 20.1317 16.0555C20.5141 15.1751 21.0553 13.4072 21.0553 13.4072C21.0553 13.4072 16.7619 20.1396 16.3866 20.2695C16.0042 20.3994 15.629 18.9202 15.629 18.9202C14.828 21.9941 16.9783 22.4126 17.2309 21.4457C18.4071 21.1426 20.4275 19.8799 21.2285 18.9995Z" fill="#1B314F"/>
<path id="Vector_8" d="M17.5625 20.6376L19.7489 16.8926C19.7489 16.8926 21.0117 17.5276 20.3767 18.5378C19.5829 19.714 17.5625 20.6376 17.5625 20.6376Z" fill="#FFD923"/>
<path id="Vector_9" d="M44.6298 37.9842C43.9948 38.8284 43.2804 39.7088 42.4434 40.553C47.8697 30.1117 42.6959 20.5578 42.4867 20.1826C42.8691 20.5651 43.2443 20.9836 43.5835 21.3588C47.747 25.9842 48.2521 32.9331 44.6298 37.9842Z" fill="#D82122"/>
<path id="Vector_10" d="M49.6818 24.5554C47.7841 19.461 45.0925 15.1242 39.1611 11.2132C33.4389 7.42488 27.291 7.72073 26.9518 7.76403C26.9085 7.76403 26.8652 7.76403 26.8652 7.76403C27.0745 7.67744 27.2838 7.63414 27.493 7.59806C28.7991 7.17954 30.4804 6.84039 32.1689 6.63113C36.6355 5.98892 41.1382 7.50425 44.2122 10.7514C44.2555 10.7947 44.2555 10.7947 44.2988 10.838C47.7913 14.5397 49.6025 19.1651 49.6818 24.5554Z" fill="#D82122"/>
<path id="Vector_11" d="M37.8109 3.71636C31.5403 2.54017 27.4994 3.12466 24.5914 4.22147C24.5048 3.88232 24.2089 3.21125 23.9564 2.66284C23.0833 3.71636 22.1524 4.97913 21.5679 5.7801C19.966 6.87691 19.2949 7.93043 19.2949 7.93043C20.2186 4.76988 22.9173 2.4175 26.2005 1.8258C27.1241 1.65983 28.1344 1.57324 29.2312 1.57324C32.132 1.61654 35.0327 2.33091 37.8109 3.71636Z" fill="#D82122"/>
<path id="Vector_12" d="M14.6203 11.7976C9.69906 11.6316 11.3371 5.90224 11.4236 5.57031C11.4236 5.61361 11.7556 10.073 14.6203 11.7976Z" fill="#D82122"/>
<path id="Vector_13" d="M19.4616 1.48633C15.6732 3.75933 16.4309 9.18567 16.4309 9.18567C12.8085 3.67995 19.1657 1.61621 19.4616 1.48633Z" fill="#D82122"/>
<path id="Vector_14" d="M13.2334 13.3129C13.4859 13.5222 13.7385 13.9046 13.4427 14.453C13.2767 14.7489 13.0241 14.7056 12.6417 14.5396C12.1366 14.2871 9.10591 12.5192 6.37109 10.708C9.48835 11.8048 12.6417 12.981 13.1468 13.2336C13.1468 13.2336 13.1901 13.2769 13.2334 13.3129Z" fill="white"/>
</g>
</g>
<defs>
<clipPath id="clip0_163_2303">
<rect width="51.0018" height="48" rx="8" fill="white"/>
</clipPath>
</defs>
</svg>
