<svg width="24" height="24" viewBox="0 0 24 24" fill="none" xmlns="http://www.w3.org/2000/svg">
<g id="Group 2814">
<circle id="Ellipse 66" cx="12" cy="12" r="12" fill="white"/>
<g id="Group 2813">
<path id="Vector" d="M19.56 12C19.56 16.1753 16.1753 19.56 12 19.56C7.82473 19.56 4.44 16.1753 4.44 12C4.44 7.82473 7.82473 4.44 12 4.44C16.1753 4.44 19.56 7.82473 19.56 12Z" stroke="#E39652" stroke-width="1.38"/>
<path id="Vector_2" d="M15.3149 10.0137C15.1916 8.92789 14.2458 8.57971 13.0586 8.49637L13.0323 6.9874L12.1142 7.00385L12.1396 8.47306C11.8982 8.47686 11.652 8.48626 11.4063 8.49552L11.381 7.01668L10.4628 7.03263L10.4891 8.54109C10.2904 8.54844 10.0949 8.55598 9.90455 8.55893L9.90434 8.55418L8.63757 8.57599L8.65482 9.55679C8.65482 9.55679 9.33306 9.532 9.32202 9.54457C9.69401 9.53831 9.81856 9.75209 9.85721 9.93818L9.8875 11.657C9.913 11.6565 9.94629 11.6572 9.98475 11.6613L9.8876 11.6633L9.92961 14.0713C9.91507 14.1884 9.84957 14.3762 9.58937 14.3814C9.60167 14.3914 8.92204 14.3931 8.92204 14.3931L8.75868 15.4927L9.95417 15.4719C10.1764 15.4684 10.3953 15.4685 10.6097 15.466L10.6369 16.9918L11.5544 16.9755L11.528 15.4665C11.7801 15.4668 12.0239 15.4644 12.262 15.4604L12.2878 16.9632L13.2058 16.9467L13.1794 15.4239C14.7222 15.3084 15.7958 14.9006 15.9047 13.4482C15.9929 12.2791 15.4346 11.7673 14.5544 11.5723C15.0825 11.292 15.4067 10.8085 15.3149 10.0137ZM14.0866 13.2991C14.1077 14.4396 12.1523 14.3437 11.5297 14.3552L11.4951 12.3333C12.1179 12.3229 14.0664 12.1098 14.0866 13.2991ZM13.6099 10.454C13.628 11.4917 11.9973 11.3986 11.4793 11.4077L11.4472 9.57461C11.9652 9.56552 13.5911 9.37169 13.6099 10.454Z" fill="#E39652"/>
</g>
</g>
</svg>
