<svg width="29" height="41" viewBox="0 0 29 41" fill="none" xmlns="http://www.w3.org/2000/svg">
<g id="kyber-network-crystal-v2-knc-logo">
<g clip-path="url(#clip0_163_2321)">
<rect x="0.730469" y="0.756836" width="28.1903" height="40.2162" rx="6.7027" fill="#0C0B0B"/>
<path id="Vector" d="M12.7266 20.8623L27.7214 29.4514C27.8419 29.5238 27.9795 29.5629 28.1201 29.5645C28.2607 29.5661 28.3992 29.5303 28.5214 29.4606C28.6435 29.391 28.7449 29.2901 28.8152 29.1683C28.8854 29.0465 28.9219 28.9082 28.921 28.7676V12.945C28.9228 12.8042 28.8867 12.6655 28.8165 12.5434C28.7462 12.4213 28.6445 12.3203 28.5219 12.2511C28.3992 12.1818 28.2602 12.1467 28.1194 12.1496C27.9786 12.1524 27.8411 12.1931 27.7214 12.2673L12.7266 20.8623Z" fill="#31CB9E"/>
<path id="Vector_2" d="M27.4037 8.46396L17.1532 0.924544C17.0471 0.843062 16.9225 0.788941 16.7906 0.766951C16.6586 0.74496 16.5232 0.755776 16.3964 0.798445C16.2696 0.841114 16.1552 0.914325 16.0633 1.01163C15.9715 1.10893 15.905 1.22733 15.8697 1.3564L12.127 18.1506L27.3137 9.75352C27.4293 9.69407 27.5276 9.60584 27.5991 9.49733C27.6706 9.38882 27.7129 9.26371 27.722 9.13408C27.731 9.00445 27.7065 8.87467 27.6507 8.75729C27.595 8.6399 27.5099 8.53887 27.4037 8.46396Z" fill="#31CB9E"/>
<path id="Vector_3" d="M17.1412 40.7929L27.4037 33.2535C27.5113 33.1779 27.5977 33.0759 27.6546 32.9573C27.7114 32.8387 27.7368 32.7074 27.7284 32.5762C27.72 32.4449 27.678 32.318 27.6064 32.2077C27.5349 32.0973 27.4361 32.0072 27.3197 31.946L12.127 23.5488L15.8697 40.3431C15.9007 40.4736 15.9637 40.5943 16.0529 40.6944C16.1422 40.7945 16.2549 40.8709 16.381 40.9167C16.507 40.9625 16.6425 40.9763 16.7752 40.9567C16.9079 40.9372 17.0337 40.8851 17.1412 40.8049" fill="#31CB9E"/>
<path id="Vector_4" d="M8.82793 20.5497L12.7266 2.31591C12.7564 2.16481 12.7404 2.00827 12.6807 1.86631C12.621 1.72435 12.5202 1.60345 12.3914 1.51906C12.2626 1.43468 12.1115 1.39066 11.9575 1.39264C11.8035 1.39462 11.6536 1.44251 11.527 1.53018L1.54043 9.18955C1.28755 9.38356 1.0829 9.63336 0.942449 9.91947C0.801995 10.2056 0.729531 10.5203 0.730708 10.839V30.2723C0.7258 30.5951 0.79647 30.9145 0.937068 31.2051C1.07767 31.4957 1.28429 31.7493 1.54043 31.9458L11.479 39.5811C11.6056 39.6688 11.7555 39.7167 11.9095 39.7187C12.0635 39.7207 12.2146 39.6766 12.3434 39.5923C12.4723 39.5079 12.573 39.387 12.6327 39.245C12.6924 39.1031 12.7084 38.9465 12.6786 38.7954L8.82793 20.5497Z" fill="#31CB9E"/>
</g>
</g>
<defs>
<clipPath id="clip0_163_2321">
<rect x="0.730469" y="0.756836" width="28.1903" height="40.2162" rx="6.7027" fill="white"/>
</clipPath>
</defs>
</svg>
