<svg width="36" height="42" viewBox="0 0 36 42" fill="none" xmlns="http://www.w3.org/2000/svg">
<g id="uniswap-uni-logo">
<g clip-path="url(#clip0_163_2330)">
<rect x="0.378906" y="0.918945" width="34.9246" height="40.2162" rx="6.7027" fill="#0C0B0B"/>
<path id="Vector" d="M14.0738 10.07C13.6381 10.0077 13.6173 9.98698 13.8248 9.96623C14.2191 9.90397 15.1322 9.98698 15.7755 10.1322C17.2696 10.485 18.6184 11.3981 20.0502 12.9959L20.4238 13.4317L20.9633 13.3487C23.2667 12.9752 25.6324 13.2657 27.6038 14.1788C28.1433 14.4278 28.9941 14.9258 29.0979 15.0503C29.1394 15.0918 29.2016 15.3616 29.2431 15.6314C29.3884 16.6067 29.3261 17.333 29.0149 17.8933C28.8488 18.2045 28.8488 18.2875 28.9526 18.5573C29.0356 18.7648 29.2846 18.9101 29.5129 18.9101C30.0109 18.9101 30.5297 18.1215 30.7787 17.0217L30.8825 16.5859L31.0692 16.7934C32.1276 17.9763 32.9576 19.6156 33.0821 20.7777L33.1236 21.089L32.9369 20.8192C32.6256 20.3419 32.3351 20.0307 31.9408 19.7609C31.2353 19.2836 30.4882 19.1383 28.5168 19.0346C26.7322 18.9308 25.7154 18.7856 24.7193 18.4535C23.0177 17.8933 22.1461 17.167 20.1332 14.49C19.2409 13.3072 18.6807 12.6639 18.1204 12.1244C16.896 10.9415 15.6717 10.319 14.0738 10.07Z" fill="#FF007A"/>
<path id="Vector_2" d="M29.5331 12.7058C29.5746 11.9172 29.6784 11.3984 29.9066 10.9211C29.9896 10.7344 30.0727 10.5684 30.0934 10.5684C30.1142 10.5684 30.0727 10.7136 30.0104 10.8796C29.8444 11.3362 29.8236 11.9795 29.9274 12.7058C30.0727 13.6396 30.1349 13.7641 31.131 14.7809C31.5875 15.2582 32.127 15.86 32.3346 16.109L32.6873 16.5655L32.3346 16.2335C31.8988 15.8185 30.9027 15.0299 30.6744 14.9262C30.5292 14.8431 30.5084 14.8431 30.4047 14.9469C30.3217 15.0299 30.3009 15.1544 30.3009 15.7562C30.2802 16.69 30.1557 17.2711 29.8444 17.8729C29.6784 18.1841 29.6576 18.1219 29.8029 17.7691C29.9066 17.4993 29.9274 17.3748 29.9274 16.4825C29.9274 14.6771 29.7199 14.2414 28.454 13.5151C28.1428 13.3283 27.6032 13.0585 27.292 12.9133C26.9599 12.768 26.7109 12.6435 26.7317 12.6435C26.7732 12.602 27.9975 12.9548 28.4748 13.1623C29.2011 13.4528 29.3256 13.4736 29.4086 13.4528C29.4709 13.3906 29.5124 13.2245 29.5331 12.7058Z" fill="#FF007A"/>
<path id="Vector_3" d="M14.9242 15.7977C14.0527 14.5941 13.4924 12.7265 13.6169 11.3362L13.6584 10.9004L13.8659 10.9419C14.2394 11.0041 14.8827 11.2532 15.194 11.4399C16.024 11.938 16.3976 12.6228 16.7503 14.3244C16.8541 14.8224 16.9994 15.4034 17.0616 15.5902C17.1654 15.9015 17.5596 16.6278 17.8917 17.0843C18.1199 17.4163 17.9747 17.5823 17.4559 17.5408C16.6673 17.4578 15.609 16.7315 14.9242 15.7977Z" fill="#FF007A"/>
<path id="Vector_4" d="M28.4754 24.8243C24.3667 23.1642 22.9141 21.7323 22.9141 19.3044C22.9141 18.9517 22.9348 18.6611 22.9348 18.6611C22.9556 18.6611 23.1008 18.7856 23.2876 18.9309C24.1176 19.5949 25.0515 19.8855 27.6454 20.259C29.1602 20.4873 30.0318 20.6533 30.8203 20.923C33.3313 21.7531 34.8876 23.4547 35.2611 25.7581C35.3649 26.4222 35.3026 27.688 35.1366 28.352C34.9914 28.8708 34.5764 29.8254 34.4726 29.8461C34.4518 29.8461 34.4103 29.7424 34.4103 29.5764C34.3688 28.7048 33.9331 27.8748 33.2068 27.2315C32.3352 26.4844 31.2146 25.9241 28.4754 24.8243Z" fill="#FF007A"/>
<path id="Vector_5" d="M25.5693 25.509C25.5278 25.1977 25.424 24.8035 25.3618 24.6374L25.258 24.3262L25.4448 24.5544C25.7146 24.8657 25.9221 25.2392 26.1088 25.758C26.2541 26.1523 26.2541 26.2768 26.2541 26.9201C26.2541 27.5426 26.2333 27.6879 26.1088 28.0407C25.9013 28.601 25.6523 28.9952 25.2373 29.431C24.4902 30.1988 23.5149 30.6138 22.1246 30.8006C21.8756 30.8214 21.17 30.8836 20.5475 30.9251C18.9911 31.0081 17.9535 31.1741 17.0197 31.5062C16.8952 31.5477 16.7707 31.5892 16.75 31.5684C16.7085 31.5269 17.3517 31.1534 17.8705 30.9044C18.5968 30.5516 19.3439 30.3648 20.9832 30.0743C21.7925 29.9498 22.6226 29.7838 22.8301 29.7008C24.8845 29.0575 25.9013 27.4596 25.5693 25.509Z" fill="#FF007A"/>
<path id="Vector_6" d="M27.4577 28.8505C26.9182 27.6677 26.7936 26.5471 27.0842 25.4888C27.1257 25.385 27.1672 25.2812 27.2087 25.2812C27.2502 25.2812 27.3747 25.3435 27.4992 25.4265C27.7482 25.5925 28.267 25.883 29.5951 26.6093C31.2759 27.5224 32.2305 28.2279 32.8946 29.0373C33.4756 29.7428 33.8284 30.5521 33.9944 31.5482C34.0981 32.1085 34.0359 33.4573 33.8906 34.0176C33.4341 35.7815 32.3965 37.1926 30.8817 38.0019C30.6534 38.1264 30.4666 38.2094 30.4459 38.2094C30.4251 38.2094 30.5081 38.0019 30.6327 37.7528C31.1307 36.6945 31.1929 35.6777 30.8194 34.5364C30.5912 33.8308 30.1139 32.98 29.1593 31.5482C28.018 29.8881 27.7482 29.4523 27.4577 28.8505Z" fill="#FF007A"/>
<path id="Vector_7" d="M11.9983 35.2C13.5339 33.9134 15.4223 33.0004 17.1654 32.7098C17.9124 32.5853 19.1575 32.6268 19.8423 32.8136C20.9421 33.1041 21.9382 33.7267 22.457 34.4945C22.955 35.2415 23.1833 35.8848 23.4116 37.3167C23.4946 37.8769 23.5983 38.458 23.6191 38.5825C23.7851 39.3295 24.1171 39.9106 24.5321 40.2218C25.1754 40.6991 26.296 40.7199 27.3958 40.3049C27.5826 40.2426 27.7486 40.1803 27.7486 40.2011C27.7901 40.2426 27.2298 40.6161 26.8563 40.8029C26.3375 41.0727 25.9225 41.1557 25.3622 41.1557C24.3661 41.1557 23.5153 40.6369 22.8305 39.5993C22.6853 39.3918 22.3947 38.79 22.1457 38.2297C21.4194 36.5489 21.0459 36.0508 20.1951 35.4905C19.448 35.0133 18.4935 34.9095 17.7672 35.2623C16.8126 35.7188 16.5636 36.9431 17.2276 37.6902C17.4974 38.0014 17.9954 38.2505 18.4105 38.3127C19.1783 38.4165 19.8423 37.8147 19.8423 37.0469C19.8423 36.5489 19.6555 36.2583 19.1575 36.0301C18.4935 35.7395 17.7672 36.0716 17.7879 36.7149C17.7879 36.9846 17.9124 37.1506 18.1822 37.2752C18.3482 37.3582 18.3482 37.3582 18.2237 37.3374C17.6219 37.2129 17.4766 36.4658 17.9539 35.9886C18.535 35.4075 19.7593 35.6565 20.1743 36.4658C20.3403 36.7979 20.3611 37.4619 20.2158 37.8769C19.8631 38.79 18.867 39.2673 17.8502 38.9975C17.1654 38.8108 16.8749 38.624 16.0448 37.7732C14.5922 36.2791 14.0319 35.9886 11.9568 35.6773L11.5625 35.615L11.9983 35.2Z" fill="#FF007A"/>
<path id="Vector_8" fill-rule="evenodd" clip-rule="evenodd" d="M1.08342 1.81126C5.9185 7.6839 13.3683 16.8145 13.7418 17.3126C14.0531 17.7276 13.9285 18.1219 13.4098 18.4124C13.1192 18.5784 12.5174 18.7444 12.2269 18.7444C11.8949 18.7444 11.5006 18.5784 11.2309 18.3086C11.0441 18.1219 10.2348 16.939 8.40867 14.0961C7.01832 11.9172 5.83549 10.1118 5.81474 10.0911C5.73174 10.0496 5.73174 10.0496 8.26341 14.5734C9.86127 17.4163 10.3801 18.4331 10.3801 18.5576C10.3801 18.8274 10.297 18.9727 9.96502 19.3462C9.40474 19.9687 9.15572 20.6743 8.96896 22.1476C8.76144 23.787 8.20115 24.9491 6.6033 26.9205C5.66948 28.0825 5.52422 28.29 5.29596 28.7673C5.00544 29.3484 4.92243 29.6804 4.88093 30.4274C4.83943 31.216 4.92243 31.714 5.1507 32.4611C5.35821 33.1251 5.58648 33.5609 6.14677 34.4117C6.62405 35.1588 6.91457 35.719 6.91457 35.9266C6.91457 36.0926 6.95607 36.0926 7.70312 35.9266C9.48774 35.5115 10.9611 34.806 11.7704 33.9344C12.2684 33.3949 12.3929 33.1044 12.3929 32.3573C12.3929 31.88 12.3722 31.7763 12.2477 31.4858C12.0402 31.0292 11.6459 30.6557 10.7951 30.0747C9.6745 29.3069 9.19722 28.6843 9.07271 27.8543C8.96896 27.1487 9.09346 26.6714 9.71601 25.3641C10.3593 24.0153 10.5253 23.455 10.6291 22.0854C10.6913 21.2138 10.7951 20.861 11.0441 20.5913C11.3139 20.3008 11.5421 20.197 12.1854 20.114C13.2437 19.9687 13.9285 19.699 14.4681 19.1802C14.9454 18.7444 15.1529 18.3086 15.1736 17.6653L15.1944 17.188L14.9246 16.8975C13.9493 15.7769 0.44013 0.918945 0.377876 0.918945C0.357125 0.918945 0.689147 1.31322 1.08342 1.81126ZM7.4541 31.3197C7.68237 30.9255 7.55786 30.4274 7.18434 30.1784C6.83156 29.9502 6.29203 30.0539 6.29203 30.3652C6.29203 30.4482 6.33353 30.5312 6.45804 30.5727C6.6448 30.6765 6.66555 30.7802 6.52029 31.0085C6.37503 31.2367 6.37503 31.4443 6.56179 31.5895C6.85231 31.8178 7.24659 31.6933 7.4541 31.3197Z" fill="#FF007A"/>
<path id="Vector_9" fill-rule="evenodd" clip-rule="evenodd" d="M15.8582 20.4042C15.3602 20.5495 14.8829 21.089 14.7376 21.6286C14.6546 21.9606 14.6961 22.5624 14.8414 22.7491C15.0696 23.0397 15.2772 23.1227 15.8582 23.1227C16.9995 23.1227 17.9748 22.6246 18.0786 22.0228C18.1824 21.5248 17.7466 20.84 17.1448 20.5287C16.8335 20.3627 16.1902 20.3005 15.8582 20.4042ZM17.1863 21.4418C17.3523 21.1928 17.29 20.923 16.9788 20.7363C16.4185 20.3835 15.5677 20.674 15.5677 21.2135C15.5677 21.4833 16.0035 21.7738 16.4185 21.7738C16.6883 21.7738 17.0618 21.6078 17.1863 21.4418Z" fill="#FF007A"/>
</g>
</g>
<defs>
<clipPath id="clip0_163_2330">
<rect x="0.378906" y="0.918945" width="34.9246" height="40.2162" rx="6.7027" fill="white"/>
</clipPath>
</defs>
</svg>
