<svg width="24" height="24" viewBox="0 0 24 24" fill="none" xmlns="http://www.w3.org/2000/svg">
<circle cx="12" cy="12" r="12" fill="#3E73C4"/>
<path d="M11.9993 6.5V7.875" stroke="white" stroke-width="1.375" stroke-linecap="round" stroke-linejoin="round"/>
<path d="M17.8336 6.16637C21.0554 9.3882 21.0554 14.6118 17.8336 17.8336C14.6118 21.0554 9.38818 21.0554 6.16637 17.8336C2.94454 14.6118 2.94454 9.38818 6.16637 6.16637C9.3882 2.94454 14.6118 2.94454 17.8336 6.16637" stroke="white" stroke-width="1.375" stroke-linecap="round" stroke-linejoin="round"/>
<path d="M11.9993 17.5V16.125" stroke="white" stroke-width="1.375" stroke-linecap="round" stroke-linejoin="round"/>
<path d="M9.25 14.0671V14.0671C9.25 15.2065 10.1731 16.1296 11.3125 16.1296H12.8186C13.8847 16.1296 14.75 15.2652 14.75 14.1982V14.1982C14.75 13.3127 14.1478 12.5408 13.2888 12.3254L10.7112 11.6792C9.85225 11.4638 9.25 10.6919 9.25 9.80642V9.80642C9.25 8.73942 10.1144 7.875 11.1814 7.875H12.6875C13.8269 7.875 14.75 8.79808 14.75 9.9375V9.9375" stroke="white" stroke-width="1.375" stroke-linecap="round" stroke-linejoin="round"/>
</svg>
