<svg width="29" height="29" viewBox="0 0 29 29" fill="none" xmlns="http://www.w3.org/2000/svg">
<path d="M16.2136 3.95736L24.487 18.2873C25.2486 19.6064 24.2966 21.2553 22.7734 21.2553H6.22659C4.70341 21.2553 3.75142 19.6064 4.51301 18.2873L12.7864 3.95736C13.548 2.63824 15.452 2.63824 16.2136 3.95736Z" stroke="white" stroke-width="0.989339"/>
<path fill-rule="evenodd" clip-rule="evenodd" d="M14.5024 19.8032C17.4561 19.8032 20.019 17.9127 21.295 16.7737C21.8091 16.3148 21.8091 15.548 21.295 15.0891C20.019 13.9501 17.4561 12.0596 14.5024 12.0596C11.5487 12.0596 8.98583 13.9501 7.70981 15.0891C7.19569 15.548 7.19569 16.3148 7.70981 16.7737C8.98583 17.9127 11.5487 19.8032 14.5024 19.8032ZM14.5024 18.6327C15.9943 18.6327 17.2037 17.4233 17.2037 15.9314C17.2037 14.4395 15.9943 13.2301 14.5024 13.2301C13.0105 13.2301 11.8011 14.4395 11.8011 15.9314C11.8011 17.4233 13.0105 18.6327 14.5024 18.6327Z" fill="white"/>
</svg>
