<svg width="796" height="67" viewBox="0 0 796 67" fill="none" xmlns="http://www.w3.org/2000/svg">
<path d="M21.6068 39.2524H9.52426V66H0.300964V1.43695H28.5242C32.8284 1.43695 36.5178 2.26704 39.5922 3.92724C42.7281 5.52594 45.0954 7.77028 46.6941 10.6602C48.3543 13.4887 49.1844 16.7169 49.1844 20.3447C49.1844 25.2023 47.7394 29.3528 44.8495 32.7961C41.9595 36.178 37.9013 38.2379 32.6747 38.9758L54.165 66H42.5436L21.6068 39.2524ZM9.52426 30.8593H27.9708C31.6602 30.8593 34.4886 29.9677 36.4563 28.1845C38.4854 26.3398 39.5 23.7266 39.5 20.3447C39.5 16.9628 38.4854 14.3803 36.4563 12.5971C34.4886 10.7525 31.6602 9.83015 27.9708 9.83015H9.52426V30.8593ZM73.9576 10.1068V29.3835H105.317V38.0534H73.9576V57.3301H108.084V66H64.7343V1.43695H108.084V10.1068H73.9576ZM178.696 1.43695L158.313 66H136.361L115.978 1.43695H125.57L143.002 57.5146H151.764L169.38 1.43695H178.696ZM200.392 10.1068V29.3835H231.752V38.0534H200.392V57.3301H234.519V66H191.169V1.43695H234.519V10.1068H200.392ZM305.088 66H295.864V10.2913H258.971V66H249.748V1.43695H305.088V66ZM378.438 1.43695V66H323.098V1.43695H332.321V57.1456H369.215V1.43695H378.438ZM405.672 10.1068V29.3835H437.031V38.0534H405.672V57.3301H439.798V66H396.449V1.43695H439.798V10.1068H405.672ZM530.684 10.2913H507.625V66H498.402V10.2913H475.344V1.43695H530.684V10.2913ZM566.662 66.9223C560.451 66.9223 554.764 65.4773 549.598 62.5874C544.433 59.6359 540.375 55.6392 537.424 50.5971C534.472 45.4935 532.997 39.8673 532.997 33.7185C532.997 27.5696 534.472 21.9741 537.424 16.9321C540.375 11.8285 544.433 7.83177 549.598 4.9418C554.764 1.99035 560.451 0.514619 566.662 0.514619C572.872 0.514619 578.56 1.99035 583.725 4.9418C588.89 7.83177 592.948 11.8285 595.899 16.9321C598.851 21.9741 600.327 27.5696 600.327 33.7185C600.327 39.8673 598.851 45.4935 595.899 50.5971C592.948 55.6392 588.89 59.6359 583.725 62.5874C578.56 65.4773 572.872 66.9223 566.662 66.9223ZM566.662 58.068C571.089 58.068 575.116 56.9919 578.744 54.8398C582.433 52.6877 585.323 49.767 587.414 46.0777C589.566 42.3269 590.642 38.2071 590.642 33.7185C590.642 29.2298 589.566 25.1408 587.414 21.4515C585.323 17.7007 582.433 14.7492 578.744 12.5971C575.116 10.445 571.089 9.36898 566.662 9.36898C562.234 9.36898 558.176 10.445 554.487 12.5971C550.859 14.7492 547.969 17.7007 545.817 21.4515C543.726 25.1408 542.681 29.2298 542.681 33.7185C542.681 38.2071 543.726 42.3269 545.817 46.0777C547.969 49.767 550.859 52.6877 554.487 54.8398C558.176 56.9919 562.234 58.068 566.662 58.068ZM634.482 38.1457H623.414V66H614.19V1.43695H623.414V29.2913H634.297L657.909 1.43695H668.608L641.86 32.8884L669.161 66H657.54L634.482 38.1457ZM690.819 10.1068V29.3835H722.179V38.0534H690.819V57.3301H724.946V66H681.596V1.43695H724.946V10.1068H690.819ZM795.515 66H786.291V10.2913H749.398V66H740.175V1.43695H795.515V66Z" fill="#EAEAEA"/>
</svg>
