<svg width="804" height="101" viewBox="0 0 804 101" fill="none" xmlns="http://www.w3.org/2000/svg">
<path d="M35.7064 6.93222H21.1916V42H15.3857V6.93222H0.870889V1.35853H35.7064V6.93222ZM77.5023 1.35853V42H71.6964V24.4661H48.4727V42H42.6667V1.35853H48.4727V18.8924H71.6964V1.35853H77.5023ZM94.6456 6.8161V18.9505H114.386V24.408H94.6456V36.5424H116.128V42H88.8397V1.35853H116.128V6.8161H94.6456ZM177.693 1.35853V42H142.857V1.35853H148.663V36.4263H171.887V1.35853H177.693ZM216.318 36.4263V42H189.03V1.35853H194.836V36.4263H216.318ZM246.804 6.93222H232.289V42H226.483V6.93222H211.968V1.35853H246.804V6.93222ZM259.57 1.35853V42H253.764V1.35853H259.57ZM325.483 42H319.677V6.93222H301.098V42H295.292V6.93222H276.714V42H270.908V1.35853H325.483V42ZM363.287 32.7105H341.514L338.611 42H332.747L345.579 1.35853H359.397L372.228 42H366.19L363.287 32.7105ZM361.661 27.3691L355.216 6.69998H349.701L343.198 27.3691H361.661ZM404.167 6.93222H389.652V42H383.846V6.93222H369.332V1.35853H404.167V6.93222ZM416.933 6.8161V18.9505H436.674V24.408H416.933V36.5424H438.415V42H411.127V1.35853H438.415V6.8161H416.933ZM482.911 1.35853C485.621 1.35853 487.943 1.88106 489.878 2.92613C491.853 3.93249 493.343 5.34526 494.349 7.16445C495.394 8.94494 495.917 10.977 495.917 13.2607C495.917 15.5443 495.394 17.5958 494.349 19.415C493.343 21.1954 491.853 22.6082 489.878 23.6533C487.943 24.6596 485.621 25.1628 482.911 25.1628H470.951V42H465.145V1.35853H482.911ZM482.737 19.7633C485.06 19.7633 486.821 19.2214 488.021 18.1377C489.22 17.0152 489.82 15.3895 489.82 13.2607C489.82 11.1318 489.22 9.52553 488.021 8.44176C486.821 7.35799 485.06 6.8161 482.737 6.8161H470.951V19.7633H482.737ZM522.356 42.5806C518.447 42.5806 514.867 41.671 511.615 39.8518C508.364 37.9939 505.809 35.478 503.952 32.3041C502.094 29.0915 501.165 25.5499 501.165 21.6793C501.165 17.8086 502.094 14.2864 503.952 11.1125C505.809 7.89987 508.364 5.38397 511.615 3.56478C514.867 1.70688 518.447 0.777936 522.356 0.777936C526.266 0.777936 529.846 1.70688 533.097 3.56478C536.349 5.38397 538.903 7.89987 540.761 11.1125C542.619 14.2864 543.548 17.8086 543.548 21.6793C543.548 25.5499 542.619 29.0915 540.761 32.3041C538.903 35.478 536.349 37.9939 533.097 39.8518C529.846 41.671 526.266 42.5806 522.356 42.5806ZM522.356 37.0069C525.143 37.0069 527.678 36.3295 529.962 34.9748C532.284 33.6201 534.104 31.7816 535.42 29.4592C536.774 27.0981 537.452 24.5048 537.452 21.6793C537.452 18.8537 536.774 16.2798 535.42 13.9574C534.104 11.5963 532.284 9.73841 529.962 8.3837C527.678 7.02898 525.143 6.35162 522.356 6.35162C519.569 6.35162 517.015 7.02898 514.692 8.3837C512.409 9.73841 510.59 11.5963 509.235 13.9574C507.919 16.2798 507.261 18.8537 507.261 21.6793C507.261 24.5048 507.919 27.0981 509.235 29.4592C510.59 31.7816 512.409 33.6201 514.692 34.9748C517.015 36.3295 519.569 37.0069 522.356 37.0069ZM565.687 25.1628H558.081V42H552.275V1.35853H570.041C572.751 1.35853 575.073 1.88106 577.008 2.92613C578.982 3.93249 580.472 5.34526 581.479 7.16445C582.524 8.94494 583.046 10.977 583.046 13.2607C583.046 16.3185 582.137 18.9311 580.318 21.0987C578.498 23.2275 575.944 24.5242 572.654 24.9886L586.182 42H578.866L565.687 25.1628ZM558.081 19.8794H569.693C572.015 19.8794 573.796 19.3182 575.034 18.1957C576.311 17.0345 576.95 15.3895 576.95 13.2607C576.95 11.1318 576.311 9.50618 575.034 8.3837C573.796 7.22251 572.015 6.64192 569.693 6.64192H558.081V19.8794ZM622.749 6.93222H608.234V42H602.428V6.93222H587.913V1.35853H622.749V6.93222ZM635.515 6.93222V18.9505H655.255V24.408H635.515V42H629.709V1.35853H656.997V6.93222H635.515ZM682.838 42.5806C678.929 42.5806 675.348 41.671 672.097 39.8518C668.846 37.9939 666.291 35.478 664.433 32.3041C662.575 29.0915 661.646 25.5499 661.646 21.6793C661.646 17.8086 662.575 14.2864 664.433 11.1125C666.291 7.89987 668.846 5.38397 672.097 3.56478C675.348 1.70688 678.929 0.777936 682.838 0.777936C686.747 0.777936 690.328 1.70688 693.579 3.56478C696.83 5.38397 699.385 7.89987 701.243 11.1125C703.101 14.2864 704.03 17.8086 704.03 21.6793C704.03 25.5499 703.101 29.0915 701.243 32.3041C699.385 35.478 696.83 37.9939 693.579 39.8518C690.328 41.671 686.747 42.5806 682.838 42.5806ZM682.838 37.0069C685.625 37.0069 688.16 36.3295 690.444 34.9748C692.766 33.6201 694.585 31.7816 695.901 29.4592C697.256 27.0981 697.933 24.5048 697.933 21.6793C697.933 18.8537 697.256 16.2798 695.901 13.9574C694.585 11.5963 692.766 9.73841 690.444 8.3837C688.16 7.02898 685.625 6.35162 682.838 6.35162C680.051 6.35162 677.496 7.02898 675.174 8.3837C672.89 9.73841 671.071 11.5963 669.717 13.9574C668.401 16.2798 667.743 18.8537 667.743 21.6793C667.743 24.5048 668.401 27.0981 669.717 29.4592C671.071 31.7816 672.89 33.6201 675.174 34.9748C677.496 36.3295 680.051 37.0069 682.838 37.0069ZM740.044 36.4263V42H712.757V1.35853H718.563V36.4263H740.044ZM752.829 1.35853V42H747.023V1.35853H752.829ZM782.745 42.5806C778.836 42.5806 775.256 41.671 772.004 39.8518C768.753 37.9939 766.198 35.478 764.34 32.3041C762.483 29.0915 761.554 25.5499 761.554 21.6793C761.554 17.8086 762.483 14.2864 764.34 11.1125C766.198 7.89987 768.753 5.38397 772.004 3.56478C775.256 1.70688 778.836 0.777936 782.745 0.777936C786.655 0.777936 790.235 1.70688 793.486 3.56478C796.737 5.38397 799.292 7.89987 801.15 11.1125C803.008 14.2864 803.937 17.8086 803.937 21.6793C803.937 25.5499 803.008 29.0915 801.15 32.3041C799.292 35.478 796.737 37.9939 793.486 39.8518C790.235 41.671 786.655 42.5806 782.745 42.5806ZM782.745 37.0069C785.532 37.0069 788.067 36.3295 790.351 34.9748C792.673 33.6201 794.493 31.7816 795.809 29.4592C797.163 27.0981 797.841 24.5048 797.841 21.6793C797.841 18.8537 797.163 16.2798 795.809 13.9574C794.493 11.5963 792.673 9.73841 790.351 8.3837C788.067 7.02898 785.532 6.35162 782.745 6.35162C779.958 6.35162 777.404 7.02898 775.081 8.3837C772.798 9.73841 770.979 11.5963 769.624 13.9574C768.308 16.2798 767.65 18.8537 767.65 21.6793C767.65 24.5048 768.308 27.0981 769.624 29.4592C770.979 31.7816 772.798 33.6201 775.081 34.9748C777.404 36.3295 779.958 37.0069 782.745 37.0069ZM59.801 100H53.9951V64.9322H35.4161V100H29.6102V64.9322H11.0313V100H5.22533V59.3585H59.801V100ZM97.6044 90.7105H75.8322L72.9292 100H67.0652L79.8963 59.3585H93.7144L106.546 100H100.507L97.6044 90.7105ZM95.9787 85.3691L89.5342 64.7H84.0185L77.5159 85.3691H95.9787ZM148.623 100H142.817V64.9322H119.593V100H113.787V59.3585H148.623V100ZM186.435 90.7105H164.663L161.76 100H155.896L168.727 59.3585H182.545L195.376 100H189.338L186.435 90.7105ZM184.809 85.3691L178.365 64.7H172.849L166.347 85.3691H184.809ZM238.599 79.0987V100H233.373V93.149C231.786 95.4327 229.735 97.2519 227.219 98.6066C224.742 99.9226 221.916 100.581 218.742 100.581C214.949 100.581 211.485 99.671 208.35 97.8518C205.214 95.9939 202.737 93.478 200.918 90.3041C199.138 87.0915 198.247 83.5499 198.247 79.6793C198.247 75.8086 199.157 72.2864 200.976 69.1125C202.834 65.8999 205.35 63.384 208.524 61.5648C211.698 59.7069 215.22 58.7779 219.091 58.7779C223.155 58.7779 226.813 59.8811 230.064 62.0873C233.354 64.2936 235.715 67.2546 237.147 70.9704H230.528C229.328 68.919 227.741 67.3126 225.767 66.1515C223.793 64.9516 221.568 64.3516 219.091 64.3516C216.343 64.3516 213.846 65.029 211.601 66.3837C209.356 67.7384 207.576 69.5963 206.26 71.9574C204.982 74.2798 204.344 76.8537 204.344 79.6793C204.344 82.5048 204.982 85.0981 206.26 87.4592C207.537 89.7816 209.279 91.6201 211.485 92.9748C213.691 94.3295 216.13 95.0069 218.8 95.0069C222.4 95.0069 225.4 94.0005 227.8 91.9878C230.238 89.9364 231.844 87.4011 232.618 84.3821H218.162V79.0987H238.599ZM254.54 64.8161V76.9505H274.28V82.408H254.54V94.5424H276.022V100H248.734V59.3585H276.022V64.8161H254.54ZM299.02 83.1628H291.414V100H285.608V59.3585H303.375C306.084 59.3585 308.406 59.8811 310.342 60.9261C312.316 61.9325 313.806 63.3453 314.812 65.1645C315.857 66.9449 316.38 68.977 316.38 71.2607C316.38 74.3185 315.47 76.9311 313.651 79.0987C311.832 81.2275 309.277 82.5242 305.987 82.9886L319.515 100H312.2L299.02 83.1628ZM291.414 77.8794H303.026C305.349 77.8794 307.129 77.3182 308.368 76.1957C309.645 75.0345 310.284 73.3895 310.284 71.2607C310.284 69.1318 309.645 67.5062 308.368 66.3837C307.129 65.2225 305.349 64.6419 303.026 64.6419H291.414V77.8794ZM349.117 64.9322V76.9505H368.858V82.408H349.117V100H343.312V59.3585H370.599V64.9322H349.117ZM396.44 100.581C392.531 100.581 388.951 99.671 385.699 97.8518C382.448 95.9939 379.893 93.478 378.036 90.3041C376.178 87.0915 375.249 83.5499 375.249 79.6793C375.249 75.8086 376.178 72.2864 378.036 69.1125C379.893 65.8999 382.448 63.384 385.699 61.5648C388.951 59.7069 392.531 58.7779 396.44 58.7779C400.35 58.7779 403.93 59.7069 407.181 61.5648C410.433 63.384 412.987 65.8999 414.845 69.1125C416.703 72.2864 417.632 75.8086 417.632 79.6793C417.632 83.5499 416.703 87.0915 414.845 90.3041C412.987 93.478 410.433 95.9939 407.181 97.8518C403.93 99.671 400.35 100.581 396.44 100.581ZM396.44 95.0069C399.227 95.0069 401.762 94.3295 404.046 92.9748C406.368 91.6201 408.188 89.7816 409.504 87.4592C410.858 85.0981 411.536 82.5048 411.536 79.6793C411.536 76.8537 410.858 74.2798 409.504 71.9574C408.188 69.5963 406.368 67.7384 404.046 66.3837C401.762 65.029 399.227 64.3516 396.44 64.3516C393.653 64.3516 391.099 65.029 388.776 66.3837C386.493 67.7384 384.674 69.5963 383.319 71.9574C382.003 74.2798 381.345 76.8537 381.345 79.6793C381.345 82.5048 382.003 85.0981 383.319 87.4592C384.674 89.7816 386.493 91.6201 388.776 92.9748C391.099 94.3295 393.653 95.0069 396.44 95.0069ZM439.771 83.1628H432.165V100H426.359V59.3585H444.125C446.834 59.3585 449.157 59.8811 451.092 60.9261C453.066 61.9325 454.556 63.3453 455.563 65.1645C456.608 66.9449 457.13 68.977 457.13 71.2607C457.13 74.3185 456.221 76.9311 454.402 79.0987C452.582 81.2275 450.028 82.5242 446.738 82.9886L460.266 100H452.95L439.771 83.1628ZM432.165 77.8794H443.777C446.099 77.8794 447.88 77.3182 449.118 76.1957C450.395 75.0345 451.034 73.3895 451.034 71.2607C451.034 69.1318 450.395 67.5062 449.118 66.3837C447.88 65.2225 446.099 64.6419 443.777 64.6419H432.165V77.8794ZM510.537 90.7105H488.765L485.862 100H479.998L492.829 59.3585H506.647L519.478 100H513.44L510.537 90.7105ZM508.911 85.3691L502.467 64.7H496.951L490.449 85.3691H508.911ZM554.008 94.4263V100H526.72V59.3585H532.526V94.4263H554.008ZM588.274 94.4263V100H560.986V59.3585H566.792V94.4263H588.274Z" fill="#EAEAEA"/>
</svg>
