<svg width="1381" height="86" viewBox="0 0 1381 86" fill="none" xmlns="http://www.w3.org/2000/svg">
<path d="M36.728 1.39999C42.2347 1.39999 46.9547 2.46199 50.888 4.586C54.9 6.63133 57.9287 9.50266 59.974 13.2C62.098 16.8187 63.16 20.9487 63.16 25.59C63.16 30.2313 62.098 34.4007 59.974 38.098C57.9287 41.7167 54.9 44.588 50.888 46.712C46.9547 48.7573 42.2347 49.78 36.728 49.78H12.42V84H0.62V1.39999H36.728ZM36.374 38.806C41.094 38.806 44.6733 37.7047 47.112 35.502C49.5507 33.2207 50.77 29.9167 50.77 25.59C50.77 21.2633 49.5507 17.9987 47.112 15.796C44.6733 13.5933 41.094 12.492 36.374 12.492H12.42V38.806H36.374ZM116.896 85.18C108.951 85.18 101.674 83.3313 95.0661 79.634C88.4581 75.858 83.2661 70.7447 79.4901 64.294C75.7141 57.7647 73.8261 50.5667 73.8261 42.7C73.8261 34.8333 75.7141 27.6747 79.4901 21.224C83.2661 14.6947 88.4581 9.58133 95.0661 5.88399C101.674 2.10799 108.951 0.219995 116.896 0.219995C124.841 0.219995 132.118 2.10799 138.726 5.88399C145.334 9.58133 150.526 14.6947 154.302 21.224C158.078 27.6747 159.966 34.8333 159.966 42.7C159.966 50.5667 158.078 57.7647 154.302 64.294C150.526 70.7447 145.334 75.858 138.726 79.634C132.118 83.3313 124.841 85.18 116.896 85.18ZM116.896 73.852C122.56 73.852 127.713 72.4753 132.354 69.722C137.074 66.9687 140.771 63.232 143.446 58.512C146.199 53.7133 147.576 48.4427 147.576 42.7C147.576 36.9573 146.199 31.726 143.446 27.006C140.771 22.2073 137.074 18.4313 132.354 15.678C127.713 12.9247 122.56 11.548 116.896 11.548C111.232 11.548 106.04 12.9247 101.32 15.678C96.6788 18.4313 92.9814 22.2073 90.2281 27.006C87.5534 31.726 86.2161 36.9573 86.2161 42.7C86.2161 48.4427 87.5534 53.7133 90.2281 58.512C92.9814 63.232 96.6788 66.9687 101.32 69.722C106.04 72.4753 111.232 73.852 116.896 73.852ZM204.961 49.78H189.503V84H177.703V1.39999H213.811C219.318 1.39999 224.038 2.46199 227.971 4.586C231.983 6.63133 235.012 9.50266 237.057 13.2C239.181 16.8187 240.243 20.9487 240.243 25.59C240.243 31.8047 238.394 37.1147 234.697 41.52C231 45.8467 225.808 48.482 219.121 49.426L246.615 84H231.747L204.961 49.78ZM189.503 39.042H213.103C217.823 39.042 221.442 37.9013 223.959 35.62C226.555 33.26 227.853 29.9167 227.853 25.59C227.853 21.2633 226.555 17.9593 223.959 15.678C221.442 13.318 217.823 12.138 213.103 12.138H189.503V39.042ZM320.935 12.728H291.435V84H279.635V12.728H250.135V1.39999H320.935V12.728ZM346.881 12.728V37.154H387.001V48.246H346.881V84H335.081V1.39999H390.541V12.728H346.881ZM443.06 85.18C435.115 85.18 427.838 83.3313 421.23 79.634C414.622 75.858 409.43 70.7447 405.654 64.294C401.878 57.7647 399.99 50.5667 399.99 42.7C399.99 34.8333 401.878 27.6747 405.654 21.224C409.43 14.6947 414.622 9.58133 421.23 5.88399C427.838 2.10799 435.115 0.219995 443.06 0.219995C451.005 0.219995 458.282 2.10799 464.89 5.88399C471.498 9.58133 476.69 14.6947 480.466 21.224C484.242 27.6747 486.13 34.8333 486.13 42.7C486.13 50.5667 484.242 57.7647 480.466 64.294C476.69 70.7447 471.498 75.858 464.89 79.634C458.282 83.3313 451.005 85.18 443.06 85.18ZM443.06 73.852C448.724 73.852 453.877 72.4753 458.518 69.722C463.238 66.9687 466.935 63.232 469.61 58.512C472.363 53.7133 473.74 48.4427 473.74 42.7C473.74 36.9573 472.363 31.726 469.61 27.006C466.935 22.2073 463.238 18.4313 458.518 15.678C453.877 12.9247 448.724 11.548 443.06 11.548C437.396 11.548 432.204 12.9247 427.484 15.678C422.843 18.4313 419.145 22.2073 416.392 27.006C413.717 31.726 412.38 36.9573 412.38 42.7C412.38 48.4427 413.717 53.7133 416.392 58.512C419.145 63.232 422.843 66.9687 427.484 69.722C432.204 72.4753 437.396 73.852 443.06 73.852ZM559.327 72.672V84H503.867V1.39999H515.667V72.672H559.327ZM585.31 1.39999V84H573.51V1.39999H585.31ZM646.112 85.18C638.167 85.18 630.89 83.3313 624.282 79.634C617.674 75.858 612.482 70.7447 608.706 64.294C604.93 57.7647 603.042 50.5667 603.042 42.7C603.042 34.8333 604.93 27.6747 608.706 21.224C612.482 14.6947 617.674 9.58133 624.282 5.88399C630.89 2.10799 638.167 0.219995 646.112 0.219995C654.058 0.219995 661.334 2.10799 667.942 5.88399C674.55 9.58133 679.742 14.6947 683.518 21.224C687.294 27.6747 689.182 34.8333 689.182 42.7C689.182 50.5667 687.294 57.7647 683.518 64.294C679.742 70.7447 674.55 75.858 667.942 79.634C661.334 83.3313 654.058 85.18 646.112 85.18ZM646.112 73.852C651.776 73.852 656.929 72.4753 661.57 69.722C666.29 66.9687 669.988 63.232 672.662 58.512C675.416 53.7133 676.792 48.4427 676.792 42.7C676.792 36.9573 675.416 31.726 672.662 27.006C669.988 22.2073 666.29 18.4313 661.57 15.678C656.929 12.9247 651.776 11.548 646.112 11.548C640.448 11.548 635.256 12.9247 630.536 15.678C625.895 18.4313 622.198 22.2073 619.444 27.006C616.77 31.726 615.432 36.9573 615.432 42.7C615.432 48.4427 616.77 53.7133 619.444 58.512C622.198 63.232 625.895 66.9687 630.536 69.722C635.256 72.4753 640.448 73.852 646.112 73.852ZM852.681 84H840.881V12.728H803.121V84H791.321V12.728H753.561V84H741.761V1.39999H852.681V84ZM929.513 65.12H885.263L879.363 84H867.445L893.523 1.39999H921.607L947.685 84H935.413L929.513 65.12ZM926.209 54.264L913.111 12.256H901.901L888.685 54.264H926.209ZM1033.2 84H1021.4V12.728H974.203V84H962.403V1.39999H1033.2V84ZM1110.05 65.12H1065.8L1059.9 84H1047.99L1074.06 1.39999H1102.15L1128.23 84H1115.95L1110.05 65.12ZM1106.75 54.264L1093.65 12.256H1082.44L1069.23 54.264H1106.75ZM1216.07 41.52V84H1205.45V70.076C1202.23 74.7173 1198.06 78.4147 1192.94 81.168C1187.91 83.8427 1182.17 85.18 1175.71 85.18C1168.01 85.18 1160.96 83.3313 1154.59 79.634C1148.22 75.858 1143.19 70.7447 1139.49 64.294C1135.87 57.7647 1134.06 50.5667 1134.06 42.7C1134.06 34.8333 1135.91 27.6747 1139.61 21.224C1143.38 14.6947 1148.5 9.58133 1154.95 5.88399C1161.4 2.10799 1168.56 0.219995 1176.42 0.219995C1184.68 0.219995 1192.12 2.46199 1198.72 6.94599C1205.41 11.43 1210.21 17.448 1213.12 25H1199.67C1197.23 20.8307 1194 17.566 1189.99 15.206C1185.98 12.7673 1181.46 11.548 1176.42 11.548C1170.84 11.548 1165.76 12.9247 1161.2 15.678C1156.64 18.4313 1153.02 22.2073 1150.34 27.006C1147.75 31.726 1146.45 36.9573 1146.45 42.7C1146.45 48.4427 1147.75 53.7133 1150.34 58.512C1152.94 63.232 1156.48 66.9687 1160.96 69.722C1165.45 72.4753 1170.4 73.852 1175.83 73.852C1183.15 73.852 1189.25 71.8067 1194.12 67.716C1199.08 63.5467 1202.34 58.394 1203.92 52.258H1174.53V41.52H1216.07ZM1248.47 12.492V37.154H1288.59V48.246H1248.47V72.908H1292.13V84H1236.67V1.39999H1292.13V12.492H1248.47ZM1338.87 49.78H1323.41V84H1311.61V1.39999H1347.72C1353.23 1.39999 1357.95 2.46199 1361.88 4.586C1365.89 6.63133 1368.92 9.50266 1370.97 13.2C1373.09 16.8187 1374.15 20.9487 1374.15 25.59C1374.15 31.8047 1372.31 37.1147 1368.61 41.52C1364.91 45.8467 1359.72 48.482 1353.03 49.426L1380.53 84H1365.66L1338.87 49.78ZM1323.41 39.042H1347.01C1351.73 39.042 1355.35 37.9013 1357.87 35.62C1360.47 33.26 1361.76 29.9167 1361.76 25.59C1361.76 21.2633 1360.47 17.9593 1357.87 15.678C1355.35 13.318 1351.73 12.138 1347.01 12.138H1323.41V39.042Z" fill="#EAEAEA"/>
</svg>
