<svg width="795" height="86" viewBox="0 0 795 86" fill="none" xmlns="http://www.w3.org/2000/svg">
<path d="M71.5037 1.31504V84H59.6916V48.3273H12.4431V84H0.630923V1.31504H12.4431V36.9877H59.6916V1.31504H71.5037ZM132.369 85.1812C124.415 85.1812 117.131 83.3306 110.516 79.6295C103.901 75.8496 98.704 70.731 94.9241 64.2737C91.1442 57.7377 89.2542 50.5323 89.2542 42.6575C89.2542 34.7828 91.1442 27.6167 94.9241 21.1594C98.704 14.6234 103.901 9.50479 110.516 5.80365C117.131 2.02377 124.415 0.133829 132.369 0.133829C140.322 0.133829 147.606 2.02377 154.221 5.80365C160.836 9.50479 166.033 14.6234 169.813 21.1594C173.593 27.6167 175.483 34.7828 175.483 42.6575C175.483 50.5323 173.593 57.7377 169.813 64.2737C166.033 70.731 160.836 75.8496 154.221 79.6295C147.606 83.3306 140.322 85.1812 132.369 85.1812ZM132.369 73.8416C138.038 73.8416 143.196 72.4635 147.842 69.7073C152.567 66.9511 156.268 63.2106 158.946 58.4858C161.702 53.6822 163.08 48.4061 163.08 42.6575C163.08 36.9089 161.702 31.6722 158.946 26.9474C156.268 22.1438 152.567 18.3639 147.842 15.6077C143.196 12.8516 138.038 11.4735 132.369 11.4735C126.699 11.4735 121.501 12.8516 116.777 15.6077C112.13 18.3639 108.429 22.1438 105.673 26.9474C102.996 31.6722 101.657 36.9089 101.657 42.6575C101.657 48.4061 102.996 53.6822 105.673 58.4858C108.429 63.2106 112.13 66.9511 116.777 69.7073C121.501 72.4635 126.699 73.8416 132.369 73.8416ZM304.272 1.31504V84H193.238V1.31504H205.05V72.6603H242.849V1.31504H254.661V72.6603H292.46V1.31504H304.272ZM424.211 12.6547H394.681V84H382.869V12.6547H353.339V1.31504H424.211V12.6547ZM470.288 85.1812C462.334 85.1812 455.05 83.3306 448.435 79.6295C441.821 75.8496 436.623 70.731 432.843 64.2737C429.064 57.7377 427.174 50.5323 427.174 42.6575C427.174 34.7828 429.064 27.6167 432.843 21.1594C436.623 14.6234 441.821 9.50479 448.435 5.80365C455.05 2.02377 462.334 0.133829 470.288 0.133829C478.241 0.133829 485.526 2.02377 492.14 5.80365C498.755 9.50479 503.953 14.6234 507.732 21.1594C511.512 27.6167 513.402 34.7828 513.402 42.6575C513.402 50.5323 511.512 57.7377 507.732 64.2737C503.953 70.731 498.755 75.8496 492.14 79.6295C485.526 83.3306 478.241 85.1812 470.288 85.1812ZM470.288 73.8416C475.958 73.8416 481.116 72.4635 485.762 69.7073C490.487 66.9511 494.188 63.2106 496.865 58.4858C499.621 53.6822 500.999 48.4061 500.999 42.6575C500.999 36.9089 499.621 31.6722 496.865 26.9474C494.188 22.1438 490.487 18.3639 485.762 15.6077C481.116 12.8516 475.958 11.4735 470.288 11.4735C464.618 11.4735 459.421 12.8516 454.696 15.6077C450.05 18.3639 446.349 22.1438 443.592 26.9474C440.915 31.6722 439.576 36.9089 439.576 42.6575C439.576 48.4061 440.915 53.6822 443.592 58.4858C446.349 63.2106 450.05 66.9511 454.696 69.7073C459.421 72.4635 464.618 73.8416 470.288 73.8416ZM636.908 1.31504V84H566.035V1.31504H577.848V72.6603H625.096V1.31504H636.908ZM688.914 85.1812C679.307 85.1812 671.196 82.8188 664.581 78.0939C658.045 73.2903 654.068 66.6362 652.651 58.1314H664.463C666.432 63.565 669.385 67.5418 673.322 70.0617C677.338 72.5816 682.654 73.8416 689.268 73.8416C695.647 73.8416 700.805 72.6997 704.742 70.416C708.68 68.0536 710.648 65.0218 710.648 61.3207C710.648 58.092 709.191 55.4934 706.278 53.5247C703.364 51.4773 698.561 49.7842 691.867 48.4455L682.89 46.7918C673.519 45.1381 666.51 42.3032 661.864 38.287C657.218 34.1922 654.895 29.1523 654.895 23.1675C654.895 18.6001 656.273 14.584 659.029 11.1191C661.785 7.65422 665.644 4.97681 670.605 3.08686C675.566 1.11817 681.275 0.133829 687.733 0.133829C696.159 0.133829 703.482 2.22064 709.703 6.39427C715.924 10.4891 720.019 16.2771 721.988 23.7581H709.585C708.01 19.742 705.175 16.7102 701.08 14.6628C697.064 12.5366 692.418 11.4735 687.142 11.4735C680.921 11.4735 675.999 12.5759 672.377 14.7809C668.833 16.9071 667.062 19.8601 667.062 23.64C667.062 26.7111 668.479 29.1917 671.314 31.0816C674.228 32.9716 678.795 34.4678 685.016 35.5702L693.993 37.1058C703.915 38.7595 711.2 41.5944 715.846 45.6106C720.492 49.6267 722.815 54.7846 722.815 61.0845C722.815 65.8093 721.358 69.9829 718.444 73.6053C715.609 77.2277 711.633 80.0626 706.514 82.1101C701.395 84.1575 695.529 85.1812 688.914 85.1812ZM750.614 12.4185V37.1058H790.775V48.2092H750.614V72.8966H794.319V84H738.802V1.31504H794.319V12.4185H750.614Z" fill="#EAEAEA"/>
</svg>
